<?xml version="1.0" encoding="UTF-8"?>
<svg width="235px" height="245px" viewBox="0 0 235 245" version="1.1" xmlns="http://www.w3.org/2000/svg" xmlns:xlink="http://www.w3.org/1999/xlink">
    <title>bg-section-5</title>
    <defs>
        <rect id="path-1" x="0" y="0" width="235" height="245"></rect>
    </defs>
    <g id="website" stroke="none" stroke-width="1" fill="none" fill-rule="evenodd">
        <g id="8a.-testimoni" transform="translate(-1131.000000, -3595.000000)">
            <g id="bg-section-5" transform="translate(1131.000000, 3595.000000)">
                <mask id="mask-2" fill="white">
                    <use xlink:href="#path-1"></use>
                </mask>
                <g id="Mask"></g>
                <g id="Group-23" mask="url(#mask-2)" fill="#29BB89" opacity="0.900000036">
                    <g transform="translate(0.000000, -0.000000)" id="Rectangle-4">
                        <path d="M286.767088,139.159225 L376.009676,316.703012 C390.643756,345.816804 378.905631,381.281462 349.791839,395.915543 C341.57033,400.048094 332.496187,402.20036 323.294492,402.20036 L145.750705,402.20036 C113.165905,402.20036 86.7507047,375.78516 86.7507047,343.20036 C86.7507047,334.083218 88.8636116,325.090116 92.9235986,316.926859 L181.224798,139.383071 C195.735252,110.207466 231.1498,98.3190124 260.325406,112.829466 C271.755699,118.51431 281.033811,127.753149 286.767088,139.159225 Z" transform="translate(234.648310, 234.648318) rotate(323.000000) translate(-234.648310, -234.648318) "></path>
                    </g>
                </g>
            </g>
        </g>
    </g>
</svg>