<?xml version="1.0" encoding="UTF-8"?>
<svg width="234px" height="511px" viewBox="0 0 234 511" version="1.1" xmlns="http://www.w3.org/2000/svg" xmlns:xlink="http://www.w3.org/1999/xlink">
    <title>bg-section-3-4</title>
    <defs>
        <rect id="path-1" x="0" y="0" width="234" height="511"></rect>
    </defs>
    <g id="website" stroke="none" stroke-width="1" fill="none" fill-rule="evenodd">
        <g id="8a.-testimoni" transform="translate(-1132.000000, -2048.000000)">
            <g id="bg-section-3-4" transform="translate(1132.000000, 2048.000000)">
                <mask id="mask-2" fill="white">
                    <use xlink:href="#path-1"></use>
                </mask>
                <g id="Mask"></g>
                <g id="Group-25" mask="url(#mask-2)" opacity="0.900000036">
                    <g transform="translate(0.000000, 0.000000)" id="Rectangle-4">
                        <path d="M197.65911,14.5394655 L241.019256,1.28293866 C256.432819,-3.42946055 272.748135,5.24554697 277.460535,20.6591103 L290.717061,64.0192558 C295.429461,79.4328191 286.754453,95.7481353 271.34089,100.460535 L227.980744,113.717061 C212.567181,118.429461 196.251865,109.754453 191.539465,94.3408897 L178.282939,50.9807442 C173.570539,35.5671809 182.245547,19.2518647 197.65911,14.5394655 Z" fill="#DDFFEB"></path>
                        <path d="M286.15581,181.547948 L375.398397,359.091735 C390.032478,388.205527 378.294353,423.670185 349.180561,438.304266 C340.959051,442.436817 331.884909,444.589082 322.683214,444.589082 L145.139426,444.589082 C112.554626,444.589082 86.1394264,418.173883 86.1394264,385.589082 C86.1394264,376.471941 88.2523333,367.478839 92.3123202,359.315581 L180.61352,181.771794 C195.123974,152.596189 230.538522,140.707735 259.714127,155.218189 C271.144421,160.903032 280.422532,170.141871 286.15581,181.547948 Z" fill="#29BB89" transform="translate(234.037031, 277.037041) rotate(576.000000) translate(-234.037031, -277.037041) "></path>
                    </g>
                </g>
            </g>
        </g>
    </g>
</svg>