<?xml version="1.0" encoding="UTF-8"?>
<svg width="10px" height="10px" viewBox="0 0 10 10" version="1.1" xmlns="http://www.w3.org/2000/svg" xmlns:xlink="http://www.w3.org/1999/xlink">
    <title>checklist-icon</title>
    <g id="website" stroke="none" stroke-width="1" fill="none" fill-rule="evenodd">
        <g id="1a.-beranda" transform="translate(-230.000000, -4204.000000)" fill="#25A318">
            <g id="Group-24" transform="translate(183.000000, 3982.000000)">
                <g id="Group-27" transform="translate(0.000000, 111.000000)">
                    <g id="Group-2" transform="translate(47.000000, 100.000000)">
                        <path d="M2.95673077,15.0384615 L4.49519231,16.5769231 L8.79807692,12.2980769 L9.49519231,12.9951923 L4.49519231,17.9951923 L2.25961538,15.7596154 L2.95673077,15.0384615 Z M8.99038462,16 L10,16 C10,17.378212 9.51122284,18.5560849 8.53365385,19.5336538 C7.55608486,20.5112228 6.37821202,21 5,21 C3.62178798,21 2.44391514,20.5112228 1.46634615,19.5336538 C0.488777163,18.5560849 0,17.378212 0,16 C0,14.621788 0.488777163,13.4439151 1.46634615,12.4663462 C2.44391514,11.4887772 3.62178798,11 5,11 C5.64102885,11 6.2660226,11.1282038 6.875,11.3846154 L6.10576923,12.1538462 C5.75320337,12.0576918 5.38461731,12.0096154 5,12.0096154 C3.89422524,12.0096154 2.95272825,12.3982333 2.17548077,13.1754808 C1.39823329,13.9527282 1.00961538,14.8942252 1.00961538,16 C1.00961538,17.1057748 1.39823329,18.0472718 2.17548077,18.8245192 C2.95272825,19.6017667 3.89422524,19.9903846 5,19.9903846 C6.10577476,19.9903846 7.04727175,19.6017667 7.82451923,18.8245192 C8.60176671,18.0472718 8.99038462,17.1057748 8.99038462,16 Z" id="checklist-icon"></path>
                    </g>
                </g>
            </g>
        </g>
    </g>
</svg>