<?xml version="1.0" encoding="UTF-8"?>
<svg width="10px" height="10px" viewBox="0 0 10 10" version="1.1" xmlns="http://www.w3.org/2000/svg" xmlns:xlink="http://www.w3.org/1999/xlink">
    <title>close-icon</title>
    <g id="website" stroke="none" stroke-width="1" fill="none" fill-rule="evenodd">
        <g id="1a.-beranda" transform="translate(-230.000000, -4234.000000)" fill="#D03602">
            <g id="Group-24" transform="translate(183.000000, 3982.000000)">
                <g id="Group-27" transform="translate(0.000000, 111.000000)">
                    <g id="Group-2" transform="translate(47.000000, 100.000000)">
                        <path d="M5,41 C5.69010762,41 6.33951519,41.130207 6.94824219,41.390625 C7.55696919,41.651043 8.08756284,42.0074847 8.54003906,42.4599609 C8.99251528,42.9124372 9.34895703,43.4430308 9.609375,44.0517578 C9.86979297,44.6604848 10,45.3098924 10,46 C10,46.6901076 9.86979297,47.3395152 9.609375,47.9482422 C9.34895703,48.5569692 8.99251528,49.0875628 8.54003906,49.5400391 C8.08756284,49.9925153 7.55696919,50.348957 6.94824219,50.609375 C6.33951519,50.869793 5.69010762,51 5,51 C4.30989238,51 3.66048481,50.869793 3.05175781,50.609375 C2.44303081,50.348957 1.91243716,49.9925153 1.45996094,49.5400391 C1.00748472,49.0875628 0.651042969,48.5569692 0.390625,47.9482422 C0.130207031,47.3395152 0,46.6901076 0,46 C0,45.3098924 0.130207031,44.6604848 0.390625,44.0517578 C0.651042969,43.4430308 1.00748472,42.9124372 1.45996094,42.4599609 C1.91243716,42.0074847 2.44303081,41.651043 3.05175781,41.390625 C3.66048481,41.130207 4.30989238,41 5,41 Z M5,50.3847656 C5.60547178,50.3847656 6.17349995,50.2692069 6.70410156,50.0380859 C7.23470317,49.806965 7.69693813,49.4928405 8.09082031,49.0957031 C8.48470249,48.6985657 8.79719937,48.2347032 9.02832031,47.7041016 C9.25944126,47.1735 9.375,46.6054718 9.375,46 C9.375,45.3945282 9.25944126,44.8265 9.02832031,44.2958984 C8.79719937,43.7652968 8.48470249,43.3030619 8.09082031,42.9091797 C7.69693813,42.5152975 7.23470317,42.2028006 6.70410156,41.9716797 C6.17349995,41.7405587 5.60547178,41.625 5,41.625 C4.39452822,41.625 3.82650005,41.7405587 3.29589844,41.9716797 C2.76529683,42.2028006 2.30306187,42.5152975 1.90917969,42.9091797 C1.51529751,43.3030619 1.20280063,43.7652968 0.971679688,44.2958984 C0.74055874,44.8265 0.625,45.3945282 0.625,46 C0.625,46.6054718 0.74055874,47.1735 0.971679688,47.7041016 C1.20280063,48.2347032 1.51529751,48.6985657 1.90917969,49.0957031 C2.30306187,49.4928405 2.76529683,49.806965 3.29589844,50.0380859 C3.82650005,50.2692069 4.39452822,50.3847656 5,50.3847656 Z M6.76757812,44.2324219 C6.82617217,44.2910159 6.85546875,44.3642574 6.85546875,44.4521484 C6.85546875,44.5400395 6.82617217,44.613281 6.76757812,44.671875 L5.43945312,46 L6.76757812,47.328125 C6.82617217,47.386719 6.85546875,47.4599605 6.85546875,47.5478516 C6.85546875,47.6357426 6.82617217,47.7089841 6.76757812,47.7675781 C6.70898408,47.8261722 6.63574263,47.8554688 6.54785156,47.8554688 C6.4599605,47.8554688 6.38671904,47.8261722 6.328125,47.7675781 L5,46.4394531 L3.671875,47.7675781 C3.61328096,47.8261722 3.5400395,47.8554688 3.45214844,47.8554688 C3.36425737,47.8554688 3.29101592,47.8261722 3.23242188,47.7675781 C3.17382783,47.7089841 3.14453125,47.6357426 3.14453125,47.5478516 C3.14453125,47.4599605 3.17382783,47.386719 3.23242188,47.328125 L4.56054688,46 L3.23242188,44.671875 C3.17382783,44.613281 3.14453125,44.5400395 3.14453125,44.4521484 C3.14453125,44.3642574 3.17382783,44.2910159 3.23242188,44.2324219 C3.29101592,44.1738278 3.36425737,44.1445312 3.45214844,44.1445312 C3.5400395,44.1445312 3.61328096,44.1738278 3.671875,44.2324219 L5,45.5605469 L6.328125,44.2324219 C6.38671904,44.1738278 6.4599605,44.1445312 6.54785156,44.1445312 C6.63574263,44.1445312 6.70898408,44.1738278 6.76757812,44.2324219 Z" id="close-icon"></path>
                    </g>
                </g>
            </g>
        </g>
    </g>
</svg>