<?xml version="1.0" encoding="UTF-8"?>
<svg width="80px" height="80px" viewBox="0 0 80 80" version="1.1" xmlns="http://www.w3.org/2000/svg" xmlns:xlink="http://www.w3.org/1999/xlink">
    <title>konsep-marketing</title>
    <defs>
        <linearGradient x1="-2.35294118%" y1="50%" x2="98.8509804%" y2="50%" id="linearGradient-1">
            <stop stop-color="#C9FFD2" offset="0%"></stop>
            <stop stop-color="#5FE275" offset="59.3%"></stop>
            <stop stop-color="#1AD339" offset="100%"></stop>
        </linearGradient>
        <linearGradient x1="8.22836822%" y1="50%" x2="109.674851%" y2="50%" id="linearGradient-2">
            <stop stop-color="#1AD339" offset="0%"></stop>
            <stop stop-color="#1AD339" offset="70.43%"></stop>
            <stop stop-color="#1AD339" offset="100%"></stop>
        </linearGradient>
        <linearGradient x1="-251.666667%" y1="50%" x2="341.9%" y2="50%" id="linearGradient-3">
            <stop stop-color="#F2FBFF" offset="0%"></stop>
            <stop stop-color="#FAF7F7" offset="59.3%"></stop>
            <stop stop-color="#F3EAE6" offset="100%"></stop>
        </linearGradient>
        <linearGradient x1="-0.277777778%" y1="50%" x2="98.65%" y2="50%" id="linearGradient-4">
            <stop stop-color="#F2FBFF" offset="0%"></stop>
            <stop stop-color="#FAF7F7" offset="59.3%"></stop>
            <stop stop-color="#F3EAE6" offset="100%"></stop>
        </linearGradient>
        <linearGradient x1="-64.2105263%" y1="50%" x2="407.692632%" y2="50%" id="linearGradient-5">
            <stop stop-color="#F3EAE6" offset="0%"></stop>
            <stop stop-color="#CDBFBA" offset="100%"></stop>
        </linearGradient>
        <linearGradient x1="-146.398231%" y1="50%" x2="114.45828%" y2="50%" id="linearGradient-6">
            <stop stop-color="#F3EAE6" offset="0%"></stop>
            <stop stop-color="#CDBFBA" offset="100%"></stop>
        </linearGradient>
        <linearGradient x1="-1.46519523%" y1="49.999637%" x2="100.682515%" y2="49.999637%" id="linearGradient-7">
            <stop stop-color="#FFF9DF" offset="0%"></stop>
            <stop stop-color="#FFE177" offset="59.3%"></stop>
            <stop stop-color="#FEB137" offset="100%"></stop>
        </linearGradient>
        <linearGradient x1="-9.2024222%" y1="49.999637%" x2="103.326581%" y2="49.999637%" id="linearGradient-8">
            <stop stop-color="#FFF9DF" offset="0%"></stop>
            <stop stop-color="#FFE177" offset="59.3%"></stop>
            <stop stop-color="#FEB137" offset="100%"></stop>
        </linearGradient>
        <linearGradient x1="-27.5275924%" y1="49.9998917%" x2="76.7662186%" y2="49.9998917%" id="linearGradient-9">
            <stop stop-color="#FFF9DF" offset="0%"></stop>
            <stop stop-color="#FFE177" offset="59.3%"></stop>
            <stop stop-color="#FEB137" offset="100%"></stop>
        </linearGradient>
        <linearGradient x1="-53.2405176%" y1="49.9998712%" x2="46.024805%" y2="49.9998712%" id="linearGradient-10">
            <stop stop-color="#FFF9DF" offset="0%"></stop>
            <stop stop-color="#FFE177" offset="59.3%"></stop>
            <stop stop-color="#FEB137" offset="100%"></stop>
        </linearGradient>
        <linearGradient x1="0.000215569275%" y1="49.9998922%" x2="99.9997844%" y2="49.9998922%" id="linearGradient-11">
            <stop stop-color="#01D0FB" offset="0%"></stop>
            <stop stop-color="#26A6FE" offset="60.75%"></stop>
            <stop stop-color="#0182FC" offset="100%"></stop>
        </linearGradient>
    </defs>
    <g id="website" stroke="none" stroke-width="1" fill="none" fill-rule="evenodd">
        <g id="1a.-beranda" transform="translate(-1043.000000, -1096.000000)" fill-rule="nonzero">
            <g id="Group-15-Copy-2" transform="translate(908.000000, 1046.000000)">
                <g id="Group-11" transform="translate(15.000000, 50.000000)">
                    <g id="konsep-marketing" transform="translate(120.000000, 0.000000)">
                        <circle id="Oval" fill="url(#linearGradient-1)" cx="40" cy="40" r="40"></circle>
                        <path d="M40,0 C38.9435294,0 37.8967843,0.0417254902 36.8608627,0.122039216 C46.0429804,0.834823529 54.3537255,4.64988235 60.750902,10.5176471 L59.3466667,11.9218824 C58.0975686,13.1709804 57.5924706,14.9821176 58.0147451,16.6974118 L59.2848627,21.8553725 L39.1879216,41.9526275 L37.254902,40.0196078 L37.254902,45.0588235 L37.2566275,45.0588235 C37.2657255,45.7491765 37.5320784,46.4368627 38.0589804,46.9637647 C38.5949804,47.4997647 39.2975686,47.7676863 40.0001569,47.7676863 C40.7027451,47.7676863 41.4053333,47.4997647 41.9413333,46.9637647 L61.6454902,27.259451 L66.803451,28.5295686 C68.5187451,28.9518431 70.3298824,28.4467451 71.5789804,27.1976471 L71.6145882,27.1620392 C72.979451,31.1918431 73.7218824,35.5090196 73.7218824,40 C73.7218824,61.0348235 57.4850196,78.2767059 36.8608627,79.8779608 C37.8967843,79.9582745 38.9435294,80 40,80 C62.091451,80 80,62.091451 80,40 C80,17.908549 62.091451,0 40,0 Z" id="Path" fill="url(#linearGradient-2)"></path>
                        <g id="Group" transform="translate(11.764706, 11.764706)">
                            <circle id="Oval" fill="url(#linearGradient-3)" cx="28.2352941" cy="28.2352941" r="4.70588235"></circle>
                            <path d="M28.2352941,0 C12.6414118,0 0,12.6414118 0,28.2352941 C0,43.8291765 12.6414118,56.4705882 28.2352941,56.4705882 C43.8291765,56.4705882 56.4705882,43.8291765 56.4705882,28.2352941 C56.4705882,12.6414118 43.8291765,0 28.2352941,0 Z M28.2352941,44.7058824 C19.1388235,44.7058824 11.7647059,37.3317647 11.7647059,28.2352941 C11.7647059,19.1388235 19.1388235,11.7647059 28.2352941,11.7647059 C37.3317647,11.7647059 44.7058824,19.1388235 44.7058824,28.2352941 C44.7058824,37.3317647 37.3317647,44.7058824 28.2352941,44.7058824 Z" id="Shape" fill="url(#linearGradient-4)"></path>
                        </g>
                        <g id="Group" transform="translate(37.254902, 18.668235)">
                            <path d="M1.93254902,23.2847059 L-4.45830736e-15,21.3505882 L-4.45830736e-15,25.1529412 C0.771764706,25.7098039 1.72078431,26.0376471 2.74509804,26.0376471 C5.34431373,26.0376471 7.45098039,23.9309804 7.45098039,21.3317647 C7.45098039,20.3247059 7.13411765,19.3898039 6.59294118,18.6243137 L1.93254902,23.2847059 Z" id="Path" fill="url(#linearGradient-5)"></path>
                            <path d="M21.2439216,-4.45830736e-15 L22.0298039,3.18745098 L14.9490196,10.2682353 C16.2070588,11.6564706 17.2329412,13.2611765 17.9623529,15.0196078 L24.3905882,8.59137255 L28.4282353,9.58588235 C26.7372549,5.89333333 24.2729412,2.62901961 21.2439216,-4.45830736e-15 L21.2439216,-4.45830736e-15 Z" id="Path" fill="url(#linearGradient-6)"></path>
                        </g>
                        <path d="M78.3345882,10.7262745 L71.0641569,8.936 L69.2738824,1.66556863 C68.8666667,0.0117647059 66.8086275,-0.562352941 65.6040784,0.642039216 L57.8249412,8.42117647 C56.5758431,9.67027451 56.0707451,11.4814118 56.4930196,13.1967059 L58.5301961,21.4698039 L66.8032941,23.5069804 C68.5185882,23.9292549 70.3297255,23.4241569 71.5788235,22.1750588 L79.3579608,14.3959216 C80.5623529,13.1915294 79.9883922,11.1334902 78.3345882,10.7262745 L78.3345882,10.7262745 Z" id="Path" fill="url(#linearGradient-7)"></path>
                        <path d="M78.3345882,10.7262745 L71.0641569,8.936 L69.2738824,1.66556863 C68.8666667,0.0117647059 66.8086275,-0.562352941 65.6040784,0.642039216 L57.8249412,8.42117647 C56.5758431,9.67027451 56.0707451,11.4814118 56.4930196,13.1967059 L58.5301961,21.4698039 L66.8032941,23.5069804 C68.5185882,23.9292549 70.3297255,23.4241569 71.5788235,22.1750588 L79.3579608,14.3959216 C80.5623529,13.1915294 79.9883922,11.1334902 78.3345882,10.7262745 L78.3345882,10.7262745 Z" id="Path" fill="url(#linearGradient-8)"></path>
                        <path d="M78.3345882,10.7262745 L71.0641569,8.936 L69.2738824,1.66556863 C68.8666667,0.0117647059 66.8087843,-0.562196078 65.6043922,0.641882353 L61.2238431,5.02243137 C59.9747451,6.27152941 59.4696471,8.08282353 59.8919216,9.79796078 L61.929098,18.0710588 L70.2021961,20.1082353 C71.9174902,20.5305098 73.7286275,20.0254118 74.9777255,18.7763137 L79.3581176,14.3959216 C80.5623529,13.1915294 79.9883922,11.1334902 78.3345882,10.7262745 L78.3345882,10.7262745 Z" id="Path" fill="url(#linearGradient-9)"></path>
                        <path d="M78.3345882,10.7262745 L71.0641569,8.936 L69.2738824,1.66556863 C68.8666667,0.0119215686 66.8089412,-0.562196078 65.604549,0.64172549 L64.6224314,1.62384314 C63.3733333,2.87294118 62.8682353,4.68407843 63.2905098,6.39937255 L65.3276863,14.6724706 L73.6007843,16.7096471 C75.3160784,17.1319216 77.1272157,16.6268235 78.3763137,15.3777255 L79.3579608,14.3960784 C80.5623529,13.1915294 79.9883922,11.1334902 78.3345882,10.7262745 Z" id="Path" fill="url(#linearGradient-10)"></path>
                        <path d="M40,42.745098 C39.2974118,42.745098 38.5949804,42.4771765 38.0588235,41.9411765 C36.9868235,40.8691765 36.9868235,39.1309804 38.0588235,38.0589804 L68.952,7.16580392 C70.024,6.09380392 71.7620392,6.09380392 72.8341961,7.16580392 C73.9061961,8.23780392 73.9061961,9.976 72.8341961,11.048 L41.9411765,41.9411765 C41.4051765,42.4771765 40.7025882,42.745098 40,42.745098 Z" id="Path" fill="url(#linearGradient-11)"></path>
                    </g>
                </g>
            </g>
        </g>
    </g>
</svg>