<?xml version="1.0" encoding="UTF-8"?>
<svg width="54px" height="54px" viewBox="0 0 54 54" version="1.1" xmlns="http://www.w3.org/2000/svg" xmlns:xlink="http://www.w3.org/1999/xlink">
    <title>menjaga-berat-badan</title>
    <defs>
        <rect id="path-1" x="0" y="0" width="54" height="54"></rect>
    </defs>
    <g id="website" stroke="none" stroke-width="1" fill="none" fill-rule="evenodd">
        <g id="1a.-beranda" transform="translate(-108.000000, -1971.000000)">
            <g id="Group-17" transform="translate(108.000000, 1640.000000)">
                <g id="menjaga-berat-badan" transform="translate(0.000000, 331.000000)">
                    <mask id="mask-2" fill="white">
                        <use xlink:href="#path-1"></use>
                    </mask>
                    <g id="Mask"></g>
                    <g id="weight-scale" mask="url(#mask-2)">
                        <g transform="translate(17.000000, 19.000000)">
                            <path d="M14.5037891,16.640625 L5.49621094,16.640625 C2.46074219,16.640625 0,14.1798828 0,11.1444141 L0,2.10824219 C0,0.943867188 0.943867187,1.11022302e-15 2.10824219,1.11022302e-15 L17.8917969,1.11022302e-15 C19.0561328,1.11022302e-15 20,0.943867188 20,2.10824219 L20,11.1444531 C20,14.1798828 17.5392578,16.640625 14.5037891,16.640625 Z" id="Path" fill="#E0E0E0" fill-rule="nonzero"></path>
                            <path d="M17.8905469,0 L16.6833203,0 C17.8483203,0 18.7927734,0.943320313 18.7927734,2.10699219 L18.7927734,11.1476172 C18.7927734,14.1813281 16.3305859,16.640625 13.2933594,16.640625 L14.5005859,16.640625 C17.5378516,16.640625 20,14.1813281 20,11.1476172 L20,2.10699219 C20,0.943320313 19.0555469,0 17.8905469,0 L17.8905469,0 Z" id="Path" fill="#BDBDBD" fill-rule="nonzero"></path>
                            <path d="M1.20722656,11.1451172 L1.20722656,2.10753906 C1.20722656,1.60953125 1.6109375,1.20585937 2.10890625,1.20585937 L17.8910156,1.20585937 C18.3890234,1.20585937 18.7926953,1.60957031 18.7926953,2.10753906 L18.7926953,11.1451172 C18.7926953,13.5142187 16.8721484,15.4347656 14.5030469,15.4347656 L5.49691406,15.4347656 C3.12777344,15.4347656 1.20722656,13.5142187 1.20722656,11.1451172 Z" id="Path" fill="#FFD54F" fill-rule="nonzero"></path>
                            <path d="M17.8905469,1.20582031 L16.6833203,1.20582031 C17.1816016,1.20582031 17.5855469,1.60929688 17.5855469,2.10699219 L17.5855469,11.1476172 C17.5855469,13.5153516 15.6639063,15.4347656 13.2933984,15.4347656 L14.500625,15.4347656 C16.8710937,15.4347656 18.7927734,13.5153516 18.7927734,11.1476172 L18.7927734,2.10699219 C18.7927734,1.60929688 18.3888281,1.20582031 17.8905469,1.20582031 L17.8905469,1.20582031 Z" id="Path" fill="#FFC328" fill-rule="nonzero"></path>
                            <path d="M13.2933203,5.38269531 L6.70667969,5.38269531 C6.5253125,5.38269531 6.37828125,5.23566406 6.37828125,5.05429688 L6.37828125,3.77320313 C6.37828125,3.0175 6.99089844,2.40484375 7.74664063,2.40484375 L12.2533984,2.40484375 C13.0091016,2.40484375 13.6217578,3.01746094 13.6217578,3.77320313 L13.6217578,5.05429688 C13.6217578,5.23566406 13.4746875,5.38269531 13.2933203,5.38269531 L13.2933203,5.38269531 Z" id="Path" fill="#BBF7FF" fill-rule="nonzero"></path>
                            <path d="M10,12.8273438 C9.66664063,12.8273438 9.39636719,12.5571094 9.39636719,12.2237109 L9.39636719,8.03863281 C9.39636719,7.70527344 9.66660156,7.435 10,7.435 C10.3333594,7.435 10.6036328,7.70523438 10.6036328,8.03863281 L10.6036328,12.22375 C10.6036328,12.5571094 10.3333594,12.8273438 10,12.8273438 L10,12.8273438 Z" id="Path" fill="#546E7A" fill-rule="nonzero"></path>
                            <path d="M9.87066406,4.24167969 L8.76050781,3.13152344 C8.64609375,3.01710937 8.46058594,3.01710937 8.34621094,3.13152344 C8.23179688,3.2459375 8.23179688,3.43144531 8.34621094,3.54582031 L9.45636719,4.65597656 C9.51355469,4.71316406 9.58855469,4.74179688 9.66351563,4.74179688 C9.73847656,4.74179688 9.81347656,4.71320312 9.87066406,4.65597656 C9.98511719,4.54160156 9.98511719,4.35609375 9.87066406,4.24167969 L9.87066406,4.24167969 Z" id="Path" fill="#F74F68" fill-rule="nonzero"></path>
                            <g id="Group" stroke-width="1" fill="none" fill-rule="evenodd" transform="translate(6.085273, 2.111836)">
                                <path d="M4.55859375,3.27085937 L3.27085938,3.27085937 L3.27085938,2.70746094 C3.27085938,2.351875 3.55914062,2.06359375 3.91472656,2.06359375 C4.2703125,2.06359375 4.55859375,2.351875 4.55859375,2.70746094 L4.55859375,3.27085937 Z" id="Path" fill="#546E7A" fill-rule="nonzero"></path>
                                <path d="M6.168125,0 L1.66132813,0 C0.745273438,0 0,0.745273437 0,1.66132813 L0,2.94242188 C0,3.28503906 0.27875,3.56378906 0.621367188,3.56378906 L7.20808594,3.56378906 C7.55070313,3.56378906 7.82941406,3.28503906 7.82941406,2.94242188 L7.82941406,1.66132813 C7.82941406,0.745273438 7.08417969,0 6.168125,0 L6.168125,0 Z M7.24347656,2.94246094 C7.24347656,2.96199219 7.22761719,2.97789063 7.20808594,2.97789063 L0.62140625,2.97789063 C0.601875,2.97789063 0.585976562,2.96199219 0.585976562,2.94246094 L0.585976562,1.66136719 C0.585976562,1.06839844 1.06839844,0.585976562 1.66136719,0.585976562 L6.168125,0.585976562 C6.76109375,0.585976562 7.24347656,1.06839844 7.24347656,1.66136719 L7.24347656,2.94246094 Z" id="Shape" fill="#546E7A" fill-rule="nonzero"></path>
                            </g>
                        </g>
                    </g>
                </g>
            </g>
        </g>
    </g>
</svg>