<?xml version="1.0" encoding="UTF-8"?>
<svg width="82px" height="80px" viewBox="0 0 82 80" version="1.1" xmlns="http://www.w3.org/2000/svg" xmlns:xlink="http://www.w3.org/1999/xlink">
    <title>sejak-tahun-2013</title>
    <g id="website" stroke="none" stroke-width="1" fill="none" fill-rule="evenodd">
        <g id="1a.-beranda" transform="translate(-242.000000, -1096.000000)" fill-rule="nonzero">
            <g id="Group-15" transform="translate(108.000000, 1046.000000)">
                <g id="Group-11" transform="translate(15.000000, 50.000000)">
                    <g id="sejak-tahun-2013" transform="translate(119.000000, 0.000000)">
                        <rect id="Rectangle" fill="#4398D1" x="21.6948479" y="5.42367226" width="37.9660236" height="73.2202905"></rect>
                        <polygon id="Path" fill="#3F8FC4" points="21.6948479 58.3049932 21.6948479 78.6439628 59.6610304 78.6439628 59.6610304 16.1205402"></polygon>
                        <rect id="Rectangle" fill="#4398D1" x="27.1186791" y="5.64519808e-16" width="27.1186791" height="5.42367226"></rect>
                        <rect id="Rectangle" fill="#3F8FC4" x="27.1186791" y="2.71175668" width="27.1186791" height="2.71191558"></rect>
                        <g id="Group" transform="translate(27.118679, 12.203382)" fill="#87CED9">
                            <rect id="Rectangle" x="-4.51615847e-15" y="2.25807923e-15" width="5.42367226" height="5.42367226"></rect>
                            <rect id="Rectangle" x="10.8473445" y="2.25807923e-15" width="5.42367226" height="5.42367226"></rect>
                            <rect id="Rectangle" x="21.6948479" y="2.25807923e-15" width="5.42367226" height="5.42367226"></rect>
                            <rect id="Rectangle" x="-4.51615847e-15" y="10.8473445" width="5.42367226" height="5.42367226"></rect>
                            <rect id="Rectangle" x="10.8473445" y="10.8473445" width="5.42367226" height="5.42367226"></rect>
                            <rect id="Rectangle" x="21.6948479" y="10.8473445" width="5.42367226" height="5.42367226"></rect>
                            <rect id="Rectangle" x="-4.51615847e-15" y="21.6948479" width="5.42367226" height="5.42367226"></rect>
                            <rect id="Rectangle" x="10.8473445" y="21.6948479" width="5.42367226" height="5.42367226"></rect>
                            <rect id="Rectangle" x="21.6948479" y="21.6948479" width="5.42367226" height="5.42367226"></rect>
                            <rect id="Rectangle" x="-4.51615847e-15" y="32.5423513" width="5.42367226" height="5.42367226"></rect>
                            <rect id="Rectangle" x="10.8473445" y="32.5423513" width="5.42367226" height="5.42367226"></rect>
                            <rect id="Rectangle" x="21.6948479" y="32.5423513" width="5.42367226" height="5.42367226"></rect>
                            <rect id="Rectangle" x="-4.51615847e-15" y="43.3896958" width="5.42367226" height="5.42367226"></rect>
                            <rect id="Rectangle" x="10.8473445" y="43.3896958" width="5.42367226" height="5.42367226"></rect>
                            <rect id="Rectangle" x="21.6948479" y="43.3896958" width="5.42367226" height="5.42367226"></rect>
                            <rect id="Rectangle" x="5.42367226" y="55.5930776" width="16.2711757" height="10.8475034"></rect>
                        </g>
                        <rect id="Rectangle" fill="#61ACC9" x="39.3220608" y="67.7964594" width="2.71191558" height="10.8475034"></rect>
                        <path d="M13.2881798,57.2867735 C13.6150334,56.2955665 13.6501499,55.2325376 13.3925759,54.2224217 C12.9017393,52.2902196 11.380448,50.7878371 9.44141324,50.3214709 C6.52753805,49.6054756 3.58522008,51.3872011 2.8692248,54.3010763 C2.76482868,54.7240633 2.71191558,55.1580143 2.71191558,55.5932365 C2.71191558,56.073268 2.77563376,56.5505982 2.90179893,57.012833 C3.50926674,59.0290923 3.28013554,61.205362 2.26445825,63.0508057 C0.391842961,66.2942358 1.50381256,70.4392542 4.74581254,72.3118695 C7.98781251,74.1844848 12.1356911,73.0725152 14.0068763,69.8305152 C15.1770027,67.8034509 15.2191107,65.315264 14.1181051,63.250223 C13.0358494,61.4602347 12.7348962,59.304304 13.2881798,57.2867735 Z" id="Path" fill="#88B337"></path>
                        <rect id="Rectangle" fill="#79A125" x="6.77970949" y="55.5930776" width="2.71191558" height="24.4067635"></rect>
                        <path d="M78.3728824,57.2867735 C78.699736,56.2955665 78.7348525,55.2325376 78.4772786,54.2224217 C77.986442,52.2902196 76.4651506,50.7878371 74.5261159,50.3214709 C71.6122407,49.6054756 68.6699228,51.3872011 67.9539275,54.3010763 C67.8495313,54.7240633 67.7966182,55.1580143 67.7966182,55.5932365 C67.7966182,56.073268 67.8603364,56.5505982 67.9865016,57.012833 C68.5952406,59.0305224 68.3661094,61.2094934 67.3491609,63.0562083 C65.4765456,66.2996383 66.5885152,70.4446568 69.8305152,72.317272 C73.0725152,74.1898873 77.2189637,73.0779177 79.091579,69.8359177 C80.2617053,67.8088534 80.3038134,65.3206665 79.2028077,63.2556255 C78.1192809,61.4643661 77.8183277,59.305734 78.3728824,57.2867735 Z" id="Path" fill="#88B337"></path>
                        <rect id="Rectangle" fill="#79A125" x="71.8644122" y="55.5930776" width="2.71191558" height="24.4067635"></rect>
                        <rect id="Rectangle" fill="#E0D2C1" x="0" y="77.2880844" width="81.3558783" height="2.71191558"></rect>
                    </g>
                </g>
            </g>
        </g>
    </g>
</svg>