<?xml version="1.0" encoding="UTF-8"?>
<svg width="54px" height="54px" viewBox="0 0 54 54" version="1.1" xmlns="http://www.w3.org/2000/svg" xmlns:xlink="http://www.w3.org/1999/xlink">
    <title>teh-daun-gaharu</title>
    <defs>
        <rect id="path-1" x="0" y="0" width="54" height="54"></rect>
    </defs>
    <g id="website" stroke="none" stroke-width="1" fill="none" fill-rule="evenodd">
        <g id="1a.-beranda" transform="translate(-108.000000, -1907.000000)">
            <g id="Group-17" transform="translate(108.000000, 1640.000000)">
                <g id="teh-daun-gaharu" transform="translate(0.000000, 267.000000)">
                    <mask id="mask-2" fill="white">
                        <use xlink:href="#path-1"></use>
                    </mask>
                    <g id="Mask"></g>
                    <g id="hot-tea" mask="url(#mask-2)">
                        <g transform="translate(18.000000, 17.000000)">
                            <circle id="Oval" fill="#365E7D" fill-rule="nonzero" cx="9.5703125" cy="9.5703125" r="9.5703125"></circle>
                            <circle id="Oval" fill="#2B4D66" fill-rule="nonzero" cx="9.5703125" cy="9.0625" r="7.421875"></circle>
                            <g id="Group" stroke-width="1" fill="none" fill-rule="evenodd" transform="translate(0.000000, 1.115373)">
                                <g transform="translate(4.509724, -0.000000)" fill-rule="nonzero" id="Path">
                                    <path d="M2.03441695,9.59633717e-05 C1.60945601,-0.0141618491 0.0675419513,1.56212721 0.00109663884,3.54259596 C-0.0343330487,4.59872878 0.793088826,5.48365065 1.84922164,5.51908034 C2.90535445,5.55451003 3.79027633,4.72708815 3.82570601,3.67095534 C3.89215133,1.69048659 2.45937789,0.0143537759 2.03441695,9.59633717e-05 Z" fill="#95D6A4"></path>
                                    <path d="M2.82359664,5.28701003 C1.76746383,5.25158034 0.940002889,4.36665846 0.975471639,3.31052565 C1.02133101,1.9444319 1.76914351,0.770760026 2.36820601,0.178650651 C2.2320732,0.0654865884 2.11508101,0.00279127587 2.03441695,9.59633717e-05 C1.60945601,-0.0141618491 0.0675419513,1.56212721 0.00109663884,3.54259596 C-0.0343330487,4.59872878 0.793088826,5.48365065 1.84922164,5.51908034 C2.20347945,5.53095534 2.53828414,5.44540846 2.82840133,5.28704909 C2.82679976,5.28697096 2.8251982,5.28704909 2.82359664,5.28701003 Z" fill="#81C68E"></path>
                                    <path d="M2.84785445,6.78966628 C2.74883101,6.78966628 2.65222945,6.73947096 2.59711226,6.64865065 C1.73359664,5.2256819 1.37250289,3.72697096 1.49320601,2.06685378 C1.50496383,1.90548659 1.64543258,1.78419753 1.80664351,1.79587721 C1.9680107,1.80763503 2.08933883,1.94798659 2.07762008,2.10931471 C1.96449508,3.66517409 2.28875289,5.0109944 3.09804976,6.34466628 C3.18199508,6.48298659 3.13793258,6.66314284 2.9995732,6.74712721 C2.9520732,6.77595534 2.89961226,6.78966628 2.84785445,6.78966628 L2.84785445,6.78966628 Z" fill="#81C68E"></path>
                                </g>
                                <g transform="translate(5.621753, 2.304133)" fill-rule="nonzero" id="Path">
                                    <path d="M5.41273954,0.458423804 C5.20332547,0.0883456792 3.05430204,-0.405521508 1.32969266,0.570337867 C0.410005161,1.09076755 0.0862942237,2.25818943 0.606723911,3.17791599 C1.1271536,4.09764255 2.29457547,4.42131443 3.21430204,3.90088474 C4.93891141,2.92502537 5.6221536,0.828501929 5.41273954,0.458423804 L5.41273954,0.458423804 Z" fill="#CCF49F"></path>
                                    <path d="M1.3127786,3.88834568 C0.792348911,2.96865818 1.11605985,1.80119724 2.03574735,1.28076755 C3.22535672,0.607642554 4.61680204,0.633853492 5.43438016,0.836314429 C5.4599661,0.661158179 5.4524661,0.528658179 5.41270047,0.458423804 C5.20328641,0.0883456792 3.05426297,-0.405521508 1.3296536,0.570337867 C0.409966099,1.09076755 0.0862551612,2.25818943 0.606684849,3.17791599 C0.781255161,3.48643162 1.02883329,3.7274863 1.31523954,3.8924863 C1.31445829,3.89108005 1.31355985,3.88975193 1.3127786,3.88834568 L1.3127786,3.88834568 Z" fill="#B3E59F"></path>
                                    <path d="M3.76156766,1.20045505 C3.6874661,1.05662693 3.51082547,1.00006443 3.36691922,1.07424412 C3.05508329,1.2349863 2.76070829,1.41041599 2.48281766,1.60076755 C2.49461454,1.33190037 2.57848172,1.1052988 2.64254422,0.969556617 C2.71164579,0.823267554 2.64906766,0.648619117 2.50273954,0.579556617 C2.35648954,0.510572242 2.18180204,0.573072242 2.11273954,0.719400367 C1.99344266,0.972056617 1.8243411,1.45756443 1.92824735,2.01920505 C1.15047391,2.66471287 0.523950474,3.4543613 0.0327395362,4.40514255 C-0.0415182763,4.54889255 0.0148098487,4.7256113 0.158559849,4.79986912 C0.201567661,4.82209568 0.247505161,4.83264255 0.292778599,4.83264255 C0.398872349,4.83264255 0.501255161,4.77483005 0.553286411,4.6740488 C1.26938016,3.2881113 2.2487161,2.30975193 3.63535672,1.59510349 C3.77922391,1.52096287 3.83570829,1.34424412 3.76156766,1.20045505 L3.76156766,1.20045505 Z" fill="#81C68E"></path>
                                </g>
                                <path d="M7.82398438,8.22665846 C6.7815625,6.42115065 4.67574219,5.68540846 3.12046875,6.58333815 C1.56519531,7.48126784 1.14945313,9.67283034 2.191875,11.4783382 C3.23429688,13.283846 5.34011719,14.0195882 6.89539063,13.1216585 C8.45066406,12.2237678 8.86640625,10.0321663 7.82398438,8.22665846 Z M6.11414063,11.7685335 C5.91480469,11.8835725 5.6903125,11.9419319 5.44691406,11.9419319 L5.44679688,11.9419319 C4.728125,11.9418538 3.98164063,11.453221 3.54503906,10.6970491 C3.23253906,10.1557991 3.11300781,9.53056471 3.21714844,8.98165846 C3.26886719,8.70904128 3.4265625,8.21079909 3.90171875,7.93642409 C4.10101563,7.82138503 4.325625,7.76302565 4.56917969,7.76302565 C5.28777344,7.76302565 6.03417969,8.25165846 6.47078125,9.0078694 C7.07046875,10.0464632 6.90710938,11.3106819 6.11414063,11.7685335 L6.11414063,11.7685335 Z" id="Shape" fill="#FFD064" fill-rule="nonzero"></path>
                                <path d="M7.82398438,8.22665846 C6.83214844,6.50876784 4.87765625,5.7594319 3.35066406,6.46419753 C3.37460938,7.0719319 3.43265625,7.67478346 3.52402344,8.27060378 C3.61988281,8.14544753 3.74269531,8.02829909 3.90175781,7.93646315 C4.10105469,7.82142409 4.32566406,7.76306471 4.56921875,7.76306471 C5.2878125,7.76306471 6.03421875,8.25169753 6.47082031,9.00790846 C7.07046875,10.0465022 6.90710938,11.310721 6.11414063,11.7685725 C5.91480469,11.8836116 5.6903125,11.941971 5.44691406,11.941971 L5.44679688,11.941971 C5.098125,11.9419319 4.74304688,11.8266585 4.41984375,11.6218538 C4.66921875,12.2642366 4.96082031,12.8914632 5.29339844,13.5004085 C5.84847656,13.5277522 6.39988281,13.4077522 6.89539063,13.1216585 C8.45066406,12.2237288 8.86640625,10.0321663 7.82398438,8.22665846 L7.82398438,8.22665846 Z" id="Path" fill="#FFC250" fill-rule="nonzero"></path>
                                <path d="M13.2355078,15.7596272 L8.79726563,15.7596272 C8.15003906,15.7596272 7.62539063,15.2349788 7.62539063,14.5877522 C7.62539063,13.9405257 8.15003906,13.4158772 8.79726563,13.4158772 L13.2355078,13.4158772 C13.8827344,13.4158772 14.4073828,13.9405257 14.4073828,14.5877522 C14.4073828,15.2349788 13.8827344,15.7596272 13.2355078,15.7596272 Z" id="Path" fill="#FFD064" fill-rule="nonzero"></path>
                                <path d="M10.3597656,14.5877522 C10.3597656,13.9405257 10.8844141,13.4158772 11.5316406,13.4158772 L8.79726562,13.4158772 C8.15003906,13.4158772 7.62539062,13.9405257 7.62539062,14.5877522 C7.62539062,15.2349788 8.15003906,15.7596272 8.79726562,15.7596272 L11.5316406,15.7596272 C10.8844531,15.7596272 10.3597656,15.2349788 10.3597656,14.5877522 Z" id="Path" fill="#FFC250" fill-rule="nonzero"></path>
                                <path d="M4.5096875,5.82451003 C4.5096875,8.81751784 5.41300781,11.7408772 7.10148438,14.2121272 L7.11371094,14.2300178 C7.22917969,14.3990413 7.42066406,14.500096 7.62539062,14.500096 L14.4073828,14.500096 C14.6120703,14.500096 14.8035547,14.3990022 14.9190625,14.2300178 L14.9312891,14.2121272 C16.6197656,11.7408772 17.5230859,8.81751784 17.5230859,5.82451003 C17.5230859,5.48228346 17.245625,5.20482253 16.9033984,5.20482253 L5.129375,5.20482253 C4.78714844,5.20482253 4.5096875,5.48228346 4.5096875,5.82451003 L4.5096875,5.82451003 Z" id="Path" fill="#FFE07D" fill-rule="nonzero"></path>
                                <path d="M13.7419531,4.91232253 C13.5801562,4.91232253 13.4489844,5.0434944 13.4489844,5.20529128 L13.4489844,8.52560378 C13.4489844,8.68740065 13.5801562,8.81857253 13.7419531,8.81857253 C13.90375,8.81857253 14.0349219,8.68740065 14.0349219,8.52560378 L14.0349219,5.20529128 C14.0349219,5.04345534 13.90375,4.91232253 13.7419531,4.91232253 Z" id="Path" fill="#FAF5DC" fill-rule="nonzero"></path>
                                <path d="M7.2440625,6.0159944 L7.2440625,5.20482253 L5.129375,5.20482253 C4.78714844,5.20482253 4.5096875,5.48228346 4.5096875,5.82451003 C4.5096875,8.81751784 5.41300781,11.7408382 7.10148438,14.2121272 L7.11371094,14.2300178 C7.22917969,14.3990413 7.42066406,14.500096 7.62539062,14.500096 L10.0326562,14.500096 L9.72785156,14.0540022 C8.10972656,11.68576 7.2440625,8.88427565 7.2440625,6.0159944 L7.2440625,6.0159944 Z" id="Path" fill="#FFD064" fill-rule="nonzero"></path>
                                <path d="M1.00433594,15.9549397 C3.37101563,17.7912288 6.34292969,18.8846272 9.5703125,18.8846272 C12.7976953,18.8846272 15.7696094,17.7912288 18.1362891,15.9549397 L1.00433594,15.9549397 Z" id="Path" fill="#F5EBCD" fill-rule="nonzero"></path>
                                <path d="M18.5546875,15.3690022 L0.5859375,15.3690022 C0.26234375,15.3690022 0,15.631346 0,15.9549397 C0,16.2785335 0.26234375,16.5408772 0.5859375,16.5408772 L18.5546875,16.5408772 C18.8782813,16.5408772 19.140625,16.2785335 19.140625,15.9549397 C19.140625,15.631346 18.8782813,15.3690022 18.5546875,15.3690022 Z" id="Path" fill="#FAF5DC" fill-rule="nonzero"></path>
                                <path d="M4.5096875,15.9549397 C4.5096875,15.631346 4.77203125,15.3690022 5.095625,15.3690022 L0.5859375,15.3690022 C0.26234375,15.3690022 -5.55111512e-16,15.631346 -5.55111512e-16,15.9549397 C-5.55111512e-16,16.2785335 0.26234375,16.5408772 0.5859375,16.5408772 L5.095625,16.5408772 C4.77203125,16.5408772 4.5096875,16.2785335 4.5096875,15.9549397 Z" id="Path" fill="#F5EBCD" fill-rule="nonzero"></path>
                                <path d="M14.7185156,8.10337721 L12.7653906,8.10337721 C12.4417969,8.10337721 12.1794531,8.36572096 12.1794531,8.68931471 L12.1794531,10.6424397 C12.1794531,10.9660335 12.4417969,11.2283772 12.7653906,11.2283772 L14.7185156,11.2283772 C15.0421094,11.2283772 15.3044531,10.9660335 15.3044531,10.6424397 L15.3044531,8.68931471 C15.3044531,8.36572096 15.0421094,8.10337721 14.7185156,8.10337721 Z" id="Path" fill="#FFFFFF" fill-rule="nonzero"></path>
                                <path d="M13.7419531,10.6424397 L13.7419531,8.68931471 C13.7419531,8.36572096 14.0042969,8.10337721 14.3278906,8.10337721 L12.7653906,8.10337721 C12.4417969,8.10337721 12.1794531,8.36572096 12.1794531,8.68931471 L12.1794531,10.6424397 C12.1794531,10.9660335 12.4417969,11.2283772 12.7653906,11.2283772 L14.3278906,11.2283772 C14.0042969,11.2283772 13.7419531,10.9660335 13.7419531,10.6424397 Z" id="Path" fill="#FAF5DC" fill-rule="nonzero"></path>
                            </g>
                        </g>
                    </g>
                </g>
            </g>
        </g>
    </g>
</svg>