<?xml version="1.0" encoding="UTF-8"?>
<svg width="31px" height="20px" viewBox="0 0 31 20" version="1.1" xmlns="http://www.w3.org/2000/svg" xmlns:xlink="http://www.w3.org/1999/xlink">
    <title>testimoni-icon</title>
    <g id="website" stroke="none" stroke-width="1" fill="none" fill-rule="evenodd">
        <g id="1a.-beranda" transform="translate(-667.000000, -2498.000000)" fill="#29BB89">
            <g id="Group-19" transform="translate(106.000000, 2410.000000)">
                <path d="M590.422179,89.9016223 C585.854434,89.9016223 581.908956,92.6173791 580.096229,96.5228535 C581.031113,95.9494777 582.128973,95.6183421 583.303134,95.6183421 C586.704867,95.6183421 589.476924,98.3948441 589.476924,101.809171 C589.476924,105.223498 586.704867,108 583.303134,108 C579.900659,108 577.133788,105.223498 577.133788,101.809171 C577.133788,101.687681 577.138232,101.567672 577.1449,101.447663 C577.140455,101.409882 577.133788,101.373583 577.133788,101.335062 C577.133788,93.9811838 583.094229,88 590.422179,88 C590.951107,88 591.37262,88.4229943 591.37262,88.9482184 C591.37262,89.4793688 590.951107,89.9016223 590.422179,89.9016223 L590.422179,89.9016223 Z M574.287651,89.9016223 C569.718424,89.9016223 565.769983,92.6196015 563.955775,96.5265575 C564.89214,95.9509593 565.992222,95.6183421 567.168605,95.6183421 C570.570339,95.6183421 573.337951,98.3948441 573.337951,101.809171 C573.337951,105.223498 570.570339,108 567.168605,108 C563.766872,108 561,105.223498 561,101.809171 C561,101.688421 561.004445,101.567672 561.011112,101.448404 C561.006667,101.410623 561,101.373583 561,101.335062 C561,93.9811838 566.959701,88 574.287651,88 C574.811393,88 575.238833,88.4229943 575.238833,88.9482184 C575.238833,89.4793688 574.811393,89.9016223 574.287651,89.9016223 L574.287651,89.9016223 Z" id="testimoni-icon"></path>
            </g>
        </g>
    </g>
</svg>