<?xml version="1.0" encoding="UTF-8"?>
<svg width="20px" height="20px" viewBox="0 0 20 20" version="1.1" xmlns="http://www.w3.org/2000/svg" xmlns:xlink="http://www.w3.org/1999/xlink">
    <title>email</title>
    <g id="website" stroke="none" stroke-width="1" fill="none" fill-rule="evenodd">
        <g id="5a.-kontak-kami" transform="translate(-43.000000, -522.000000)" fill-rule="nonzero">
            <g id="Group-7" transform="translate(43.000000, 187.000000)">
                <g id="Group-5-Copy-4" transform="translate(0.000000, 332.000000)">
                    <g id="email" transform="translate(0.000000, 3.000000)">
                        <circle id="Oval" fill="#29BB89" cx="10" cy="10" r="10"></circle>
                        <path d="M10.82875,3.8025 C8.78375,3.54375 6.8125,4.2475 5.4175,5.74875 C4.025,7.25 3.46625,9.28 3.885,11.32 C4.37125,13.6825 6.19875,15.5525 8.54125,16.085 C9.03125,16.1975 9.52125,16.2525 10.005,16.2525 C10.96625,16.2525 11.90375,16.03375 12.77125,15.60375 C13.08,15.45 13.20625,15.075 13.05375,14.765 C12.89875,14.455 12.52625,14.33125 12.215,14.4825 C11.17125,15.00125 9.99625,15.13375 8.81875,14.86625 C6.98125,14.44875 5.49125,12.92125 5.11,11.06875 C4.7725,9.42875 5.22,7.8 6.33375,6.59875 C7.44875,5.39875 9.0275,4.8325 10.66875,5.0425 C13.13875,5.3625 15,7.605 15,10.26125 L15,10.625 C15,11.315 14.44,11.875 13.75,11.875 C13.06,11.875 12.5,11.315 12.5,10.625 L12.5,8.125 C12.5,7.78 12.22,7.5 11.875,7.5 C11.61875,7.5 11.4,7.655 11.30375,7.875 C10.93125,7.64 10.49375,7.5 10,7.5 C8.5275,7.5 7.5,8.65625 7.5,10.3125 C7.5,11.96875 8.5275,13.125 10,13.125 C10.77625,13.125 11.4225,12.7975 11.86625,12.25 C12.325,12.78125 12.995,13.125 13.75,13.125 C15.12875,13.125 16.25,12.00375 16.25,10.625 L16.25,10.26125 C16.25,6.97875 13.92,4.2025 10.82875,3.8025 Z M10,11.875 C9.22875,11.875 8.75,11.27625 8.75,10.3125 C8.75,9.34875 9.22875,8.75 10,8.75 C10.77125,8.75 11.25,9.34875 11.25,10.3125 C11.25,11.27625 10.77125,11.875 10,11.875 Z" id="Shape" fill="#FAFAFA"></path>
                    </g>
                </g>
            </g>
        </g>
    </g>
</svg>