<?xml version="1.0" encoding="UTF-8"?>
<svg width="20px" height="20px" viewBox="0 0 20 20" version="1.1" xmlns="http://www.w3.org/2000/svg" xmlns:xlink="http://www.w3.org/1999/xlink">
    <title>website</title>
    <g id="website" stroke="none" stroke-width="1" fill="none" fill-rule="evenodd">
        <g id="5a.-kontak-kami" transform="translate(-43.000000, -486.000000)" fill-rule="nonzero">
            <g id="Group-7" transform="translate(43.000000, 187.000000)">
                <g id="Group-5-Copy-3" transform="translate(0.000000, 296.000000)">
                    <g id="website" transform="translate(-0.000000, 3.000000)">
                        <path d="M20,10 C20,10.1010156 19.9983984,10.2016016 19.9955859,10.3017969 C19.9227344,12.7488672 18.9710547,14.9754297 17.4454687,16.6760547 C17.3106641,16.8257422 17.1718359,16.9718359 17.0285547,17.1134766 C15.6659766,18.4595312 13.9182812,19.4176953 11.9657812,19.8064453 C11.4257422,19.9146875 10.8696094,19.9786719 10.3017969,19.9955859 C10.2016016,19.9983984 10.1010156,20 10,20 C9.89898437,20 9.79839844,19.9983984 9.69820312,19.9955859 C9.13039062,19.9786719 8.57425781,19.9146875 8.03421875,19.8064453 C6.08171875,19.4176953 4.33402344,18.4595703 2.97144531,17.1134766 C2.82820312,16.9718359 2.68894531,16.8257422 2.55414062,16.6756641 C1.02855469,14.9750391 0.077265625,12.7489062 0.0044140625,10.3017969 C0.0016015625,10.2016016 -6.66133815e-15,10.1010156 -6.66133815e-15,10 C-6.66133815e-15,9.89898437 0.0016015625,9.79839844 0.0044140625,9.69820312 C0.077265625,7.25113281 1.02894531,5.02457031 2.55453125,3.32394531 C2.68933594,3.17425781 2.82816406,3.02816406 2.97144531,2.88652344 C4.33402344,1.54042969 6.08171875,0.582304687 8.03421875,0.193554687 C8.57425781,0.0853125 9.13039062,0.021328125 9.69820312,0.0044140625 C9.79839844,0.0016015625 9.89898437,-3.33066907e-15 10,-3.33066907e-15 C10.1010156,-3.33066907e-15 10.2016016,0.0016015625 10.3017969,0.0044140625 C10.8696094,0.021328125 11.4257422,0.0853125 11.9657812,0.193554687 C13.9182812,0.582265625 15.6659766,1.54042969 17.0285547,2.88652344 C17.1717969,3.02816406 17.3110547,3.17425781 17.4458594,3.32433594 C18.9714062,5.02496094 19.9227344,7.25109375 19.9955469,9.69820312 C19.9983984,9.79839844 20,9.89898437 20,10 L20,10 Z" id="Path" fill="#29BB89"></path>
                        <path d="M12.1678125,19.7641797 C11.4696094,19.9187109 10.7444531,20 10,20 C4.47726562,20 -5.55111512e-15,15.5227344 -5.55111512e-15,10 C-5.55111512e-15,4.47726562 4.47726562,-2.22044605e-15 10,-2.22044605e-15 C10.7444531,-2.22044605e-15 11.4696094,0.0812890625 12.1678125,0.235820312 C7.68734375,1.22574219 4.335625,5.22175781 4.335625,10 C4.335625,14.7782812 7.68734375,18.7742578 12.1678125,19.7641797 Z" id="Path" fill="#23A176"></path>
                        <g id="Group" transform="translate(-0.000000, -0.000000)" fill="#DFEAEF">
                            <path d="M17.0285547,2.88652344 C15.3243359,4.68007812 12.94125,5.82253906 10.2933594,5.90101562 C10.0869141,5.90703125 9.91269531,5.90703125 9.70703125,5.90101562 C7.05875,5.82253906 4.67566406,4.68007812 2.97140625,2.88652344 C2.82816406,3.02816406 2.68929688,3.17425781 2.55449219,3.32394531 C4.36375,5.21648437 6.886875,6.42132812 9.6896875,6.50464844 C9.79875,6.50746094 9.90015625,6.5090625 9.99996094,6.5090625 C10.0997656,6.5090625 10.2011719,6.50746094 10.310625,6.50464844 C13.1130469,6.42132812 15.6357813,5.21691406 17.4458203,3.324375 C17.3110547,3.17425781 17.1718359,3.02816406 17.0285547,2.88652344 Z" id="Path"></path>
                            <path d="M10.3102734,13.4953516 C10.0925781,13.4893359 9.90824219,13.4893359 9.68933594,13.4953516 C6.88691406,13.5786719 4.36417969,14.7830859 2.55414062,16.675625 C2.68894531,16.8257422 2.82820312,16.9717969 2.97144531,17.1134375 C4.67566406,15.3198828 7.05875,14.1774219 9.70664063,14.0989453 C9.81007813,14.0961328 9.90582031,14.0945313 10,14.0945313 C10.0941797,14.0945313 10.1899219,14.0961328 10.2929687,14.0989453 C12.94125,14.1774219 15.3243359,15.3198828 17.0285937,17.1134375 C17.1718359,16.9717969 17.3107031,16.8257031 17.4455078,16.6760156 C15.6362109,14.7835156 13.1130859,13.5786719 10.3102734,13.4953516 L10.3102734,13.4953516 Z" id="Path"></path>
                            <path d="M20,10 C20,10.1010156 19.9983984,10.2016016 19.9955859,10.3017969 L10.3018359,10.3017969 L10.3018359,19.9955469 C10.2016016,19.9983984 10.1010156,20 10,20 C9.89898437,20 9.79839844,19.9983984 9.69820312,19.9955859 L9.69820312,10.3018359 L0.0044140625,10.3018359 C0.0016015625,10.2016016 -1.12811236e-15,10.1010156 -1.12811236e-15,10 C-1.12811236e-15,9.89898437 0.0016015625,9.79839844 0.0044140625,9.69820312 L9.69816406,9.69820312 L9.69816406,0.0044140625 C9.79839844,0.0016015625 9.89898437,-1.12811236e-15 10,-1.12811236e-15 C10.1010156,-1.12811236e-15 10.2016016,0.0016015625 10.3017969,0.0044140625 L10.3017969,9.69816406 L19.9955469,9.69816406 C19.9983984,9.79839844 20,9.89898437 20,10 Z" id="Path"></path>
                            <path d="M16.3641797,9.69253906 C16.3207031,7.28972656 15.7585547,4.97664062 14.7810938,3.17988281 C14.6973828,3.02617187 14.6096484,2.87445312 14.5203125,2.72878906 C13.7979687,1.55253906 12.923125,0.6909375 11.9657812,0.19359375 C11.4257422,0.0853515625 10.8696094,0.0213671875 10.3017969,0.004453125 C10.2016016,0.0016015625 10.1010156,1.33898968e-16 10,1.33898968e-16 C9.89898437,1.33898968e-16 9.79839844,0.0016015625 9.69820312,0.0044140625 C9.13039062,0.021328125 8.57425781,0.0853125 8.03421875,0.193554688 C7.076875,0.6909375 6.20203125,1.5525 5.4796875,2.72875 C5.39277344,2.87078125 5.30503906,3.0225 5.21890625,3.17984375 C4.24144531,4.97660156 3.67925781,7.2896875 3.63582031,9.69292969 C3.63382812,9.79472656 3.63300781,9.89734375 3.63300781,9.99996094 C3.63300781,10.1025781 3.63382812,10.2051953 3.63582031,10.3074219 C3.67929687,12.7102344 4.24144531,15.0233203 5.21890625,16.8200781 C5.30261719,16.9737891 5.39035156,17.1255078 5.4796875,17.2711719 C6.20203125,18.4474219 7.076875,19.3089844 8.03421875,19.8063672 C8.57425781,19.9146094 9.13039062,19.9785937 9.69820312,19.9955078 C9.79839844,19.9983203 9.89902344,19.9999219 10,19.9999219 C10.1010156,19.9999219 10.2016016,19.9983203 10.3017969,19.9955078 C10.8696094,19.9785937 11.4257422,19.9146094 11.9657812,19.8063672 C12.923125,19.3089844 13.7979687,18.4474219 14.5203125,17.2711719 C14.6072266,17.1291406 14.6949609,16.9774219 14.7810938,16.8200781 C15.7585547,15.0233203 16.3207422,12.7102344 16.3641797,10.3069922 C16.3662109,10.2051953 16.3669922,10.1025781 16.3669922,9.99996094 C16.3669922,9.89738281 16.3662109,9.79476562 16.3641797,9.69253906 Z M15.7605469,10.2961719 C15.7191016,12.6040234 15.1826953,14.8185156 14.2510937,16.5316016 C14.1701953,16.6792969 14.0876953,16.8221484 14.005625,16.9557422 C12.9645703,18.6515234 11.6016016,19.6241406 10.1690234,19.6941797 C10.0499219,19.6998047 9.94929687,19.6994141 9.83179688,19.6941797 C8.39839844,19.6241797 7.03542969,18.6515234 5.994375,16.9557422 C5.91027344,16.8189062 5.82777344,16.6760547 5.74890625,16.5316016 C4.81730469,14.8185156 4.28089844,12.6040234 4.23945313,10.2966016 C4.23746094,10.1980078 4.23664063,10.0994141 4.23664063,10 C4.23664063,9.90058594 4.23746094,9.80203125 4.23945313,9.70382812 C4.28089844,7.39597656 4.81730469,5.18148437 5.74890625,3.46839844 C5.82980469,3.32070312 5.91230469,3.17785156 5.994375,3.04425781 C7.03542969,1.34847656 8.39839844,0.375859375 9.83097656,0.305820312 C9.89054688,0.303007812 9.94566406,0.301796875 10,0.301796875 C10.0543359,0.301796875 10.1094531,0.303007812 10.1682031,0.305820312 C11.6016016,0.375820312 12.9645703,1.34847656 14.005625,3.04425781 C14.0897266,3.18109375 14.1722266,3.32394531 14.2510937,3.46839844 C15.1826953,5.18148437 15.7191016,7.39597656 15.7605469,9.70339844 C15.7625391,9.80199219 15.7633607,9.90058594 15.7633607,10 C15.7633607,10.099375 15.7625781,10.1979687 15.7605469,10.2961719 Z" id="Shape"></path>
                        </g>
                        <g id="Group" transform="translate(1.543125, 1.888125)">
                            <circle id="Oval" fill="#86F1A7" cx="2.39179687" cy="8.111875" r="1.21542969"></circle>
                            <path d="M2.71277344,9.28410156 C2.61054687,9.31226562 2.50269531,9.3271875 2.39164062,9.3271875 C1.72042969,9.3271875 1.17636719,8.783125 1.17636719,8.111875 C1.17636719,7.44066406 1.72042969,6.89617187 2.39164062,6.89617187 C2.50269531,6.89617187 2.61054687,6.91105469 2.71277344,6.93925781 C2.19726562,7.08011719 1.81859375,7.55171875 1.81859375,8.111875 C1.81859375,8.67203125 2.19726563,9.14324219 2.71277344,9.28410156 Z" id="Path" fill="#66B49D"></path>
                            <circle id="Oval" fill="#BE694F" cx="13.5052734" cy="13.3432031" r="1.21542969"></circle>
                            <path d="M13.82625,14.5154297 C13.7240234,14.5435937 13.6161719,14.5585156 13.5051172,14.5585156 C12.8339063,14.5585156 12.2898437,14.0144531 12.2898437,13.3432031 C12.2898437,12.6719922 12.8339063,12.1275 13.5051172,12.1275 C13.6161719,12.1275 13.7240234,12.1423828 13.82625,12.1705859 C13.3107422,12.3114453 12.9320703,12.7830469 12.9320703,13.3432031 C12.9321094,13.9033594 13.3107812,14.3745703 13.82625,14.5154297 Z" id="Path" fill="#934D36"></path>
                            <circle id="Oval" fill="#DD636E" cx="8.456875" cy="4.31910156" r="1.21542969"></circle>
                            <path d="M8.77785156,5.49132812 C8.675625,5.51949219 8.56777344,5.53441406 8.45671875,5.53441406 C7.78550781,5.53441406 7.24144531,4.99035156 7.24144531,4.31910156 C7.24144531,3.64789062 7.78550781,3.10339844 8.45671875,3.10339844 C8.56777344,3.10339844 8.675625,3.11828125 8.77785156,3.14648437 C8.26234375,3.28734375 7.88367187,3.75894531 7.88367187,4.31910156 C7.88367187,4.87925781 8.26234375,5.35050781 8.77785156,5.49132812 Z" id="Path" fill="#C63D4F"></path>
                            <circle id="Oval" fill="#F4DD45" cx="15.6983203" cy="1.21570312" r="1.21542969"></circle>
                            <path d="M16.0192969,2.38792969 C15.9170703,2.41609375 15.8092187,2.43101562 15.6981641,2.43101562 C15.0269531,2.43101562 14.4828906,1.88695312 14.4828906,1.21570312 C14.4828906,0.544492187 15.0269531,-5.55111512e-16 15.6981641,-5.55111512e-16 C15.8092187,-5.55111512e-16 15.9170703,0.0148828125 16.0192969,0.0430859375 C15.5037891,0.183945312 15.1251172,0.655546875 15.1251172,1.21570312 C15.1251172,1.77585937 15.5037891,2.24707031 16.0192969,2.38792969 Z" id="Path" fill="#EAB14D"></path>
                            <circle id="Oval" fill="#617881" cx="1.21542969" cy="15.0084375" r="1.21542969"></circle>
                            <path d="M1.53640625,16.1806641 C1.43417969,16.2088281 1.32632813,16.22375 1.21527344,16.22375 C0.5440625,16.22375 0,15.6796875 0,15.0084375 C0,14.3372266 0.5440625,13.7927344 1.21527344,13.7927344 C1.32632813,13.7927344 1.43417969,13.8076172 1.53640625,13.8358203 C1.02089844,13.9766797 0.642226563,14.4482812 0.642226563,15.0084375 C0.642226563,15.5685937 1.02089844,16.0398437 1.53640625,16.1806641 Z" id="Path" fill="#404A4A"></path>
                        </g>
                    </g>
                </g>
            </g>
        </g>
    </g>
</svg>