<?xml version="1.0" encoding="UTF-8"?>
<svg width="275px" height="294px" viewBox="0 0 275 294" version="1.1" xmlns="http://www.w3.org/2000/svg" xmlns:xlink="http://www.w3.org/1999/xlink">
    <title>ilus-master-stokis</title>
    <g id="website" stroke="none" stroke-width="1" fill="none" fill-rule="evenodd">
        <g id="11a.-daftar-master-stokis" transform="translate(-546.000000, -205.000000)" fill-rule="nonzero">
            <g id="ilus-master-stokis" transform="translate(546.000000, 205.000000)">
                <path d="M253.018522,57.6679204 L252.865301,57.6679204 L133.447506,49.753486 C132.77602,49.7086323 132.15778,49.3722139 131.755442,48.8327421 C131.353105,48.2932703 131.206959,47.6047647 131.355455,46.94837 C136.449059,24.7510235 142.903968,10.4779333 151.09145,3.33942381 C151.545393,2.94358067 152.136283,2.74121152 152.737589,2.77565049 L272.632726,9.75308188 C273.494661,9.80351651 274.255919,10.331983 274.604507,11.1218956 C274.953095,11.9118081 274.830406,12.8303602 274.286723,13.501094 C264.252736,25.8766058 257.856758,40.0946937 255.279508,55.7467695 C255.094732,56.8525788 254.139656,57.6641033 253.018522,57.6679204 L253.018522,57.6679204 Z M136.462809,45.3395534 L251.099335,52.9318317 C253.692039,38.8616767 259.475225,25.5729813 268.004677,14.0864754 L153.436904,7.42137832 C146.718769,13.774141 141.016212,26.5189537 136.462809,45.3395534 Z" id="Shape" fill="#E6E6E6"></path>
                <path d="M267.73163,9.175558 C267.338757,8.0283677 266.598191,6.85564064 265.46868,6.73974299 L157.027767,0 C152.456685,0.825034117 152.454721,9.98094844 156.408991,10.2343518 L264.842046,16.9740948 C266.142457,16.7089052 266.991064,15.7306505 267.509657,14.1984443 C265.46868,14.1198696 264.930443,9.21877407 267.73163,9.175558 Z" id="Path" fill="#29BB89"></path>
                <path d="M135.31169,287.286701 L135.31169,287.286701 C130.783627,287.274832 127.115553,283.607636 127.102601,279.079576 L127.102601,264.427363 C127.115543,259.900831 130.781232,256.234264 135.307761,256.220238 L135.307761,256.220238 C139.835058,256.233186 143.501939,259.900067 143.514887,264.427363 L143.514887,279.079576 C143.50195,283.605345 139.837452,287.271598 135.31169,287.286701 L135.31169,287.286701 Z" id="Path" fill="#5B5B5B"></path>
                <polygon id="Path" fill="#B2B2B2" points="127.106529 264.427363 127.106529 283.729233 128.404976 282.813838 128.404976 262.857834"></polygon>
                <path d="M133.706802,265.619734 C133.706802,265.619734 141.715526,263.731977 145.436037,271.094425 C149.156548,278.456872 138.108949,290.995426 135.378479,291.490447 C132.648009,291.985467 127.471902,291.382406 125.059659,286.579529 C122.647416,281.776652 127.542619,268.246092 133.706802,265.619734 Z" id="Path" fill="#4D4D4D"></path>
                <ellipse id="Oval" fill="#4D4D4D" transform="translate(132.489937, 277.520127) rotate(-69.580000) translate(-132.489937, -277.520127) " cx="132.489937" cy="277.520127" rx="12.4580152" ry="8.2837354"></ellipse>
                <ellipse id="Oval" fill="#4D4D4D" transform="translate(137.632257, 279.434655) rotate(-69.580000) translate(-137.632257, -279.434655) " cx="137.632257" cy="279.434655" rx="12.4580152" ry="8.2837354"></ellipse>
                <ellipse id="Oval" fill="#5B5B5B" transform="translate(138.577352, 279.351464) rotate(-69.577667) translate(-138.577352, -279.351464) " cx="138.577352" cy="279.351464" rx="10.4349691" ry="6.93956972"></ellipse>
                <path d="M123.851573,263.944129 L123.824072,263.944129 L123.824072,263.675011 C123.824372,263.765403 123.833583,263.855545 123.851573,263.944129 Z" id="Path" fill="#5B5B5B"></path>
                <path d="M135.31169,256.220238 L135.31169,256.220238 C130.793646,256.220238 127.106529,259.854317 127.106529,264.295751 L128.404976,266.82782 C128.404976,262.292096 135.195793,262.309776 135.195793,266.82782 L135.31169,282.739192 C135.31169,287.229735 143.129871,284.065139 143.518815,279.215117 L143.518815,264.297715 C143.518815,259.854317 139.825805,256.220238 135.31169,256.220238 Z" id="Path" fill="#B2B2B2"></path>
                <rect id="Rectangle" fill="#5C5C5C" x="21.3626925" y="237.930017" width="15.1236611" height="28.6267195" rx="7.56183055"></rect>
                <polygon id="Path" fill="#B2B2B2" points="21.3626925 245.490866 21.3626925 263.278208 22.5609563 262.435495 22.5609563 244.045092"></polygon>
                <path d="M27.4463369,246.590911 C27.4463369,246.590911 34.8264635,244.850482 38.2503551,251.633441 C41.6742467,258.4164 31.4988259,269.972771 28.9824718,270.428504 C26.4661178,270.884237 21.6966349,270.328321 19.4729715,265.91046 C17.2493081,261.492599 21.7653877,249.011011 27.4463369,246.590911 Z" id="Path" fill="#4D4D4D"></path>
                <ellipse id="Oval" fill="#4D4D4D" transform="translate(26.334459, 257.557473) rotate(-69.580000) translate(-26.334459, -257.557473) " cx="26.3344587" cy="257.557473" rx="11.4797604" ry="7.63352995"></ellipse>
                <ellipse id="Oval" fill="#4D4D4D" transform="translate(31.070088, 259.321117) rotate(-69.580000) translate(-31.070088, -259.321117) " cx="31.0700875" cy="259.321117" rx="11.4797604" ry="7.63352995"></ellipse>
                <ellipse id="Oval" fill="#5B5B5B" transform="translate(31.070088, 259.321117) rotate(-69.580000) translate(-31.070088, -259.321117) " cx="31.0700875" cy="259.321117" rx="9.58611069" ry="6.37437073"></ellipse>
                <path d="M18.3650685,245.046919 L18.3395317,245.046919 L18.3395317,244.797444 C18.3401551,244.881222 18.3487055,244.964752 18.3650685,245.046919 L18.3650685,245.046919 Z" id="Path" fill="#5B5B5B"></path>
                <path d="M28.9255052,237.930017 L28.9255052,237.930017 C24.7669404,237.930017 21.3626925,241.269441 21.3626925,245.371039 L22.5589919,247.706672 C22.5589919,243.528463 28.8194294,243.536321 28.8194294,247.706672 L28.9255052,262.366742 C28.9255052,266.503699 36.1288388,263.590543 36.4883179,259.119644 L36.4883179,245.369075 C36.4883179,241.277299 33.08407,237.930017 28.9255052,237.930017 Z" id="Path" fill="#B2B2B2"></path>
                <path d="M129.605204,220.235 L129.605204,220.235 C125.882639,220.225285 122.867319,217.209965 122.857604,213.4874 L122.857604,201.439937 C122.868393,197.717818 125.883085,194.703125 129.605204,194.692337 L129.605204,194.692337 C133.327323,194.703125 136.342016,197.717818 136.352805,201.439937 L136.352805,213.4874 C136.342016,217.209518 133.327323,220.224211 129.605204,220.235 Z" id="Path" fill="#5C5C5C"></path>
                <polygon id="Path" fill="#B2B2B2" points="122.857604 201.439937 122.857604 217.310058 123.924255 216.557705 123.924255 200.149348"></polygon>
                <path d="M128.281221,202.422121 C128.281221,202.422121 134.865779,200.868306 137.924298,206.920521 C140.982818,212.972735 131.901549,223.285662 129.654313,223.690321 C127.407078,224.094981 123.154223,223.601925 121.170213,219.651583 C119.186202,215.701241 123.217083,204.58096 128.281221,202.422121 Z" id="Path" fill="#4D4D4D"></path>
                <ellipse id="Oval" fill="#4D4D4D" transform="translate(127.290221, 212.247152) rotate(-69.570000) translate(-127.290221, -212.247152) " cx="127.290221" cy="212.247152" rx="10.2422092" ry="6.8104602"></ellipse>
                <ellipse id="Oval" fill="#4D4D4D" transform="translate(131.507973, 213.779396) rotate(-69.580000) translate(-131.507973, -213.779396) " cx="131.507973" cy="213.779396" rx="10.2422092" ry="6.8104602"></ellipse>
                <ellipse id="Oval" fill="#5B5B5B" transform="translate(131.507973, 213.779396) rotate(-69.580000) translate(-131.507973, -213.779396) " cx="131.507973" cy="213.779396" rx="8.55285368" ry="5.68880667"></ellipse>
                <path d="M120.180172,201.043135 L120.158564,201.043135 L120.158564,200.821161 C120.15885,200.895663 120.166084,200.969976 120.180172,201.043135 L120.180172,201.043135 Z" id="Path" fill="#5B5B5B"></path>
                <path d="M129.605204,194.692337 L129.605204,194.692337 C125.892551,194.692337 122.857604,197.680139 122.857604,201.331897 L123.924255,203.414126 C123.924255,199.681829 129.50895,199.693615 129.50895,203.414126 L129.605204,216.494845 C129.605204,220.185891 136.032613,217.585069 136.352805,213.59544 L136.352805,201.331897 C136.352805,197.680139 133.315893,194.692337 129.605204,194.692337 Z" id="Path" fill="#B2B2B2"></path>
                <path d="M241.32661,234.792923 L241.32661,234.792923 C237.604491,234.782135 234.589798,231.767442 234.579009,228.045323 L234.579009,215.99786 C234.589798,212.275742 237.604491,209.261049 241.32661,209.25026 L241.32661,209.25026 C245.048729,209.261049 248.063421,212.275742 248.07421,215.99786 L248.07421,228.045323 C248.063421,231.767442 245.048729,234.782135 241.32661,234.792923 Z" id="Path" fill="#5C5C5C"></path>
                <polygon id="Path" fill="#B2B2B2" points="234.579009 215.99786 234.579009 231.867981 235.645661 231.115628 235.645661 214.707271"></polygon>
                <path d="M240.006555,216.97808 C240.006555,216.97808 246.591113,215.42623 249.649633,221.478444 C252.708152,227.530659 243.626883,237.841621 241.379648,238.248245 C239.132412,238.654869 234.879557,238.159848 232.895547,234.209506 C230.911536,230.259164 234.946346,219.136919 240.006555,216.97808 Z" id="Path" fill="#4D4D4D"></path>
                <ellipse id="Oval" fill="#4D4D4D" transform="translate(239.022310, 226.809624) rotate(-69.570000) translate(-239.022310, -226.809624) " cx="239.02231" cy="226.809624" rx="10.2422092" ry="6.8104602"></ellipse>
                <ellipse id="Oval" fill="#4D4D4D" transform="translate(243.222676, 228.332682) rotate(-69.580000) translate(-243.222676, -228.332682) " cx="243.222676" cy="228.332682" rx="10.2422092" ry="6.8104602"></ellipse>
                <ellipse id="Oval" fill="#5B5B5B" transform="translate(243.222676, 228.332682) rotate(-69.580000) translate(-243.222676, -228.332682) " cx="243.222676" cy="228.332682" rx="8.55285368" ry="5.68880667"></ellipse>
                <path d="M231.903542,215.601058 L231.879969,215.601058 L231.879969,215.379085 C231.880042,215.453697 231.887942,215.528095 231.903542,215.601058 L231.903542,215.601058 Z" id="Path" fill="#5B5B5B"></path>
                <path d="M241.32661,209.25026 L241.32661,209.25026 C237.613956,209.25026 234.579009,212.238062 234.579009,215.88982 L235.645661,217.970085 C235.645661,214.237788 241.230356,214.249574 241.230356,217.970085 L239.984947,230.642216 C239.984947,234.335226 247.754018,232.142992 248.07421,228.153363 L248.07421,215.883927 C248.07421,212.238062 245.037299,209.25026 241.32661,209.25026 Z" id="Path" fill="#B2B2B2"></path>
                <path d="M116.068752,266.260117 C114.2379,266.260117 112.41147,266.080379 110.615669,265.723845 L24.6117554,248.720285 C22.0537442,248.215228 20.1358796,246.082727 19.903999,243.485664 C19.6721184,240.888601 21.1818547,238.450065 23.6099283,237.499821 L122.417586,198.837151 C129.565824,196.047986 133.678645,188.528108 132.170667,181.004628 L127.167425,155.927519 C127.009061,155.143627 127.238897,154.331503 127.784567,153.746857 C128.330236,153.162211 129.1246,152.876978 129.917539,152.980969 L242.59952,167.385672 C243.624839,167.517157 244.460946,168.271063 244.697463,169.277357 L249.739993,190.804854 C251.908254,200.464314 246.982316,210.31619 237.953792,214.377258 L127.458151,263.814481 C123.876615,265.423703 119.995199,266.257157 116.068752,266.260117 Z M132.701047,158.327976 L137.022654,180.026373 C139.004907,189.90581 133.604312,199.781632 124.216946,203.443591 L25.4092884,242.104297 C25.0298907,242.251625 24.7937378,242.632194 24.830175,243.037558 C24.8666123,243.442923 25.1668482,243.775277 25.5664377,243.852584 L111.584102,260.86793 C116.254583,261.79979 121.099467,261.250405 125.442711,259.296437 L235.928529,209.859214 C242.801057,206.769064 246.552575,199.271774 244.905686,191.91865 L240.259959,172.078544 L132.701047,158.327976 Z" id="Shape" fill="#CCCCCC"></path>
                <path d="M247.693123,170.801706 C247.650612,170.804634 247.60795,170.804634 247.565439,170.801706 L124.627498,155.617149 C124.07383,155.548518 123.67123,155.057796 123.712103,154.501389 L131.716899,46.5142449 C131.759865,45.9425624 132.254605,45.5117448 132.826766,45.5477763 L255.768636,53.458282 C256.047049,53.4754422 256.307162,53.6027861 256.491472,53.812162 C256.675781,54.0215379 256.769108,54.2957011 256.750819,54.5740425 L248.746024,169.829344 C248.712733,170.381821 248.254459,170.811529 247.700981,170.811529 L247.693123,170.801706 Z M125.872907,153.662604 L246.726655,168.591793 L254.584122,55.4874731 L133.726446,47.7026869 L125.872907,153.662604 Z" id="Shape" fill="#E6E6E6"></path>
                <polygon id="Rectangle" fill="#E6E6E6" transform="translate(191.665631, 86.375897) rotate(-85.310000) translate(-191.665631, -86.375897) " points="191.038016 24.6947751 192.293246 24.6947751 192.293246 148.057019 191.038016 148.057019"></polygon>
                <polygon id="Rectangle" fill="#E6E6E6" transform="translate(188.880924, 125.286558) rotate(-84.560000) translate(-188.880924, -125.286558) " points="188.253309 63.5013245 189.508539 63.5013245 189.508539 187.071791 188.253309 187.071791"></polygon>
                <path d="M136.942115,156.381288 L136.912649,156.381288 C136.824318,156.373794 136.742592,156.331486 136.685479,156.263688 C136.628366,156.19589 136.600555,156.108165 136.608172,156.019845 L145.589258,47.2390963 C145.590727,47.1134403 145.662211,46.9991132 145.774537,46.9427709 C145.886862,46.8864287 146.021243,46.8974953 146.122838,46.9714546 C146.224433,47.0454139 146.27625,47.1698952 146.257143,47.2940986 L137.274093,156.074847 C137.259809,156.247708 137.115565,156.381288 136.942115,156.381288 L136.942115,156.381288 Z" id="Path" fill="#E6E6E6"></path>
                <path d="M152.790627,158.343693 L152.763126,158.343693 C152.579451,158.327038 152.443064,158.166172 152.456685,157.982247 L161.282586,48.2821751 C161.284055,48.1565192 161.355538,48.042192 161.467864,47.9858498 C161.58019,47.9295075 161.714571,47.9405741 161.816166,48.0145334 C161.917761,48.0884927 161.969578,48.2129741 161.95047,48.3371774 L153.12457,158.037249 C153.110224,158.210863 152.964832,158.343693 152.790627,158.343693 L152.790627,158.343693 Z" id="Path" fill="#E6E6E6"></path>
                <path d="M168.906294,160.339487 L168.880757,160.339487 C168.696295,160.323842 168.558773,160.16267 168.572351,159.978044 L177.241103,49.3448976 C177.246574,49.2558271 177.287884,49.1727691 177.355613,49.114663 C177.423341,49.0565569 177.511715,49.0283564 177.600582,49.036492 C177.784747,49.0511202 177.922532,49.2117233 177.908987,49.3959712 L169.240236,160.031082 C169.225947,160.205028 169.080825,160.339487 168.906294,160.339487 L168.906294,160.339487 Z" id="Path" fill="#E6E6E6"></path>
                <path d="M185.295007,162.368679 L185.26947,162.368679 C185.085305,162.35405 184.94752,162.193447 184.961065,162.009199 L193.462845,50.4331569 C193.471391,50.313751 193.543199,50.2080544 193.651058,50.1561188 C193.758916,50.1041832 193.886324,50.1139548 193.985001,50.181731 C194.083678,50.2495071 194.138528,50.3649178 194.128765,50.4842305 L185.628949,162.060273 C185.614661,162.234219 185.469539,162.368679 185.295007,162.368679 Z" id="Path" fill="#E6E6E6"></path>
                <path d="M201.962661,164.433272 L201.944981,164.433272 C201.856484,164.427209 201.774076,164.386024 201.716137,164.318859 C201.658199,164.251694 201.629548,164.164136 201.636576,164.075713 L209.963527,51.5174875 C209.972651,51.3981813 210.04473,51.2928052 210.152614,51.2410532 C210.260498,51.1893013 210.387796,51.1990358 210.486556,51.26659 C210.585317,51.3341442 210.640535,51.4492549 210.631412,51.568561 L202.30446,164.126787 C202.288063,164.302534 202.139148,164.436044 201.962661,164.433272 L201.962661,164.433272 Z" id="Path" fill="#E6E6E6"></path>
                <path d="M218.917112,166.531173 L218.891575,166.531173 C218.707445,166.517551 218.568825,166.357875 218.581205,166.173657 L226.729399,52.6332479 C226.74296,52.4488167 226.903465,52.3102991 227.087896,52.3229436 C227.272327,52.3374213 227.410845,52.4979258 227.397284,52.6823571 L219.24909,166.222766 C219.236698,166.396848 219.091634,166.531173 218.917112,166.531173 Z" id="Path" fill="#E6E6E6"></path>
                <path d="M236.164253,168.668404 L236.140681,168.668404 C236.052031,168.662368 235.969442,168.621251 235.911191,168.554152 C235.852941,168.487054 235.823834,168.399507 235.830311,168.310889 L243.785997,53.7706164 C243.794419,53.6513102 243.86585,53.5455597 243.973383,53.4931999 C244.080916,53.4408402 244.208214,53.4498259 244.307325,53.5167723 C244.406436,53.5837187 244.462304,53.698455 244.453882,53.8177612 L236.498196,168.356069 C236.486788,168.532012 236.340566,168.668404 236.164253,168.668404 Z" id="Path" fill="#E6E6E6"></path>
                <path d="M219.04676,110.721543 L161.03704,105.682942 C158.916171,105.495477 157.340215,103.637599 157.501179,101.514555 L160.15111,66.6136475 L225.74918,71.0452593 L223.268184,107.107108 C223.197748,108.150128 222.710616,109.120944 221.916527,109.800852 C221.122439,110.48076 220.088185,110.812574 219.04676,110.721543 Z" id="Path" fill="#29BB89"></path>
                <path d="M22.3763058,191.665247 C22.205595,191.665247 22.0624031,191.536415 22.0443278,191.366663 L11.2403096,92.8281243 C11.2345624,92.6525931 11.3650021,92.5022636 11.5395905,92.4832083 C11.7141789,92.4641529 11.8739765,92.5828046 11.90623,92.7554427 L22.7102482,191.293982 C22.7297655,191.477709 22.5972402,191.642707 22.4136288,191.663283 L22.3763058,191.665247 Z" id="Path" fill="#E6E6E6"></path>
                <path d="M31.6991913,188.317966 C31.5260395,188.317966 31.3814501,188.185881 31.365249,188.013489 L22.2054059,88.6381296 C22.194528,88.5191744 22.2479382,88.403452 22.3455175,88.3345538 C22.4430968,88.2656556 22.5700205,88.254049 22.6784777,88.3041061 C22.7869349,88.3541632 22.8604484,88.458279 22.8713263,88.5772343 L32.0272406,187.952594 C32.0354266,188.040923 32.0081318,188.12888 31.9513785,188.197058 C31.8946251,188.265236 31.8130775,188.308031 31.7247281,188.316001 L31.6991913,188.317966 Z" id="Path" fill="#E6E6E6"></path>
                <path d="M41.0633286,184.958898 C40.8880996,184.958898 40.742707,184.823251 40.7293862,184.648528 L33.2353263,84.4304556 C33.2265538,84.3111495 33.2820967,84.196226 33.3810326,84.1289757 C33.4799684,84.0617255 33.6072666,84.0523653 33.714975,84.1044211 C33.8226834,84.156477 33.8944385,84.2620403 33.903211,84.3813465 L41.3933422,184.597455 C41.4003802,184.686081 41.3717872,184.773856 41.313898,184.841332 C41.2560088,184.908808 41.1736026,184.950414 41.0849366,184.956934 L41.0633286,184.958898 Z" id="Path" fill="#E6E6E6"></path>
                <path d="M50.4569313,181.584116 C50.2791892,181.584116 50.1323986,181.445346 50.1229889,181.267853 L44.3123915,80.2011736 C44.3034357,80.0166759 44.444304,79.8591835 44.6286546,79.8474114 C44.812027,79.8417651 44.9676558,79.9809664 44.9822406,80.1638506 L50.7908737,181.23053 C50.7962396,181.319135 50.7661074,181.40623 50.7071336,181.472576 C50.6481599,181.538921 50.5651979,181.579057 50.476575,181.584116 L50.4569313,181.584116 Z" id="Path" fill="#E6E6E6"></path>
                <path d="M59.8937501,178.197547 C59.7138252,178.197547 59.566158,178.055204 59.5598077,177.875391 L55.4346371,75.9522479 C55.4297245,75.8329418 55.4888341,75.7200775 55.5897,75.65617 C55.6905658,75.5922625 55.8178639,75.5870208 55.9236424,75.6424195 C56.0294208,75.6978181 56.0976093,75.8054406 56.1025219,75.9247468 L60.2178706,177.849854 C60.2215936,177.938441 60.1899339,178.024872 60.1298706,178.090094 C60.0698074,178.155316 59.9862719,178.193975 59.8976788,178.197547 L59.8937501,178.197547 Z" id="Path" fill="#E6E6E6"></path>
                <path d="M69.3678919,174.795264 C69.186486,174.795264 69.0382178,174.650535 69.0339495,174.469179 L66.6276,71.6836785 C66.6155031,71.5584087 66.6744454,71.4368861 66.7803106,71.3688317 C66.8861759,71.3007772 67.0212015,71.2976094 67.1301417,71.3606245 C67.2390819,71.4236395 67.3036581,71.5422643 67.2974491,71.6679636 L69.7037986,174.453464 C69.7070907,174.63824 69.560505,174.79097 69.3757493,174.795264 L69.3678919,174.795264 Z" id="Path" fill="#E6E6E6"></path>
                <path d="M78.881321,171.381194 C78.6976541,171.381194 78.548459,171.23288 78.5473786,171.049216 L77.8677016,67.3935011 C77.8666146,67.2087437 78.0149375,67.0577877 78.1996856,67.05563 L78.1996856,67.05563 C78.3841169,67.05563 78.533628,67.2051411 78.533628,67.3895724 L79.2152634,171.043323 C79.2152634,171.2284 79.066386,171.379042 78.881321,171.381194 L78.881321,171.381194 Z" id="Path" fill="#E6E6E6"></path>
                <path d="M88.4340374,167.953374 L88.4340374,167.953374 C88.2492893,167.951216 88.1009663,167.80026 88.1020534,167.615503 L89.1628176,63.0836801 C89.1649752,62.9000168 89.3150517,62.7525733 89.4987243,62.7536604 L89.4987243,62.7536604 C89.5872933,62.7536604 89.6718225,62.7908827 89.7337134,62.8542472 C89.7956043,62.9176117 89.8297861,63.0029687 89.828738,63.0915375 L88.7679798,167.62336 C88.7658279,167.806255 88.6169453,167.953374 88.4340374,167.953374 L88.4340374,167.953374 Z" id="Path" fill="#E6E6E6"></path>
                <path d="M98.0299699,164.509838 L98.0201481,164.509838 C97.931573,164.507779 97.8474468,164.470605 97.7862889,164.406499 C97.7251309,164.342394 97.6919546,164.256613 97.6940632,164.168039 L100.510965,58.7522509 C100.51193,58.6631382 100.549108,58.578253 100.613949,58.517117 C100.678791,58.4559809 100.765714,58.4238561 100.85473,58.4277524 C100.943654,58.4301841 101.028085,58.4676295 101.0893,58.5321631 C101.150515,58.5966967 101.183454,58.6829853 101.180815,58.7718946 L98.3599836,164.183754 C98.3547619,164.363159 98.2094255,164.506766 98.0299699,164.509838 L98.0299699,164.509838 Z" id="Path" fill="#E6E6E6"></path>
                <path d="M107.655368,161.052553 L107.641617,161.052553 C107.4573,161.043016 107.314741,160.887338 107.321426,160.702895 L111.910187,54.3992138 C111.928855,54.2230992 112.081049,54.0917321 112.258001,54.0987098 C112.434954,54.1062619 112.575868,54.2496627 112.580036,54.4267149 L107.98931,160.730396 C107.98296,160.910209 107.835293,161.052553 107.655368,161.052553 Z" id="Path" fill="#E6E6E6"></path>
                <path d="M117.325946,157.579561 L117.306303,157.579561 C117.21768,157.574493 117.134718,157.534357 117.075744,157.468012 C117.01677,157.401666 116.986638,157.314571 116.992004,157.225966 L123.370304,50.0245686 C123.389571,49.8465147 123.545142,49.7148903 123.723928,49.7247911 C123.902714,49.7358623 124.041832,49.8847704 124.040168,50.0638559 L117.659889,157.265253 C117.650445,157.442423 117.503363,157.580853 117.325946,157.579561 L117.325946,157.579561 Z" id="Path" fill="#E6E6E6"></path>
                <path d="M13.0082399,195.739353 C12.8141122,195.739353 12.6237859,195.685513 12.4582171,195.584159 C12.1869276,195.417618 12.0067372,195.136116 11.9690897,194.82002 L0.00805941727,96.9277581 C-0.0504535147,96.4503728 0.224413087,95.9946942 0.673979811,95.8237839 L132.386748,45.6145648 C132.721169,45.4862884 133.097988,45.5382178 133.385247,45.7521679 C133.672506,45.9661181 133.830181,46.3122791 133.803056,46.6694299 L125.798261,154.656574 C125.76863,155.06901 125.498167,155.425005 125.108768,155.564111 L13.3657546,195.678449 C13.2509922,195.719234 13.1300333,195.739353 13.0082399,195.739353 Z M2.19243546,97.4876027 L13.8863119,193.266206 L123.763177,153.823682 L131.597072,48.1564556 L2.19243546,97.4876027 Z" id="Shape" fill="#E6E6E6"></path>
                <polygon id="Rectangle" fill="#E6E6E6" transform="translate(67.521846, 104.432909) rotate(-20.450000) translate(-67.521846, -104.432909) " points="0.622382735 103.805294 134.421308 103.805294 134.421308 105.060524 0.622382735 105.060524"></polygon>
                <polygon id="Rectangle" fill="#E6E6E6" transform="translate(68.319143, 141.242953) rotate(-20.280000) translate(-68.319143, -141.242953) " points="5.36904006 140.615338 131.269246 140.615338 131.269246 141.870569 5.36904006 141.870569"></polygon>
                <path d="M133.064454,211.204917 L133.005523,211.204917 L22.6689965,191.525777 C22.5447135,191.511621 22.4385905,191.42958 22.3935918,191.312867 C22.3485932,191.196155 22.3710979,191.064106 22.4547857,190.970181 C22.5373981,190.876257 22.6653573,190.836016 22.7868585,190.86575 L133.123385,210.540849 C133.297657,210.567432 133.421249,210.724899 133.405663,210.900497 C133.390078,211.076094 133.240684,211.209331 133.064454,211.204917 Z" id="Path" fill="#E6E6E6"></path>
                <path d="M143.886152,207.323216 C143.86721,207.325107 143.848127,207.325107 143.829185,207.323216 L32.420114,188.046883 C32.3015977,188.027553 32.2025855,187.946079 32.1607992,187.833501 C32.119013,187.720924 32.1399237,187.594579 32.2180891,187.502603 C32.2952907,187.410626 32.4159307,187.367181 32.5340473,187.38882 L143.943119,206.651403 C144.116861,206.678085 144.240174,206.834886 144.225147,207.010022 C144.210121,207.185158 144.0619,207.318662 143.886152,207.315359 L143.886152,207.323216 Z" id="Path" fill="#E6E6E6"></path>
                <path d="M154.705885,203.443591 L154.648918,203.443591 L42.1515878,184.564061 C41.9744011,184.527609 41.8579029,184.357389 41.8880713,184.179025 C41.9182397,184.000661 42.0842383,183.878221 42.2635568,183.902069 L154.760887,202.777671 C154.929933,202.809542 155.047581,202.963973 155.033421,203.135413 C155.019261,203.306853 154.877869,203.439888 154.705885,203.443591 Z" id="Path" fill="#E6E6E6"></path>
                <path d="M165.519725,199.563967 C165.502099,199.565913 165.484313,199.565913 165.466687,199.563967 L51.8889548,181.079274 C51.7066933,181.049439 51.5831268,180.877501 51.6129612,180.69524 C51.6427957,180.512978 51.8147335,180.389412 51.996995,180.419246 L165.572763,198.900011 C165.745598,198.926738 165.868536,199.082287 165.855685,199.256621 C165.840684,199.430956 165.694612,199.565016 165.519725,199.563967 L165.519725,199.563967 Z" id="Path" fill="#E6E6E6"></path>
                <path d="M176.331601,195.686306 L176.278563,195.686306 L61.6243574,177.596451 C61.4991189,177.585761 61.3903277,177.506045 61.3423985,177.389848 C61.2944693,177.273651 61.3154229,177.140418 61.3967048,177.044542 C61.4779867,176.948666 61.6059948,176.906192 61.7284688,176.934459 L176.384639,195.020386 C176.553421,195.052089 176.67111,195.205996 176.658548,195.377189 C176.64384,195.548381 176.503274,195.681719 176.331601,195.686306 L176.331601,195.686306 Z" id="Path" fill="#E6E6E6"></path>
                <path d="M187.139548,191.81061 L187.088474,191.81061 L71.3558312,174.115593 C71.2375778,174.097346 71.1380417,174.017398 71.0947172,173.905864 C71.0513927,173.79433 71.0719878,173.668155 71.1457907,173.574868 C71.2207196,173.481581 71.3397249,173.435354 71.4579783,173.453601 L187.190621,191.14469 C187.373776,191.159676 187.510406,191.319828 187.497347,191.503057 C187.4823,191.686286 187.322846,191.82373 187.139548,191.81061 L187.139548,191.81061 Z" id="Path" fill="#E6E6E6"></path>
                <path d="M197.94553,187.934914 L197.896421,187.934914 L81.0853407,170.634735 C80.9625156,170.621979 80.8565927,170.542861 80.8095083,170.428704 C80.762424,170.314547 80.781771,170.183761 80.8598898,170.088125 C80.9380085,169.99249 81.0623014,169.947427 81.183559,169.970779 L197.994639,187.268994 C198.175435,187.286263 198.309282,187.444857 198.296843,187.625984 C198.282567,187.80711 198.126903,187.944354 197.94553,187.934914 L197.94553,187.934914 Z" id="Path" fill="#E6E6E6"></path>
                <path d="M208.747584,184.061183 L208.700439,184.061183 L90.8128858,167.153876 C90.6946324,167.137033 90.5943475,167.058382 90.5498074,166.94755 C90.5052673,166.836718 90.5232388,166.710543 90.5969522,166.616554 C90.6706656,166.522565 90.788922,166.475042 90.9071754,166.491885 L208.794729,183.38544 C208.974367,183.403561 209.107072,183.561181 209.095169,183.74128 C209.081572,183.921379 208.927983,184.05873 208.747584,184.051361 L208.747584,184.061183 Z" id="Path" fill="#E6E6E6"></path>
                <path d="M219.545709,180.187451 L219.500529,180.187451 L100.536502,163.686769 C100.353416,163.66137 100.225252,163.492825 100.249705,163.30961 C100.277062,163.126821 100.44549,162.99941 100.628827,163.022813 L219.592854,179.523495 C219.765647,179.550078 219.889162,179.704756 219.877697,179.879148 C219.864542,180.053541 219.720523,180.189334 219.545709,180.19138 L219.545709,180.187451 Z" id="Path" fill="#E6E6E6"></path>
                <path d="M230.34187,176.313719 L230.296689,176.313719 L110.258154,160.205911 C110.13955,160.19012 110.038379,160.112254 109.992752,160.001645 C109.947125,159.891035 109.963973,159.764486 110.03695,159.669667 C110.109927,159.574848 110.227946,159.526164 110.346551,159.541954 L230.385086,175.649763 C230.563179,175.668692 230.694631,175.824742 230.683744,176.003462 C230.671434,176.182182 230.520916,176.319932 230.34187,176.315779 L230.34187,176.313719 Z" id="Path" fill="#E6E6E6"></path>
                <path d="M241.134102,172.443917 L241.090886,172.443917 L119.975877,156.728981 C119.792866,156.704533 119.663895,156.536958 119.687116,156.353787 C119.697859,156.265416 119.743643,156.185063 119.81419,156.130768 C119.884737,156.076473 119.974134,156.052786 120.06231,156.065025 L241.177318,171.779961 C241.349547,171.806248 241.47309,171.959852 241.462551,172.133711 C241.45059,172.307571 241.308282,172.443972 241.134102,172.447845 L241.134102,172.443917 Z" id="Path" fill="#E6E6E6"></path>
                <polygon id="Rectangle" fill="#E6E6E6" transform="translate(104.355034, 179.799070) rotate(-19.830000) translate(-104.355034, -179.799070) " points="43.3997451 179.171455 165.310322 179.171455 165.310322 180.426685 43.3997451 180.426685"></polygon>
                <polygon id="Rectangle" fill="#E6E6E6" transform="translate(144.453817, 185.691961) rotate(-20.360000) translate(-144.453817, -185.691961) " points="82.6067055 185.064345 206.300928 185.064345 206.300928 186.319576 82.6067055 186.319576"></polygon>
                <path d="M124.97912,215.235696 C124.896216,215.235696 124.813429,215.229415 124.73161,215.216042 L12.762694,196.138111 C12.1071977,196.02504 11.6100798,195.484655 11.5519782,194.822021 C11.4938766,194.159386 11.8893672,193.540735 12.5151838,193.315315 L124.260162,153.199014 C124.475964,153.122378 124.706596,153.096827 124.93394,153.124368 L247.87188,168.303031 C248.544524,168.386801 249.071934,168.920957 249.147147,169.594611 C249.222361,170.268265 248.825748,170.905589 248.188144,171.135648 L125.472176,215.149254 C125.314008,215.206168 125.147216,215.235696 124.97912,215.235696 L124.97912,215.235696 Z M18.7540132,194.18553 L124.845543,212.257706 L241.40322,170.452049 L124.91626,156.070918 L18.7540132,194.18553 Z" id="Shape" fill="#E6E6E6"></path>
                <polygon id="Path" fill="#DEB275" points="98.249979 181.430895 40.7529586 169.308787 40.7529586 103.135158 98.249979 113.540409"></polygon>
                <polygon id="Path" fill="#FFCD8C" points="40.7529586 103.135158 64.6003733 95.3994807 82.291462 90.5416012 137.03444 99.8743086 98.249979 113.540409"></polygon>
                <polygon id="Path" fill="#DEB275" points="98.249979 181.430895 136.205477 165.609884 137.03444 99.8743086 98.249979 113.540409"></polygon>
                <path d="M121.174141,105.840091 L121.154498,105.840091 L64.5807296,95.5075208 C64.5523608,95.502769 64.527138,95.4867002 64.5108424,95.4629975 C64.4945468,95.4392948 64.4885756,95.4099905 64.4942975,95.3818014 C64.5061722,95.3238903 64.5616939,95.2857191 64.620017,95.2953692 L121.193785,105.627939 C121.252317,105.638869 121.290972,105.695095 121.280217,105.753659 C121.269258,105.80363 121.225296,105.839451 121.174141,105.840091 Z" id="Path" fill="#B38358"></path>
                <path d="M98.5485628,113.797742 C98.4957483,113.797742 98.4506168,113.759707 98.4418552,113.707625 C98.4330936,113.655542 98.4632704,113.604759 98.5132042,113.587554 L136.81836,100.11789 C136.867127,100.113743 136.91259,100.142896 136.929168,100.188946 C136.945746,100.234996 136.929297,100.286439 136.889077,100.314327 L98.5839214,113.785955 C98.5727978,113.791646 98.5608764,113.79562 98.5485628,113.797742 L98.5485628,113.797742 Z" id="Path" fill="#B38358"></path>
                <polygon id="Path" fill="#FFFFFF" style="mix-blend-mode: soft-light;" points="61.6950746 96.3855929 117.68739 106.900849 117.68739 121.759321 123.468522 119.040637 123.87711 104.793083 68.4289245 94.4133685"></polygon>
                <polygon id="Path" fill="#DEB275" points="179.798708 183.236149 122.303652 171.11404 122.303652 104.940411 179.798708 115.347627"></polygon>
                <polygon id="Path" fill="#FFCD8C" points="122.303652 104.940411 146.151067 97.2066982 163.840191 92.3468544 218.585134 101.681526 179.798708 115.347627"></polygon>
                <polygon id="Path" fill="#E8BB7F" points="179.798708 183.236149 217.756171 167.415137 218.585134 101.681526 179.798708 115.347627"></polygon>
                <path d="M202.730728,107.647309 L202.711084,107.647309 L146.137316,97.3167028 C146.078785,97.3057735 146.040129,97.2495474 146.050884,97.1909833 C146.055668,97.1630265 146.071449,97.13815 146.094702,97.1219096 C146.117956,97.1056691 146.146745,97.0994176 146.174639,97.1045512 L202.748407,107.437121 C202.806991,107.442546 202.850086,107.494435 202.845122,107.553019 C202.839237,107.611603 202.787348,107.654697 202.728764,107.649273 L202.730728,107.647309 Z" id="Path" fill="#B38358"></path>
                <path d="M180.099257,115.602995 C180.048434,115.600724 180.006081,115.563305 179.997564,115.51315 C179.989047,115.462994 180.016674,115.413692 180.063898,115.394772 L218.369053,101.925108 C218.418217,101.919875 218.464659,101.948681 218.481816,101.99505 C218.498972,102.041419 218.482464,102.093517 218.441735,102.121544 L180.140508,115.597102 L180.099257,115.602995 Z" id="Path" fill="#B38358"></path>
                <polygon id="Path" fill="#FFFFFF" style="mix-blend-mode: soft-light;" points="143.245768 98.1928105 199.238084 108.708067 199.238084 123.564574 205.019216 120.847854 205.42584 106.600301 149.977654 96.220586"></polygon>
                <polygon id="Path" fill="#000000" opacity="0.2" style="mix-blend-mode: hard-light;" points="166.354581 112.913776 199.088792 104.592718 133.29625 102.372983 133.29625 111.173347 122.303652 108.761105 122.303652 171.11404 161.060612 178.168082"></polygon>
                <polygon id="Path" fill="#E8BB7F" points="122.274187 200.783838 64.7791307 188.659766 64.7791307 122.488101 122.274187 132.893353"></polygon>
                <polygon id="Path" fill="#FFCD8C" points="64.7791307 122.488101 88.6265454 114.752424 106.31567 109.89258 161.060612 119.227252 122.274187 132.893353"></polygon>
                <polygon id="Path" fill="#DEB275" points="122.274187 200.783838 160.231649 184.960863 161.060612 119.227252 122.274187 132.893353"></polygon>
                <path d="M145.200313,125.19107 L145.174777,125.19107 L88.6010086,114.8585 C88.5464323,114.844392 88.5118743,114.790696 88.5216413,114.735178 C88.5314083,114.67966 88.5822173,114.640982 88.6383316,114.646348 L145.2121,124.978918 C145.270684,124.984343 145.313778,125.036232 145.308814,125.094816 C145.302929,125.1534 145.25104,125.196494 145.192456,125.19107 L145.200313,125.19107 Z" id="Path" fill="#B38358"></path>
                <path d="M122.584557,133.14872 C122.533734,133.146449 122.491381,133.109031 122.482864,133.058875 C122.474347,133.00872 122.501974,132.959418 122.549198,132.940497 L160.854354,119.470833 C160.903517,119.4656 160.949959,119.494407 160.967116,119.540776 C160.984272,119.587144 160.967765,119.639243 160.927035,119.66727 L122.62188,133.136934 L122.584557,133.14872 Z" id="Path" fill="#B38358"></path>
                <polygon id="Path" fill="#FFFFFF" style="mix-blend-mode: soft-light;" points="85.7212467 115.738536 141.713562 126.253792 141.713562 141.110299 147.494694 138.39358 147.901318 124.146027 92.4531322 113.766312"></polygon>
                <polygon id="Path" fill="#000000" opacity="0.2" style="mix-blend-mode: hard-light;" points="64.7791307 134.706463 102.003884 134.706463 107.022842 130.133417 139.975097 115.966403 106.31567 109.89258 64.7791307 122.488101"></polygon>
                <polygon id="Path" fill="#E8BB7F" points="152.052025 114.510807 199.088792 104.592718 199.088792 50.454765 152.052025 58.9683313"></polygon>
                <polygon id="Path" fill="#FFCD8C" points="199.088792 50.454765 179.580664 44.127539 165.107208 40.1516603 120.319642 47.7871547 152.052025 58.9683313"></polygon>
                <polygon id="Path" fill="#C99D62" points="152.052025 114.510807 120.997348 101.567593 120.319642 47.7871547 152.052025 58.9683313"></polygon>
                <polygon id="Path" fill="#000000" opacity="0.2" style="mix-blend-mode: hard-light;" points="159.779845 57.569702 152.052025 63.5040546 140.666554 71.3281281 139.975097 109.476134 134.168429 106.953887 134.168429 52.5094928 152.052025 58.9683313"></polygon>
                <path d="M133.29625,52.6686065 C133.251523,52.6672737 133.214847,52.6327295 133.210482,52.5881631 C133.206835,52.5435966 133.236763,52.5030655 133.280535,52.4937779 L179.564949,44.047 C179.587917,44.0424304 179.611757,44.0473767 179.631012,44.0607069 C179.650267,44.0740371 179.663288,44.0946101 179.667096,44.1177172 C179.674381,44.1651411 179.643332,44.2099901 179.596379,44.2198643 L133.311965,52.6666421 L133.29625,52.6686065 Z" id="Path" fill="#B38358"></path>
                <path d="M151.806479,59.1785186 L151.777014,59.1785186 L120.443397,48.1525269 C120.404068,48.1322138 120.385827,48.0859428 120.400715,48.0442567 C120.415603,48.0025706 120.459029,47.9783233 120.502328,47.9875201 L151.833981,59.0076186 C151.880015,59.0234325 151.904603,59.0734869 151.888983,59.1195876 C151.876131,59.1542629 151.843448,59.1776078 151.806479,59.1785186 Z" id="Path" fill="#B38358"></path>
                <polygon id="Path" fill="#FFFFFF" style="mix-blend-mode: soft-light;" points="181.955583 44.9329295 136.148511 53.5368567 136.148511 65.6923594 131.418315 63.468696 131.084373 51.8121425 176.449463 43.3201842"></polygon>
                <polygon id="Path" fill="#E8BB7F" points="104.060576 131.406327 54.277625 120.90875 54.277625 63.6120948 104.060576 72.6226459"></polygon>
                <polygon id="Path" fill="#FFCD8C" points="54.277625 63.6120948 74.9250859 56.9155678 90.2432194 52.7078939 137.643394 60.7892995 104.060576 72.6226459"></polygon>
                <polygon id="Path" fill="#DEB275" points="104.060576 131.406327 136.9264 117.706832 137.643394 60.7892995 104.060576 72.6226459"></polygon>
                <path d="M123.912469,65.9536202 L123.89479,65.9536202 L74.909371,57.0059287 C74.8848167,57.0021478 74.8629023,56.9884241 74.8487804,56.9679844 C74.8346585,56.9475448 74.829575,56.9221925 74.8347251,56.8978885 C74.844645,56.847896 74.8924962,56.8148352 74.9427652,56.8232426 L123.928184,65.7689697 C123.961168,65.7717769 123.99015,65.7919679 124.004211,65.8219374 C124.018272,65.8519062 124.015277,65.8871004 123.996354,65.9142623 C123.97743,65.9414242 123.945453,65.9564274 123.912469,65.9536202 L123.912469,65.9536202 Z" id="Path" fill="#B38358"></path>
                <path d="M104.315944,72.8446238 C104.275979,72.8450081 104.240301,72.8196374 104.227548,72.7817597 C104.218835,72.7586048 104.219998,72.7328905 104.230764,72.7106162 C104.24153,72.6883418 104.260957,72.6714558 104.284514,72.6638976 L137.444993,60.9994867 C137.493798,60.9824076 137.547254,61.0078209 137.564819,61.0564534 C137.580788,61.1051937 137.555734,61.1578945 137.507852,61.1762798 L104.353267,72.8387263 L104.315944,72.8446238 Z" id="Path" fill="#B38358"></path>
                <polygon id="Path" fill="#FFFFFF" style="mix-blend-mode: soft-light;" points="72.4106963 57.7681031 120.893237 66.8729439 120.893237 79.737583 125.898444 77.3842714 126.250065 65.048047 78.2409373 56.0610682"></polygon>
                <polygon id="Path" fill="#000000" opacity="0.2" style="mix-blend-mode: hard-light;" points="94.1994544 54.1183093 91.3727304 54.8942343 117.420236 68.0162055 137.482316 88.5399113 137.643394 60.7892995"></polygon>
                <polygon id="Path" fill="#E8BB7F" points="117.420236 68.0162055 159.705199 59.0999439 159.705199 10.4327528 117.420236 18.0859265"></polygon>
                <polygon id="Path" fill="#FFCD8C" points="159.705199 10.4327528 142.167331 4.74394617 129.155364 1.1707627 88.8936993 8.0342608 117.420236 18.0859265"></polygon>
                <polygon id="Path" fill="#DEB275" points="117.420236 68.0162055 89.5046174 56.3792957 88.8936993 8.0342608 117.420236 18.0859265"></polygon>
                <path d="M100.55811,12.4206977 C100.520005,12.4211455 100.48736,12.3935226 100.4815,12.3558681 C100.47433,12.3136512 100.502285,12.273467 100.54436,12.2655072 L142.151616,4.66537149 C142.194912,4.65821874 142.235965,4.68704358 142.243941,4.7301956 C142.247961,4.75078663 142.243579,4.77213011 142.231772,4.78947194 C142.219965,4.80681377 142.201713,4.81871361 142.181081,4.82252085 L100.583647,12.4206977 L100.55811,12.4206977 Z" id="Path" fill="#B38358"></path>
                <path d="M117.198263,18.2686126 C117.189846,18.2704175 117.181142,18.2704175 117.172726,18.2686126 L89.0056682,8.36231008 C88.9858187,8.35560943 88.9694671,8.34125943 88.9602458,8.32244805 C88.9510245,8.30363667 88.9496973,8.28192173 88.956559,8.26212737 C88.9721975,8.22125983 89.0170215,8.19970981 89.0587061,8.21301819 L117.223799,18.1193207 C117.264667,18.1349592 117.286217,18.1797832 117.272909,18.2214678 C117.259624,18.2506356 117.230309,18.2691503 117.198263,18.2686126 L117.198263,18.2686126 Z" id="Path" fill="#B38358"></path>
                <polygon id="Path" fill="#FFFFFF" style="mix-blend-mode: soft-light;" points="144.302598 5.46879757 103.123573 13.2025102 103.123573 24.1302835 98.870719 22.130558 98.5721352 11.6526247 139.350429 4.01909477"></polygon>
                <path d="M23.9969085,196.900285 C23.8278731,196.900285 23.685688,196.773388 23.6649305,196.60563 L11.9258737,98.1908461 C11.9114867,98.0722418 11.9614673,97.9549715 12.0569882,97.8832099 C12.1525091,97.8114483 12.2790584,97.7960977 12.3889663,97.8429404 C12.4988741,97.8897831 12.5754428,97.9917027 12.5898297,98.110307 L24.3308509,196.525091 C24.3527925,196.708896 24.2218968,196.87581 24.0381602,196.898321 L23.9969085,196.900285 Z" id="Path" fill="#E6E6E6"></path>
                <path d="M38.4133975,199.357708 C38.2430309,199.35677 38.1003469,199.228439 38.0814195,199.059124 L26.9473877,99.9862775 C26.9389598,99.8096728 27.0688745,99.656767 27.2445217,99.6365599 C27.4201688,99.6163527 27.5814119,99.7357624 27.6133081,99.9096672 L38.7473399,198.990371 C38.7669582,199.173818 38.635794,199.339085 38.4526849,199.361637 L38.4133975,199.357708 Z" id="Path" fill="#E6E6E6"></path>
                <path d="M53.0459669,201.85049 C52.874176,201.85049 52.7301078,201.720778 52.7120245,201.549942 L42.2026614,101.826889 C42.1831334,101.643 42.3163741,101.478099 42.500263,101.45857 C42.6841518,101.439042 42.8490538,101.572283 42.8685818,101.756172 L53.3779449,201.481189 C53.3974233,201.664521 53.2646471,201.828952 53.0813255,201.848525 L53.0459669,201.85049 Z" id="Path" fill="#E6E6E6"></path>
                <path d="M67.9005098,204.380594 C67.7287934,204.379436 67.5855994,204.248952 67.5685317,204.078082 L57.7054453,103.689109 C57.6938656,103.570154 57.7466274,103.454057 57.8438557,103.384551 C57.9410841,103.315045 58.0680078,103.30269 58.1768159,103.352139 C58.285624,103.401588 58.359786,103.50533 58.3713657,103.624285 L68.2344521,204.013258 C68.2432097,204.101597 68.2164334,204.189788 68.160039,204.258346 C68.1036446,204.326903 68.0222737,204.370186 67.933904,204.37863 L67.9005098,204.380594 Z" id="Path" fill="#E6E6E6"></path>
                <path d="M82.9809548,206.949986 C82.8081969,206.949986 82.6642198,206.817594 82.6489768,206.645509 L73.4537751,105.580795 C73.4369593,105.396906 73.5723988,105.234202 73.7562876,105.217387 C73.9401764,105.200571 74.1028797,105.33601 74.1196955,105.519899 L83.3148972,206.584614 C83.331977,206.768959 83.1966796,206.932371 83.0123847,206.949986 L82.9809548,206.949986 Z" id="Path" fill="#E6E6E6"></path>
                <path d="M98.2931951,209.558666 C98.1193557,209.558319 97.9745015,209.425394 97.9592527,209.252224 L89.4555082,107.498017 C89.4453321,107.379061 89.4993909,107.263713 89.597321,107.195423 C89.6952512,107.127133 89.822175,107.116275 89.9302812,107.16694 C90.0383875,107.217605 90.1112525,107.322095 90.1214286,107.44105 L98.61928,209.20508 C98.6339961,209.389359 98.4970429,209.550893 98.3128388,209.566523 L98.2931951,209.558666 Z" id="Path" fill="#E6E6E6"></path>
                <path d="M113.841159,212.208597 C113.665931,212.208597 113.520538,212.072949 113.507217,211.898227 L105.716538,109.456491 C105.702977,109.272059 105.841494,109.111555 106.025926,109.097077 C106.210357,109.084432 106.370861,109.22295 106.384423,109.407381 L114.175102,211.849117 C114.18213,211.93754 114.153479,212.025098 114.09554,212.092263 C114.037601,212.159428 113.955194,212.200613 113.866696,212.206632 L113.841159,212.208597 Z" id="Path" fill="#E6E6E6"></path>
                <path d="M124.97912,214.81729 C124.919911,214.81729 124.860777,214.812981 124.802327,214.803525 L12.8334112,195.725594 C12.3774681,195.647391 12.0268863,195.27924 11.9710541,194.82002 L0.00805941727,96.9277581 C-0.0321532221,96.6056687 0.0795807513,96.2831793 0.31044328,96.0550101 C0.541305809,95.826841 0.865084211,95.718899 1.18667958,95.7628885 L118.341524,109.855257 C118.841072,109.91631 119.226867,110.323538 119.260848,110.825654 L126.030056,213.701516 C126.049056,213.990225 125.947737,214.273927 125.750147,214.485286 C125.552556,214.696644 125.276312,214.81729 124.986978,214.81729 L124.97912,214.81729 Z M13.9550647,193.792657 L123.851573,212.517002 L117.221835,111.829446 L2.2552952,97.9983381 L13.9550647,193.792657 Z" id="Shape" fill="#E6E6E6"></path>
                <polygon id="Rectangle" fill="#E6E6E6" transform="translate(63.255080, 136.573831) rotate(-81.360000) translate(-63.255080, -136.573831) " points="62.6274644 78.274367 63.8826949 78.274367 63.8826949 194.873296 62.6274644 194.873296"></polygon>
                <polygon id="Rectangle" fill="#E6E6E6" transform="translate(66.024663, 171.702673) rotate(-81.360000) translate(-66.024663, -171.702673) " points="65.3970475 114.29896 66.652278 114.29896 66.652278 229.106386 65.3970475 229.106386"></polygon>
                <path d="M124.97912,214.817292 C124.775248,214.817292 124.575676,214.758684 124.405525,214.646376 C124.130504,214.466041 123.955977,214.167164 123.934077,213.839021 L117.164868,110.96316 C117.135255,110.51453 117.395371,110.09708 117.811145,109.925974 L255.301116,53.532928 C255.635952,53.3955804 256.017977,53.4408935 256.311391,53.6527596 C256.604806,53.8646257 256.767999,54.2129988 256.742962,54.5740425 L248.738166,169.829344 C248.70922,170.243553 248.437801,170.601333 248.046709,170.74081 L125.33467,214.756381 C125.220631,214.797331 125.100287,214.817292 124.97912,214.817292 Z M119.3021,111.576042 L125.923981,212.318601 L246.689332,169.002346 L254.52912,56.108213 L119.3021,111.576042 Z" id="Shape" fill="#E6E6E6"></path>
                <rect id="Rectangle" fill="#E6E6E6" transform="translate(186.784508, 118.628258) rotate(-21.930000) translate(-186.784508, -118.628258) " x="115.29923" y="118.000643" width="142.970555" height="1.25523048"></rect>
                <polygon id="Rectangle" fill="#E6E6E6" transform="translate(186.570579, 155.726616) rotate(-21.080000) translate(-186.570579, -155.726616) " points="118.19293 155.099001 254.948228 155.099001 254.948228 156.354231 118.19293 156.354231"></polygon>
                <path d="M135.464911,210.344413 C135.288599,210.344413 135.142376,210.208021 135.130968,210.032078 L128.143715,106.706377 C128.131239,106.521946 128.270636,106.36232 128.455067,106.349068 C128.639499,106.337368 128.799124,106.476765 128.8116,106.661196 L135.798853,209.986898 C135.805331,210.075517 135.776223,210.163063 135.717973,210.230161 C135.659723,210.29726 135.577133,210.338377 135.488483,210.344413 L135.464911,210.344413 Z" id="Path" fill="#E6E6E6"></path>
                <path d="M145.261209,206.83016 C145.083467,206.83016 144.936676,206.69139 144.927266,206.513897 L139.203099,102.16476 C139.202535,101.986094 139.341929,101.838249 139.520319,101.827781 C139.698709,101.81837 139.853664,101.949814 139.87295,102.127437 L145.597116,206.476574 C145.607162,206.661456 145.465706,206.819605 145.280852,206.83016 L145.261209,206.83016 Z" id="Path" fill="#E6E6E6"></path>
                <path d="M155.151796,203.282513 C154.972604,203.282513 154.825232,203.141362 154.817854,202.962321 L150.384278,97.5740349 C150.376684,97.3896036 150.520038,97.2339362 150.70447,97.2260537 C150.888901,97.2187478 151.044568,97.3621025 151.052163,97.5465337 L155.485739,202.93482 C155.489462,203.023407 155.457802,203.109838 155.397739,203.17506 C155.337675,203.240282 155.25414,203.278941 155.165547,203.282513 L155.151796,203.282513 Z" id="Path" fill="#E6E6E6"></path>
                <path d="M165.136674,199.701472 C164.955664,199.701472 164.807118,199.55825 164.800767,199.377352 L161.685281,92.9342001 C161.679856,92.7497689 161.82497,92.5958604 162.009401,92.5902887 C162.193833,92.5850115 162.347741,92.7301252 162.353166,92.9145565 L165.470616,199.357708 C165.473791,199.446431 165.441298,199.532729 165.380394,199.597324 C165.31949,199.661918 165.235251,199.699428 165.146495,199.701472 L165.136674,199.701472 Z" id="Path" fill="#E6E6E6"></path>
                <path d="M175.217805,196.087037 C175.034993,196.087037 174.886147,195.939788 174.881898,195.757023 L173.113968,88.2452562 C173.102389,88.1198055 173.161981,87.9984231 173.268317,87.9308622 C173.374654,87.8633013 173.509855,87.8609224 173.618502,87.9247006 C173.72715,87.9884788 173.790975,88.1076896 173.783817,88.23347 L175.551747,195.745237 C175.555039,195.930013 175.408453,196.082744 175.223698,196.087037 L175.217805,196.087037 Z" id="Path" fill="#E6E6E6"></path>
                <path d="M185.39519,192.435279 C185.210759,192.435279 185.061247,192.285768 185.061247,192.101337 L184.668374,83.5032744 C184.668362,83.3181969 184.817251,83.1675554 185.002316,83.1654033 L185.002316,83.1654033 C185.186748,83.1654033 185.336259,83.3149144 185.336259,83.4993457 L185.729132,192.099372 C185.729132,192.284124 185.579938,192.435279 185.39519,192.435279 L185.39519,192.435279 Z" id="Path" fill="#E6E6E6"></path>
                <path d="M195.672758,188.750127 L195.672758,188.750127 C195.48801,188.747969 195.339687,188.597013 195.340774,188.412255 L196.340642,78.7082547 C196.342794,78.5242746 196.492556,78.3762767 196.676549,78.3762767 L196.676549,78.3762767 C196.765118,78.3762767 196.849647,78.4134931 196.911538,78.4768575 C196.973429,78.540222 197.007611,78.625579 197.006563,78.7141478 L196.0067,188.418149 C196.00456,188.601366 195.855985,188.750127 195.672758,188.750127 Z" id="Path" fill="#E6E6E6"></path>
                <path d="M206.052473,185.027651 L206.052473,185.027651 C205.963377,185.025592 205.878751,184.98821 205.817224,184.923737 C205.755698,184.859263 205.722315,184.772982 205.724423,184.683887 L208.148452,73.8601971 C208.142243,73.7344978 208.206819,73.615873 208.31576,73.552858 C208.4247,73.4898429 208.559725,73.4930107 208.665591,73.5610652 C208.771456,73.6291196 208.830398,73.7506422 208.818301,73.875912 L206.386415,184.699602 C206.382167,184.881282 206.234199,185.027651 206.052473,185.027651 Z" id="Path" fill="#E6E6E6"></path>
                <path d="M216.53237,181.267853 L216.520584,181.267853 C216.335809,181.261448 216.190946,181.106928 216.196463,180.922124 L220.089839,68.9532085 C220.09405,68.8339023 220.16159,68.7259054 220.267017,68.6698989 C220.372445,68.6138925 220.499743,68.6183854 220.60096,68.6816851 C220.702176,68.7449849 220.761934,68.8574748 220.757724,68.9767809 L216.866313,180.945697 C216.859962,181.125509 216.712295,181.267853 216.53237,181.267853 L216.53237,181.267853 Z" id="Path" fill="#E6E6E6"></path>
                <path d="M227.116379,177.472696 L227.0987,177.472696 C227.010098,177.468625 226.926756,177.429473 226.867056,177.363878 C226.807357,177.298282 226.776205,177.211631 226.780473,177.123039 L232.164802,64.0030038 C232.173482,63.8185725 232.330028,63.6760973 232.51446,63.6844 C232.698891,63.6934555 232.841366,63.8500024 232.832687,64.0344337 L227.450322,177.154469 C227.440951,177.33229 227.294446,177.472696 227.116379,177.472696 L227.116379,177.472696 Z" id="Path" fill="#E6E6E6"></path>
                <path d="M237.8045,173.638252 L237.782892,173.638252 C237.598519,173.625635 237.458492,173.467229 237.468593,173.282701 L244.375307,58.987975 C244.382676,58.8686689 244.453134,58.7623567 244.560141,58.7090853 C244.667148,58.6558139 244.794446,58.6636764 244.894083,58.7297112 C244.993721,58.7957459 245.050561,58.9099206 245.043192,59.0292267 L238.138442,173.323953 C238.127081,173.500226 237.981138,173.638252 237.8045,173.638252 L237.8045,173.638252 Z" id="Path" fill="#E6E6E6"></path>
            </g>
        </g>
    </g>
</svg>