<?xml version="1.0" encoding="UTF-8"?>
<svg width="595px" height="177px" viewBox="0 0 595 177" version="1.1" xmlns="http://www.w3.org/2000/svg" xmlns:xlink="http://www.w3.org/1999/xlink">
    <title>jawa-timur</title>
    <defs>
        <path d="M0,84.3880422 L0,81.0283743 L1.25016131,74.2728057 L3.47499461,70.0688028 L5.94757059,66.7726123 L8.52444105,65.0796462 L12.7894267,64.5796564 L17.2377073,64.5796564 L20.1236498,64.5796564 L23.5151259,66.069231 L25.7340688,67.6859686 L27.8338181,70.6748195 L29.1698961,74.2728057 L31.1757457,77.3787714 L32.7910973,78.7505382 L35.4459287,81.0283743 L37.4216334,84.9465309 L38.5674866,87.1439912 L40.5258666,88.1211022 L45.7357394,88.1211022 L49.4362156,87.6463617 L53.1765466,86.6797109 L55.5154327,85.5395873 L58.362299,82.7664636 L62.1453862,78.1495514 L66.5559522,75.8737464 L69.7140037,74.7720489 L72.4324867,73.3178526 L73.3325025,70.6748195 L72.9713412,67.6859686 L72.4324867,65.0796462 L70.5325027,61.3271189 L68.4579352,56.4880903 L66.5559522,50.2117462 L65.6592682,47.3122383 L65.6592682,45.0653084 L66.5559522,42.5447311 L69.7140037,37.1070987 L72.4324867,33.2222822 L74.2822724,31.3207434 L76.5651851,31.6659124 L79.7707695,32.4928518 L84.565597,33.2222822 L88.5854602,32.4928518 L91.3843494,30.9038309 L92.6770671,29.3772246 L92.9633751,27.2953273 L92.6770671,25.2360858 L90.4954394,20.4317073 L89.4097343,17.7865227 L89.4097343,15.604673 L90.4954394,13.9650094 L91.6904259,11.9490807 L93.8858247,9.78255696 L97.8388309,6.96945232 L100.279023,4.90643487 L117.271526,0 L149.504135,8.58056269 L163.131715,13.9650094 L168.770714,19.5290495 L180.843079,36.0640411 L185.832543,50.2117462 L213.401404,51.8577915 L265.515341,46.4629216 L285.143686,57.7206806 C283.913717,57.9439897 283.167785,63.6277791 282.90589,74.7720489 C282.643995,85.9163186 281.197356,96.8935196 278.565971,107.703652 L272.942299,124.976304 C270.298454,124.46551 265.174579,125.027869 257.570676,126.66338 C249.966773,128.298892 241.559208,128.298892 232.347981,126.66338 L217.199949,120.742627 L202.854528,106.982231 L185.832543,106.982231 L170.668089,113.150597 L132.755372,113.150597 L76.5651851,111.78259 L38.5674866,105.827994 L15.9662421,100.142826 L7.30915197,96.6820135 L0,84.3880422 Z" id="path-1"></path>
    </defs>
    <g id="website" stroke="none" stroke-width="1" fill="none" fill-rule="evenodd">
        <g id="jawa-timur" transform="translate(0.000000, 0.000000)">
            <path d="M217.767086,88.8533094 C221.862521,90.0000313 224.360737,93.5221058 223.500695,96.3479562 C222.640654,99.1738067 220.551982,100.443392 220.551982,104.006421 C219.406805,108.579056 217.613991,112.964556 215.227916,117.029905 C213.391711,117.477791 211.4855,117.561274 209.617169,117.275631 C207.897086,116.907042 206.258912,115.842229 204.497875,115.432685 C198.641402,114.040237 192.662066,119.855756 187.010365,117.930901 C185.388516,117.169254 183.815568,116.307552 182.300615,115.350777 C177.140366,112.647789 170.956258,114.326918 165.181694,113.671648 C153.919247,112.483972 145.155015,102.654927 134.015431,100.771027 C128.65041,99.8290764 122.916801,100.771027 118.084187,98.3137653 C115.577051,96.5852516 112.949238,95.0386745 110.220951,93.6859232 C105.838835,92.3753839 101.170038,94.4231016 96.5831506,94.2592842 C91.960039,93.2674851 87.4261745,91.8977376 83.0272593,90.1638487 C77.5803301,88.9761724 71.7648118,90.1638487 66.358837,88.6894919 C60.9528622,87.2151352 55.9564309,81.1129364 58.8232357,76.4031856 C59.6013685,75.1336006 60.8709535,74.1506961 61.6490862,72.8811111 C63.2237328,69.7357211 62.823927,65.9615546 60.6252273,63.2158834 C58.329684,60.6023766 55.5477447,58.4602834 52.4343564,56.9089128 C43.637568,50.7946184 33.7329029,46.4543719 23.274856,44.1311542 C18.1555617,43.3939758 12.299089,43.3530215 8.20365356,39.4623578 C6.8112055,37.988001 5.9102097,36.1041007 4.39489859,34.752607 C3.12974645,33.8672653 1.93819366,32.8811527 0.831869741,31.8038935 C-0.151034767,30.6162172 -0.396760894,28.4865908 0.831869741,27.7084581 C1.80491206,27.3209302 2.88944966,27.3209302 3.86249198,27.7084581 C10.6554057,29.4297174 17.7025152,29.9152466 24.6673041,29.1418605 C30.9333203,28.4046821 37.8546062,25.9474208 40.3118675,20.1319025 C41.9090873,16.3231475 41.1719089,11.9410316 42.8919918,8.05036788 C44.8374002,4.25213094 48.4126618,1.55182788 52.5981739,0.719538423 C56.6471139,-0.0523986055 60.78988,-0.204300028 64.8844802,0.269040523 C69.3704725,0.331315529 73.819458,1.09123542 78.0717824,2.52153002 C79.1775499,2.97202792 80.2014088,3.54538888 81.3481307,3.91397808 C82.5727468,4.2418373 83.8177618,4.48810402 85.074977,4.65115646 L114.398295,8.74659191 C121.811033,9.81140513 129.919995,8.29609401 137.20987,9.68854206 C141.100534,10.4666748 144.991198,11.408625 148.799953,12.5553469 C155.215965,14.4587486 161.484897,16.8267079 167.557047,19.6404502 C172.062026,21.7291223 177.058457,24.1044749 181.768208,22.5482094 C184.880739,21.4833962 187.297046,18.8213631 190.368622,17.7155956 C195.615476,16.1833659 201.11231,19.1883016 202.654929,24.4321097 C203.392107,27.6265493 202.900655,31.7219848 205.76746,33.360159 C207.077999,34.1382917 208.798082,33.9335199 210.231484,34.5068809 C214.32692,36.1450551 213.999285,41.9196191 214.98219,46.2607807 C215.939727,50.307638 218.51413,53.7851612 222.105115,55.8824824 C225.696101,57.9798036 229.989791,58.5136024 233.98501,57.3594107 C233.98501,63.7073357 229.602894,64.6902402 226.162728,70.096215 C223.18541,74.7766563 219.107881,78.657339 214.285966,81.3996168 C211.501069,82.341567 213.589742,87.7065874 217.767086,88.8533094 Z" id="Path" fill="#A0A0A0" fill-rule="nonzero"></path>
            <path d="M591.803206,126.981813 C591.434616,127.923764 590.451712,128.538079 589.714533,129.275257 C588.469507,130.664774 587.58367,132.338022 587.134409,134.148825 C584.863358,140.838875 583.070504,147.68183 581.769389,154.626003 C580.540758,161.096791 579.353082,168.386666 574.06997,172.441147 C569.987451,175.230387 564.95028,176.249639 560.104535,175.266997 C555.271921,174.529819 550.603125,172.768782 545.85242,171.703969 C544.229437,171.445121 542.637457,171.019678 541.101715,170.434384 C532.296528,166.584674 531.108852,151.882061 521.607442,150.325796 C518.86393,150.175273 516.112357,150.367883 513.416571,150.899156 C508.993567,150.987172 504.570496,150.726992 500.188314,150.121024 C495.725217,149.525632 491.227343,150.934967 487.902008,153.970733 C487.203701,154.941686 486.345017,155.786521 485.362838,156.468949 C483.948208,156.902166 482.436306,156.902166 481.021677,156.468949 C472.146956,154.812511 463.066769,154.563739 454.114666,155.73177 C451.23311,156.283832 448.272944,156.283832 445.391388,155.73177 C443.589397,155.281272 441.910268,154.298368 440.067322,154.011687 C438.105741,153.843338 436.129908,153.981508 434.210849,154.421231 C418.975829,156.714675 406.484751,152.578285 391.208777,154.421231 C376.629027,156.264177 362.540729,149.834343 347.715253,148.810484 C341.776871,148.359986 335.797535,148.810484 329.900108,147.868534 C324.042078,147.227306 318.744274,144.093393 315.361312,139.26812 C314.555951,137.537034 313.625174,135.867111 312.576416,134.271689 C311.53466,133.092102 310.302625,132.0954 308.931479,131.322975 C297.884721,124.547883 285.000995,121.384213 272.07256,122.272063 C268.084146,122.907015 264.020393,122.907015 260.03198,122.272063 C257.739716,121.566312 255.518503,120.647662 253.397374,119.528121 C246.189408,116.210818 239.104304,113.016379 231.241068,114.408827 C225.917002,115.268868 220.592936,116.210818 215.309824,117.111814 C217.6959,113.046464 219.488714,108.660965 220.63389,104.088329 C220.63389,100.566255 222.722563,99.1738067 223.582604,96.4298649 C224.442645,93.6859232 222.026339,90.08194 217.848994,88.9352181 C213.67165,87.7884961 211.582978,82.4234757 214.367874,81.3177081 C219.18979,78.5754303 223.267319,74.6947476 226.244637,70.0143063 C229.684803,64.6083315 233.903101,63.625427 234.066919,57.277502 C236.2975,56.2566455 238.580477,55.3543913 240.906296,54.5745146 C243.334381,54.1849703 245.80904,54.1849703 248.237125,54.5745146 C260.072934,55.6802822 271.949697,56.4174606 283.82646,56.7041411 C288.863845,56.7041411 294.310774,56.1307801 299.266251,56.7041411 C305.491313,57.2365477 310.610607,65.5093273 315.893719,64.895012 C319.211022,64.4854684 321.504466,61.5777092 324.08459,59.6938089 C329.695337,55.8031453 338.050025,55.5983735 341.613054,49.8238095 C342.896293,46.7384766 343.950312,43.5627319 344.766539,40.3223992 C347.037408,34.993018 352.520399,31.7696837 358.281476,32.3772545 C363.930595,33.1395913 368.427481,37.4871349 369.380106,43.1072954 C382.321682,47.5303656 397.515748,46.7112786 408.655332,54.5335603 C411.071639,56.2536432 414.18417,53.7963819 417.091929,53.1820666 C421.187365,52.1991621 425.2828,55.311693 429.378235,56.9498672 C436.135704,59.6938089 443.753214,58.4651783 451.043089,58.9156762 C458.332964,59.3661741 466.564789,63.0111117 467.916283,70.1371693 L474.550889,70.1371693 C475.984291,70.9562564 474.796615,73.2906546 473.199395,73.8230613 C471.602175,74.3554679 469.800183,74.4373766 468.776325,75.6660072 C468.1281,76.7481291 467.895224,78.0289494 468.121055,79.2699904 C468.121055,82.4234757 468.899188,86.1912763 471.888855,87.4608613 C475.984291,89.1809442 482.414125,83.9797412 484.953295,87.8294505 C483.800819,91.3856094 483.247223,95.1085448 483.31512,98.8461719 C483.359193,102.650355 485.273941,106.188809 488.434415,108.306628 C490.815238,109.526992 493.458719,110.145679 496.133833,110.108619 L520.706446,111.869657 C524.352441,112.294226 528.042544,112.142199 531.641259,111.419159 C536.965325,109.985756 541.265532,106.054138 546.221009,103.596877 C551.176486,101.139616 558.138726,100.811981 561.37412,105.31696 C562.193207,106.463682 562.725614,107.85613 563.62661,108.920943 C566.575323,112.2792 571.817481,111.132478 576.240551,110.149574 C580.663621,109.166669 586.520094,109.576213 587.748724,113.835466 C588.36304,115.801275 587.748724,117.930901 588.444948,119.855756 C589.30499,122.43588 592.868019,124.401689 591.803206,126.981813 Z" id="Path" fill="#A0A0A0" fill-rule="nonzero"></path>
            <g id="Path" transform="translate(309.094110, 48.968872)">
                <mask id="mask-2" fill="white">
                    <use xlink:href="#path-1"></use>
                </mask>
                <g id="Mask"></g>
                <path d="M282.709096,78.0129411 C282.340506,78.9548913 281.357602,79.5692066 280.620423,80.306385 C279.375397,81.6959012 278.48956,83.3691492 278.040299,85.1799532 C275.769248,91.870003 273.976394,98.7129573 272.675279,105.65713 C271.446648,112.127918 270.258972,119.417794 264.97586,123.472275 C260.893341,126.261515 255.85617,127.280767 251.010425,126.298125 C246.177811,125.560947 241.509015,123.799909 236.75831,122.735096 C235.135327,122.476249 233.543347,122.050806 232.007605,121.465511 C223.202418,117.615802 222.014742,102.913189 212.513332,101.356923 C209.76982,101.206401 207.018247,101.399011 204.322461,101.930284 C199.899457,102.0183 195.476386,101.758119 191.094204,101.152151 C186.631107,100.55676 182.133233,101.966094 178.807898,105.001861 C178.109591,105.972814 177.250907,106.817649 176.268728,107.500076 C174.854098,107.933294 173.342196,107.933294 171.927567,107.500076 C163.052846,105.843639 153.972659,105.594867 145.020556,106.762898 C142.139,107.31496 139.178834,107.31496 136.297278,106.762898 C134.495287,106.3124 132.816158,105.329496 130.973212,105.042815 C129.011631,104.874466 127.035798,105.012636 125.116739,105.452359 C109.881719,107.745803 97.3906413,103.609413 82.1146671,105.452359 C67.5349169,107.295305 53.4466189,100.865471 38.6211426,99.8416121 C32.6827612,99.3911142 26.7034254,99.8416121 20.8059984,98.8996619 C14.9479684,98.2584332 9.65016393,95.1245207 6.26720251,90.2992475 C5.46184065,88.568162 4.5310637,86.8982387 3.4823064,85.3028162 C2.44054965,84.12323 1.20851458,83.1265275 -0.16263115,82.3541027 C-11.2093886,75.579011 -24.0931149,72.4153404 -37.0215502,73.3031904 C-41.0099641,73.9381422 -45.0737165,73.9381422 -49.0621305,73.3031904 C-51.3543944,72.5974393 -53.5756073,71.6787896 -55.6967359,70.5592486 C-62.9047023,67.2419459 -69.9898056,64.0475062 -77.8530417,65.4399543 C-83.1771078,66.2999957 -88.5011739,67.2419459 -93.7842856,68.1429417 C-91.3982103,64.077592 -89.605396,59.6920923 -88.4602195,55.1194569 C-88.4602195,51.5973825 -86.3715474,50.2049344 -85.511506,47.4609926 C-84.6514645,44.7170509 -87.0677715,41.1130677 -91.2451156,39.9663458 C-95.4224598,38.8196238 -97.5111319,33.4546034 -94.7262357,32.3488358 C-89.9043203,29.606558 -85.8267914,25.7258753 -82.8494729,21.045434 C-79.4093072,15.6394592 -75.1910086,14.6565547 -75.0271912,8.30862972 C-72.7966096,7.28777317 -70.5136332,6.38551901 -68.187814,5.60564232 C-65.7597288,5.21609801 -63.2850697,5.21609801 -60.8569846,5.60564232 C-49.0211761,6.71140989 -37.1444133,7.44858827 -25.2676505,7.73526876 C-20.2302649,7.73526876 -14.7833357,7.16190779 -9.82785882,7.73526876 C-3.60279693,8.26767536 1.51649739,16.540455 6.79960912,15.9261397 C10.1169118,15.5165961 12.4103557,12.6088369 14.99048,10.7249366 C20.6012266,6.83427296 28.9559149,6.62950118 32.5189438,0.854937195 C33.8021832,-2.23039568 34.8562019,-5.40614039 35.6724291,-8.64647305 C37.9432978,-13.9758543 43.4262891,-17.1991886 49.1873661,-16.5916178 C54.8364846,-15.829281 59.3333712,-11.4817374 60.2859961,-5.86157695 C73.2275722,-1.43850666 88.4216377,-2.25759375 99.5612221,5.56468797 C101.977529,7.28477086 105.09006,4.82750958 107.997819,4.21319427 C112.093255,3.23028976 116.18869,6.3428207 120.284126,7.98099488 C127.041594,10.7249366 134.659104,9.496306 141.948979,9.9468039 C149.238854,10.3973018 157.470679,14.0422394 158.822173,21.168297 L165.456779,21.168297 C166.890181,21.9873841 165.702505,24.3217823 164.105285,24.8541889 C162.508065,25.3865956 160.706073,25.4685043 159.682215,26.6971349 C159.03399,27.7792568 158.801114,29.0600771 159.026945,30.3011181 C159.026945,33.4546034 159.805078,37.222404 162.794746,38.491989 C166.890181,40.2120719 173.320015,35.0108689 175.859185,38.8605782 C174.706709,42.4167371 174.153113,46.1396725 174.22101,49.8772996 C174.265083,53.6814825 176.179831,57.219937 179.340305,59.3377555 C181.721128,60.5581199 184.364609,61.1768069 187.039723,61.1397471 L211.612336,62.9007843 C215.258331,63.3253535 218.948434,63.1733268 222.547149,62.4502864 C227.871215,61.016884 232.171422,57.085266 237.126899,54.6280047 C242.082376,52.1707434 249.044616,51.8431086 252.28001,56.3480876 C253.099097,57.4948095 253.631504,58.8872576 254.5325,59.9520708 C257.481213,63.3103278 262.723371,62.1636059 267.146441,61.1807014 C271.569511,60.1977969 277.425984,60.6073404 278.654614,64.8665933 C279.26893,66.8324023 278.654614,68.9620288 279.350838,70.8868834 C280.21088,73.4670078 283.773909,75.4328168 282.709096,78.0129411 Z" fill="#29BB89" fill-rule="nonzero" mask="url(#mask-2)"></path>
            </g>
            <path d="M504.693293,58.8337675 C506.704937,58.5675268 508.742894,58.5675268 510.754538,58.8337675 C521.976486,59.8166337 533.255116,59.9808856 544.500926,59.3252197 C545.639044,59.1795601 546.794803,59.263109 547.900137,59.5709459 C548.555407,59.8576264 549.169722,60.2671699 549.784038,60.5948047 C552.401045,61.5607737 555.227479,61.8151528 557.974909,61.3319831 C562.419251,61.0043359 566.881686,61.0043359 571.326028,61.3319831 C573.250883,61.3319831 575.790053,62.3967963 575.421464,64.321651 C575.243792,65.0735298 574.809258,65.7398154 574.192833,66.2055513 C570.663172,69.3487478 566.100448,71.0834575 561.37412,71.0791195 C560.004223,70.9670283 558.625351,71.0497606 557.278685,71.3248456 C554.780469,72.1029784 553.183249,74.6831027 550.971714,75.8298246 C548.33008,76.6790686 545.538335,76.9582431 542.780843,76.6489117 C534.589972,76.6489117 526.931508,82.3006126 518.904454,80.9491189 C516.209493,80.1322877 513.475882,79.4488847 510.713584,78.9014012 C505.553335,78.4509033 500.229269,81.6043886 495.355701,79.8843057 C493.144165,79.106173 492.652713,77.7956336 491.751717,75.7888703 C490.850722,73.7821069 491.055493,73.6592438 488.680141,72.8811111 C486.304788,72.1029784 481.595038,68.7856756 481.922672,65.0997837 C482.127444,62.8063399 485.403792,61.0043483 487.328647,61.0043483 C489.253502,61.0043483 491.751717,61.4138918 494.004207,61.0043483 C497.567236,61.0043483 501.007402,59.4480828 504.693293,58.8337675 Z" id="Path" fill="#6A6768" fill-rule="nonzero"></path>
            <path d="M113.468876,8.58031256 L115.901074,9.15859738 L115.744982,9.82895818 L115.061237,12.9501768 L114.87615,13.7721722 L114.693271,14.5556374 L114.511724,15.3018309 C114.481528,15.4231605 114.451351,15.5429895 114.421176,15.6613442 L114.149123,16.6874374 L113.96632,17.3293674 C113.905072,17.5379012 113.843463,17.7410622 113.781347,17.9390599 L113.593331,18.5177736 L113.401396,19.066767 C112.365734,21.9177146 111.125518,23.5542926 109.083323,24.8356699 C107.799628,25.6411254 106.510335,26.0606336 104.744485,26.1781424 L104.272708,26.2020014 L103.777452,26.2124904 C103.608247,26.2137951 103.43482,26.2129267 103.25686,26.2099404 L102.709073,26.1946826 L102.132233,26.1670484 L101.524482,26.1273687 C101.420512,26.11977 101.315175,26.1116833 101.208435,26.1031154 L100.208817,26.013198 L99.4971867,25.9393694 L98.3572677,25.8086287 L97.1248071,25.6548843 L95.1921298,25.4059391 L94.0063526,25.2666625 L93.289709,25.1920867 L92.6223088,25.131768 C92.5147097,25.1228857 92.4088104,25.1145844 92.304435,25.1068578 L91.6950597,25.0673412 C91.5960755,25.061887 91.498263,25.0569945 91.4014463,25.0526571 L90.8310877,25.0332424 C90.7375502,25.0310996 90.6446565,25.029499 90.5522305,25.0284341 L90.27618,25.02684 C89.2891603,25.02684 88.4328971,24.9838236 87.365509,24.8935019 L85.8500114,24.7617311 L85.2130515,24.7177256 L84.8487349,24.7006411 L84.5269131,24.6939871 C84.4765428,24.6937773 84.4277374,24.6940245 84.3803938,24.69474 L84.1130508,24.704742 L83.8758513,24.7265213 C83.4655981,24.7775753 83.1824105,24.890723 82.8892932,25.0809028 L82.7276028,25.1923667 C82.7002158,25.2122472 82.6725409,25.2327867 82.6444752,25.2539966 C81.9898511,25.7487096 81.2768253,26.6614685 80.3935157,28.1913176 L79.9461819,28.9685296 L77.5292804,33.0477197 L77.1288561,33.7368457 L76.665317,34.5519557 L76.4748353,34.8976672 L76.3184763,35.1918447 L76.2011884,35.4267593 C76.1851712,35.4605437 76.1709881,35.4915369 76.1587423,35.5195777 C75.6156529,36.7631565 75.3901643,37.9709557 75.3901643,39.830947 C75.3901643,40.908298 75.874141,41.8715824 77.1006781,43.3671187 L77.4911747,43.8323935 L78.7853496,45.3283251 L79.1653129,45.7930361 L79.3090417,45.9838543 L79.5975017,46.3975346 C81.0099184,48.4784952 81.0540564,50.4489955 79.3032422,52.3573569 L78.9473007,52.7240556 L76.9958686,54.6878469 L76.2262392,55.4769365 L76.1622601,55.5448721 C75.3696601,56.3952584 74.9206829,57.0034459 74.6990887,57.529132 C74.4089107,58.2175186 74.483821,58.8779593 75.0755755,59.8900304 L75.4305226,60.4602192 L75.6808618,60.8376248 L77.0815008,62.8626346 L77.4365612,63.3893002 L77.6505085,63.716302 C79.94425,67.2679017 80.3741505,69.9060893 77.8843843,72.0306703 L77.7059293,72.1780686 C76.4427934,73.1885772 76.0110338,73.8663373 75.79298,74.8413654 L75.7347551,75.1254279 L75.6858984,75.3912206 C75.429405,76.8156101 75.1859864,77.5971346 74.5048176,78.6427094 L73.6658111,79.8886496 L72.9798382,80.9257319 L71.9655572,82.4778309 L70.6735136,84.4738774 L68.5837716,87.7299609 L67.4138661,89.5646468 L65.3038078,88.2238806 L67.5339352,84.7336262 L70.0905992,80.7755521 L71.2583771,78.9949868 L72.1660781,77.6389664 L72.2901662,77.4573124 C72.7670108,76.7619139 72.953741,76.3027556 73.1343575,75.4249735 L73.3287129,74.408306 L73.3532463,74.2957469 C73.6791424,72.8385022 74.3656595,71.7110614 75.8834491,70.4392782 L76.1441916,70.2258965 C77.4474459,69.1832932 77.2950314,67.8431633 75.7084287,65.3204687 L75.3500962,64.7665298 L74.8840366,64.0789346 L73.5109557,62.0914134 L73.1307717,61.5021419 L73.079466,61.4199988 C71.9732921,59.6459463 71.7416566,58.1089103 72.3953966,56.5580488 C72.7262878,55.7730784 73.2589324,55.0234926 74.0971807,54.0974311 L74.4108141,53.758231 L74.615941,53.5449087 L75.5049494,52.6399392 L77.3430087,50.7916662 C78.3200232,49.7951115 78.362502,49.09543 77.633188,47.9592282 L77.4631476,47.7049927 L77.2390517,47.3920685 L76.9854002,47.0737311 L76.3790386,46.3644232 L75.8188707,45.7206974 C73.762266,43.3607435 72.8901643,41.8781708 72.8901643,39.830947 C72.8901643,37.6426882 73.1788572,36.0963436 73.8676889,34.5190405 C73.9186599,34.402326 73.9939898,34.2489489 74.0889626,34.0662524 L74.3037015,33.6639429 L74.705685,32.9424397 L75.3467474,31.828635 L77.9885398,27.3622048 L78.0473189,27.2591065 C79.1627047,25.2776563 80.1116142,24.0345302 81.1371827,23.2594868 L81.4195049,23.0535446 C82.3855254,22.376979 83.1498806,22.1583675 84.6720257,22.1934624 L85.1283733,22.2102167 L85.630934,22.2397195 L86.1846808,22.2809122 L87.1221529,22.3623041 C88.1961991,22.4606751 89.0102143,22.5128697 89.8927818,22.5243813 L90.27618,22.52684 C90.5758437,22.52684 90.8765693,22.5318719 91.1834685,22.5420914 L91.8070131,22.5694932 C91.912814,22.5752284 92.0196795,22.5815514 92.1277989,22.5884682 L92.7930771,22.6371393 C92.9069695,22.6464539 93.0224945,22.6563738 93.1398414,22.6669046 L93.8673002,22.7374678 L94.647572,22.8229715 L95.4897443,22.9236927 L98.2327974,23.2746041 L98.9886777,23.3651078 L99.7029272,23.4452514 L100.700176,23.5455784 L101.318213,23.5988955 L101.900911,23.6411116 L102.450068,23.6720149 L102.96748,23.6913939 L103.454946,23.6990367 C103.533794,23.6993207 103.61147,23.699107 103.68801,23.6983909 L104.133927,23.6880327 C104.927559,23.6578641 105.592868,23.5658579 106.179698,23.4061441 L106.492303,23.3122774 C106.950436,23.1612994 107.3621,22.9642819 107.754595,22.7180102 C109.184625,21.8207365 110.14205,20.569615 110.978638,18.3686112 L111.156186,17.8822114 L111.330804,17.3654302 C111.388607,17.1879614 111.44605,17.0052119 111.503261,16.8169644 L111.674327,16.2355108 L111.84477,15.619766 L112.01536,14.9684268 L112.186866,14.2801898 L112.360058,13.5537519 L112.624687,12.3896172 L113.253642,9.51084681 L113.468876,8.58031256 Z" id="Path" fill="#FFFFFF" fill-rule="nonzero"></path>
            <path d="M235.23501,57.3594107 C235.23501,60.6645868 234.281627,62.7788227 232.087582,65.1977314 L231.847,65.457 L230.370753,66.9875674 L229.744704,67.6489923 L229.185812,68.250908 L228.79096,68.6938378 C228.191737,69.3958329 227.661151,70.0995297 227.176625,70.8487878 C224.207252,75.5191497 220.17652,79.4182363 215.416271,82.230281 L214.903467,82.5273975 L214.761903,82.5964188 C213.333533,83.184571 214.972572,87.0049771 218.10893,87.8966867 C222.789334,89.2273899 225.81446,93.2558235 224.695039,96.880615 C224.460661,97.6395512 224.198233,98.2251278 223.745126,99.0322835 L223.449079,99.5463258 L223.182103,99.995691 C222.200085,101.642363 221.844042,102.529499 221.805553,103.906087 L221.801982,104.170238 L221.801982,104.322948 L221.765218,104.471167 C220.658662,108.9324 218.943859,113.218909 216.670001,117.210531 L216.262938,117.911849 L214.110984,116.639413 C216.326033,112.893304 218.016318,108.862287 219.135586,104.659348 L219.303,104.003 L219.306467,103.830275 C219.354585,102.054337 219.794143,100.849468 220.833063,99.0582102 L221.280443,98.3022117 L221.535369,97.8609261 C221.922346,97.1750662 222.129744,96.7148055 222.306352,96.1429323 C222.939464,94.0928566 220.988842,91.4229664 217.682249,90.3784852 L217.425241,90.3013842 C212.504099,88.9022359 209.590318,82.2608757 213.621971,80.3674822 L213.715,80.326 L214.161634,80.0678048 C218.411797,77.553621 222.035091,74.1057501 224.761508,69.9785969 L225.0721,69.4993869 C225.624644,68.644871 226.221341,67.8534936 226.889493,67.0707466 L227.219626,66.6976283 L227.812898,66.0546923 L228.657846,65.1609821 L230.029,63.741 L230.235208,63.5189689 C231.968608,61.6101316 232.677698,60.1014984 232.731651,57.668452 L232.73501,57.3594107 L235.23501,57.3594107 Z" id="Path" fill="#FFFFFF" fill-rule="nonzero"></path>
            <path d="M408.019439,53.4826663 L409.373133,55.5844543 L408.951141,55.8640821 L408.406806,56.2357818 L407.809944,56.6547713 C406.628296,57.4954181 405.447043,58.3994322 404.348637,59.3288177 C403.085047,60.3979694 402.016386,61.4301383 401.208457,62.3886636 C400.287105,63.4817556 399.755226,64.4257071 399.653442,65.1178338 C399.470538,66.3615809 399.603385,67.0981265 400.08164,68.017646 L401.045978,69.6899871 L401.329638,70.1964198 L401.493303,70.4985505 L401.624737,70.7534361 C402.251957,72.0192169 402.741574,73.4027293 403.118469,75.1098424 C403.920216,78.7412853 401.907624,81.3786515 398.161964,82.5562393 C395.09928,83.5191078 391.022102,83.4474715 387.579721,82.4350063 L386.131539,82.012833 L385.252775,81.7667554 L384.729067,81.631806 L384.42435,81.5633055 L384.257237,81.5319996 L384.052745,81.5049614 L383.942609,81.4992707 C383.92578,81.4990996 383.909672,81.4993081 383.894218,81.4998827 L383.808822,81.5076159 L383.735984,81.5234879 L383.672555,81.5468502 L383.588167,81.5945196 L383.534487,81.6337708 C383.511835,81.6513889 383.480568,81.6832422 383.441558,81.7278964 L383.302174,81.898828 L383.121567,82.1379606 L382.784814,82.6057132 L382.091594,83.6044022 L379.911126,86.8086651 L379.520316,87.3723643 L379.195737,87.8281396 C376.601663,91.3901517 375.768168,93.5035319 375.927461,95.6012795 C375.985527,96.3659621 376.163979,97.1663238 376.520749,98.3223228 L376.673901,98.8070528 L377.261088,100.584942 L377.530778,101.413749 L377.770008,102.175827 L378.196921,103.604158 L378.390171,104.222085 C378.485072,104.516685 378.57817,104.79168 378.672982,105.055794 L378.865934,105.572103 L379.069709,106.074914 C379.140133,106.241991 379.213403,106.409405 379.290561,106.57974 L379.534743,107.102094 L379.808508,107.657492 L380.118109,108.261446 L380.469799,108.92947 L380.869832,109.677078 C382.121087,112.003457 382.770522,113.686605 383.382143,116.654767 C384.356828,121.384854 382.701739,123.735802 378.710245,125.265056 L378.199161,125.452046 C378.024757,125.513024 377.846319,125.572689 377.663866,125.631152 L375.66061,126.235284 L375.193669,126.385292 L374.918963,126.480168 L374.462697,126.648637 C374.389083,126.676882 374.316639,126.705251 374.245297,126.733806 L373.829921,126.907871 C372.284154,127.587503 371.249204,128.431389 369.896602,130.194135 L369.535999,130.675322 L369.157716,131.201173 C369.093014,131.292702 369.027439,131.386216 368.960923,131.481778 L368.549992,132.080207 L368.113211,132.730743 C368.038078,132.843674 367.961732,132.958899 367.884105,133.076482 C365.133224,137.243257 358.897565,138.661952 350.719812,138.222878 C347.441942,138.046885 346.127829,136.785346 345.004613,133.799943 L344.544766,132.543247 L344.450079,132.307551 C343.869083,130.87786 343.192023,129.990741 341.975785,129.295748 C339.513037,127.888464 338.379356,126.362643 336.998215,123.204482 L336.344608,121.664593 C335.575185,119.870094 334.944469,118.778294 333.987773,117.765322 C332.801644,116.50942 331.60428,115.767351 329.78112,115.343952 L329.349003,115.251812 C329.275038,115.237369 329.200078,115.223375 329.124088,115.209818 L328.655497,115.13365 C328.414737,115.098106 328.164073,115.066304 327.90256,115.037946 L327.364788,114.985732 C327.272656,114.977765 327.179247,114.970159 327.084529,114.962901 L326.500214,114.92346 L325.882771,114.891869 L325.230524,114.867593 L324.183221,114.843733 L323.436617,114.835417 L322.239913,114.832996 L320.706367,114.839248 L320.275835,114.839739 C316.013709,114.839739 312.349443,119.896866 310.787901,127.22271 L310.633925,127.988535 C310.463181,128.891172 310.323821,129.825454 310.21849,130.78648 L310.17544,131.199971 L307.687518,130.954526 C307.940606,128.389135 308.420122,125.969024 309.097495,123.775635 L309.317946,123.090617 C311.436251,116.769232 315.247207,112.491851 320.019273,112.343713 L320.275835,112.339739 L322.683172,112.332591 L323.921041,112.33997 L324.697693,112.352777 L325.437363,112.372632 L326.141673,112.400168 L326.812245,112.436017 L327.450701,112.480812 C327.554525,112.489059 327.657077,112.497704 327.758393,112.506762 L328.351719,112.566163 C328.448223,112.576923 328.543558,112.588122 328.637757,112.599772 L329.189601,112.675202 C332.152782,113.121051 333.953163,114.08767 335.805306,116.048763 C336.930103,117.239724 337.670141,118.473508 338.479399,120.304985 L338.816156,121.088981 L339.003593,121.535889 C339.146139,121.876017 339.283145,122.194079 339.416663,122.492327 L339.679659,123.063075 C340.631388,125.063849 341.469176,126.07993 343.002636,127.000164 L343.216132,127.12514 C344.978045,128.131947 345.991224,129.459466 346.766141,131.366353 C346.822991,131.506247 346.878795,131.649179 346.937221,131.80393 L347.257671,132.68384 C347.313786,132.839426 347.368716,132.98727 347.423013,133.127747 L347.584565,133.527455 C348.281221,135.167009 348.964852,135.625051 350.853847,135.726474 C358.203218,136.121071 363.70475,134.8694 365.797768,131.699094 L366.26818,130.992857 L366.715073,130.336132 C366.787759,130.230664 366.859586,130.127155 366.930617,130.025553 L367.347731,129.438396 L367.748656,128.894487 C369.717696,126.278885 371.189606,125.191107 373.813543,124.221791 L374.391171,124.017542 L374.724346,123.908863 L375.309024,123.72897 L376.652929,123.328217 L376.906142,123.24902 L377.388998,123.089083 C377.622616,123.008448 377.844568,122.926663 378.055071,122.843048 L378.460872,122.673174 C380.869958,121.608084 381.559236,120.195557 380.933587,117.159318 C380.405707,114.597551 379.873849,113.152814 378.853355,111.209697 L378.057431,109.715388 L377.708942,109.044465 L377.39998,108.429458 L377.124226,107.854514 C376.732342,107.014219 376.431215,106.255635 376.124889,105.337998 L375.918849,104.700035 L375.704951,103.999093 L375.59308,103.62005 C375.523162,103.380929 375.452651,103.145785 375.37929,102.906935 L375.148401,102.171593 L374.293925,99.5723767 L374.240445,99.405433 C373.761388,97.9015115 373.515809,96.8595194 373.434638,95.7905727 C373.228749,93.0791959 374.201871,90.5138003 376.915344,86.7160921 L377.348467,86.1121516 L377.842146,85.3941486 L379.398878,83.1092759 L380.153997,82.0226609 L380.694577,81.2650247 C380.752346,81.1853653 380.809197,81.1074694 380.864978,81.0315931 L381.185596,80.6026198 C381.236484,80.5358464 381.285996,80.4716047 381.33398,80.410151 L381.60232,80.076932 C381.767357,79.8798207 381.903052,79.7355103 381.999635,79.6603903 L382.260498,79.4625987 L382.423125,79.3478063 L382.580303,79.2468264 C382.994909,78.9960835 383.384112,78.8941146 384.009592,78.9524443 L384.255734,78.9818545 L384.527092,79.0264277 L384.826735,79.0862989 L385.157729,79.1616034 L385.523139,79.252476 L386.142495,79.4182708 L386.856538,79.6198538 L388.285137,80.0365925 C391.272087,80.9151074 394.846591,80.9779118 397.412177,80.1713243 C400.030752,79.3480778 401.165638,77.8608857 400.677258,75.6488111 C400.344299,74.1407016 399.922496,72.9488117 399.38467,71.863435 L399.253209,71.6106352 L398.773381,70.7528953 L397.863701,69.1712259 C397.147423,67.7940694 396.919128,66.528329 397.180045,64.7540988 C397.363559,63.5062032 398.102948,62.1939716 399.296916,60.7774502 C400.20687,59.6978817 401.371604,58.5729214 402.733817,57.4203224 C403.89075,56.4414153 405.12593,55.4961309 406.360717,54.6176796 L406.678869,54.3928576 L407.277147,53.9785978 L408.019439,53.4826663 Z" id="Path" fill="#FFFFFF" fill-rule="nonzero"></path>
        </g>
    </g>
</svg>