<?xml version="1.0" encoding="UTF-8"?>
<svg width="592px" height="497px" viewBox="0 0 592 497" version="1.1" xmlns="http://www.w3.org/2000/svg" xmlns:xlink="http://www.w3.org/1999/xlink">
    <title>kalimantan-barat</title>
    <defs>
        <polygon id="path-1" points="-1.8189894e-12 253.816118 7.31284268 240.732211 20.6285096 227.305302 24.3246409 221.710667 24.3246409 219.256982 21.9065161 213.424308 20.6285096 206.929779 22.8739112 200.396044 24.3246409 196.787 35.260632 194.594576 39.4364693 192.265716 42.8785959 188.691507 44.1159617 183.874852 39.4364693 176.301158 33.9100527 167.040872 32.4172307 162.667637 32.4172307 159.258893 42.8785959 146.39537 46.8751785 142.596911 51.2041443 140.814523 59.0267635 139.096726 66.0293103 136.832455 70.0367788 134.07977 73.8947474 129.248388 76.926157 124.355688 80.2650233 121.732617 98.1459195 112.633758 102.416114 110.491641 106.915076 109.824245 110.0403 110.491641 111.617015 112.633758 115.488716 111.74589 117.789268 108.816157 124.142847 103.481591 132.644342 99.6731773 138.316751 98.3814055 144.929341 98.3814055 151.021664 96.7928465 156.849228 93.2605802 169.613926 83.2431212 176.254985 77.5095049 177.921788 74.3470458 176.254985 71.2702032 174.020005 67.372758 173.230438 64.9189594 176.254985 61.7306563 187.923128 44.7411869 193.734135 39.9866815 234.232506 17.7328243 287.488605 -3.52240623e-15 308.03657 30.3006448 330.754717 142.596911 305.227776 207.731995 272.290667 251.072745 205.974536 299.292576 66.0293103 299.292576"></polygon>
    </defs>
    <g id="website" stroke="none" stroke-width="1" fill="none" fill-rule="evenodd">
        <g id="11a.-daftar-master-stokis" transform="translate(-108.000000, -2440.000000)">
            <g id="kalimantan-barat" transform="translate(108.000000, 2440.000000)">
                <path d="M404.439354,339.312185 C399.6261,339.57541 390.902076,332.806771 389.924383,344.388665 C388.946691,355.970558 384.095833,353.751949 379.282578,359.730914 C374.469324,365.709878 376.387105,361.686298 372.513939,374.321092 C368.640773,386.955885 369.618466,382.105027 361.872134,388.873666 C354.125802,395.642305 349.312548,389.851358 348.334855,400.45556 C347.357163,411.059761 355.103495,415.948223 345.439382,417.866004 C335.775269,419.783785 332.879796,419.106921 331.902104,426.213992 C330.924411,433.321064 334.835181,429.485501 330.924411,433.358667 C328.450518,436.48838 326.657418,440.100196 325.659914,443.962869 C324.842431,442.731302 323.280161,442.231376 321.899559,442.759555 C320.245003,443.398815 319.004085,444.790147 317.349529,445.429407 C312.91231,447.083963 307.459795,442.38352 303.436215,444.978165 C301.556038,446.143875 300.879174,448.512898 299.67586,450.355472 C296.676972,454.497869 291.107537,455.838363 286.552221,453.514171 C285.2737,452.837307 284.10799,451.483579 284.559232,450.167455 C285.010475,448.85133 285.91296,448.625709 286.063374,447.648017 C286.069775,446.978381 285.843865,446.32723 285.424114,445.805443 C284.080214,443.323814 282.26667,441.127126 280.08441,439.337632 C277.808289,437.578679 274.728221,437.272132 272.15006,438.547957 C271.021954,439.262425 270.157072,440.390531 268.991362,441.029792 C266.408148,442.198484 263.365531,441.559535 261.470652,439.450443 C259.606402,437.41476 258.309669,434.925033 257.710297,432.230561 C257.146243,430.237572 256.394172,427.868549 254.401184,427.342099 C252.408196,426.815649 250.415208,428.808637 249.211894,430.613608 C246.970766,433.465479 245.835634,437.031128 246.015592,440.653756 C246.220254,441.684056 246.220254,442.744551 246.015592,443.774851 C245.338728,446.331892 241.841598,446.444703 239.359764,447.535206 C234.65932,449.264969 232.365503,455.055916 227.552249,456.484851 C221.234852,458.101804 215.782337,450.769111 209.239319,450.806715 C207.017748,451.032949 204.825257,451.486568 202.696301,452.160443 C198.64405,452.443255 194.58057,451.800299 190.813579,450.280265 C188.858194,449.716212 187.316449,451.934822 186.413963,453.739792 L182.653608,462.238195 C182.301593,463.231209 181.659728,464.095761 180.811034,464.720029 C179.362019,465.368968 177.661556,465.037904 176.561833,463.892751 C175.585448,462.677921 174.914875,461.246505 174.606448,459.718757 C173.004939,453.569412 172.86329,447.130808 174.192809,440.916981 C174.323536,440.284404 174.323536,439.631777 174.192809,438.9992 C173.77917,437.683076 172.312632,437.119022 171.259732,436.254141 C168.401862,433.92272 169.078726,429.372691 170.545265,426.025975 C172.504807,422.896369 173.389407,419.212736 173.064703,415.534584 L162.009258,417.18914 C160.360484,417.327741 158.765389,417.842288 157.346418,418.693282 C155.964512,419.667407 155.501179,421.504761 156.255915,423.017691 C152.954179,424.067575 150.028101,426.053128 147.83272,428.73343 C147.35446,429.44384 146.799614,430.099567 146.178163,430.688815 C144.627597,431.895952 142.727941,432.568747 140.763252,432.606596 C134.295441,433.208253 127.602009,431.553697 121.284612,433.133046 C118.957466,434.060866 116.49204,434.594618 113.989523,434.712395 C111.507689,434.712395 108.87544,432.456182 109.40189,430.011951 C106.468813,431.704111 103.272511,428.018963 99.9257952,427.680531 C94.5484873,427.078874 90.2616825,435.201241 85.2604102,432.945028 C83.7724108,432.153643 82.5546646,430.935897 81.7632799,429.447898 C79.5446703,426.025975 77.1756466,421.701566 79.0558242,418.166832 C79.5860152,417.520815 79.9247009,416.739233 80.0335165,415.910619 C79.9141921,415.120955 79.6597849,414.357733 79.2814455,413.654406 C78.2285461,410.683726 81.1240195,407.788252 81.3496408,404.667158 C81.29692,402.624527 80.6572549,400.640259 79.5070668,398.951418 C78.3488984,397.277877 77.6370337,395.336428 77.4388715,393.310885 C77.3465489,391.217268 78.8911947,389.409703 80.9736053,389.174494 C80.5223627,384.699672 80.409552,381.390559 79.995913,376.878133 C78.0724587,374.609416 77.019379,371.730109 77.0252324,368.755766 C77.0663014,368.033802 76.9901067,367.309953 76.7996111,366.612364 C76.1227472,364.76979 73.6409128,364.205736 72.4752027,362.588784 C71.470742,360.433113 71.7459793,357.898033 73.1896702,356.008162 C74.6655028,354.162586 75.4620796,351.86579 75.4458833,349.502748 C75.0322442,346.870499 72.362392,344.952718 72.4752027,342.282866 C72.6632382,341.644632 72.6632382,340.965714 72.4752027,340.327481 C72.0239601,339.349789 70.6702322,339.424996 69.6173328,339.04896 C67.0978948,338.108872 67.0226877,334.574138 67.1354984,331.866682 C67.2454843,327.326273 66.5320318,322.803493 65.0296995,318.517421 C64.817713,317.759195 64.3534438,317.095953 63.7135752,316.637244 C62.9991077,316.261208 62.1342261,316.637244 61.3445515,316.298812 C59.0131313,315.885173 58.2610603,313.027303 56.5312969,311.41035 C52.4701134,307.649995 44.4981605,311.786386 40.7002018,307.649995 C40.291128,307.241164 40.0611846,306.686595 40.0609414,306.108249 C40.0609414,305.243368 41.0010302,304.679314 41.3394622,303.852036 C42.0539296,302.122273 39.9857343,300.317302 40.2113556,298.399521 C40.4060566,297.595461 40.7644883,296.840195 41.2642551,296.180912 C42.5803794,294.075113 45.2502315,287.870527 43.3700539,285.426296 C41.4898764,282.982065 35.8493437,284.899846 33.7811483,285.426296 C26.7116807,287.043249 18.138071,285.426296 14.52813,278.996089 C12.8590264,275.858094 12.4295574,272.207608 13.3248164,268.767923 C13.4773758,267.837831 13.8803665,266.966851 14.4905265,266.248485 C16.295497,264.556325 19.228574,265.722035 21.6728048,265.270793 C28.4038405,264.18029 27.0501126,255.005023 24.9443138,250.680615 C21.7856155,244.137597 16.7467396,240.339638 12.4223312,234.736709 C10.3541358,232.066857 10.9181891,228.193691 8.43635472,225.599046 C5.95452033,223.004401 -0.325272747,221.500259 0.0131592152,217.476679 C0.313987626,214.317981 4.48798183,213.227478 6.40576295,210.70804 C7.68532369,208.515334 8.44435935,206.058117 8.62437248,203.525761 C9.66009011,199.604577 11.3372835,195.881715 13.5880413,192.507921 C16.0322721,188.333927 18.5141065,184.197536 21.1087515,180.023542 C22.6504971,177.391293 24.1546392,173.856559 22.1240474,171.600346 C19.3413846,170.020997 16.0322721,172.502831 13.5880413,174.683837 C11.1438104,176.864843 7.38345528,178.782624 5.0520351,176.488808 C5.31525996,174.871855 5.57848482,173.217299 5.80410613,171.63795 C9.56446126,173.179695 13.9264732,170.096204 16.1074792,166.486263 C18.7397278,162.237062 19.8678343,156.859754 22.913722,152.79857 C24.2977386,151.132698 25.9498889,149.709308 27.8021837,148.586973 C29.244597,147.750485 30.5195616,146.654015 31.5625388,145.353067 C32.2770063,144.262564 31.5625388,142.908836 33.1042844,141.818333 C34.4323839,140.925757 36.02052,140.502254 37.6167106,140.61502 L38.66961,140.61502 C41.3820714,140.872341 43.9774872,141.845622 46.1903203,143.435286 C46.5022862,143.616128 46.7615497,143.875391 46.9423913,144.187357 C47.0570284,144.476932 47.1328923,144.780388 47.1680126,145.089842 C47.5064446,147.308452 47.5816517,147.759695 49.3490186,149.075819 C52.9775322,151.645991 55.8374816,155.155928 57.6217999,159.228778 C58.3629813,161.47321 59.3730875,163.619686 60.630084,165.621381 C63.0743149,168.704873 67.2859126,169.908186 69.9557648,172.728453 C72.6256169,175.548719 73.5281021,179.384281 76.385972,181.753305 C78.6820058,183.208541 81.0972823,184.466497 83.6058539,185.51366 C87.366209,187.581855 89.9232505,191.342211 93.5331915,193.598424 C101.918783,198.825317 112.78621,194.764134 122.63834,195.967447 C126.034901,196.68558 129.477914,197.163078 132.941713,197.396382 C136.000894,197.100483 139.031423,196.559766 142.004169,195.77943 C146.340924,195.059238 150.754308,194.920134 155.127809,195.365791 C159.996781,193.388091 165.215562,192.415965 170.470058,192.507921 C172.128254,192.837766 173.825394,192.926422 175.508933,192.771146 C177.260869,192.111561 178.937446,191.26697 180.510206,190.251708 C182.766419,189.198808 185.21065,188.822773 187.54207,187.957891 C189.955369,187.310857 191.970938,185.651783 193.069792,183.407861 C193.521035,182.204548 193.558638,180.888423 193.89707,179.647506 C195.213194,174.947062 200.364881,172.653246 204.27565,169.795376 C207.220752,167.044143 210.633597,164.841075 214.353402,163.289961 C216.201969,162.868469 218.103656,162.729012 219.993935,162.876322 C226.988195,162.876322 233.982456,162.876322 240.939113,163.214754 C243.721776,163.214754 247.256509,163.966825 247.632545,166.674281 C247.631075,167.332653 247.706799,167.988928 247.858166,168.629666 C248.53503,170.434636 251.167279,169.983393 253.009853,170.47224 C254.07571,170.858876 255.07719,171.403985 255.980533,172.089192 C263.802072,177.015258 275.872812,171.412328 283.431126,176.789636 C286.100978,178.745021 289.786126,176.375997 291.741511,173.706145 C293.696895,171.036293 295.501866,167.689577 298.698168,167.050316 C300.515746,166.877564 302.348097,167.148546 304.037872,167.839991 C310.016837,169.757772 317.349529,170.848275 321.937162,166.599074 C317.311926,174.119784 321.147488,187.73227 311.483375,190.627743 C301.819262,193.523217 298.660564,195.516205 295.877901,203.224933 C293.095239,210.933661 295.877901,223.042004 291.177457,225.22301 C300.84157,227.404016 312.009825,209.617537 321.937162,215.596501 C331.8645,221.575466 333.744678,219.356856 342.431098,215.596501 C351.117518,211.836146 358.901453,207.549341 363.714708,211.159282 C368.527963,214.769223 368.527963,214.73162 363.714708,225.411028 C360.32084,232.60243 359.665731,240.784612 361.872134,248.424402 C362.849826,254.628988 353.185714,258.013307 358.111779,264.105083 C363.037844,270.196858 372.589146,269.632805 375.522223,264.105083 C378.4553,258.57736 386.126425,258.991 383.268555,268.429491 C380.410685,277.867982 375.747844,293.473456 383.907815,297.271415 C392.067786,301.069373 399.701307,301.934255 402.709591,312.312835 C405.717875,322.691416 412.411307,322.052155 414.329088,328.55757 C416.246869,335.062984 409.252609,339.124167 404.439354,339.312185 Z" id="Path" fill="#29BB89" fill-rule="nonzero"></path>
                <g id="Path" transform="translate(95.710000, 184.751612)">
                    <mask id="mask-2" fill="white">
                        <use xlink:href="#path-1"></use>
                    </mask>
                    <g id="Mask"></g>
                    <path d="M308.729354,154.560574 C303.9161,154.823798 295.192076,148.055159 294.214383,159.637053 C293.236691,171.218947 288.385833,169.000337 283.572578,174.979302 C278.759324,180.958267 280.677105,176.934687 276.803939,189.56948 C272.930773,202.204273 273.908466,197.353415 266.162134,204.122054 C258.415802,210.890693 253.602548,205.099747 252.624855,215.703948 C251.647163,226.30815 259.393495,231.196611 249.729382,233.114392 C240.065269,235.032173 237.169796,234.35531 236.192104,241.462381 C235.214411,248.569452 239.125181,244.73389 235.214411,248.607056 C232.740518,251.736769 230.947418,255.348585 229.949914,259.211257 C229.132431,257.97969 227.570161,257.479764 226.189559,258.007943 C224.535003,258.647204 223.294085,260.038535 221.639529,260.677796 C217.20231,262.332352 211.749795,257.631908 207.726215,260.226553 C205.846038,261.392263 205.169174,263.761287 203.96586,265.603861 C200.966972,269.746257 195.397537,271.086752 190.842221,268.762559 C189.5637,268.085695 188.39799,266.731967 188.849232,265.415843 C189.300475,264.099719 190.20296,263.874097 190.353374,262.896405 C190.359775,262.22677 190.133865,261.575618 189.714114,261.053831 C188.370214,258.572202 186.55667,256.375515 184.37441,254.58602 C182.098289,252.827067 179.018221,252.52052 176.44006,253.796346 C175.311954,254.510813 174.447072,255.63892 173.281362,256.27818 C170.698148,257.446873 167.655531,256.807923 165.760652,254.698831 C163.896402,252.663148 162.599669,250.173422 162.000297,247.478949 C161.436243,245.485961 160.684172,243.116937 158.691184,242.590487 C156.698196,242.064038 154.705208,244.057026 153.501894,245.861996 C151.260766,248.713867 150.125634,252.279516 150.305592,255.902144 C150.510254,256.932444 150.510254,257.99294 150.305592,259.023239 C149.628728,261.580281 146.131598,261.693091 143.649764,262.783594 C138.94932,264.513358 136.655503,270.304305 131.842249,271.73324 C125.524852,273.350192 120.072337,266.0175 113.529319,266.055103 C111.307748,266.281337 109.115257,266.734956 106.986301,267.408831 C102.93405,267.691643 98.8705696,267.048687 95.1035788,265.528654 C93.1481942,264.9646 91.6064486,267.18321 90.7039633,268.98818 L86.9436082,277.486583 C86.591593,278.479597 85.9497283,279.34415 85.1010342,279.968417 C83.6520187,280.617356 81.951556,280.286293 80.8518329,279.141139 C79.8754479,277.926309 79.2048746,276.494893 78.8964482,274.967145 C77.2949394,268.8178 77.1532901,262.379197 78.4828091,256.165369 C78.6135358,255.532792 78.6135358,254.880165 78.4828091,254.247588 C78.0691701,252.931464 76.6026316,252.367411 75.5497321,251.502529 C72.6918622,249.171109 73.3687261,244.621079 74.8352647,241.274363 C76.7948073,238.144757 77.6794072,234.461125 77.3547026,230.782972 L66.2992585,232.437528 C64.6504838,232.57613 63.0553886,233.090676 61.6364181,233.94167 C60.2545115,234.915795 59.7911788,236.753149 60.5459151,238.266079 C57.2441785,239.315963 54.318101,241.301516 52.1227196,243.981819 C51.6444603,244.692229 51.0896143,245.347956 50.4681634,245.937203 C48.9175971,247.144341 47.0179412,247.817135 45.053252,247.854984 C38.5854411,248.456641 31.892009,246.802085 25.5746124,248.381434 C23.2474661,249.309254 20.7820397,249.843006 18.2795234,249.960783 C15.797689,249.960783 13.1654404,247.70457 13.6918901,245.260339 C10.7588131,246.952499 7.56251126,243.267351 4.21579519,242.928919 C-1.16151266,242.327262 -5.44831751,250.44963 -10.4495898,248.193416 C-11.9375892,247.402032 -13.1553354,246.184286 -13.9467201,244.696286 C-16.1653297,241.274363 -18.5343534,236.949955 -16.6541758,233.415221 C-16.1239848,232.769203 -15.7852991,231.987621 -15.6764835,231.159008 C-15.7958079,230.369343 -16.0502151,229.606121 -16.4285545,228.902795 C-17.4814539,225.932114 -14.5859805,223.036641 -14.3603592,219.915546 C-14.41308,217.872915 -15.0527451,215.888648 -16.2029332,214.199806 C-17.3611016,212.526265 -18.0729663,210.584816 -18.2711285,208.559273 C-18.3634511,206.465656 -16.8188053,204.658092 -14.7363947,204.422883 C-15.1876373,199.94806 -15.300448,196.638948 -15.714087,192.126521 C-17.6375413,189.857804 -18.690621,186.978498 -18.6847676,184.004154 C-18.6436986,183.28219 -18.7198933,182.558341 -18.9103889,181.860752 C-19.5872528,180.018178 -22.0690872,179.454125 -23.2347973,177.837172 C-24.239258,175.681501 -23.9640207,173.146421 -22.5203298,171.25655 C-21.0444972,169.410975 -20.2479204,167.114178 -20.2641167,164.751136 C-20.6777558,162.118887 -23.347608,160.201106 -23.2347973,157.531254 C-23.0467618,156.893021 -23.0467618,156.214103 -23.2347973,155.575869 C-23.6860399,154.598177 -25.0397678,154.673384 -26.0926672,154.297349 C-28.6121052,153.35726 -28.6873123,149.822526 -28.5745016,147.11507 C-28.4645157,142.574661 -29.1779682,138.051882 -30.6803005,133.76581 C-30.892287,133.007583 -31.3565562,132.344341 -31.9964248,131.885632 C-32.7108923,131.509597 -33.5757739,131.885632 -34.3654485,131.5472 C-36.6968687,131.133561 -37.4489397,128.275691 -39.1787031,126.658738 C-43.2398866,122.898383 -51.2118395,127.034774 -55.0097982,122.898383 C-55.418872,122.489553 -55.6488154,121.934983 -55.6490586,121.356638 C-55.6490586,120.491756 -54.7089698,119.927703 -54.3705378,119.100425 C-53.6560704,117.370661 -55.7242657,115.565691 -55.4986444,113.64791 C-55.3039434,112.84385 -54.9455117,112.088583 -54.4457449,111.4293 C-53.1296206,109.323501 -50.4597685,103.118915 -52.3399461,100.674684 C-54.2201236,98.2304536 -59.8606563,100.148235 -61.9288517,100.674684 C-68.9983193,102.291637 -77.571929,100.674684 -81.18187,94.2444772 C-82.8509736,91.106482 -83.2804426,87.4559961 -82.3851836,84.0163112 C-82.2326242,83.0862194 -81.8296335,82.2152394 -81.2194735,81.4968733 C-79.414503,79.8047134 -76.481426,80.9704235 -74.0371952,80.5191809 C-67.3061595,79.4286779 -68.6598874,70.2534114 -70.7656862,65.929003 C-73.9243845,59.3859851 -78.9632604,55.5880264 -83.2876688,49.9850972 C-85.3558642,47.3152451 -84.7918109,43.4420793 -87.2736453,40.8474342 C-89.7554797,38.2527892 -96.0352727,36.7486471 -95.6968408,32.7250671 C-95.3960124,29.5663688 -91.2220182,28.4758658 -89.3042371,25.9564279 C-88.0246763,23.7637227 -87.2656406,21.3065056 -87.0856275,18.7741496 C-86.0499099,14.8529649 -84.3727165,11.1301037 -82.1219587,7.75630903 C-79.6777279,3.58231483 -77.1958935,-0.554075824 -74.6012485,-4.72807003 C-73.0595029,-7.36031862 -71.5553608,-10.8950524 -73.5859526,-13.1512655 C-76.3686154,-14.7306147 -79.6777279,-12.2487803 -82.1219587,-10.0677743 C-84.5661896,-7.88676834 -88.3265447,-5.96898722 -90.6579649,-8.26280385 C-90.39474,-9.87975656 -90.1315152,-11.5343128 -89.9058939,-13.113662 C-86.1455387,-11.5719164 -81.7835268,-14.6554076 -79.6025208,-18.2653485 C-76.9702722,-22.5145498 -75.8421657,-27.8918577 -72.796278,-31.9530412 C-71.4122614,-33.6189132 -69.7601111,-35.0423042 -67.9078163,-36.164639 C-66.465403,-37.0011266 -65.1904384,-38.0975962 -64.1474612,-39.3985444 C-63.4329937,-40.4890474 -64.1474612,-41.8427752 -62.6057156,-42.9332782 C-61.2776161,-43.8258544 -59.68948,-44.2493574 -58.0932894,-44.1365919 L-57.04039,-44.1365919 C-54.3279286,-43.8792702 -51.7325128,-42.9059893 -49.5196797,-41.3163255 C-49.2077138,-41.1354839 -48.9484503,-40.8762204 -48.7676087,-40.5642545 C-48.6529716,-40.2746793 -48.5771077,-39.9712236 -48.5419874,-39.6617692 C-48.2035554,-37.4431597 -48.1283483,-36.9919171 -46.3609814,-35.6757928 C-42.7324678,-33.1056211 -39.8725184,-29.5956833 -38.0882001,-25.5228339 C-37.3470187,-23.2784017 -36.3369125,-21.131926 -35.079916,-19.1302302 C-32.6356851,-16.046739 -28.4240874,-14.8434253 -25.7542352,-12.023159 C-23.0843831,-9.20289264 -22.1818979,-5.3673304 -19.324028,-2.99830666 C-17.0279942,-1.54307094 -14.6127177,-0.285114425 -12.1041461,0.762048474 C-8.34379097,2.8302438 -5.78674947,6.59059894 -2.17680854,8.84681202 C6.20878341,14.0737057 17.0762098,10.0125221 26.9283402,11.2158358 C30.3249009,11.9339679 33.7679137,12.411466 37.2317133,12.6447707 C40.2908938,12.348871 43.3214233,11.8081541 46.2941692,11.027818 C50.6309235,10.3076265 55.0443083,10.1685227 59.4178086,10.6141789 C64.2867806,8.63647939 69.5055615,7.66435352 74.7600575,7.75630903 C76.4182545,8.08615394 78.1153943,8.1748105 79.7989334,8.01953389 C81.5508693,7.35994913 83.2274457,6.51535804 84.8002058,5.50009595 C87.0564188,4.44719651 89.5006497,4.07116099 91.8320699,3.20627931 C94.245369,2.55924558 96.2609382,0.900171576 97.3597919,-1.3437504 C97.8110345,-2.54706405 97.8486381,-3.86318834 98.18707,-5.10410554 C99.5031943,-9.80454946 104.654881,-12.0983661 108.56565,-14.956236 C111.510752,-17.7074687 114.923597,-19.9105363 118.643402,-21.4616504 C120.491969,-21.8831429 122.393656,-22.0226 124.283935,-21.8752894 C131.278195,-21.8752894 138.272456,-21.8752894 145.229113,-21.5368575 C148.011776,-21.5368575 151.546509,-20.7847865 151.922545,-18.0773308 C151.921075,-17.4189582 151.996799,-16.7626836 152.148166,-16.1219461 C152.82503,-14.3169756 155.457279,-14.7682182 157.299853,-14.2793721 C158.36571,-13.8927362 159.36719,-13.3476268 160.270533,-12.6624194 C168.092072,-7.73635413 180.162812,-13.3392833 187.721126,-7.96197544 C190.390978,-6.00659077 194.076126,-8.37561451 196.031511,-11.0454667 C197.986895,-13.7153188 199.791866,-17.0620349 202.988168,-17.7012952 C204.805746,-17.8740476 206.638097,-17.6030661 208.327872,-16.9116207 C214.306837,-14.9938395 221.639529,-13.9033366 226.227162,-18.1525379 C221.601926,-10.6318276 225.437488,2.980658 215.773375,5.87613146 C206.109262,8.77160491 202.950564,10.7645931 200.167901,18.4733212 C197.385239,26.1820492 200.167901,38.2903927 195.467457,40.4713987 C205.13157,42.6524047 216.299825,24.8659249 226.227162,30.8448896 C236.1545,36.8238542 238.034678,34.6052447 246.721098,30.8448896 C255.407518,27.0845344 263.191453,22.7977296 268.004708,26.4076705 C272.817963,30.0176114 272.817963,29.9800079 268.004708,40.6594165 C264.61084,47.8508187 263.955731,56.0329999 266.162134,63.6727899 C267.139826,69.8773759 257.475714,73.2616955 262.401779,79.3534708 C267.327844,85.4452461 276.879146,84.8811929 279.812223,79.3534708 C282.7453,73.8257488 290.416425,74.2393878 287.558555,83.6778792 C284.700685,93.1163706 280.037844,108.721844 288.197815,112.519803 C296.357786,116.317762 303.991307,117.182643 306.999591,127.561224 C310.007875,137.939804 316.701307,137.300543 318.619088,143.805958 C320.536869,150.311372 313.542609,154.372556 308.729354,154.560574 Z" fill="#A0A0A0" fill-rule="nonzero" mask="url(#mask-2)"></path>
                </g>
                <path d="M591.667436,199.539785 C584.116337,201.763538 576.258409,202.766408 568.390838,202.510465 C565.34495,202.510465 562.336666,202.13443 559.290779,201.833601 C556.679653,201.842274 554.139773,200.982419 552.070897,199.389371 C551.34079,198.45908 550.508269,197.613945 549.589062,196.869933 C547.558471,195.666619 545.039033,196.869933 542.707612,196.869933 C538.044772,196.869933 534.923677,192.319903 531.426547,189.123601 C530.474775,188.045014 529.104667,187.428466 527.666192,187.431441 C526.84566,187.599047 526.104558,188.035767 525.560393,188.672358 C524.611232,189.885343 524.232069,191.449098 524.52026,192.962104 C524.808452,194.475109 525.735925,195.789981 527.064535,196.569104 C527.891813,197.020347 528.794298,197.208365 529.583973,197.734814 C531.137952,199.131166 531.76474,201.288484 531.200926,203.30014 C530.18563,208.150998 526.237257,211.760939 523.680216,216.01014 C522.292138,219.495815 520.349255,222.733954 517.926872,225.599046 C516.712305,226.443174 515.601588,227.427674 514.61776,228.532123 C513.226428,230.637922 513.715274,233.420585 513.226428,236.052833 C512.184742,239.108486 510.928152,242.086603 509.466073,244.964875 C507.773913,250.003751 509.466073,255.569076 508.525984,260.758366 C507.961372,263.015762 507.596464,265.318457 507.435481,267.639816 C507.526291,268.903671 507.702173,270.159969 507.961931,271.400171 C508.625606,275.754091 508.802178,280.168396 508.488381,284.561414 C508.56016,286.762711 508.267935,288.960752 507.623499,291.066829 C506.437657,294.174373 504.604703,296.994301 502.246191,299.33961 C501.447624,301.784664 499.513352,303.690904 497.056901,304.453693 C494.647497,305.176017 492.296719,306.081129 490.025037,307.161149 C487.682819,308.491139 485.924927,310.651601 485.098972,313.215321 C484.877899,314.799506 484.512888,316.360242 484.008469,317.878161 C483.071318,319.840453 481.070721,321.07097 478.896676,321.022297 C476.722631,320.973624 474.779109,319.654806 473.930717,317.65254 C472.915421,315.133102 473.930717,312.04961 472.125747,309.868605 C471.712108,309.342155 470.884829,308.853309 470.320776,309.304551 C470.036983,309.51111 469.847458,309.822472 469.794326,310.169433 C468.582673,313.219077 467.982172,316.477116 468.026959,319.758339 C468.026959,321.375291 468.591013,322.95464 468.703823,324.571593 C468.88897,328.729197 466.723584,332.638518 463.100894,334.686948 C461.107906,335.815055 458.588468,336.454315 457.610776,338.447304 C457.261211,339.351299 456.984568,340.281824 456.783498,341.229966 C455.768202,344.23825 452.459089,345.704789 449.526012,346.870499 C448.806206,347.235525 447.998614,347.391833 447.194592,347.321742 C446.431128,347.172887 445.695377,346.906495 445.013586,346.532067 C442.818398,345.57939 440.26804,346.009132 438.50626,347.628569 C436.744481,349.248007 436.101909,351.753223 436.866717,354.020713 C437.631525,356.288204 439.660182,357.892434 442.042905,358.113961 C443.659858,358.113961 445.803261,357.925943 446.630539,359.242067 C447.457817,360.558192 446.630539,362.513576 445.728054,363.980115 C448.285095,366.085914 447.38261,370.109494 446.592935,373.268192 C445.803261,376.42689 446.028882,380.97692 449.262787,381.804198 C450.046968,381.861595 450.826073,381.974691 451.594208,382.14263 C452.948811,382.609781 453.96112,383.750412 454.26406,385.150914 C454.847375,388.006395 453.245853,390.857104 450.503705,391.844346 C448.476762,392.191282 446.429236,392.404828 444.374326,392.483607 C444.374326,392.483607 428.355213,386.918281 424.519651,389.813755 C420.684088,392.709228 419.631189,389.813755 419.631189,384.662068 C419.631189,379.510382 415.870834,380.149642 409.967076,374.772334 C404.063319,369.395026 405.153822,368.530145 404.176129,359.730914 C403.198437,350.931683 407.071603,350.217215 404.176129,339.312185 C408.989384,339.312185 415.795627,334.686948 413.840242,328.03112 C411.884857,321.375291 405.153822,321.976948 402.220745,311.786386 C399.287668,301.595823 391.616543,300.50532 383.418969,296.744965 C375.221395,292.98461 379.846632,277.303929 382.779709,267.903041 C385.712786,258.502153 377.891247,257.975704 375.033377,263.578633 C372.175507,269.181562 362.436187,269.557597 357.622933,263.578633 C352.809678,257.599668 362.436187,254.102538 361.383288,247.897952 C359.259346,240.302822 359.953852,232.195805 363.338672,225.072596 C368.527963,214.581205 368.527963,214.806827 363.827519,211.159282 C359.127075,207.511738 351.267933,211.911353 342.543909,215.596501 C333.819885,219.281649 331.902104,221.575466 322.049973,215.596501 C312.197843,209.617537 300.84157,227.404016 291.290268,225.22301 C296.103523,223.042004 293.245653,210.933661 295.990712,203.224933 C298.735771,195.516205 301.932073,193.523217 311.596186,190.627743 C321.260299,187.73227 317.424736,174.194991 322.049973,166.599074 C323.137586,165.266871 324.402835,164.090189 325.810328,163.101944 C328.254559,161.748216 331.450861,162.575494 333.857488,161.25937 C335.565368,160.068464 336.875572,158.391402 337.617843,156.446115 C340.137281,151.407239 342.731926,146.33076 345.138554,141.404694 C345.801329,140.262149 346.151506,138.965201 346.15385,137.644339 C345.873093,136.603169 345.428858,135.613161 344.837725,134.711262 C343.412136,131.938137 343.412136,128.647553 344.837725,125.874428 C346.285909,123.105833 349.242862,121.464724 352.358435,121.700433 C353.78737,121.700433 355.291513,122.414901 356.53243,121.700433 C357.472766,120.997218 358.15904,120.007399 358.487814,118.880167 C360.312918,114.529371 363.456045,110.860198 367.475063,108.388776 C369.833241,107.334966 371.898539,105.721452 373.491631,103.688332 C374.29752,102.065654 374.29752,100.159325 373.491631,98.5366459 C372.78901,97.3199384 371.970463,96.1739721 371.047401,95.1147227 C367.798336,90.2714781 368.776539,83.7501259 373.303614,80.0733021 C380.185064,74.6583907 389.209916,77.5538642 392.895064,67.8897515 C393.985567,64.994278 396.279383,62.8132721 397.294679,59.9930057 C397.605468,58.7646553 397.744669,57.4991862 397.708318,56.2326506 C397.855549,53.0677953 398.730563,49.9795095 400.26536,47.2077982 C400.99632,46.1357588 401.554622,44.9557107 401.919916,43.710668 C401.931873,41.2614077 401.418984,38.8380071 400.415774,36.6035968 C398.911632,30.4742179 402.446366,24.2320284 406.695567,19.5315844 C408.045371,18.3533059 409.134071,16.9059757 409.891869,15.2823831 C410.343112,14.0038624 410.343112,12.6501345 410.681544,11.522028 C411.952684,8.56429495 414.230954,6.15279263 417.111751,4.7157852 C419.384978,3.04116529 421.928829,1.76923973 424.632461,0.955430065 C426.597813,0.453592414 428.620807,0.21336193 430.649029,0.240962589 L454.37687,0.240962589 C457.14776,0.159169937 459.919754,0.360769543 462.649652,0.84261941 C463.928172,1.10584427 465.206693,1.48187978 466.410007,1.66989754 C468.74307,1.98945944 471.108808,1.98945944 473.441871,1.66989754 L486.114268,0.240962589 C487.664612,-0.0803208629 489.264367,-0.0803208629 490.814712,0.240962589 C492.539256,0.933058188 494.055051,2.06018744 495.214327,3.51247156 L502.246191,10.6195428 C502.756925,11.2637594 503.432659,11.7575644 504.201576,12.0484777 C506.5706,12.8757558 508.826813,10.0178859 511.308647,10.2811108 C513.790481,10.5443357 515.069002,14.0414659 514.768174,16.7489216 C514.467345,19.4563773 513.828085,22.5398685 515.520245,24.6456674 C517.212405,26.7514663 520.070275,26.8266734 521.912849,28.6316439 C523.022219,29.9290818 523.507045,31.647636 523.239322,33.3335698 C522.971599,35.0195036 521.978241,36.5033248 520.521517,37.3932713 C517.475781,39.0017145 513.726657,38.3355478 511.421458,35.7763186 C510.484269,34.3517967 509.329619,33.0829509 507.999535,32.0159635 C505.95378,31.1510464 503.62378,31.2758678 501.682138,32.3543955 C499.793742,33.4681301 497.75474,34.3039943 495.627966,34.8362298 C492.771646,34.8037421 489.934856,34.3604936 487.204771,33.5201055 C484.384504,33.1064665 480.774563,34.0465553 480.135303,36.9044252 C479.496043,39.7622951 482.053084,41.8680939 484.422108,43.1090111 C487.351643,44.7070947 490.575771,45.6922451 493.898203,46.0044846 C496.192019,46.2301059 498.899475,46.3805201 500.027582,48.3359048 C501.155688,50.2912895 499.237907,54.1268517 500.516428,56.6838932 C501.794949,59.2409347 507.134653,59.128124 509.01483,62.0235975 C510.895008,64.9190709 507.585896,70.4091894 510.330955,73.0790416 C511.459061,74.1695446 513.376842,74.3951659 514.09131,75.6736866 C514.432876,76.2897337 514.650076,76.9668878 514.73057,77.6666748 C516.119774,82.7364152 519.19736,87.1803426 523.454594,90.2638646 L543.158855,107.975137 C546.007905,109.979984 548.016496,112.96609 548.799388,116.360729 C548.534997,121.070062 545.272883,125.075634 540.714624,126.288067 C537.652023,126.869798 534.805341,128.273641 532.479447,130.34925 C530.353661,134.026269 531.004965,138.678443 534.058796,141.630316 C537.156224,144.340507 540.421696,146.852408 543.835719,149.151026 C549.213027,153.663452 552.672554,160.432091 558.87714,163.628393 C560.730671,164.335789 562.507229,165.230367 564.17924,166.298245 C566.961903,168.592062 567.939595,172.690849 570.459033,175.097476 C573.993767,178.256175 580.235957,177.842536 582.60498,181.978926 C583.357052,183.332654 583.65788,185.100021 584.974004,185.964903 C585.852137,186.359333 586.773428,186.649602 587.719063,186.829784 C589.85669,187.761179 591.373028,189.716831 591.742643,192.019075 C592.109393,194.514597 592.084018,197.052096 591.667436,199.539785 L591.667436,199.539785 Z" id="Path" fill="#A0A0A0" fill-rule="nonzero"></path>
                <path d="M441.892491,416.061034 C442.077112,419.388657 441.003238,422.663972 438.884207,425.2363 C438.245818,426.165036 437.224536,426.758484 436.101544,426.853253 C433.845331,426.853253 433.544503,423.468933 433.920538,421.21272 C434.296574,418.956507 433.920538,415.760205 431.626722,415.684998 C430.518088,415.791725 429.526588,416.420141 428.95687,417.377158 C427.440935,419.57067 426.834385,422.266448 427.26471,424.897868 C427.527935,426.439614 428.167195,427.943756 428.505627,429.485501 C429.294566,434.917634 427.946654,440.444074 424.745272,444.902957 C421.18189,450.441546 417.116076,455.640249 412.599325,460.433224 C408.575745,464.94565 403.950508,469.758905 397.971543,470.285355 C396.016713,470.093984 394.049836,470.500472 392.331011,471.451065 C391.05249,472.579171 390.789265,474.384142 389.99959,475.888284 C387.893792,479.648639 382.854916,480.137485 378.98175,482.130473 C376.657808,483.788702 374.130149,485.140999 371.46104,486.154053 C369.877757,486.37155 368.2832,486.497106 366.685389,486.530089 C362.840463,486.949643 359.381518,489.058083 357.246897,492.283432 C356.758033,493.189288 356.16488,494.034847 355.47953,494.80287 C354.758866,495.394306 353.90838,495.806663 352.997696,496.006184 C349.5863,496.845826 346.03363,495.307873 344.311276,492.245829 C343.749754,490.910742 343.443633,489.482177 343.40879,488.034231 C342.581512,479.76145 345.138554,470.999822 340.701335,464.005562 C338.421648,461.280581 337.301113,457.770471 337.58024,454.228638 C338.022782,453.00265 338.374695,451.745819 338.633139,450.468283 C338.633139,449.152159 337.918672,447.57281 336.602547,447.57281 C335.87124,447.616703 335.184719,447.939772 334.684766,448.475295 C333.059246,449.964737 331.032914,450.94522 328.856216,451.295561 C326.712813,451.295561 324.306186,449.490591 324.832636,447.535206 L324.832636,447.535206 C325.171068,446.557514 325.998346,445.730236 325.960742,444.71494 C326.02153,444.518994 326.02153,444.309229 325.960742,444.113283 C326.958246,440.250611 328.751347,436.638794 331.22524,433.509081 C334.985595,429.748726 331.22524,433.509081 332.202932,426.364407 C333.180624,419.219732 335.963287,419.971803 345.74021,418.016418 C355.517134,416.061034 347.695595,411.285383 348.635684,400.605974 C349.575773,389.926565 354.426631,395.792719 362.172962,389.02408 C369.919294,382.255441 368.941602,387.106299 372.814767,374.471506 C376.687933,361.836713 374.770152,365.822689 379.583407,359.881328 C384.396661,353.939967 389.285123,356.120973 390.225212,344.539079 C391.165301,332.957185 399.926928,339.725824 404.740183,339.462599 C407.635656,350.367629 403.76249,351.044493 404.740183,359.881328 C405.717875,368.718162 404.740183,369.583044 410.531129,374.922748 C416.322076,380.262453 420.195242,379.698399 420.195242,384.812482 C420.195242,389.926565 421.172934,392.859642 425.083704,389.964169 C428.994473,387.068695 444.938379,392.634021 444.938379,392.634021 C442.408083,393.257924 440.311682,395.022783 439.265571,397.409686 C438.219459,399.796588 438.342558,402.534192 439.598675,404.817572 C440.087521,405.607246 440.764385,406.321714 441.253231,407.186595 C442.079231,410.068438 442.296926,413.090558 441.892491,416.061034 L441.892491,416.061034 Z" id="Path" fill="#A0A0A0" fill-rule="nonzero"></path>
                <path d="M434.14616,460.245206 C433.09326,466.412189 432.341189,472.679447 431.889947,479.046982 C433.130864,477.994083 434.559799,480.099882 436.026337,480.776745 C438.395361,481.942456 440.651574,479.009379 441.704474,476.602751 L446.404917,466.11136 C447.480202,464.379019 447.741373,462.262158 447.119385,460.320414 C446.442521,458.966686 444.900775,458.0642 444.750361,456.560058 C444.487136,454.341449 447.457817,451.859614 445.803261,450.317869 C445.21968,449.857908 444.46282,449.679014 443.735065,449.829023 C437.710488,450.475174 433.202157,455.655657 433.394089,461.711745" id="Path" fill="#A0A0A0" fill-rule="nonzero"></path>
                <path d="M176.749851,165.094932 C175.057691,164.23005 173.440738,162.613097 171.598164,163.026736 C167.461773,164.004429 166.220856,166.260642 162.197276,162.763512 C159.769699,160.547383 158.401927,157.401507 158.436921,154.114695 C159.677838,149.151026 164.979939,151.181618 168.777898,152.15931 C173.854377,153.513038 184.15775,154.415523 188.331744,157.085375 C195.551626,161.936233 181.600709,167.651973 176.749851,165.094932 Z" id="Path" fill="#29BB89" fill-rule="nonzero"></path>
                <path d="M272.313944,253.904342 L272.485182,254.10775 L272.810104,254.509596 L273.111231,254.905267 C275.616551,258.309234 275.388675,261.078857 271.064912,264.808162 L264.425578,270.464864 L262.971585,271.689786 L261.605421,272.824323 L260.736946,273.535181 L259.897764,274.212939 L259.083978,274.860424 L258.291692,275.480466 C258.161219,275.581676 258.03148,275.681861 257.902393,275.781079 L257.135049,276.365258 L256.379461,276.929064 L255.631734,277.475324 L255.259599,277.742759 C249.020666,282.201502 243.799668,284.591312 239.00538,284.68216 C229.515867,284.275213 220.327485,288.06178 213.849739,295.068005 C210.675364,298.269746 208.72372,299.021968 206.536551,298.002039 L206.394943,297.933981 L206.101755,297.781019 L205.069055,297.185112 C203.117253,296.080074 200.966122,295.837105 197.514421,297.033944 L196.958447,297.234968 C196.202309,297.519178 195.38596,297.86855 194.499123,298.288475 L193.820618,298.616731 L193.114717,298.97195 L192.380457,299.354637 L191.616874,299.765298 L189.12605,301.142428 L179.398716,306.426835 L177.507455,307.47257 L176.641603,307.961962 L176.119306,308.264935 L175.720968,308.505373 L175.530953,308.627536 L175.324048,308.771602 L175.090381,308.925122 L174.6937,309.167632 L174.575398,309.247327 L174.468802,309.329856 C174.450958,309.344734 174.433002,309.360276 174.414822,309.376631 L174.302166,309.485751 L174.178808,309.621689 L174.039419,309.791719 L173.878669,310.003115 L173.585834,310.413679 L173.214959,310.958228 L171.447303,313.651868 L169.524159,316.605494 C166.633907,321.038296 162.52134,323.310441 156.196752,324.843387 L154.721046,325.183376 L150.779397,325.989121 C150.643464,326.017433 150.509666,326.045573 150.377956,326.073563 L149.612351,326.239886 L148.89451,326.403704 L148.222108,326.566104 L147.592816,326.728177 C147.491398,326.755222 147.391678,326.782299 147.29361,326.809431 L146.724623,326.973054 C144.616472,327.60417 143.330353,328.288072 142.276507,329.300818 C139.031789,332.474125 136.052926,335.907518 133.36959,339.566362 L132.755618,340.414697 L132.691267,340.497259 C132.524206,340.69402 132.364017,340.885712 132.210524,341.072609 L131.769959,341.619191 C129.525563,344.460502 128.950751,346.144502 129.329989,347.793059 C129.344142,347.85458 129.366458,347.930251 129.395934,348.018213 L129.504832,348.317111 L129.650648,348.678599 L129.827351,349.09152 L130.028904,349.544719 L130.364633,350.275636 L130.962962,351.537183 L132.181453,354.043337 C132.354348,354.436596 132.519286,354.830857 132.677372,355.230433 L132.9095,355.834325 C133.538521,357.519777 134.479083,358.933635 136.046654,360.733007 L136.797668,361.575029 L137.711464,362.581453 L138.219378,363.153478 L138.511348,363.493029 C138.558077,363.548226 138.604075,363.603005 138.649696,363.657784 L138.833151,363.881492 L139.180123,364.325925 C141.904548,367.940606 141.943545,371.214031 138.533793,375.817197 C136.336705,378.783266 133.802585,380.082299 130.291143,380.575532 L129.853966,380.633368 L129.244254,380.701072 L128.470077,380.773106 L127.63688,380.845585 L127.003982,380.906112 L126.426515,380.969521 C126.334609,380.98042 126.244802,380.991507 126.156989,381.002817 L125.653194,381.073616 C124.208533,381.295659 123.341659,381.611856 122.438684,382.221151 C120.712976,383.385597 119.394953,385.604677 118.436107,389.44006 C117.136569,394.638211 117.563205,397.247027 119.270557,399.604455 L119.502725,399.912122 L120.374517,401.026833 L120.506913,401.203349 C121.946533,403.189685 122.0353,405.108355 120.389253,408.052651 L120.107059,408.539267 C119.958298,408.787243 119.797996,409.04235 119.625947,409.305171 L119.266129,409.84127 C119.203529,409.932392 119.139608,410.024414 119.07436,410.117358 L118.666875,410.686255 C118.596285,410.782973 118.524352,410.880655 118.451068,410.979325 L118.227158,411.278313 C113.478314,417.676356 107.880969,423.396502 101.59031,428.281867 L100.832112,428.864094 L99.3203063,426.873003 C105.4755,422.199455 110.965299,416.711426 115.645043,410.553416 L116.627525,409.241735 L116.995849,408.734669 L117.331541,408.257421 L117.635388,407.808428 L117.908176,407.386125 C117.951097,407.317878 117.992756,407.250679 118.03317,407.184493 L118.260847,406.799293 C119.219351,405.118319 119.294238,404.129281 118.808282,403.190741 L118.691192,402.982747 L118.556424,402.774851 L118.422995,402.590316 L117.409802,401.292502 C115.125579,398.269517 114.49838,394.883204 116.010751,388.833721 C117.629537,382.358577 119.843617,379.855312 124.29959,378.829635 L124.823784,378.717704 C124.912839,378.700094 125.002746,378.682995 125.093518,378.66639 L125.648613,378.572533 C125.837164,378.543126 126.029266,378.51555 126.225012,378.489663 L126.823277,378.416927 L127.44397,378.353474 L128.974127,378.215539 L129.543522,378.152627 L129.943395,378.099836 C132.837215,377.693356 134.764823,376.705232 136.5249,374.329128 C139.360192,370.501484 139.264435,368.390498 136.893808,365.458848 L136.601451,365.106205 L136.181563,364.621678 L134.480789,362.737454 C132.656822,360.688757 131.506963,359.051273 130.712228,357.081797 L130.567299,356.708448 C130.42716,356.332948 130.281095,355.964115 130.127977,355.597743 L129.884458,355.031947 L129.034903,353.303713 L128.384468,351.94213 L127.94305,350.988095 L127.73297,350.520905 L127.53574,350.070811 L127.355683,349.645719 L127.197119,349.253537 L127.064374,348.902173 L126.961767,348.599533 C126.933069,348.507653 126.910114,348.425211 126.893624,348.353526 C126.267933,345.633631 127.264057,343.09877 130.516836,339.198447 L130.752,338.918 L131.353628,338.087884 C133.90511,334.608844 136.716388,331.327284 139.768363,328.266478 L140.53636,327.505889 C141.764928,326.325188 143.119822,325.532865 145.115692,324.855689 L145.676298,324.673654 C145.77251,324.643722 145.870143,324.613977 145.969246,324.584392 L146.581878,324.408613 C146.687051,324.379569 146.79379,324.350636 146.902143,324.321786 L147.572021,324.14949 L148.282963,323.977977 L149.037289,323.806015 L149.837318,323.632373 L150.685371,323.455818 L154.278425,322.721006 L155.163132,322.519374 C161.185365,321.117294 164.893265,319.130638 167.42998,315.240059 L170.637745,310.320715 L171.24588,309.404383 L171.751732,308.66565 L172.049773,308.253601 L172.218309,308.034967 L172.368056,307.853998 L172.503588,307.70453 C172.525247,307.681902 172.546504,307.660329 172.567454,307.639684 L172.690245,307.525916 L172.81026,307.428244 L172.88284,307.374805 L173.033896,307.273332 L173.56182,306.944525 L173.844393,306.756252 L174.085922,306.58748 L174.293245,306.453257 L174.718232,306.194757 L175.267627,305.873933 L176.421882,305.219896 L178.745833,303.935669 L188.472131,298.649077 L190.02355,297.788348 L190.84849,297.339615 C190.983739,297.267216 191.117878,297.196005 191.250924,297.125976 L192.036227,296.719901 L192.796122,296.341766 C193.045276,296.220333 193.290331,296.10349 193.531423,295.991171 L194.242942,295.667718 L194.931495,295.371007 C200.011547,293.24496 203.222406,293.341618 206.108794,294.903311 L207.284089,295.578123 L207.497278,295.690063 C207.53013,295.706405 207.561934,295.721738 207.593127,295.736284 C208.332778,296.0812 209.036458,295.981799 210.32119,294.938181 L210.654835,294.657316 C210.712579,294.60713 210.771421,294.555233 210.831406,294.501588 L211.205384,294.158455 C211.270118,294.097674 211.336084,294.035073 211.403326,293.970616 L211.822457,293.561309 C211.894985,293.489283 211.968878,293.415327 212.044182,293.339407 C218.990279,285.825413 228.889176,281.746041 239.034621,282.183544 C243.015369,282.106098 247.682518,280.016954 253.332851,276.044209 L253.805994,275.70879 C254.168585,275.449659 254.53231,275.185345 254.899307,274.914291 L255.638297,274.362735 C255.762401,274.269157 255.887026,274.174716 256.012252,274.079352 L256.771458,273.495646 L257.548893,272.887048 L258.348357,272.25079 L259.173651,271.584104 L260.028576,270.884222 L261.374838,269.766104 L262.320472,268.971126 L269.425151,262.921605 L269.84342,262.555713 C269.910128,262.496015 269.975341,262.436942 270.039069,262.378467 L270.403702,262.034576 C272.659074,259.843168 272.687424,258.48051 271.099198,256.374047 L270.842184,256.043895 L270.560155,255.700734 L269.632151,254.628837 L269.390693,254.342043 L269.279929,254.206864 C267.384459,251.870073 267.074499,249.839645 269.072752,247.593547 C270.137623,246.396599 271.088661,245.146054 272.235638,243.471036 L273.183214,242.059353 L274.779028,239.650984 C275.139881,239.110413 275.480933,238.606221 275.813299,238.123395 L276.469745,237.181784 L277.12279,236.270458 C277.232446,236.119612 277.342783,235.968915 277.454214,235.817812 C279.605405,232.900738 281.982477,230.101589 284.919248,227.122137 L287.454729,224.594867 L288.955427,223.120732 L289.788846,222.335778 L289.974921,222.174461 L290.050898,222.112513 C290.153098,222.031325 290.24352,221.96769 290.348452,221.910827 L290.473101,221.849937 L290.571329,221.817376 L290.746676,221.767908 L290.918822,221.746683 L291.055316,221.739845 C291.180845,221.742508 291.283774,221.777141 291.456741,221.874912 L291.656484,221.994883 L291.923503,222.163874 L292.076008,222.449864 L292.119,222.534 C292.244717,222.232805 292.356616,221.886329 292.456775,221.488232 L292.553099,221.072694 L292.642059,220.621334 L292.724118,220.132742 L292.799738,219.605511 C292.81183,219.514341 292.823674,219.421503 292.835278,219.326966 L292.902106,218.739135 L292.963651,218.109142 L293.020374,217.43558 C293.029452,217.319611 293.038349,217.201767 293.047073,217.08202 L293.121208,215.952112 L293.166243,215.139389 L293.329673,211.829026 L293.376443,211.074533 C293.605528,207.586848 294.010642,205.028721 294.814969,202.800518 L295.06098,202.134944 L295.309488,201.495655 L295.561531,200.881757 C297.764219,195.668749 300.481979,193.215701 306.752422,190.903542 L307.491874,190.637231 L308.263896,190.371276 L309.069524,190.104783 L309.909796,189.836859 L310.785748,189.566609 L311.237428,189.430332 C313.934065,188.62239 315.431725,187.185232 316.460274,184.155144 L316.623069,183.649663 C316.729011,183.303164 316.829932,182.937439 316.926753,182.551271 L317.069026,181.956533 C317.092264,181.854804 317.115275,181.751759 317.138073,181.64738 L317.272419,181.004932 L317.402345,180.329535 L317.528542,179.620277 L317.651703,178.876244 L317.772519,178.096522 L317.891682,177.280199 L318.110206,175.717835 L318.244375,174.806355 L318.378899,173.949367 C318.401429,173.810878 318.424032,173.67451 318.446738,173.54019 L318.584456,172.758239 C318.607695,172.63181 318.631097,172.507279 318.65469,172.384572 L318.798797,171.669621 L318.948937,170.994869 C319.409826,169.027343 319.971334,167.554287 320.805953,166.141608 L320.947614,165.906646 L323.077125,167.216295 C322.145329,168.731411 321.579352,170.389967 321.084594,172.996643 L320.956948,173.698681 C320.935879,173.819449 320.914895,173.942141 320.893974,174.066823 L320.768996,174.839337 L320.581776,176.094633 L320.304205,178.076728 L320.128044,179.273148 L320.014219,179.999561 L319.901694,180.674728 L319.789106,181.303544 L319.67509,181.890906 C319.655893,181.985618 319.636579,182.078806 319.61712,182.170572 L319.498404,182.704933 C319.478253,182.791423 319.4579,182.876696 319.437317,182.960853 L319.310831,183.45323 C319.181129,183.933856 319.041099,184.381679 318.884601,184.818731 L318.722387,185.25301 L318.547829,185.685004 C318.517631,185.757085 318.486863,185.829274 318.455495,185.901675 C317.160304,188.891095 315.08734,190.886654 311.954943,191.825154 L311.083847,192.089506 L310.251904,192.349281 L309.457882,192.60549 C309.328637,192.64795 309.20092,192.690304 309.074707,192.732573 L308.33526,192.985328 C308.214957,193.027339 308.096105,193.069308 307.97868,193.111253 L307.291039,193.362831 C307.067393,193.446714 306.849247,193.530677 306.636396,193.614888 L306.013522,193.868434 C302.166652,195.481084 300.157113,197.244235 298.577997,200.313931 L298.332035,200.809646 C298.170171,201.147586 298.012256,201.500677 297.856649,201.870268 L297.624763,202.437197 C297.586336,202.533804 297.548001,202.631484 297.509734,202.730258 L297.280734,203.336207 C297.242634,203.439444 297.204549,203.543817 297.166455,203.649347 C296.496531,205.505218 296.126274,207.71827 295.906354,210.729119 L295.83393,211.829827 L295.729775,213.873186 L295.663755,215.258881 L295.599281,216.42182 L295.552393,217.150711 L295.501712,217.843702 L295.446666,218.501841 C295.437096,218.608684 295.42732,218.714119 295.417326,218.818168 L295.354656,219.425991 C295.332832,219.623169 295.310041,219.814974 295.286188,220.001581 L295.211347,220.545983 C295.185275,220.722369 295.158044,220.893732 295.129561,221.060246 L295.040257,221.545416 C294.511817,224.214261 293.593639,225.532252 291.816391,226.356895 C290.698096,226.875784 289.800307,227.052463 289.211274,226.531576 L289.13,226.453 L287.321575,228.252011 C284.178816,231.382589 281.697148,234.27647 279.466271,237.3016 C279.141751,237.741658 278.826388,238.178737 278.509258,238.627628 L277.869407,239.545541 C277.761293,239.702613 277.652175,239.862092 277.541646,240.024527 L274.597855,244.443251 C273.363722,246.269038 272.347048,247.638086 271.223787,248.932883 L270.940564,249.255256 C269.944163,250.375242 270.005541,251.083187 271.081701,252.456732 L271.318682,252.750539 L272.313944,253.904342 Z" id="Path" fill="#FFFFFF" fill-rule="nonzero"></path>
                <path d="M390.390078,298.644533 L391.213084,298.988427 C391.347511,299.045606 391.48058,299.102734 391.612306,299.159835 L392.386691,299.502297 C398.834366,302.413675 401.879069,305.378394 403.763069,311.595361 L403.87257,311.96484 C404.948058,315.675275 406.468636,318.01432 408.826477,320.194407 L409.031813,320.382228 L409.468766,320.769914 L411.119221,322.170771 C413.511573,324.214323 414.720484,325.757356 415.452867,328.241715 C417.399803,334.846027 411.423654,340.54804 404.695972,341.121719 C404.317069,341.154028 403.961504,341.160522 403.583854,341.136028 L403.253687,341.107324 C403.197405,341.101235 403.140407,341.094483 403.082561,341.087054 L402.72425,341.034226 L402.33923,340.964411 L401.921146,340.876885 C401.848357,340.860781 401.773925,340.843909 401.697718,340.826254 L401.218118,340.710804 L400.689562,340.575835 L399.791029,340.335196 L398.588352,340.007827 C396.165413,339.367126 394.749784,339.250248 393.701568,339.706847 C392.471951,340.242464 391.648173,341.746508 391.350294,344.731963 L391.320396,345.057526 C390.771885,351.576371 389.277459,354.216383 385.563149,356.79882 L384.196825,357.731661 L383.508726,358.2116 L383.112348,358.496358 L382.758263,358.759524 L382.439965,359.006729 L382.15095,359.243605 L381.884711,359.475782 L381.634743,359.708892 L381.394539,359.948565 L381.157594,360.200432 L380.917403,360.470126 L380.667459,360.763275 L379.773929,361.84509 C379.671913,361.967135 379.570634,362.087565 379.469299,362.207369 L377.826737,364.113148 C377.280841,364.756525 377.044767,365.102076 376.820273,365.596664 L376.791674,365.664513 L376.715295,365.870191 L376.557757,366.335962 L376.202789,367.452933 L375.48684,369.798647 L373.859461,375.251502 L373.068009,377.798179 L372.775049,378.714058 L372.420489,379.790336 L372.100756,380.718042 L371.87963,381.327493 L371.671248,381.871653 L371.472678,382.358355 L371.3443,382.654771 L371.21811,382.931454 L371.031024,383.314555 L370.906499,383.552059 C370.885698,383.590611 370.864861,383.62868 370.843971,383.666313 C370.267258,384.705223 369.654892,385.375185 368.725215,386.047716 L368.525627,386.18635 L366.526518,387.509737 L366.432677,387.573257 C365.414155,388.270636 364.397872,389.046163 363.237398,390.039598 L362.845032,390.379006 C360.51887,392.411575 358.981667,393.259137 356.223425,394.104434 L355.536974,394.307868 C355.418315,394.341968 355.297446,394.376216 355.174236,394.410687 L353.6093,394.835865 L353.245417,394.945421 C353.186842,394.964009 353.129288,394.982787 353.072736,395.001794 L352.745267,395.118894 L352.440826,395.243354 C351.17003,395.801321 350.519675,396.619111 350.123712,398.379456 L350.036685,398.802732 L349.95769,399.261336 C349.932586,399.420299 349.908654,399.585461 349.885727,399.757132 L349.819798,400.291985 L349.758901,400.86776 C349.749115,400.967236 349.739498,401.068495 349.730027,401.171576 C349.484458,403.844505 349.761465,406.12253 350.510316,409.000164 L351.346105,412.091934 L351.602312,413.101127 L351.716219,413.611671 L351.774786,413.927649 L351.802031,414.112448 L351.820453,414.280308 L351.83058,414.434438 L351.831377,414.64691 L351.823083,414.780756 L351.808346,414.912106 L351.775318,415.111467 L351.635763,415.7333 C351.175169,417.732322 349.456387,418.906736 346.17142,419.622747 L345.318231,419.795461 L343.237259,420.187187 L339.65038,420.842422 L338.838877,421.006943 L338.340529,421.117623 C335.288996,421.824581 334.200594,422.671378 333.610757,425.15116 L333.521555,425.556493 C333.507307,425.626383 333.493352,425.697458 333.479661,425.769746 L333.400486,426.218239 C333.38775,426.295485 333.375225,426.373999 333.362885,426.453806 L333.290855,426.948399 L333.254659,427.22336 L333.196852,427.736223 C333.043758,429.28373 333.170053,430.114476 333.425953,430.529917 L333.73039,430.914789 C333.796101,431.00143 333.856409,431.086601 333.891978,431.151226 C334.259858,431.819627 334.112101,432.407181 333.664118,433.005879 L333.517184,433.190684 L333.36443,433.367327 L333.095484,433.656563 L332.282688,434.482242 L331.958709,434.806604 C330.757859,436.007453 329.577734,438.072971 328.485979,440.738259 C327.805852,442.398645 327.201715,444.185612 326.682506,445.97361 L326.475688,446.702661 C326.44314,446.820226 326.411557,446.935736 326.380948,447.049069 L326.10977,448.09637 L326.050625,448.34273 L323.614647,447.780581 L323.787307,447.081217 L323.967122,446.398337 L324.170894,445.662455 C324.206838,445.535713 324.243769,445.407002 324.281681,445.276444 C324.823816,443.409499 325.45534,441.541522 326.172541,439.790629 C327.379279,436.844632 328.704343,434.525435 330.190942,433.038837 L331.079107,432.144598 L331.327,431.887 L331.297364,431.841065 C330.674974,430.830643 330.475871,429.329629 330.770882,426.939209 L330.81418,426.607692 C331.460484,421.909562 332.872752,420.058818 336.888848,418.918884 L337.415828,418.777058 C337.596297,418.730959 337.781623,418.685984 337.971946,418.641966 L338.558054,418.512621 C338.658285,418.491488 338.759801,418.470552 338.86262,418.449795 L339.711832,418.289741 L344.21027,417.462228 L345.341901,417.242488 L345.619202,417.18465 L346.137126,417.066065 C348.11283,416.583756 348.951149,416.0041 349.1748,415.265182 L349.218191,415.09104 L349.255105,414.918344 L349.271187,414.824948 L349.283431,414.726043 L349.290072,414.62358 L349.288008,414.455321 L349.269427,414.258759 L349.246705,414.105979 L349.195382,413.835178 L349.091119,413.377455 L348.983007,412.945883 L348.55023,411.32585 L348.244608,410.205789 C347.314491,406.800948 346.947593,404.131167 347.240512,400.942857 C347.76163,395.270686 349.199309,393.464474 353.122903,392.376094 L354.117119,392.109185 L354.811021,391.915431 L355.449618,391.72665 L356.039505,391.539125 C358.026564,390.88065 359.2398,390.176974 360.951942,388.711105 L361.200065,388.496432 C362.462045,387.393732 363.565603,386.529101 364.656806,385.762538 L365.106574,385.451902 L367.044672,384.17034 L367.259918,384.022153 C367.902372,383.5574 368.265769,383.159823 368.658167,382.452944 L368.731034,382.318726 L368.878307,382.02909 C368.903104,381.978238 368.928054,381.926023 368.953197,381.872333 L369.106692,381.531598 L369.266751,381.150104 L369.435308,380.7225 L369.614296,380.243432 L369.805647,379.707545 L370.011295,379.109488 L370.261263,378.358385 L370.758065,376.810451 L371.341017,374.936348 L373.233682,368.616522 L373.79083,366.805549 L374.037647,366.024795 L374.313718,365.184651 L374.469421,364.746447 C374.498358,364.670095 374.5233,364.608546 374.543804,364.563373 C374.844955,363.8999 375.165788,363.408019 375.72495,362.729341 L376.962341,361.292363 C377.344423,360.850044 377.703112,360.427248 378.080098,359.972174 L378.6165,359.319542 L378.905301,358.974724 L379.17962,358.658595 L379.44567,358.365678 L379.709663,358.090497 C379.753836,358.045808 379.798182,358.001628 379.842831,357.957846 L380.115391,357.698999 L380.401427,357.444196 C380.499709,357.359327 380.601273,357.274219 380.707154,357.18796 L381.038784,356.924813 L381.402531,356.649279 L381.804608,356.355882 L382.493182,355.870311 L383.302947,355.313739 L383.920475,354.894119 L384.33494,354.606401 C384.402049,354.558601 384.468183,354.510849 384.533359,354.4631 L384.913024,354.176299 C387.307621,352.30783 388.289691,350.311875 388.760654,345.595344 L388.829199,344.84791 C389.167964,340.821821 390.441846,338.399886 392.703184,337.414855 C394.364732,336.69109 396.128066,336.800803 398.864893,337.496811 L400.98943,338.069018 L401.946958,338.314062 L402.353836,338.409228 L402.72003,338.487222 C402.777974,338.498834 402.834448,338.509764 402.889567,338.520028 L403.204914,338.573761 L403.49315,338.612318 C403.539231,338.617523 403.58441,338.62213 403.628797,338.626155 L403.886546,338.643445 C403.969904,338.646967 404.051006,338.648293 404.130756,338.647556 L404.366858,338.639286 C404.405834,338.636921 404.444699,338.634073 404.483565,338.630758 C409.82883,338.174961 414.469494,333.747171 413.054895,328.948631 C412.512381,327.108339 411.637283,325.939203 409.769168,324.307972 L408.075839,322.870512 L407.581146,322.439141 C407.425263,322.300801 407.276515,322.166168 407.129256,322.030011 C404.550007,319.645207 402.811949,317.030241 401.607972,313.118054 L401.471404,312.66083 C399.900831,307.242353 397.49348,304.659918 392.027298,302.087783 L391.327933,301.766116 C391.208663,301.712445 391.088026,301.658728 390.966001,301.604939 L390.217033,301.281133 L389.433792,300.954368 L386.250715,299.668247 L385.352698,299.294091 L384.518138,298.935074 C384.383252,298.875985 384.250201,298.817141 384.118578,298.758349 L383.342749,298.404677 C379.026306,296.395641 377.549521,291.65903 378.159786,284.854003 C378.241688,283.940717 378.350448,283.034092 378.489606,282.110391 L378.61641,281.31391 C378.728421,280.645769 378.856457,279.965454 379.001808,279.264316 L379.184622,278.4124 L379.384552,277.53717 L379.602096,276.635306 C379.677601,276.329876 379.756123,276.019454 379.837747,275.703485 L380.092001,274.738384 L380.365353,273.736682 L380.658298,272.695057 L380.971332,271.610187 L381.30495,270.47875 L381.659647,269.297424 L382.035919,268.062887 C383.174032,264.352934 382.581625,262.261356 381.155887,261.814947 C379.804718,261.391887 377.865246,262.401016 376.717695,264.41636 L376.593518,264.644406 C373.179264,271.206868 362.488329,271.386045 357.144602,264.859355 C354.798488,261.993873 354.965379,259.477121 356.938987,256.427926 L357.233618,255.987335 L357.529529,255.56502 L358.300944,254.503883 C360.242163,251.845688 360.880313,250.427593 360.63329,248.59103 L360.490252,247.591799 L360.223415,245.896446 C358.894842,237.619156 359.121655,232.989922 362.460687,225.407357 L364.20129,221.506922 L364.720005,220.312582 L365.219258,219.121244 L365.48419,218.455327 L365.650318,218.014934 L365.790557,217.619669 L365.940427,217.154316 L366.027362,216.845155 L366.074206,216.655284 L366.129155,216.391176 L366.167349,216.147519 L366.184404,215.994006 L366.195366,215.845927 L366.201565,215.630798 C366.202871,215.137135 366.096558,214.771361 365.653037,214.278298 L365.470461,214.086935 C365.437248,214.053881 365.402605,214.020204 365.366477,213.985844 L365.131437,213.770974 L364.858057,213.536695 L364.370215,213.142343 L363.989215,212.846458 L363.327331,212.345681 C363.247482,212.285931 363.165476,212.22475 363.081255,212.162074 C361.332985,210.861036 358.968225,210.717212 355.627084,211.626726 L355.077692,211.777907 L354.575988,211.921425 L354.044886,212.083717 L353.587321,212.234944 C353.509616,212.261586 353.430898,212.289063 353.350727,212.31755 L352.848783,212.501991 L352.290988,212.719067 L351.376238,213.093778 L349.595516,213.856995 L341.8879,217.253638 L338.194256,218.901319 L337.93805,219.012059 C336.210107,219.745138 334.917778,220.171494 333.626939,220.38898 C330.777682,220.869033 328.010428,220.268345 324.10487,218.221156 L323.35894,217.820268 C322.725719,217.471919 322.062846,217.087698 321.365665,216.666208 C318.316723,214.822932 315.087502,215.36964 310.259498,218.148603 L309.575305,218.550837 C309.343686,218.689733 309.108466,218.833443 308.869502,218.98195 L308.35171,219.30738 L307.386253,219.928992 L305.072474,221.45366 L304.301217,221.956046 L303.561378,222.431059 L302.851425,222.879035 L302.169825,223.300309 C301.94718,223.436321 301.729005,223.567938 301.515044,223.695217 L300.88555,224.064092 L300.27981,224.407272 C296.515436,226.500077 294.087996,227.066982 291.244954,226.491181 L291.019608,226.443356 L291.560928,224.002665 C293.212909,224.369058 294.777664,224.194144 296.861678,223.304628 L297.316422,223.103017 L297.788387,222.879151 L298.2789,222.632652 L298.789288,222.363141 L299.320875,222.070238 L299.874989,221.753565 C299.969292,221.698784 300.06459,221.642997 300.160908,221.586196 L300.751298,221.233158 L301.36753,220.855402 L302.343232,220.241593 L303.384538,219.570039 L306.369767,217.608108 L307.173319,217.094539 C308.265991,216.404482 309.300377,215.798019 310.286258,215.278969 L310.936433,214.945927 C315.546061,212.652542 319.098062,212.373939 322.659074,214.526794 C323.051773,214.764205 323.43099,214.988208 323.797769,215.199211 L324.515051,215.604003 C328.372282,217.736356 330.808551,218.328597 333.211584,217.923725 C334.192749,217.758415 335.225581,217.429854 336.608474,216.858542 L337.138257,216.634518 L342.047317,214.449376 L343.654756,213.744476 L348.695953,211.521704 L349.97458,210.970908 L351.166785,210.474583 L351.870904,210.196597 L352.491522,209.966717 L353.174965,209.734894 L353.62124,209.59597 L354.571395,209.323766 L354.970437,209.214504 C358.979476,208.123178 362.096239,208.312738 364.573782,210.156491 L365.383124,210.765999 L365.862468,211.137354 L366.29602,211.484536 L366.685824,211.810813 C368.221699,213.13129 368.671483,213.992503 368.700101,215.458519 L368.700742,215.736241 L368.691073,216.03006 L368.668983,216.324464 L368.646351,216.523969 L368.599041,216.832446 L368.557714,217.046791 L368.507854,217.270129 L368.448859,217.504207 L368.380126,217.750771 L368.301054,218.011568 L368.211038,218.288344 L368.05418,218.737291 L367.869313,219.232016 L367.654402,219.778416 L367.407415,220.382384 L367.024688,221.287415 L366.326356,222.887074 L364.96712,225.924651 C362.087688,232.313391 361.523219,236.30684 362.261994,242.479782 L362.385797,243.447277 L362.529345,244.452865 L362.69182,245.500247 L362.963002,247.223636 L363.041088,247.754602 L363.110978,248.257773 C363.458916,250.844614 362.677501,252.696937 360.552702,255.656825 L359.47589,257.139275 L359.328484,257.350831 L359.173571,257.580438 C357.605404,259.914124 357.47507,261.316657 359.078956,263.275603 C363.287449,268.415746 371.589786,268.35555 374.256671,263.708296 L374.375721,263.490552 C376.01955,260.330986 379.230026,258.592267 381.902894,259.42916 C384.845728,260.350581 385.874465,263.781225 384.517845,268.487376 L383.881917,270.587396 L383.384965,272.264256 L382.933503,273.837304 C382.885808,274.006714 382.838926,274.174398 382.792845,274.340422 L382.525912,275.317172 L382.277754,276.257234 L382.047893,277.163756 L381.835846,278.039889 L381.641134,278.888783 C381.6101,279.02817 381.579768,279.166554 381.550128,279.303999 L381.380516,280.11794 C381.353605,280.251896 381.327367,280.385045 381.30179,280.517452 L381.156197,281.303527 C381.133229,281.433232 381.110903,281.562328 381.08921,281.690878 L380.966554,282.456175 C380.947349,282.582811 380.928756,282.709033 380.910765,282.834908 L380.809965,283.586513 C380.794343,283.711261 380.779302,283.835792 380.764834,283.960173 L380.684808,284.705174 C380.672588,284.829214 380.66092,284.953235 380.649794,285.077303 C380.12312,290.950214 381.289591,294.691533 384.397675,296.138153 L385.141591,296.477231 C385.268073,296.533716 385.396065,296.59031 385.52596,296.6472 L386.331296,296.99357 C386.47037,297.052384 386.612131,297.111866 386.756972,297.172201 L390.390078,298.644533 Z" id="Path" fill="#FFFFFF" fill-rule="nonzero"></path>
            </g>
        </g>
    </g>
</svg>