<?xml version="1.0" encoding="UTF-8"?>
<svg width="592px" height="504px" viewBox="0 0 592 504" version="1.1" xmlns="http://www.w3.org/2000/svg" xmlns:xlink="http://www.w3.org/1999/xlink">
    <title>papua</title>
    <g id="website" stroke="none" stroke-width="1" fill="none" fill-rule="evenodd">
        <g id="11a.-daftar-master-stokis" transform="translate(-108.000000, -3972.000000)" fill-rule="nonzero">
            <g id="papua" transform="translate(108.000000, 3972.000000)">
                <path d="M256.685807,205.452495 C252.982724,209.896196 243.762046,219.153904 243.762046,219.153904 C242.66599,219.142436 241.574015,219.018348 240.503332,218.783596 C239.010294,218.067888 238.26906,216.364627 238.762883,214.784266 C239.256705,213.267927 240.248471,211.962971 241.577226,211.081182 C242.194995,210.758806 242.699053,210.254749 243.021429,209.63698 C243.24807,208.757056 243.041763,207.821798 242.465966,207.118883 C241.007667,205.250897 238.858541,204.048901 236.503566,203.784141 C234.14859,203.51938 231.786217,204.214166 229.949544,205.711711 C228.579403,206.97076 227.468478,208.711209 225.690998,209.414795 C223.945448,209.75548 222.204218,208.807132 221.543544,207.155914 C221.405391,206.452336 221.181538,205.768339 220.876989,205.119218 C220.384974,204.334321 219.57219,203.806011 218.655139,203.675015 C215.469948,203.310205 212.407396,202.234515 209.693677,200.527394 C207.778413,198.218444 206.433708,195.490976 205.768409,192.565765 C204.620453,189.677359 202.065325,186.714893 199.213951,187.04817 C197.89405,187.313434 196.637091,187.828787 195.510867,188.566434 C191.921055,190.349058 187.820998,190.82063 183.920216,189.899544 C182.57907,189.700671 181.376219,188.965595 180.58744,187.862848 C180.156477,186.861278 179.785512,185.834944 179.476515,184.789289 C178.36559,182.345254 175.069846,181.678699 173.440489,179.49388 C171.948679,176.543364 172.249632,173.003582 174.218137,170.347263 C176.320091,166.240584 179.057012,162.491377 182.32789,159.238013 C183.920216,157.719748 185.771757,155.942268 185.623634,153.79448 C185.340784,152.526427 184.56475,151.423147 183.466938,150.72833 C182.369126,150.033512 181.039867,149.804327 179.772762,150.091396 C177.18497,150.766097 174.837594,152.151434 172.996119,154.090726 C168.235194,157.687806 164.422189,162.390512 161.886868,167.792136 C160.257512,172.309898 160.442666,177.494214 157.887538,181.567606 C156.739582,183.530241 154.888041,185.492875 155.258349,187.751756 C155.772272,189.23331 156.564068,190.603242 157.591292,191.788117 C159.353871,194.969619 159.196787,198.868156 157.183952,201.897535 C155.18497,204.836013 152.382528,207.1371 149.11123,208.526055 C142.648023,211.144047 135.715366,212.40453 128.744271,212.229138 C125.846683,212.686481 122.904374,211.737793 120.819672,209.674011 C119.227346,207.489191 119.745778,204.452663 118.857038,201.897535 C117.715161,199.545724 116.041672,197.491898 113.968967,195.89854 C113.538652,195.591648 113.225299,195.147731 113.080227,194.639491 C112.954135,193.929265 113.143379,193.199326 113.598659,192.639826 L117.301743,186.233492 C119.356446,187.390337 121.941499,186.941436 123.485892,185.159597 C124.875782,183.19413 125.373186,180.733999 124.856033,178.382955 C124.708144,176.848096 123.995522,175.422851 122.856368,174.383624 C121.38808,173.635098 119.879901,172.967543 118.338606,172.383959 C115.938305,170.308628 114.968848,167.02405 115.85754,163.97796 C116.30191,160.941431 117.968298,157.608656 115.85754,155.423837 C110.832445,150.547997 104.527967,147.196737 97.6753997,145.758788 C91.7134352,144.49974 84.8997614,144.49974 80.4560612,140.315256 C78.0860877,138.019344 76.9381318,133.723767 79.382167,131.501917 C81.8262021,129.280067 84.8627306,130.31693 87.7141049,130.465053 C93.6760695,130.465053 99.415849,127.502587 105.303752,127.835864 C107.513942,128.092861 109.703901,128.501159 111.85821,129.057882 C116.857475,129.940978 121.927362,130.362436 127.003821,130.31693 C130.077381,130.31693 134.409989,129.391159 134.076711,126.280569 C134.076711,125.132613 133.187971,123.947626 133.59531,122.873732 C133.964216,122.180956 134.568251,121.642578 135.298729,121.355468 C137.762005,119.853832 140.511501,118.88268 143.371451,118.504094 C146.363867,118.232965 149.195441,119.902103 150.407309,122.651547 C150.595269,123.90603 150.880022,125.144087 151.259019,126.354631 C152.241317,127.970851 153.804723,129.150031 155.628657,129.650375 C161.218073,131.728444 167.081888,132.976064 173.03315,133.353459 C175.300534,133.687815 177.615837,133.31271 179.661669,132.279564 C181.768262,130.48687 183.204326,128.032506 183.735061,125.317767 C185.845819,118.541124 187.808453,110.505433 183.735061,104.691592 C180.291194,99.4702441 173.588612,97.7668257 167.478525,96.4707464 C165.24094,95.8386983 162.905878,95.6252787 160.590789,95.8412222 C154.776948,96.6559006 150.851679,102.543803 145.222992,104.358314 C138.224165,106.543134 130.743936,101.988341 123.41183,102.691927 C119.592587,103.474188 115.821546,104.475677 112.117426,105.691424 C108.969805,106.357979 105.785153,106.320949 102.674562,107.024535 C99.6061664,108.177781 96.3892644,108.888492 93.1206069,109.135292 C90.436502,108.812647 87.8501662,107.929508 85.5292856,106.543134 C80.1968453,103.839883 74.420035,100.396015 73.1609866,94.5081121 C72.8993257,90.6247166 73.4934619,86.7312284 74.9014359,83.1026148 C76.363984,79.4123206 75.8624485,75.2328578 73.5683258,71.9933641 C70.2355506,68.2902806 64.3846786,69.5122982 59.7558241,68.0310647 C56.9161331,66.5340215 53.8519996,65.5084748 50.6832694,64.9945362 C48.6257651,65.2436822 46.6237117,65.8317854 44.7583358,66.7349855 C39.7735645,68.3647967 34.5609137,69.1898206 29.3164774,69.1790206 C24.8727771,69.1790206 19.6514293,69.1790206 16.9111475,65.8462455 C15.1023118,62.8481269 14.4443162,59.2949505 15.0596057,55.8479199 C11.7092548,55.6502471 8.51882209,54.3480297 5.987051,52.1448363 C5.987051,48.4417528 1.13601155,46.368026 0.173209827,42.7390041 C-0.789591896,39.1099822 2.43209079,36.1104846 5.61674265,34.7773745 C7.94968528,33.8145727 10.5418438,33.5923877 13.0229097,32.6666168 C14.8003898,32.0000618 16.7259933,30.2966434 18.5034734,30.2966434 C18.7106222,30.2491029 18.9258488,30.2491029 19.1329976,30.2966434 C19.5773676,30.5558592 19.6514293,31.1483526 19.8365835,31.7038151 C20.3250734,33.5324055 22.1138661,34.6983151 23.9840371,34.4070661 C25.6874555,40.0357531 23.9840371,52.1448363 32.7603451,52.1078055 C35.0330516,47.1963467 35.4153932,41.6194336 33.8342393,36.4437621 C32.9039182,34.4585236 32.5818068,32.2423978 32.9084684,30.0744584 C33.686116,27.5933924 36.611552,26.3713748 37.278107,23.7421855 C37.4786333,22.6411851 37.6023678,21.527575 37.6484154,20.4094103 C38.1427967,18.2386517 39.6254498,16.4247988 41.6544739,15.5084653 C43.683498,14.5921319 46.0245991,14.6791281 47.9800185,15.743525 C48.9548249,16.5803503 50.0235375,17.30111 51.1646703,17.8913135 C52.2397578,18.2385795 53.3815927,18.3273889 54.4974455,18.1505293 C64.7397259,16.6308824 74.6317324,13.3084721 83.7147747,8.33735793 L96.8977521,2.22727007 C98.8400294,1.13117744 100.95734,0.379469708 103.155963,0.00541994043 C106.588029,-0.0731266872 109.985748,0.703131303 113.043196,2.26430091 C120.449364,5.41192192 128.522086,8.78172795 133.669372,15.2250933 C135.179262,17.5362615 136.970463,19.6508735 139.001812,21.5203354 C143.926913,25.2234189 150.777618,23.6681238 156.887706,22.8904763 C166.140885,22.0324513 175.462967,22.2686107 184.660832,23.5940622 C189.121715,23.5235429 193.445349,25.1366418 196.769915,28.1118241 C203.583589,36.0364229 193.066832,49.4045545 198.399272,58.3289858 C199.362074,59.8842809 200.695184,61.1433293 201.583924,62.6986244 C202.768452,65.3978628 203.240222,68.355991 202.954065,71.2897783 C199.665689,72.759979 197.835396,76.3129011 198.547396,79.8439013 C199.206378,81.4455278 199.654498,83.1259778 199.880506,84.8430641 C199.605459,86.4965487 198.959811,88.0663579 197.991933,89.4348877 C196.099893,93.7209761 195.080236,98.3409051 194.992435,103.025204 C194.357774,106.744466 194.663289,110.563397 195.881175,114.134455 C197.543259,117.20119 199.723168,119.957396 202.324541,122.281239 C208.504942,128.987407 212.518642,137.401981 213.841131,146.425343 C219.543879,149.165625 228.653465,144.647863 232.356548,149.721088 C230.542037,157.682717 226.061306,160.163783 223.802425,163.015158 C221.543544,165.866532 216.396258,164.977792 220.099342,170.976787 C223.802425,176.975783 223.802425,172.86536 232.356548,177.531245 C240.910671,182.197131 240.947702,182.234161 244.687817,187.455509 C248.427931,192.676857 253.612248,184.789289 256.611746,192.084364 C259.611243,199.379438 260.388891,200.971764 256.685807,205.452495 Z" id="Path" fill="#A0A0A0"></path>
                <path d="M590.074419,503.995091 L567.52264,487.183092 C565.478168,485.534056 563.239703,484.141233 560.85709,483.035638 C558.931487,482.183929 556.894791,481.77659 555.043249,480.850819 C550.315893,477.908729 547.244403,472.917558 546.748342,467.371595 C546.737928,465.137076 545.922863,462.981098 544.45243,461.298538 C542.526827,459.669181 539.749514,460.113551 537.268448,460.039489 C534.787382,459.965428 531.787884,458.336071 532.232254,455.855005 C532.540331,454.889266 533.058885,454.00393 533.750519,453.262846 C535.767804,450.484685 536.028419,446.80072 534.422339,443.766231 C532.816259,440.731741 529.623409,438.87561 526.19173,438.981451 C522.760051,439.087291 519.687654,441.136655 518.271629,444.264353 C516.97555,447.041666 516.420087,451.003965 513.42059,451.670521 C511.680141,451.929736 510.087815,450.707719 508.347365,450.33741 C505.293886,450.235351 502.290501,451.132466 499.793242,452.892538 C497.089991,454.225648 493.275815,454.855172 491.387243,452.485199 C493.433922,449.63572 494.605016,446.25113 494.757049,442.746089 C491.942705,440.413147 487.610097,443.449675 486.647296,446.967604 C485.684494,450.485534 486.647296,454.373771 485.573402,457.780608 C484.673112,460.784137 482.572277,463.282463 479.767752,464.684726 C476.963226,466.086989 473.704064,466.268661 470.761067,465.186775 C469.853459,464.876701 469.081371,464.261648 468.576248,463.446326 C468.187155,462.407676 468.187155,461.263294 468.576248,460.224644 C470.096735,454.787327 472.760617,449.737313 476.389754,445.412309 C477.797082,443.970113 478.937958,442.290142 479.75956,440.450177 C481.09267,436.524909 478.685666,432.266363 479.204098,428.118909 C479.539945,426.824634 479.714083,425.493723 479.72253,424.15661 C479.389252,421.416328 476.574909,419.824002 474.538213,417.97246 C472.501517,416.120918 471.390592,412.232681 473.834627,410.936601 C475.538045,410.047861 477.53771,411.30691 478.87082,412.825174 C479.901261,414.515077 481.292177,415.956571 482.944212,417.046689 C485.835406,417.980508 488.943213,416.434827 489.94304,413.565791 C490.753683,410.713236 490.294821,407.649658 488.683992,405.159791 C485.684494,399.864382 478.722697,396.309421 473.353226,399.160796 C469.131711,395.457712 466.687675,390.199334 462.577253,386.49625 C459.251119,383.46591 458.081384,378.728485 459.614786,374.498259 L473.797596,381.015686 C475.686168,381.867396 478.352389,382.49692 479.389252,380.756471 C479.847253,379.543408 479.752572,378.190812 479.130036,377.053387 L476.130538,369.64722 C475.870291,368.772045 475.385097,367.980413 474.723367,367.351308 C473.019948,366.055229 470.42779,367.351308 468.502186,366.351476 C467.402093,365.694831 466.534656,364.710874 466.02112,363.537132 C462.836469,358.019538 459.577755,351.46508 461.984759,345.540146 C462.445799,344.727159 462.688212,343.808541 462.688345,342.873926 C462.688345,341.059415 460.281341,340.355829 458.540892,339.94849 C454.675531,338.978045 450.944373,337.53533 447.431641,335.652913 C444.877099,334.645267 442.916417,332.534811 442.099201,329.913133 C441.432646,325.728649 445.802284,322.803213 449.17209,320.174024 C454.800777,315.767354 458.540892,306.954015 453.837976,301.658606 C446.802117,293.474791 430.693703,302.436253 423.620814,294.252439 C422.424592,292.593434 421.312272,290.875517 420.288039,289.105153 C414.770444,281.698986 401.143097,281.402739 398.625,272.330184 C398.032506,269.997242 398.143599,267.145867 396.180965,265.701665 C395.281113,265.136928 394.243721,264.829552 393.181467,264.812925 C384.812498,263.813092 375.332604,265.47948 368.667054,260.258132 C366.70442,258.739868 364.96397,256.555048 362.482904,256.555048 C361.23632,256.625053 359.997703,256.798459 358.779821,257.07348 C356.236411,256.983242 353.781391,256.117524 351.743962,254.592414 C344.337795,250.037621 336.931628,244.260811 328.414536,243.483163 C320.786184,242.964732 314.194695,241.11319 306.566343,241.853807 C298.99965,243.229626 291.212716,242.759615 283.866441,240.483666 C277.416316,238.238075 270.687439,236.8923 263.869789,236.484335 C259.105513,235.815297 254.962945,232.874073 252.760539,228.596767 C251.05712,225.893516 247.205913,220.487014 243.650953,219.709367 C243.650953,219.709367 252.79757,210.451658 256.574715,206.007958 C260.35186,201.564258 259.537182,200.045993 256.574715,192.750919 C253.612248,185.455844 248.353869,193.343412 244.650786,188.122064 C240.947702,182.900716 240.873641,182.345254 232.43061,177.75343 C223.98758,173.161607 223.876487,177.234999 220.173404,171.198972 C216.47032,165.162946 221.691668,166.088717 223.876487,163.237343 C226.061306,160.385968 230.616099,157.904903 232.43061,149.943273 C235.022769,153.35011 234.430275,159.349105 238.429605,160.867369 C240.39224,161.570955 243.05846,160.867369 244.428601,162.496726 C245.798742,164.126083 244.761878,166.792303 246.206081,168.199475 C247.650283,169.606647 248.650116,169.014153 249.909164,169.3104 C255.01942,170.421325 256.982054,177.123906 261.796063,179.012479 C267.350688,181.160267 272.905313,176.087043 278.830247,175.309395 C282.53333,174.939087 286.236414,176.124074 289.495128,174.346593 C291.502463,172.882815 293.034943,170.860971 293.901797,168.532752 L309.602871,136.389987 C311.787691,131.835194 314.639065,126.76197 319.601197,125.725106 C320.884737,125.637532 322.140631,125.310999 323.30428,124.762305 C325.303945,123.466225 325.192853,120.57782 325.303945,118.170816 C325.341598,115.056163 326.685131,112.100392 329.007029,110.024032 C331.449181,108.011256 335.009593,108.138414 337.301936,110.320279 C344.708103,106.617195 355.817354,107.542966 362.482904,102.654896 C363.369993,101.898438 364.353766,101.263344 365.40834,100.766323 C367.014776,100.537485 368.637035,100.438416 370.25938,100.470077 C372.112344,100.142787 373.733433,99.0306231 374.705704,97.4196343 C375.677975,95.8086456 375.906537,93.8560581 375.332604,92.064077 C374.777142,90.4717511 373.518093,89.138641 373.036692,87.4722534 C371.851706,83.2137073 376.258375,79.4365621 380.44286,78.0664212 C384.627344,76.6962803 389.478383,76.3259719 392.663035,73.2153817 C393.922084,71.9563333 394.736762,70.4380691 395.99581,69.2160515 C399.698894,65.5129679 406.068198,65.8832763 411.289546,67.2163864 C412.895434,67.717961 414.569317,67.9677943 416.251677,67.9570031 C419.399298,67.6607564 422.398796,65.2907829 425.324232,66.3276463 C432.730399,68.9938665 434.915219,79.4735929 442.617632,80.584518 C444.72839,80.8807647 447.209456,80.584518 448.690689,81.9176281 C449.468337,82.7323064 449.727553,83.8802623 450.579262,84.6579099 C451.430971,85.4355574 454.282346,85.2504033 456.133887,85.0282182 C464.021455,84.0283857 470.946222,91.3604911 479.018944,90.5458127 C481.002528,90.1110186 483.024562,89.8753214 485.05497,89.8422269 C486.839688,90.186925 488.530968,90.9063499 490.017102,91.9529845 L518.123506,109.0242 C520.230617,110.484721 522.591551,111.539606 525.085303,112.13479 C531.269453,113.171653 537.268448,108.431706 543.600721,109.357477 C552.89546,110.80168 557.265099,123.947626 566.707962,124.429027 C570.966508,124.651212 575.410208,121.947961 579.335477,123.688411 C580.965093,124.516973 582.316691,125.80421 583.223715,127.391494 C589.926296,137.241696 586.075089,150.461705 587.519292,162.311572 C587.963662,166.014655 588.963494,169.717739 589.481926,173.420823 C589.982483,177.932534 590.131055,182.476366 589.926296,187.011139 C589.457239,213.303032 588.963494,239.594926 588.445063,265.886819 C588.445063,271.182228 588.222878,276.440607 587.556322,281.698986 C586.389738,292.641452 586.389738,303.676932 587.556322,314.619398 C588.445063,327.876437 589.35849,341.108789 590.296604,354.316454 C590.425003,355.026627 590.425003,355.75407 590.296604,356.464242 C589.852234,357.908445 588.445063,358.723123 587.297107,359.722956 C584.297178,362.951195 582.32502,366.99863 581.631389,371.350638 C580.668587,375.053722 580.113125,379.645545 583.223715,381.756303 C585.112287,383.052382 588.037723,382.94129 589.148648,384.977986 C589.505536,385.819079 589.657828,386.73283 589.593018,387.644206 C589.830157,406.874197 588.318009,426.085911 585.075257,445.042001 C583.920877,449.651001 583.607267,454.430424 584.149486,459.150749 C585.175588,463.375534 586.665884,467.473849 588.593186,471.370925 C592.557439,481.808586 593.07651,493.241138 590.074419,503.995091 L590.074419,503.995091 Z" id="Path" fill="#29BB89"></path>
                <path d="M449.986769,406.937271 C452.208619,408.011165 454.097191,409.640522 456.319041,410.640355 C458.470683,411.907276 461.115867,412.004731 463.3549,410.899571 C467.291856,416.588955 468.637165,423.678731 467.057984,430.414821 C466.038739,432.766247 465.972356,435.421569 466.87283,437.820988 C467.428292,438.672697 468.242971,439.302221 468.872495,440.1169 C470.683296,443.239347 469.979404,447.212428 467.206107,449.522732 C464.419612,451.70742 461.037532,452.99829 457.504028,453.225816 C454.004944,453.382872 450.548344,454.056722 447.246487,455.225481 C443.775306,457.27837 440.424688,459.5286 437.21113,461.965093 C430.471518,465.890361 422.398796,465.668176 414.437167,465.075683 C401.143097,464.261005 404.512903,434.710398 409.69722,426.563614 C416.696048,415.713579 437.137069,400.827183 449.986769,406.937271 Z" id="Path" fill="#6A6768"></path>
                <path d="M435.43365,476.962581 L450.801447,465.631145 C451.56452,464.927872 452.51741,464.464304 453.541729,464.298035 C456.207949,464.07585 457.615121,467.334564 458.207614,469.963753 C459.527539,472.813863 458.409894,476.199193 455.652486,477.703198 L451.060663,481.406281 C447.950073,483.850317 443.654496,486.405444 440.358751,484.294687 C438.150404,482.304027 436.976705,479.410723 437.1741,476.444149" id="Path" fill="#6A6768"></path>
                <path d="M231.250131,149.549038 L233.685151,150.115322 C232.760737,154.090303 231.194226,157.014922 228.902189,159.652886 L228.691823,159.888592 L228.432387,160.169328 L227.637035,161.003567 L225.498962,163.199821 L225.299749,163.413531 C225.152245,163.581174 225.019632,163.740416 224.899518,163.894562 C224.3468,164.603883 223.688619,165.124318 222.768504,165.660869 L222.344092,165.899464 L221.438916,166.38768 L221.161872,166.546081 C220.0306,167.217049 219.800437,167.715066 220.503981,169.119122 L220.682927,169.45971 C220.715518,169.519319 220.749495,169.580391 220.784859,169.642987 L221.013695,170.037351 L221.275904,170.471248 L221.593476,170.977632 L221.889945,171.427074 C222.558627,172.411831 223.071182,172.957713 223.541175,173.24778 C223.800465,173.407807 224.058291,173.506618 224.491688,173.601365 L224.852422,173.672556 L225.443177,173.774746 L226.162626,173.906785 C228.362069,174.330969 229.869606,174.836944 232.303584,176.115597 L233.104892,176.545873 L236.136059,178.215772 L237.47936,178.971983 L238.383509,179.495892 L238.99262,179.861601 L239.642388,180.270791 L240.096042,180.573771 L240.410146,180.79432 L240.606309,180.936993 L240.990324,181.227189 C241.641556,181.730817 242.200831,182.244144 242.749837,182.840808 L243.183566,183.330839 L243.416058,183.606996 L243.732261,183.999612 L244.179084,184.583763 L244.867134,185.520989 L245.815101,186.838691 C246.730654,188.116839 247.609441,188.403084 249.244651,188.164778 L249.661002,188.096443 L250.319747,187.969706 C254.185253,187.201647 256.157199,187.759572 257.739059,191.472893 L258.280201,192.803839 L258.793324,194.091571 L259.231335,195.223154 L259.42327,195.735805 L259.67857,196.444448 L259.827675,196.879814 L259.960415,197.288057 L260.07723,197.671343 L260.178558,198.031839 L260.264839,198.371709 C260.277989,198.426756 260.290531,198.481034 260.302473,198.534588 L260.367004,198.847583 C260.376585,198.898422 260.385584,198.948626 260.394011,198.998242 L260.437781,199.289237 L260.468258,199.568272 C260.472254,199.613902 260.475715,199.659123 260.478649,199.703982 L260.49001,199.969139 C260.492606,200.099901 260.490627,200.228209 260.484323,200.355281 L260.466019,200.60814 L260.436616,200.85987 L260.396554,201.112637 L260.346271,201.368608 L260.286206,201.62995 L260.216799,201.898827 C259.854734,203.23757 259.071307,204.528223 257.649339,206.248803 L257.237121,206.740876 L256.782389,207.271173 L256.023021,208.136012 L255.174277,209.081003 L253.910097,210.459599 L252.50265,211.966119 L251.910459,212.593245 C250.645555,213.929039 249.309041,215.317915 247.958275,216.705312 L246.593163,218.102132 L244.684737,220.036008 L242.913416,218.271801 L244.808566,216.351357 L245.157068,215.99575 C246.560294,214.562538 247.963423,213.113207 249.301014,211.710112 L250.682507,210.252327 L251.734353,209.128765 L252.707051,208.076116 L253.596397,207.098457 L254.398186,206.199864 L255.108214,205.384416 L255.722275,204.656188 C256.936985,203.186388 257.553409,202.170864 257.803501,201.246147 L257.851238,201.057951 L257.891296,200.872189 L257.923169,200.686858 L257.946349,200.499956 L257.960331,200.30948 L257.964606,200.113427 L257.958669,199.909797 L257.942012,199.696585 L257.914129,199.471789 L257.874513,199.233408 C257.866905,199.192435 257.858786,199.150812 257.850147,199.108498 L257.758054,198.707879 L257.680198,198.416727 L257.588581,198.103979 L257.424246,197.589985 L257.296011,197.214488 L257.074373,196.596985 L256.816072,195.908365 L256.299454,194.584273 L255.52766,192.66577 L255.359121,192.265724 C254.52563,190.36663 253.801122,189.966109 251.875772,190.235239 L251.474302,190.297748 L251.038482,190.376641 L250.096758,190.558207 L249.872288,190.59691 C247.243588,191.033927 245.373779,190.515698 243.782717,188.294512 L242.588461,186.638516 L241.983046,185.824752 L241.584237,185.316573 L241.216941,184.878355 L241.141935,184.792132 C240.607805,184.181334 240.090866,183.691961 239.46094,183.20481 L239.026657,182.879505 L238.654756,182.617925 L238.243311,182.344494 L237.516081,181.890592 L236.607516,181.354653 L235.4622,180.703451 L233.179093,179.437856 L231.904452,178.738803 C229.240881,177.280727 227.87898,176.784075 225.69263,176.362113 L225.009866,176.236878 L224.645947,176.174279 C223.541394,175.987552 222.926636,175.806298 222.228174,175.375226 C221.216763,174.751011 220.318397,173.691268 219.144965,171.778573 C216.751432,167.877116 217.294256,165.861951 220.205401,164.214042 L221.269189,163.637774 C222.073148,163.190572 222.567787,162.819592 222.927518,162.357938 C223.028939,162.227781 223.135711,162.096778 223.248666,161.96362 L223.485939,161.69213 L223.785985,161.374809 L226.21214,158.87788 L226.673156,158.390341 L226.917038,158.124041 C226.952543,158.08444 226.985296,158.047403 227.015022,158.01319 C228.957342,155.777725 230.29608,153.341566 231.133847,150.028389 L231.250131,149.549038 Z" id="Path" fill="#FFFFFF"></path>
            </g>
        </g>
    </g>
</svg>