<?xml version="1.0" encoding="UTF-8"?>
<svg width="592px" height="600px" viewBox="0 0 592 600" version="1.1" xmlns="http://www.w3.org/2000/svg" xmlns:xlink="http://www.w3.org/1999/xlink">
    <title>riau</title>
    <defs>
        <polygon id="path-1" points="21.5792243 12.8831945 19.0029642 18.824801 15.2102665 24.1704095 14.3703464 27.4760386 15.2102665 33.6767501 13.5401434 39.1505026 13.5401434 41.9071167 15.2102665 45.1763068 15.2102665 50.6288032 14.3703464 55.0980526 9.1231233 58.3763524 3.88865388 58.3763524 1.73692802 58.3763524 0 60.0294706 0 64.2136721 1.73692802 67.6956392 6.37141801 74.1696436 7.47972218 79.2844715 7.47972218 81.8686074 9.1231233 84.0531284 10.7896121 87.8259968 11.8746846 93.2476226 11.8746846 100.230318 11.8746846 105.924012 12.7827159 109.574351 14.3703464 111.535744 17.4867958 113.320615 19.7984241 113.320615 22.8211474 114.14714 27.7350649 117.08221 31.0841179 119.479215 32.987834 121.549131 33.5892672 123.948793 33.5892672 125.865031 35.6591838 129.476665 38.1298029 132.432225 38.1298029 137.492991 38.7718375 142.333984 40.0274478 144.514012 54.2895716 161.651631 62.6523383 169.15266 66.8980389 174.042672 72.5943887 177.57538 79.6552518 180.338557 85.5288062 181.341831 90.6977161 181.341831 93.6487228 177.57538 94.9680812 174.637654 99.1769749 174.637654 108.914121 174.637654 113.726345 174.042672 115.92224 174.042672 121.27822 179.399032 125.095518 184.969403 127.340742 187.315941 128.493141 188.21828 132.230375 180.338557 135.822278 174.042672 140.32373 169.953426 144.191495 169.15266 148.241398 169.953426 151.97977 169.953426 156.396983 169.15266 166.945779 169.953426 175.456912 168.473059 210.455489 119.479215 113.726345 27.4760386 46.7437765 0"></polygon>
    </defs>
    <g id="website" stroke="none" stroke-width="1" fill="none" fill-rule="evenodd">
        <g id="riau">
            <path d="M543.185751,576.978232 C543.529871,579.074395 542.921784,581.21486 541.527005,582.817018 C540.896682,586.930708 539.53651,590.3809 538.873012,594.49459 C538.508088,596.71731 537.778239,599.371304 535.55552,599.935277 C534.056889,600.193681 532.530158,599.668086 531.508179,598.541931 C529.996286,597.043732 529.107381,595.02888 529.02006,592.902194 C529.02006,591.342973 529.252284,589.584702 528.190687,588.456755 C527.516452,587.917102 526.794712,587.439643 526.034317,587.030233 C522.484601,584.575289 525.005895,578.471103 522.517775,574.987736 C521.518492,573.919426 520.40614,572.962803 519.200283,572.134693 C517.589432,570.260107 516.208407,568.199707 515.086593,565.997333 C513.927936,563.750014 511.751371,562.204158 509.247807,561.850468 C508.463578,561.78988 507.690877,562.06757 507.124612,562.613491 C506.638611,563.253465 506.371122,564.032673 506.361589,564.836211 C505.996972,566.798857 505.996972,568.811875 506.361589,570.774521 C506.906364,572.301403 507.583495,573.777771 508.385259,575.186786 C510.074701,578.70165 510.642214,582.651079 510.01083,586.499434 C509.942477,586.972447 509.77273,587.425107 509.513206,587.826431 C509.171308,588.215302 508.720606,588.492657 508.219384,588.622629 C504.943846,589.664346 501.372569,588.437983 499.42803,585.603711 C497.636584,582.982893 497.437535,579.267301 494.783541,577.50903 C492.129548,575.75076 487.783633,577.011407 485.229164,574.821862 C484.134892,573.5061 483.250825,572.028924 482.608345,570.442772 C480.462874,567.416883 477.457842,565.10532 473.982866,563.807788 C473.156335,563.248887 472.148834,563.023681 471.162997,563.177464 C470.506937,563.373275 469.927528,563.767273 469.504251,564.305412 C467.674629,566.500851 466.877078,569.376871 467.314706,572.201043 C467.314706,573.063591 467.646456,574.058839 467.082482,574.655987 C466.847058,574.892475 466.54696,575.054066 466.219934,575.120436 C464.386103,575.272691 462.574808,574.6327 461.243696,573.362165 C457.49493,570.608647 453.746164,567.855128 450.229622,564.836211 C447.769822,562.960862 445.791249,560.527445 444.457186,557.736777 C439.597544,555.218622 435.324316,551.702818 431.917065,547.419377 C430.919814,545.957473 429.750286,544.620871 428.433699,543.438386 C426.96562,542.621875 425.557643,541.701701 424.220484,540.684868 C423.52381,540.021369 423.026186,539.225171 422.296338,538.628023 C421.062719,537.835938 419.669345,537.326167 418.215823,537.135151 C409.512417,535.102693 401.957631,529.728546 397.182923,522.173262 C396.633113,521.213086 396.000379,520.302836 395.291952,519.452918 C394.318514,518.478375 393.199279,517.661334 391.97446,517.031149 L379.36799,509.069168 C377.986643,508.26132 376.705992,507.29248 375.552874,506.18295 C374.657151,505.220877 373.993653,504.059755 373.16428,502.865457 C369.846788,498.718592 363.908477,496.694922 361.884806,491.751859 C360.590984,488.434367 361.287658,484.287502 359.164463,481.434458 C357.771116,479.576663 355.316172,478.41554 354.785373,476.126471 C350.339934,472.27818 343.3732,470.12181 339.359035,465.775895 C338.243172,464.31805 337.035359,462.932944 335.742968,461.62903 C333.155325,459.406311 329.572433,458.676462 326.918439,456.520092 C323.335548,453.567524 321.842676,448.126837 317.463587,446.567616 C316.333161,446.281936 315.224524,445.916086 314.146095,445.472844 C313.102224,444.799034 312.218908,443.904394 311.558451,442.852025 C306.643163,436.563214 302.48952,429.714714 299.184205,422.449448 C298.744092,421.106995 298.057837,419.858237 297.160535,418.767032 C296.151958,417.917749 295.036676,417.203969 293.843043,416.643837 C296.729261,407.354859 301.937724,411.103625 304.226793,407.686608 C307.544285,413.392695 313.747996,411.0041 317.928036,416.643837 C322.108076,422.283574 322.871099,419.961329 325.923192,424.406769 C328.975284,428.852208 326.686215,427.093937 332.558176,431.041753 C338.430137,434.989568 339.757134,437.145938 343.207326,439.401833 C351.633756,438.406585 351.102957,431.638901 356.477294,432.1697 C361.851631,432.700499 362.117031,430.577304 368.121692,432.1697 C374.126352,433.762096 382.486433,431.141278 383.514855,426.496789 C384.543278,421.8523 380.396412,421.255151 383.514855,416.842886 C386.633298,412.430622 388.723318,403.838317 391.808585,407.885658 C394.893853,411.932998 397.547847,418.169883 400.666289,414.023018 C402.506258,411.305665 404.742711,408.879114 407.301274,406.82406 C409.888918,404.66769 412.509736,408.283757 416.125803,410.904576 C419.741869,413.525394 422.362688,412.895071 420.305843,406.160562 C418.248998,399.426053 418.149473,391.663121 421.002516,389.573101 C423.855559,387.483081 423.192061,381.279371 431.585316,383.867015 C439.978571,386.454659 446.281806,385.72481 449.400249,383.236691 C452.518691,380.748572 453.016315,380.516348 459.352725,383.236691 C464.881016,385.393805 470.543765,387.18904 476.30511,388.611028 C476.844888,388.973805 477.479391,389.169924 478.129731,389.175002 C479.722127,389.175002 481.148649,387.483081 482.64152,388.01388 C484.134391,388.544679 484.134391,389.573101 484.565665,390.634699 C485.450654,392.633794 486.889682,394.337603 488.712531,395.544587 C490.172227,396.50666 492.030023,398.032706 491.233825,399.525578 C489.940003,401.781472 490.835726,404.004192 490.769376,406.625011 C488.028998,407.518518 486.178956,410.079082 486.191237,412.961421 C486.394739,414.057889 486.394739,415.182445 486.191237,416.278913 C485.992187,416.842886 485.594088,417.47321 485.859487,418.037184 C486.028461,418.292098 486.27165,418.488965 486.556161,418.601157 C489.129485,419.308593 491.885789,418.644574 493.854643,416.842886 C495.76039,415.006479 498.017081,413.57348 500.489628,412.629671 C502.716086,412.261301 504.999707,412.466827 507.124612,413.22682 C510.971014,413.963888 514.468206,415.945631 517.077088,418.866557 C517.393747,419.414421 517.810058,419.898243 518.30456,420.293078 C518.95435,420.60391 519.680478,420.719169 520.39458,420.624828 C524.375571,420.359428 528.621961,418.899732 532.204852,420.624828 C536.550767,422.748022 537.64554,428.387759 537.678715,433.231298 C537.595128,434.319805 537.813225,435.410288 538.309038,436.382915 C538.802273,437.036051 539.395693,437.607077 540.067309,438.074836 C542.478075,440.093298 543.933789,443.028789 544.081474,446.169517 C543.998677,447.207349 543.998677,448.250127 544.081474,449.28796 C544.344801,450.27653 544.688761,451.241838 545.109897,452.174178 C546.090866,455.381501 545.266651,458.868562 542.953527,461.297281 C541.41448,462.498846 540.002692,463.855051 538.740312,465.344621 C536.915691,468.23084 538.076814,471.979606 539.237936,475.297098 C540.399058,478.61459 541.427481,482.363356 539.40381,485.249574 C539.138411,488.334842 539.901434,490.590737 539.636035,493.676004 C541.414662,494.249348 542.540025,495.999912 542.323203,497.856044 C542.041732,499.661748 541.597592,501.438307 540.996207,503.164032 C540.457614,507.334179 540.648449,511.566229 541.56018,515.670977 C542.059178,522.157663 541.623451,528.682396 540.266358,535.045131 C539.701245,536.837318 539.701245,538.759982 540.266358,540.552168 C540.498583,541.182492 540.963032,541.746465 541.195256,542.409964 C541.89193,544.433634 540.664457,546.523654 539.967784,548.547324 C539.103001,551.177116 539.173317,554.024922 540.166834,556.60883 C540.691914,557.668247 541.103364,558.780274 541.394306,559.926322 C541.54825,561.598846 541.470102,563.284627 541.162081,564.935735 C541.095731,568.684501 542.854002,572.765017 543.185751,576.978232 Z" id="Path" fill="#A0A0A0" fill-rule="nonzero"></path>
            <path d="M476.37146,388.511504 C470.610115,387.089516 464.947366,385.29428 459.419075,383.137166 C453.149015,380.416823 452.784091,380.649047 449.466599,383.137166 C446.149107,385.625286 440.111271,386.454659 431.651666,383.76749 C423.192061,381.080321 423.988259,387.383556 421.068866,389.473576 C418.149473,391.563596 418.282173,399.426053 420.372193,406.061037 C422.462213,412.696021 419.841394,413.392695 416.192153,410.805051 C412.542911,408.217407 409.955267,404.568166 407.367624,406.724535 C404.809061,408.779589 402.572608,411.206141 400.732639,413.923493 C397.614197,418.070359 395.026553,411.800298 391.874935,407.786133 C388.723318,403.771967 386.699648,412.331097 383.581205,416.743362 C380.462762,421.155626 384.642802,421.7196 383.581205,426.397264 C382.519607,431.074928 374.225877,433.662572 368.188041,432.070175 C362.150206,430.477779 361.752107,432.634149 356.543644,432.070175 C351.335181,431.506202 351.86598,438.307061 343.273676,439.302308 C339.956183,437.046414 338.330612,434.757344 332.624526,430.942228 C326.918439,427.127112 329.307034,429.084432 325.989542,424.307244 C322.672049,419.530055 322.174426,422.051349 317.994385,416.544312 C313.814345,411.037275 307.71016,413.22682 304.293143,407.587083 C302.004073,410.904576 296.795611,407.255334 293.909393,416.544312 C292.010666,415.424893 290.442462,413.822348 289.364428,411.899823 C287.92215,408.910559 287.098428,405.660805 286.942659,402.345446 C286.776785,400.918924 286.61091,399.525578 286.41186,398.099056 C286.013761,394.383465 285.549312,390.734223 285.449788,387.018632 C285.449788,383.90019 283.824217,382.440493 282.961669,379.421575 C282.762578,378.437866 282.330249,377.516323 281.701022,376.734407 C280.4072,375.34106 278.18448,375.40741 276.525734,374.445337 C272.146644,371.857693 274.568413,364.492861 271.449971,360.545045 C269.326776,357.857876 264.814987,357.227553 263.852914,353.910061 C263.255765,352.184965 263.852914,350.12812 262.957191,348.469374 C261.19892,345.151882 255.194259,346.313004 253.502338,342.895987 C253.089236,341.63501 252.94238,340.302011 253.071064,338.981346 C252.906887,336.199019 251.641493,333.596605 249.554523,331.749213 C247.895777,330.455391 245.706232,329.493319 244.943209,327.502823 C244.697705,326.22234 244.553501,324.9245 244.511935,323.621358 C243.911287,321.601349 242.763033,319.787107 241.194443,318.37972 C235.720581,312.17601 230.180369,305.972299 224.606982,299.768589 C221.440647,300.620545 218.136577,300.834802 214.88673,300.398913 C211.553288,299.956567 208.754628,297.671423 207.654597,294.493777 C207.090623,292.271057 207.389198,289.318489 205.332353,288.323241 C204.934254,288.091017 204.403455,288.024667 204.005356,287.759268 C202.313435,286.730845 202.976933,284.242726 203.441382,282.285406 C204.471984,277.63398 202.821005,272.796227 199.161817,269.745285 C196.482366,267.351906 193.956086,264.792386 191.597935,262.081878 C190.652278,261.333357 189.976703,260.296698 189.67379,259.12931 C189.441565,257.669614 190.370463,256.342617 190.569513,254.882921 C190.967612,251.565428 187.915519,249.143659 186.256773,246.356966 C184.51634,242.736694 184.026288,238.641267 184.863426,234.712568 C184.963517,234.052845 184.963517,233.381797 184.863426,232.722073 C184.589952,231.615859 184.093217,230.577231 183.40373,229.66998 C179.887188,224.063419 179.654964,217.096685 178.626541,210.594401 C178.483598,209.3029 178.089135,208.05189 177.465419,206.911984 C176.923452,206.200322 176.336142,205.524362 175.707148,204.888314 C173.517603,202.134796 173.086329,197.855231 170.067411,196.063785 C168.839939,195.367112 167.380243,195.168062 166.152771,194.570914 C162.835278,192.945342 161.740506,188.798477 159.086512,186.244008 C154.740598,182.063968 146.977666,182.727467 143.394775,177.917103 C137.622338,176.225182 132.84515,174.599611 127.139063,172.874515 C127.977199,169.243515 126.798811,165.442262 124.053795,162.922039 C121.311978,160.49208 118.87266,157.740885 116.788488,154.727833 C115.760065,152.770513 115.063392,150.348743 113.172421,149.220796 C111.978124,148.524123 110.485253,148.424598 109.25778,147.727925 C107.369967,146.241752 106.113815,144.096813 105.741239,141.723264 C102.856996,133.527425 98.9561415,125.725717 94.1300164,118.500819 C93.002069,116.609848 91.8409468,114.752053 90.8125242,112.927432 C88.7874857,109.234004 86.2023451,105.876678 83.1491174,102.974956 C82.3095121,102.345796 81.5902674,101.57036 81.0259224,100.685886 C80.6167617,99.7015132 80.305625,98.6792067 80.0970246,97.6337935 C78.272404,91.7950073 70.1445482,91.6291327 64.9360856,88.7097396 C56.0452067,83.8330262 53.0594637,69.8995592 43.0074626,68.8047868 C40.4861686,68.5062125 37.1686764,68.8047868 36.3724783,66.4161925 C35.7421548,64.7242715 36.9032771,63.0987004 37.0691517,61.14138 C37.5004256,57.5916634 34.1829335,54.8713199 31.3630652,52.6486001 C22.62536,45.826868 15.2913916,37.3775957 9.76619141,27.7674092 C6.64751183,21.9955607 3.86718179,16.0472052 1.43928616,9.9524764 C-0.479762053,6.91250912 -0.479762053,3.03996728 1.43928616,0 C9.77674895,8.06733499 20.5606169,13.1324851 32.0929135,14.3979159 C34.2509072,14.4791157 36.3806613,14.9162758 38.3961485,15.6917378 C40.1544193,16.5211108 41.7136407,17.9808074 43.3060369,19.0092299 C48.4481497,21.5636989 54.6850349,18.6111309 60.3911214,19.4405039 C64.1067125,20.0044776 67.4573796,22.0944976 71.2061457,22.2271973 C78.7368529,22.5257716 86.8315337,14.8291898 92.8361944,19.3741541 C94.5261565,21.1165543 96.0171308,23.0414689 97.2816339,25.1134154 C101.295799,30.0564787 104.911866,27.8005841 109.854929,28.4309076 C116.489913,29.3929803 123.489822,33.3739709 129.759882,35.7625652 C131.645751,36.2959662 133.353206,37.3273147 134.702945,38.7483081 C135.775734,40.5465822 136.548853,42.5073924 136.992015,44.5539193 C138.98251,49.8287318 143.626999,52.5159005 149.134036,54.5063957 L149.134036,54.5063957 C158.423014,57.9897625 169.835187,59.5821587 173.285379,68.4398627 C175.939372,75.2407216 172.986804,85.0273234 179.15734,88.8424393 C180.681219,89.6353323 182.267943,90.301091 183.901353,90.8329346 C186.735108,92.3189498 189.231192,94.3745479 191.233011,96.8707703 C196.699424,102.771387 202.911158,107.934822 209.711442,112.230759 C217.607074,117.472396 224.175708,127.391698 230.611643,134.358431 C231.661407,135.369528 232.486557,136.590297 233.033412,137.941323 C234.459934,142.320412 229.71592,146.235053 228.753847,150.713668 C228.040146,155.484069 231.317962,159.933592 236.085505,160.666144 C241.891116,161.362817 244.147011,153.83211 246.668305,149.71842 C248.16827,149.403934 249.729994,149.590409 251.113744,150.249219 C253.701388,151.841615 252.83884,154.595133 252.938365,156.884203 C252.974356,159.991453 253.882454,163.026111 255.559184,165.642382 C257.650573,168.608993 260.284577,171.152945 263.322115,173.139914 C266.076943,175.733445 268.326676,178.815579 269.957099,182.229843 C271.514371,185.734775 274.597444,188.328471 278.31718,189.262926 C282.994843,189.860075 286.909484,185.945434 289.298079,181.798569 C290.824125,179.17775 292.615571,176.026133 295.667663,175.760733 C296.895136,175.760733 298.354832,176.026133 299.250555,175.229934 C300.146278,174.433736 299.781354,172.410066 300.278977,171.083069 C301.1747,168.760825 304.857117,168.926699 306.449513,170.850845 C307.800692,172.947105 308.419017,175.432073 308.207784,177.917103 C307.990299,180.400157 308.712455,182.874429 310.231454,184.850662 C310.861777,185.51416 311.7575,186.078134 312.089249,186.940682 C312.686398,188.499903 311.392576,190.258174 311.160352,191.751045 C311.11024,193.005061 311.685475,194.202255 312.695833,194.94673 C313.706191,195.691204 315.020053,195.885976 316.20294,195.466636 C318.09391,194.604089 318.989633,192.149144 320.946953,191.518821 C323.799997,190.424048 326.52034,193.343442 327.581938,196.130135 C328.643535,198.916828 329.307034,202.36702 331.861503,203.694017 C333.354374,204.45704 336.008368,204.423865 337.202665,205.618162 C340.055708,208.537555 337.03679,211.357424 341.515405,213.613318 C344.021528,214.343867 346.428214,215.380078 348.681188,216.698586 C353.591076,220.878626 350.937082,227.51361 353.358852,232.622548 C354.320924,234.679393 356.676344,235.475592 358.998588,236.172265 C359.319097,236.280506 359.621164,236.437134 359.894311,236.636714 C360.756859,237.366562 360.22606,238.759909 360.259235,239.954206 C360.259235,242.442325 364.505625,245.361718 366.363421,246.58919 C369.680913,249.044134 373.263804,248.380636 377.709244,248.81191 C382.050952,249.477849 386.247064,250.880293 390.116664,252.958775 C393.206233,254.089823 395.7384,256.37234 397.182923,259.32836 C398.344045,262.645852 395.922276,267.157641 395.524177,270.441959 C396.69339,270.890426 397.612325,271.821452 398.045471,272.996428 C398.114303,273.337469 398.317587,273.636416 398.609444,273.825801 C398.854996,273.920363 399.126916,273.920363 399.372467,273.825801 C400.57138,273.471752 401.583747,272.661859 402.192336,271.569906 C402.457735,270.972757 402.55726,270.342434 402.822659,269.745285 C403.386108,268.31516 404.634236,267.266733 406.140151,266.958592 C409.014725,266.882096 411.88814,267.14939 414.699281,267.75479 C415.429129,269.015437 416.192153,270.276084 416.888826,271.569906 C417.15213,272.106002 417.538662,272.572114 418.016773,272.930078 C418.953598,273.309552 419.98471,273.390651 420.969341,273.162302 C425.447956,272.830553 429.395771,275.816296 432.879138,278.669339 C434.288758,279.591058 435.314693,280.994349 435.765356,282.617155 C435.787745,283.537704 435.618276,284.452836 435.267732,285.304323 C434.73978,287.131238 433.745049,288.789122 432.381514,290.114687 C429.822555,291.756152 426.861692,292.662773 423.822385,292.735506 C420.836642,293.266305 417.485975,294.858701 417.1874,297.910794 C417.169214,298.732302 417.10275,299.552031 416.988351,300.365738 C416.291677,302.953382 412.741961,303.41783 411.05004,305.507851 C409.571279,308.105658 409.834564,311.34406 411.713538,313.668881 C413.571502,315.916333 414.989564,318.493605 415.893578,321.265938 C416.057859,321.851788 416.057859,322.471534 415.893578,323.057384 C415.263255,324.981529 412.343862,325.645028 412.012113,327.668698 C411.680363,329.692368 413.770383,330.98619 415.595004,331.450639 C417.419625,331.915088 419.575995,332.678111 420.073618,334.502732 C420.339018,335.36528 420.073618,336.393702 420.538067,337.1899 C421.666015,339.711194 425.87923,337.787049 428.101949,339.41262 C430.324669,341.038191 429.594821,343.79171 431.419441,345.118707 C433.244062,346.445703 435.864881,345.118707 438.054426,344.853307 C442.864789,344.256159 447.310229,348.502549 452.186942,348.170799 C454.434791,347.899432 456.654804,347.433229 458.821927,346.777453 C461.031133,346.143777 463.409373,346.572841 465.257861,347.938575 C466.618033,349.166047 467.148832,351.256067 468.575353,352.350839 C470.001875,353.445612 471.527921,353.976411 472.489994,355.336582 C474.646364,358.42185 470.963948,362.66824 472.025545,366.251131 C472.290945,367.080504 472.722219,367.777178 473.053968,368.573376 C474.646364,372.521192 471.793321,376.900281 472.025545,381.146671 C472.127063,384.181051 473.764332,386.95566 476.37146,388.511504 Z" id="Path" fill="#A0A0A0" fill-rule="nonzero"></path>
            <g id="Path" transform="translate(242.771874, 157.666016)">
                <mask id="mask-2" fill="white">
                    <use xlink:href="#path-1"></use>
                </mask>
                <g id="Mask"></g>
                <path d="M233.599585,230.845488 C227.838241,229.4235 222.175492,227.628265 216.647201,225.471151 C210.377141,222.750807 210.012216,222.983032 206.694724,225.471151 C203.377232,227.95927 197.339396,228.788643 188.879791,226.101474 C180.420187,223.414306 181.216385,229.717541 178.296992,231.807561 C175.377599,233.897581 175.510298,241.760037 177.600318,248.395021 C179.690338,255.030006 177.069519,255.726679 173.420278,253.139035 C169.771037,250.551391 167.183393,246.90215 164.595749,249.05852 C162.037186,251.113574 159.800734,253.540125 157.960765,256.257478 C154.842322,260.404343 152.254678,254.134283 149.103061,250.120117 C145.951443,246.105952 143.927773,254.665082 140.80933,259.077346 C137.690888,263.489611 141.870928,264.053584 140.80933,268.731248 C139.747733,273.408912 131.454003,275.996556 125.416167,274.40416 C119.378331,272.811764 118.980232,274.968133 113.77177,274.40416 C108.563307,273.840186 109.094106,280.641045 100.501801,281.636293 C97.1843089,279.380398 95.5587378,277.091328 89.8526513,273.276212 C84.1465648,269.461096 86.5351592,271.418417 83.2176671,266.641228 C79.9001749,261.864039 79.4025511,264.385334 75.222511,258.878297 C71.0424709,253.37126 64.9382854,255.560804 61.5212685,249.921068 C59.2321989,253.23856 54.0237363,249.589319 51.1375181,258.878297 C49.238792,257.758878 47.6705874,256.156333 46.5925539,254.233808 C45.1502756,251.244543 44.3265533,247.994789 44.1707846,244.67943 C44.00491,243.252909 43.8390354,241.859562 43.6399859,240.43304 C43.2418868,236.717449 42.777438,233.068208 42.6779132,229.352617 C42.6779132,226.234174 41.052342,224.774477 40.1897941,221.75556 C39.9907036,220.77185 39.558375,219.850308 38.9291471,219.068391 C37.6353251,217.675044 35.4126054,217.741394 33.7538593,216.779321 C29.3747697,214.191678 31.796539,206.826845 28.6780964,202.879029 C26.5549014,200.191861 22.0431121,199.561537 21.0810394,196.244045 C20.4838908,194.518949 21.0810394,192.462104 20.1853165,190.803358 C18.4270457,187.485866 12.4223849,188.646988 10.7304639,185.229971 C10.3173612,183.968995 10.1705054,182.635996 10.29919,181.315331 C10.1350123,178.533003 8.86961823,175.930589 6.78264831,174.083198 C5.12390224,172.789376 2.93435744,171.827303 2.17133424,169.836808 C1.92583074,168.556325 1.78162629,167.258485 1.74006027,165.955342 C1.13941244,163.935333 -0.00884173434,162.121091 -1.57743187,160.713704 C-7.05129388,154.509994 -12.5915057,148.306284 -18.1648925,142.102573 C-21.3312278,142.954529 -24.6352971,143.168786 -27.8851445,142.732897 C-31.218586,142.290552 -34.0172462,140.005407 -35.1172773,136.827761 C-35.681251,134.605041 -35.3826767,131.652473 -37.4395218,130.657226 C-37.8376209,130.425001 -38.3684196,130.358651 -38.7665187,130.093252 C-40.4584397,129.064829 -39.7949412,126.57671 -39.3304923,124.61939 C-38.29989,119.967964 -39.9508692,115.130211 -43.6100572,112.07927 C-46.2895088,109.685891 -48.8157889,107.12637 -51.1739393,104.415863 C-52.1195962,103.667342 -52.7951717,102.630683 -53.0980847,101.463295 C-53.3303091,100.003598 -52.4014113,98.6766015 -52.2023618,97.2169049 C-51.8042628,93.8994128 -54.8563555,91.4776436 -56.5151016,88.6909502 C-58.2555349,85.0706787 -58.745586,80.9752515 -57.9084483,77.0465528 C-57.8083573,76.3868291 -57.8083573,75.7157812 -57.9084483,75.0560575 C-58.181922,73.9498438 -58.6786573,72.9112153 -59.3681448,72.0039647 C-62.8846865,66.397403 -63.1169109,59.4306695 -64.1453335,52.928385 C-64.2882767,51.6368846 -64.6827395,50.385874 -65.3064557,49.2459687 C-65.8484223,48.5343065 -66.435732,47.8583462 -67.0647266,47.2222985 C-69.2542714,44.46878 -69.6855454,40.1892152 -72.7044632,38.3977694 C-73.9319353,37.7010961 -75.3916318,37.5020466 -76.6191039,36.904898 C-79.936596,35.2793268 -81.0313684,31.1324617 -83.6853622,28.5779927 C-88.0312768,24.3979526 -95.7942084,25.0614511 -99.3770999,20.2510875 C-105.149536,18.5591665 -109.926725,16.9335953 -115.632811,15.2084994 C-114.794675,11.5774991 -115.973064,7.77624637 -118.718079,5.25602302 C-121.459896,2.82606451 -123.899214,0.0748698567 -125.983387,-2.93818255 C-127.011809,-4.89550291 -127.708483,-7.31727216 -129.599453,-8.44521949 C-130.79375,-9.14189284 -132.286622,-9.2414176 -133.514094,-9.93809095 C-135.401907,-11.4242639 -136.658059,-13.5692025 -137.030636,-15.9427517 C-139.914879,-24.1385906 -143.815733,-31.9402988 -148.641858,-39.1651966 C-149.769805,-41.0561672 -150.930928,-42.9139627 -151.95935,-44.7385834 C-153.984389,-48.4320117 -156.569529,-51.7893372 -159.622757,-54.6910598 C-160.462362,-55.3202198 -161.181607,-56.0956555 -161.745952,-56.9801294 C-162.155113,-57.9645025 -162.46625,-58.986809 -162.67485,-60.0322222 C-164.499471,-65.8710083 -172.627326,-66.0368829 -177.835789,-68.956276 C-186.726668,-73.8329894 -189.712411,-87.7664564 -199.764412,-88.8612288 C-202.285706,-89.1598031 -205.603198,-88.8612288 -206.399396,-91.2498231 C-207.02972,-92.9417441 -205.868597,-94.5673153 -205.702723,-96.5246356 C-205.271449,-100.074352 -208.588941,-102.794696 -211.408809,-105.017415 C-220.146514,-111.839148 -227.480483,-120.28842 -233.005683,-129.898606 C-236.124363,-135.670455 -238.904693,-141.61881 -241.332588,-147.713539 C-243.251637,-150.753507 -243.251637,-154.626048 -241.332588,-157.666016 C-232.995126,-149.598681 -222.211258,-144.533531 -210.678961,-143.2681 C-208.520967,-143.1869 -206.391213,-142.74974 -204.375726,-141.974278 C-202.617455,-141.144905 -201.058234,-139.685208 -199.465838,-138.656786 C-194.323725,-136.102317 -188.08684,-139.054885 -182.380753,-138.225512 C-178.665162,-137.661538 -175.314495,-135.571518 -171.565729,-135.438818 C-164.035022,-135.140244 -155.940341,-142.836826 -149.93568,-138.291862 C-148.245718,-136.549461 -146.754744,-134.624547 -145.490241,-132.5526 C-141.476075,-127.609537 -137.860009,-129.865432 -132.916945,-129.235108 C-126.281961,-128.273035 -119.282053,-124.292045 -113.011993,-121.90345 C-111.126124,-121.370049 -109.418669,-120.338701 -108.068929,-118.917708 C-106.996141,-117.119433 -106.223021,-115.158623 -105.77986,-113.112096 C-103.789364,-107.837284 -99.1448755,-105.150115 -93.6378386,-103.15962 L-93.6378386,-103.15962 C-84.3488606,-99.6762531 -72.9366876,-98.0838569 -69.4864958,-89.2261529 C-66.8325021,-82.4252941 -69.7850701,-72.6386923 -63.6145347,-68.8235763 C-62.0906558,-68.0306833 -60.5039311,-67.3649247 -58.870521,-66.833081 C-56.0367662,-65.3470658 -53.5406828,-63.2914677 -51.5388634,-60.7952453 C-46.0724508,-54.8946282 -39.8607169,-49.7311941 -33.0604322,-45.4352568 C-25.1648009,-40.1936192 -18.5961665,-30.2743177 -12.1602318,-23.3075842 C-11.1104671,-22.2964875 -10.2853179,-21.0757189 -9.73846251,-19.7246927 C-8.3119409,-15.3456031 -13.0559546,-11.4309624 -14.0180274,-6.95234803 C-14.731728,-2.18194667 -11.4539127,2.26757645 -6.68636975,3.00012837 C-0.880758518,3.69680172 1.37513613,-3.83390543 3.89643015,-7.94759567 C5.39639504,-8.26208163 6.95811919,-8.0756071 8.34186961,-7.41679693 C10.9295135,-5.8244007 10.0669655,-3.07088223 10.1664903,-0.781812663 C10.2024815,2.32543733 11.1105798,5.36009501 12.7873091,7.97636657 C14.8786987,10.9429771 17.5127021,13.4869292 20.5502407,15.4738988 C23.3050688,18.0674296 25.5548013,21.1495632 27.1852249,24.5638272 C28.7424961,28.0687593 31.8255691,30.6624556 35.5453051,31.5969106 C40.222969,32.1940591 44.1376097,28.2794184 46.5262041,24.1325533 C48.0522504,21.5117345 49.8436962,18.3601169 52.895789,18.0947176 C54.123261,18.0947176 55.5829576,18.3601169 56.4786805,17.5639188 C57.3744033,16.7677207 57.0094792,14.7440505 57.507103,13.4170537 C58.4028259,11.0948092 62.0852422,11.2606838 63.6776384,13.1848292 C65.0288172,15.2810897 65.6471426,17.7660578 65.4359092,20.2510875 C65.2184247,22.734141 65.9405806,25.208413 67.4595794,27.184646 C68.0899029,27.8481444 68.9856258,28.4121181 69.317375,29.2746661 C69.9145236,30.8338874 68.6207017,32.5921582 68.3884772,34.0850297 C68.3383651,35.3390449 68.9136003,36.5362398 69.9239584,37.2807141 C70.9343164,38.0251885 72.248179,38.2199604 73.4310653,37.8006208 C75.3220358,36.9380729 76.2177586,34.4831287 78.175079,33.8528052 C81.0281222,32.7580328 83.7484658,35.6774259 84.8100633,38.4641193 C85.8716608,41.2508127 86.5351592,44.7010045 89.0896281,46.0280013 C90.5824996,46.7910245 93.2364933,46.7578496 94.4307905,47.9521468 C97.2838337,50.8715398 94.2649159,53.6914082 98.7435302,55.9473028 C101.249654,56.6778509 103.656339,57.7140627 105.909313,59.0325705 C110.819202,63.2126106 108.165208,69.8475948 110.586977,74.9565327 C111.54905,77.0133779 113.904469,77.809576 116.226714,78.5062493 C116.547222,78.6144906 116.849289,78.771118 117.122437,78.9706982 C117.984985,79.7005465 117.454186,81.0938932 117.487361,82.2881903 C117.487361,84.7763094 121.733751,87.6957025 123.591546,88.9231746 C126.909038,91.3781188 130.49193,90.7146204 134.937369,91.1458943 C139.279077,91.8118331 143.475189,93.214277 147.34479,95.2927595 C150.434358,96.4238072 152.966526,98.7063242 154.411048,101.662344 C155.57217,104.979837 153.150401,109.491626 152.752302,112.775943 C153.921516,113.22441 154.84045,114.155436 155.273596,115.330412 C155.342429,115.671453 155.545713,115.970401 155.83757,116.159785 C156.083121,116.254348 156.355041,116.254348 156.600593,116.159785 C157.799506,115.805737 158.811872,114.995843 159.420461,113.90389 C159.685861,113.306742 159.785385,112.676418 160.050785,112.07927 C160.614234,110.649144 161.862361,109.600717 163.368277,109.292576 C166.24285,109.21608 169.116266,109.483375 171.927407,110.088774 C172.657255,111.349421 173.420278,112.610068 174.116951,113.90389 C174.380256,114.439986 174.766788,114.906098 175.244899,115.264062 C176.181723,115.643537 177.212836,115.724636 178.197467,115.496287 C182.676081,115.164537 186.623897,118.15028 190.107264,121.003324 C191.516884,121.925043 192.542819,123.328333 192.993482,124.951139 C193.015871,125.871688 192.846402,126.78682 192.495858,127.638308 C191.967905,129.465222 190.973175,131.123106 189.60964,132.448671 C187.05068,134.090136 184.089817,134.996757 181.05051,135.06949 C178.064767,135.600289 174.7141,137.192685 174.415526,140.244778 C174.39734,141.066286 174.330875,141.886015 174.216476,142.699722 C173.519803,145.287366 169.970086,145.751815 168.278165,147.841835 C166.799405,150.439642 167.062689,153.678045 168.941664,156.002866 C170.799627,158.250318 172.21769,160.82759 173.121704,163.599923 C173.285985,164.185772 173.285985,164.805518 173.121704,165.391368 C172.49138,167.315514 169.571987,167.979012 169.240238,170.002682 C168.908489,172.026353 170.998509,173.320174 172.82313,173.784623 C174.64775,174.249072 176.80412,175.012095 177.301744,176.836716 C177.567143,177.699264 177.301744,178.727687 177.766193,179.523885 C178.89414,182.045179 183.107355,180.121033 185.330075,181.746604 C187.552795,183.372176 186.822946,186.125694 188.647567,187.452691 C190.472188,188.779688 193.093006,187.452691 195.282551,187.187292 C200.092915,186.590143 204.538354,190.836533 209.415068,190.504784 C211.662916,190.233416 213.882929,189.767214 216.050052,189.111437 C218.259258,188.477762 220.637499,188.906825 222.485987,190.272559 C223.846159,191.500031 224.376957,193.590051 225.803479,194.684824 C227.230001,195.779596 228.756047,196.310395 229.71812,197.670567 C231.87449,200.755834 228.192073,205.002224 229.253671,208.585116 C229.51907,209.414489 229.950344,210.111162 230.282093,210.90736 C231.87449,214.855176 229.021446,219.234266 229.253671,223.480656 C229.355188,226.515035 230.992458,229.289644 233.599585,230.845488 Z" fill="#29BB89" fill-rule="nonzero" mask="url(#mask-2)"></path>
            </g>
            <path d="M541.095731,372.189442 C541.89193,372.189442 542.820827,372.189442 543.185751,371.393244 C543.550676,370.597046 543.351626,370.265297 543.583851,369.734498 C544.024313,369.01099 544.828303,368.589852 545.673871,368.639726 C549.055413,368.731581 552.096757,370.720646 553.536327,373.781839 C554.909549,376.802146 555.697552,380.055471 555.858571,383.369391 C556.410654,386.825521 556.499905,390.339792 556.123971,393.819491 C555.423098,396.002598 556.166093,398.390796 557.981766,399.790977 C559.738914,402.029974 560.964081,404.639126 561.564658,407.421209 C561.659439,409.238509 562.346935,410.974727 563.521978,412.364272 C565.155737,413.381381 567.140024,413.670004 568.99584,413.16047 L582.265809,411.402199 C581.93406,413.558569 584.720753,414.553817 586.711248,415.44954 C589.171932,416.460955 591.039488,418.536017 591.787011,421.089276 C592.463756,423.68762 591.507776,426.437701 589.365242,428.05601 C586.989853,429.28688 584.22646,429.537014 581.66866,428.752683 C576.128448,427.657911 570.057438,425.634241 565.0812,428.387759 C564.544411,428.782193 563.888875,428.981195 563.223404,428.951733 C562.59308,428.785858 562.194981,428.12236 561.830057,427.591561 C559.1663,424.739459 555.69314,422.771335 551.877581,421.951824 C548.294689,420.624828 544.446398,418.435283 543.683375,414.719692 C543.185751,412.231572 544.114649,409.411704 542.754477,407.321684 C542.124154,406.359611 541.095731,405.696113 540.531758,404.700865 C540.068494,403.306008 539.724452,401.874348 539.503335,400.4213 C538.408563,397.103808 534.228523,396.042211 530.711981,396.24126 C527.285098,396.943211 523.742126,396.84101 520.361406,395.942686 C518.238211,395.013788 516.446765,393.089643 514.12452,393.089643 C513.029748,393.089643 511.835451,393.454567 511.006078,392.791069 C510.522993,392.286418 510.229881,391.629846 510.176705,390.933273 C509.579536,387.371536 509.445725,383.747501 509.778606,380.151424 C510.375754,373.715489 514.423095,364.360161 522.650475,366.881455 C524.939545,367.644478 526.233367,369.800848 528.389737,370.862446 C532.469059,372.265206 536.814595,372.719048 541.095731,372.189442 Z" id="Path" fill="#6A6768" fill-rule="nonzero"></path>
            <path d="M120.072805,216.632236 C120.229573,218.061988 120.959851,219.366911 122.096475,220.248303 C123.165838,220.609303 124.285385,220.799626 125.413967,220.812276 C130.55608,221.674824 131.684027,229.470931 136.593916,231.229202 C137.398522,231.39118 138.171564,231.682471 138.882985,232.09175 C139.383868,232.475739 139.782621,232.977028 140.044107,233.551446 C141.731302,236.499084 142.792866,239.762828 143.16255,243.138998 C143.230595,245.368128 143.485834,247.587598 143.925573,249.773983 C144.39434,251.970298 145.942304,253.780417 148.039264,254.584346 C148.570062,255.347369 147.873389,256.508492 146.977666,256.773891 C146.040838,256.93687 145.076451,256.79744 144.224148,256.375792 C137.755038,254.086722 130.954179,251.532254 126.674614,246.124741 C125.546667,244.69822 124.485069,242.807249 122.726799,242.6082 C121.676837,242.605294 120.63062,242.482864 119.608356,242.243276 C118.807765,241.790689 118.16079,241.109054 117.75056,240.285955 C115.180332,236.376299 111.589459,233.244324 107.36681,231.229202 C105.475839,230.300304 103.219945,229.437756 102.423747,227.480436 C101.859773,226.153439 102.125172,224.627392 101.660723,223.267221 C101.114645,222.080744 100.423775,220.966438 99.6038784,219.949728 C98.1763713,217.659119 97.9736964,214.81088 99.0624724,212.341217 C100.151248,209.871555 102.39064,208.099925 105.044565,207.608658 C108.152723,207.263679 111.29504,207.386688 114.366718,207.973582 C119.542006,209.002004 118.812158,211.589648 120.072805,216.632236 Z" id="Path" fill="#A0A0A0" fill-rule="nonzero"></path>
            <path d="M190.005539,349.99542 C189.252199,351.903936 189.581538,354.069974 190.868087,355.668332 C192.179786,357.183519 193.672799,358.531688 195.313526,359.682497 C195.908522,360.12024 196.396302,360.687426 196.740048,361.341243 C196.943422,361.904142 197.033614,362.501666 197.005447,363.099514 C197.005447,367.644478 197.005447,372.786591 200.32294,375.905034 C200.953263,376.502182 201.749461,377.099331 201.815811,377.995054 C201.804344,378.449483 201.653822,378.889472 201.384537,379.255701 C199.638234,381.174993 196.784324,381.604465 194.550503,380.284123 C192.433332,378.924199 190.465171,377.345222 188.678542,375.573284 C187.948939,375.053508 187.290857,374.440042 186.721222,373.748664 C186.088351,372.60369 185.58752,371.390566 185.22835,370.132597 C183.603656,367.332447 181.411441,364.90293 178.792416,362.999989 C176.578026,360.81281 174.55782,358.437404 172.75458,355.900556 C171.313314,354.254703 170.289242,352.286209 169.768837,350.161295 C167.645642,336.294178 185.891849,347.440951 190.005539,349.99542 Z" id="Path" fill="#A0A0A0" fill-rule="nonzero"></path>
            <path d="M237.711076,422.250399 L243.052238,433.496697 C243.815261,435.089093 245.009559,436.814189 246.767829,436.814189 C248.5261,436.814189 249.222774,435.055918 249.521348,433.496697 C250.113734,430.426849 249.229142,427.25706 247.132754,424.937567 C244.961469,422.67584 241.851363,421.569478 238.739498,421.951824 C238.25081,423.68978 238.790929,425.554476 240.132845,426.762188" id="Path" fill="#A0A0A0" fill-rule="nonzero"></path>
            <path d="M271.250921,451.17893 C271.707806,451.491995 272.092401,451.899213 272.378869,452.373227 C273.473641,454.197848 271.881245,456.486917 270.122974,457.71439 C267.211372,459.719162 263.691856,460.645967 260.170498,460.335208 C259.496243,460.312412 258.83693,460.130532 258.246352,459.80441 C257.46872,459.225192 256.880001,458.42869 256.554431,457.51534 C254.79616,453.932449 250.383896,442.918375 257.21793,441.160104 C261.26527,440.231206 268.431053,448.88986 271.250921,451.17893 Z" id="Path" fill="#A0A0A0" fill-rule="nonzero"></path>
            <path d="M475.210338,228.243459 C477.034958,229.504106 477.598932,232.423499 479.788477,232.854773 C480.518325,232.854773 481.281348,232.854773 482.044371,232.854773 C485.162814,233.286047 485.361864,237.930536 487.949507,239.788331 C488.944755,240.485005 490.238577,240.717229 491.267,241.413903 C492.386711,242.353406 493.340026,243.474952 494.086868,244.731395 C495.618444,246.701187 497.712541,248.158956 500.091529,248.911435 C501.5844,249.375884 503.60807,250.271607 503.143621,251.764478 C502.908523,252.316926 502.468598,252.756852 501.916149,252.99195 C498.598657,254.650696 494.617667,252.99195 491.267,251.432729 L483.338193,247.650788 C482.681023,247.422221 482.112352,246.992816 481.712622,246.423316 C481.181823,245.494418 481.712622,244.333296 481.712622,243.105823 C481.712622,240.816754 479.091803,239.390232 476.802734,239.158008 C474.513664,238.925783 472.224595,239.423407 469.9687,239.158008 C468.28144,238.734075 466.619952,238.213476 464.992462,237.598787 C461.507423,236.706399 457.83597,236.868035 454.442837,238.063235 C447.774678,228.376158 470.499499,225.058666 475.210338,228.243459 Z" id="Path" fill="#6A6768" fill-rule="nonzero"></path>
            <path d="M456.632382,246.85459 L465.091987,248.67921 C465.875609,248.784774 466.624624,249.068492 467.281531,249.508583 C467.959998,249.951732 468.247717,250.80119 467.978205,251.565428 C467.754332,251.998307 467.408265,252.35591 466.982957,252.593851 C466.055194,253.289363 465.025735,253.837662 463.930864,254.219422 C461.709766,254.65164 459.412164,254.456344 457.29588,253.655448 C456.661788,252.355687 456.354327,250.920867 456.400157,249.475408 C456.457199,248.003627 457.536218,246.772439 458.987801,246.52284" id="Path" fill="#6A6768" fill-rule="nonzero"></path>
            <path d="M465.523261,311.180762 C464.098397,315.171468 463.075952,319.29459 462.471168,323.488658 C464.298682,324.450144 466.482439,324.450144 468.309954,323.488658 C470.091572,322.514197 471.63303,321.154086 472.821743,319.507667 C473.86422,318.289207 474.61328,316.847834 475.011288,315.294452 C475.396244,313.705545 474.827257,312.037381 473.551592,311.014887 C472.349617,310.315332 470.949175,310.035244 469.570601,310.218689 C468.243604,310.218689 466.684383,310.417739 466.020884,311.578861" id="Path" fill="#6A6768" fill-rule="nonzero"></path>
            <path d="M148.025207,54.4274604 L150.508264,54.7180308 L149.670985,61.9299494 L149.536403,63.209904 L149.445074,64.016617 C149.429564,64.1475637 149.413895,64.2767854 149.398042,64.4043236 L149.300541,65.1496854 L149.197515,65.8566429 C149.17982,65.9713797 149.161849,66.0845996 149.143577,66.1963441 L149.030149,66.8494398 C148.403949,70.2417447 147.421709,72.2084985 145.313392,74.1131146 L144.47175,74.8556836 L143.864599,75.4011362 L143.290692,75.9288689 L142.74976,76.4398612 L142.241536,76.9350924 C141.995556,77.1789309 141.76174,77.4172262 141.539938,77.6505293 L141.112306,78.1106421 C138.779321,80.6820787 137.976441,82.6594525 138.483686,84.8446727 L138.519,84.99 L138.644656,85.3331978 C138.889214,86.0409739 139.073222,86.7682445 139.194695,87.5071628 L139.260059,87.9518487 L139.270437,88.112591 C139.270437,89.9926045 138.441627,91.1214672 136.437029,92.5918325 L135.933173,92.9518364 L134.833896,93.7086653 L134.446392,93.9860647 C134.386337,94.0300156 134.32845,94.0729126 134.272588,94.1148863 L133.960552,94.356694 C133.670502,94.5895129 133.442949,94.7985019 133.24676,95.0118893 L133.059874,95.2277883 C131.966741,96.6001885 131.826004,98.01804 132.63732,100.653978 L132.800599,101.162778 C132.829671,101.250052 132.859674,101.338587 132.890606,101.42842 L133.087354,101.983263 L133.306414,102.57095 L133.547787,103.193197 L133.95168,104.195128 L134.562126,105.678104 L134.866036,106.446779 C136.508747,110.709542 136.791459,113.420898 135.230759,116.146611 C134.551781,117.227947 133.78649,117.962974 132.26754,119.142293 L131.713057,119.568419 C129.840514,121.003265 129.101787,121.784558 128.780098,122.932775 L128.738749,123.09172 C128.259502,124.76324 129.001494,126.128168 131.408729,128.416 L132.932447,129.825684 L133.492113,130.35124 C134.905667,131.697209 135.70966,132.628062 136.421766,133.839926 C137.451197,135.932959 138.032092,138.216089 138.129371,140.543145 L138.14,140.954 L139.402977,154.674692 C139.420663,155.781787 139.620327,156.877476 139.993092,157.918085 L140.111,158.228 L140.158448,158.307347 C140.447697,158.782705 140.789973,159.24253 141.32893,159.90025 L142.155744,160.898939 C142.684102,161.546032 143.054243,162.048118 143.371868,162.577493 C144.035491,163.68353 144.021002,164.461531 143.504074,165.961567 L143.334098,166.43429 L143.154159,166.912169 L143.017967,167.297246 C142.920945,167.588735 142.863146,167.814663 142.8299,168.034725 L142.819,168.113 L142.817442,168.623571 C142.839764,171.480556 143.386641,174.30923 144.430825,176.968655 L144.646284,177.498241 L142.342314,178.468664 C141.026463,175.344581 140.339115,171.993895 140.317268,168.60796 L140.320328,168.010115 L140.327526,167.895417 C140.392395,167.300788 140.526628,166.812481 140.795137,166.083381 L141.048293,165.407627 L141.163478,165.080346 L141.249259,164.807919 C141.392392,164.312423 141.367855,164.096598 141.228136,163.863733 C141.045405,163.559181 140.82734,163.249211 140.536183,162.876222 L140.151015,162.396759 L139.38273,161.469572 L139.008056,161.004031 C138.602153,160.489016 138.298195,160.061098 138.019392,159.601552 L137.901221,159.402321 L137.824044,159.244701 C137.240292,157.804407 136.92812,156.268521 136.908727,154.812741 L135.64808,141.144673 L135.642612,141.044083 C135.612985,138.927069 135.112844,136.843149 134.223767,135.027232 C133.938089,134.543485 133.607316,134.091732 133.166413,133.590884 L132.855448,133.248821 C132.745879,133.131783 132.630158,133.01143 132.507571,132.886873 L132.118498,132.499699 C132.049982,132.432771 131.979571,132.36457 131.907176,132.294984 L131.448282,131.859961 L129.949263,130.47558 C126.709587,127.452014 125.492062,125.344705 126.321678,122.455493 C126.747734,120.680261 127.636631,119.603326 129.643243,118.011691 L130.944671,117.00315 L131.373911,116.658987 C132.241189,115.948551 132.715534,115.451507 133.087187,114.861125 C134.171155,112.966622 133.898792,110.794214 132.389771,106.978473 L131.260836,104.22103 L130.932965,103.396693 L130.656519,102.669716 L130.497825,102.2292 L130.357536,101.817025 L130.233872,101.42722 L130.125053,101.053814 C130.108055,100.992614 130.091601,100.931849 130.075654,100.871394 L129.985764,100.511388 C129.971697,100.451675 129.958064,100.392023 129.944827,100.332309 L129.869861,99.9722667 L129.802617,99.6047362 C129.408424,97.304791 129.773801,95.3407202 131.112832,93.6597181 C131.506103,93.1767525 131.919747,92.7785303 132.487858,92.3321206 L132.890954,92.0259164 L133.348648,91.6966818 L134.484173,90.9144557 L134.908555,90.6122168 C136.237566,89.6419271 136.72391,89.025686 136.767214,88.2328994 L136.768,88.193 L136.717787,87.8528087 C136.622688,87.2941046 136.483458,86.7438139 136.301405,86.2071103 L136.156857,85.807211 L136.11569,85.6800991 C135.427567,83.0905843 136.135962,80.5696016 137.950314,78.0409788 L138.259882,77.6209319 C138.573435,77.2068753 138.900897,76.8085331 139.259839,76.4055949 L139.629923,76.0003725 L140.024899,75.5875727 C140.093019,75.5178906 140.162339,75.4477047 140.23294,75.3769209 L140.672571,74.9442925 L141.146853,74.4928033 L141.659691,74.0179398 L142.509779,73.251945 L143.46858,72.4079702 C145.212004,70.8864362 146.037411,69.2983551 146.586153,66.3063632 L146.689079,65.7093782 L146.786128,65.0751772 L146.878335,64.4016054 L146.966732,63.6865079 L147.052354,62.92773 L147.295359,60.6643456 L148.025207,54.4274604 Z" id="Path" fill="#FFFFFF" fill-rule="nonzero"></path>
            <path d="M229.103877,248.507638 L229.099787,248.532051 L229.045793,248.693536 C228.909574,249.078588 228.811498,249.687676 228.764612,250.53322 L228.742727,251.06902 C228.686914,253.096895 228.767899,254.747439 228.983737,256.882596 L229.26321,259.572766 L229.324516,260.255666 L229.355034,260.654315 L229.377389,261.014697 L229.39168,261.342837 L229.398007,261.64476 L229.396472,261.926489 L229.387174,262.19405 L229.370214,262.453466 L229.345693,262.710762 L229.313711,262.971962 L229.274368,263.243091 L229.227766,263.530173 C229.111068,264.220757 228.923174,264.891589 228.653796,265.565035 C228.507673,265.930343 228.364082,266.252443 228.218501,266.539216 C227.456724,268.03981 226.501965,268.769644 225.10782,268.826956 C224.652382,268.845678 224.1797,268.796373 223.541495,268.678309 L223.19791,268.611285 L221.183458,268.185784 L221.071021,268.163276 C220.476823,268.046287 219.909499,267.948313 219.321267,267.86428 C217.391889,267.588654 216.024985,267.910082 214.27742,268.839386 L213.61191,269.209923 L212.771272,269.68405 C212.286378,269.948223 211.886441,270.136948 211.481443,270.280103 C210.856134,270.501131 210.249565,270.597024 209.63066,270.547734 L209.473,270.529 L208.3784,270.507751 C205.736796,270.476439 203.095539,270.594957 200.467355,270.862733 L199.341828,270.986631 L199.048156,268.50394 C202.193358,268.131901 205.35921,267.966752 208.525293,268.009411 L209.580635,268.031328 L209.726567,268.04401 C210.007179,268.085075 210.295012,268.04789 210.648285,267.923019 C210.864353,267.846645 211.10126,267.739115 211.393199,267.586097 L211.656065,267.444058 L212.747715,266.826004 C215.084746,265.523365 217.01,265.008717 219.674821,265.389406 C220.09758,265.4498 220.509579,265.516746 220.925442,265.591714 L221.672048,265.733987 L223.74777,266.17206 L224.119509,266.24208 L224.431713,266.291139 C224.669337,266.323584 224.853418,266.335302 225.005135,266.329065 C225.407616,266.31252 225.607434,266.159776 225.989297,265.40756 C226.098777,265.191899 226.212582,264.936614 226.332604,264.636558 C226.535696,264.12883 226.675514,263.629639 226.762713,263.113618 L226.815849,262.77525 L226.855516,262.454758 L226.874229,262.24214 L226.886585,262.024135 L226.892434,261.795412 L226.891627,261.550636 L226.884016,261.284476 L226.859517,260.833473 L226.834245,260.49052 L226.761578,259.679134 L226.59504,258.068364 L226.560333,257.745417 C226.287122,255.209979 226.179198,253.342839 226.243673,251.000239 C226.324177,248.075254 226.879077,246.506715 228.380697,246.089029 C229.040215,245.905579 229.68796,246.023529 230.436277,246.34402 C230.5864,246.408315 230.739621,246.480338 230.906855,246.56457 L231.326552,246.784923 L232.058824,247.187799 C233.129276,247.773499 233.785911,248.031784 234.387842,248.061004 C235.030951,248.092223 235.632975,248.066325 236.408284,247.975426 L236.95318,247.90511 L237.563535,247.815016 L238.813448,247.620842 L239.355318,247.544675 L239.848074,247.483884 C241.570885,247.290033 242.403567,247.420427 243.449853,248.030761 C243.512072,248.067055 243.678839,248.052401 244.017019,247.867516 C244.529451,247.587366 245.139023,247.023782 245.755305,246.229384 C247.181422,244.391095 248.417377,241.647977 249.097312,238.58827 C249.584438,236.396203 249.120737,234.783717 247.614094,232.58178 L247.476193,232.38486 L245.656287,229.906439 C243.574965,227.042174 242.409476,224.697502 241.854529,221.560847 C241.299099,218.421462 241.477207,216.613818 242.686309,215.607911 C243.354001,215.052426 243.882787,214.868952 244.990446,214.903796 L245.360313,214.921878 L245.773687,214.953398 C245.846487,214.959711 245.92131,214.96654 245.998259,214.973861 L247.030433,215.083933 C249.06095,215.315451 250.274326,215.311434 251.570983,214.925433 L251.759,214.866 L251.99485,214.757313 C254.103075,213.74102 255.752931,211.968998 256.616296,209.793667 L256.729121,209.494565 C257.554708,207.187156 257.438233,204.65216 256.413868,202.435611 L256.301,202.203 L256.185541,202.037538 C255.415381,200.892146 255.048247,199.790329 255.017739,198.617957 L255.016645,198.346105 L255.031,197.837535 L255.048078,197.618316 L255.066351,197.468895 L255.091775,197.308573 L255.125755,197.130253 L255.195842,196.813504 L255.422234,195.914813 L255.721258,194.781952 C256.319905,192.52297 256.511408,190.815583 256.214146,188.524723 L256.148153,188.058434 C255.563454,184.232835 256.243063,181.905551 258.284605,179.03398 L259.555954,177.318336 C260.660111,175.813222 261.341602,174.625361 261.840361,173.148367 L261.961382,172.772744 L264.351099,173.507084 C263.790364,175.331848 263.036349,176.745266 261.852612,178.408533 L261.324134,179.130561 L260.516523,180.213511 C258.736153,182.640767 258.165665,184.322462 258.570475,187.339856 L258.619455,187.680725 C259.038829,190.424623 258.879501,192.456239 258.259467,194.949235 L257.689884,197.141195 L257.620948,197.435306 L257.562605,197.732503 L257.544776,197.854951 L257.528405,198.024116 L257.516256,198.390206 C257.503138,199.133672 257.706555,199.813378 258.242619,200.616673 L258.397153,200.838959 L258.499051,201.006265 C259.966157,203.904439 260.177305,207.278296 259.082987,210.336774 C258.027752,213.28602 255.848127,215.69189 253.028392,217.034247 L252.712478,217.178995 L252.601731,217.22163 C250.875735,217.793617 249.410907,217.847463 247.153945,217.612293 L246.311577,217.519654 L245.599758,217.450982 L245.190205,217.422762 L244.969114,217.414583 L244.785069,217.414629 L244.634203,217.422658 L244.512649,217.438429 L244.416541,217.4617 C244.360092,217.47966 244.318029,217.502459 244.285196,217.529774 C244.204269,217.597101 244.120262,217.790046 244.07702,218.228914 C244.013506,218.873529 244.0864,219.825887 244.316297,221.125303 C244.769283,223.68566 245.696401,225.637582 247.389414,228.033262 L249.555119,230.994884 L249.677338,231.170035 C251.540904,233.893609 252.195618,236.170327 251.53778,239.130597 C251.227801,240.5255 250.809242,241.867241 250.312034,243.110008 L250.077078,243.676398 C248.034333,248.428145 244.852008,251.548164 242.337314,250.27046 L242.190175,250.190208 C241.863779,249.99981 241.513574,249.910068 240.932912,249.917888 L240.647799,249.928414 C240.546805,249.934225 240.439604,249.942333 240.325443,249.952728 L239.96133,249.990761 L239.550945,250.042447 L239.089773,250.107718 L237.576799,250.341385 L236.934442,250.430065 C235.916387,250.559907 235.138707,250.600398 234.266626,250.558064 C233.252909,250.508854 232.377911,250.189643 231.148941,249.537423 L230.039367,248.939489 L229.689489,248.758373 L229.50727,248.66791 L229.320138,248.580565 L229.188413,248.526422 C229.152722,248.513323 229.124739,248.504881 229.102937,248.500219 L229.103877,248.507638 Z" id="Path" fill="#FFFFFF" fill-rule="nonzero"></path>
            <path d="M249.143292,239.59813 L251.16005,238.120737 L251.816592,239.027733 L252.219915,239.599262 L252.596764,240.147725 L252.948017,240.676072 C253.060933,240.849162 253.169728,241.019391 253.27455,241.187251 L253.577241,241.684211 C254.741487,243.64755 255.354557,245.340439 255.669032,247.612297 L255.741576,248.192815 C255.763782,248.39067 255.784059,248.593036 255.802556,248.800406 L255.852848,249.43802 C255.860389,249.546955 255.86752,249.657263 255.874261,249.769007 L255.910166,250.457184 L255.937577,251.182757 L255.95737,251.948676 L255.970421,252.757889 L255.979278,254.059338 L255.967731,258.627227 L255.972988,259.7392 L255.985773,260.766444 L256.00676,261.712456 L256.03662,262.580735 L256.061788,263.11813 L256.107931,263.864628 L256.144577,264.324074 L256.20887,264.958507 L256.258239,265.346483 C256.266915,265.408885 256.275817,265.470172 256.28495,265.530365 L256.34255,265.878568 L256.405887,266.201552 C256.416932,266.253339 256.428224,266.304117 256.439768,266.35391 L256.512083,266.641008 C256.537216,266.732878 256.563388,266.820977 256.590632,266.905477 L256.675616,267.148355 C256.690327,267.187093 256.705314,267.224974 256.720582,267.262021 L256.815589,267.474454 C256.979655,267.812389 257.172604,268.071154 257.398584,268.272345 L257.538169,268.386323 C257.657849,268.475836 257.785994,268.552034 257.923124,268.617618 C258.4718,268.880028 258.950288,269.030947 259.602152,269.132049 L260.016023,269.187226 C260.089119,269.19559 260.164435,269.20358 260.242216,269.211256 L260.740424,269.254049 L261.309469,269.292288 C263.725674,269.439032 264.9386,269.726908 266.361857,270.859227 L266.546469,271.009695 C266.691638,271.131274 266.86254,271.258351 267.06668,271.396259 L267.398756,271.61191 C267.458569,271.649427 267.520695,271.687789 267.585249,271.727077 L268.002662,271.974594 L268.631887,272.329263 L271.079438,273.685936 L271.273438,273.797121 C275.457951,276.225308 277.643034,278.550996 277.643034,281.920481 C277.643034,283.723096 278.053368,284.602904 279.423766,286.215119 L279.646936,286.474572 C281.523697,288.636923 282.221173,289.988466 282.221173,292.569631 L282.225616,294.007704 L282.231816,294.654852 L282.247304,295.542537 L282.271511,296.33786 L282.305893,297.049008 L282.351905,297.684172 L282.38976,298.069445 L282.433863,298.427014 L282.484645,298.759306 C282.502734,298.866126 282.522007,298.969138 282.542538,299.068746 L282.607972,299.357761 C282.61953,299.404363 282.631421,299.450215 282.643652,299.495368 L282.721208,299.758297 C282.734841,299.800854 282.748832,299.842813 282.763192,299.884225 L282.85384,300.126526 L282.953756,300.358109 L283.063371,300.5814 C283.082472,300.618059 283.101995,300.654473 283.12195,300.690694 L283.246922,300.906097 L283.382671,301.119275 L283.529628,301.332654 L283.688226,301.548661 L283.836889,301.739566 L284.830952,302.963341 L286.031953,304.417484 L288.120693,306.910006 L290.415919,309.610662 L292.762159,312.333337 L294.277884,314.068778 L295.356498,315.289323 L296.681323,316.765148 L297.271386,317.404558 L297.694537,317.850029 L298.26583,318.431065 L298.88289,319.034499 L299.400436,319.526164 L300.651427,320.684139 L303.174322,322.981454 L303.732853,323.50034 C305.421918,325.084263 306.795185,326.528008 308.177417,328.233298 L309.001661,329.26247 L309.397619,329.733918 C310.960788,331.548079 312.308379,332.527611 314.604294,333.56933 L315.198703,333.831574 L315.836667,334.099523 L316.522227,334.376292 L317.944082,334.928986 L318.475353,335.141549 C318.640999,335.209742 318.7964,335.275846 318.945154,335.341574 L319.375074,335.539342 L319.843362,335.767307 L320.11381,335.889677 L320.408943,336.014551 L320.932432,336.221537 L322.161538,336.681646 C325.745822,338.029814 327.628798,339.511273 328.947868,342.945405 C329.875778,345.361171 330.053769,348.390447 329.755079,352.722128 L329.663331,353.924704 L329.546018,355.252547 L329.193944,359.047562 L329.11596,360.029603 L329.065973,360.832598 L329.042951,361.397625 L329.033828,361.81322 L329.030005,362.522533 L329.0217,363.073226 C329.019562,363.162821 329.017031,363.251352 329.014081,363.33886 L328.991175,363.851972 L328.957054,364.342572 C328.716325,367.222694 327.806179,368.99685 325.076627,371.64037 L324.604658,372.089345 L324.097814,372.556451 L323.55491,373.043722 L322.974764,373.553188 L322.032129,374.363451 L321.353702,374.937298 C320.457736,375.691281 319.516834,376.268748 318.525649,376.686276 C316.502212,377.538631 314.805551,377.691055 311.952079,377.465061 L311.180478,377.397734 L310.12893,377.296418 L309.539509,377.247195 C309.445634,377.240068 309.353887,377.233489 309.264192,377.227476 L308.750018,377.198313 L308.281358,377.18351 C306.716353,377.157749 305.919271,377.410334 305.172114,378.093438 L304.815832,378.430683 L304.522245,378.698251 L304.193638,378.990038 L303.466413,379.619728 L301.000383,381.701329 L300.77349,381.900421 L300.731459,381.940187 C299.735712,382.925736 299.544184,383.665784 300.046563,385.288856 C300.476006,386.676288 301.041195,387.651623 302.155561,389.073448 L303.337696,390.548794 L303.432251,390.669345 C304.498976,392.035099 305.261187,393.241677 305.907618,394.727193 L306.06,395.088 L306.200666,395.365956 C308.184666,399.414744 308.040698,404.186114 305.78063,408.166227 L305.587392,408.49604 C304.722813,409.749053 303.77328,410.237322 301.881971,410.710808 L300.778026,410.981674 L300.46224,411.065939 L300.19238,411.144868 L299.953968,411.223137 L299.732526,411.305425 L299.513578,411.396407 C299.47649,411.412555 299.438903,411.429261 299.400515,411.446621 C297.74493,412.19531 296.495576,413.707732 295.479258,416.771323 L295.367284,417.118145 L292.9823,416.368578 C294.220149,412.429967 295.959341,410.259043 298.370399,409.168714 L298.667154,409.039154 C298.715013,409.019111 298.762307,408.999763 298.809391,408.980991 L299.092194,408.874307 L299.386908,408.775687 L299.710507,408.679382 L300.079961,408.579643 L300.512241,408.470723 L301.02432,408.34687 C302.541981,407.98426 303.0786,407.729984 303.488367,407.140204 C305.443805,403.900434 305.620074,399.89828 303.975993,396.50765 L303.816526,396.191612 L303.765744,396.082295 C303.232267,394.772001 302.618032,393.734718 301.735122,392.563878 L301.280671,391.978007 L300.452615,390.949352 C298.993124,389.129473 298.229313,387.872719 297.658349,386.028065 C296.87802,383.507004 297.32,381.799232 298.972814,380.163345 L299.203999,379.952656 L299.901875,379.355801 L301.656291,377.875635 L302.429134,377.211174 L302.773094,376.908355 L303.074214,376.636144 C303.120226,376.593785 303.163998,376.553044 303.205304,376.514095 L303.321597,376.402791 C304.685542,375.07474 305.9451,374.640582 308.2319,374.678685 L308.778373,374.695669 L309.364407,374.728269 L309.993092,374.775332 C310.101599,374.784317 310.212012,374.793857 310.324394,374.803928 L311.39901,374.907232 L312.106631,374.96926 C314.597305,375.167976 315.983756,375.044274 317.555137,374.382343 C318.313771,374.062775 319.039385,373.617438 319.744007,373.024478 L320.380187,372.487141 L321.532105,371.498982 L322.050479,371.043944 L322.532218,370.61212 L322.978641,370.201402 C323.050175,370.134591 323.120292,370.068571 323.18902,370.003299 L323.584937,369.620286 L323.94883,369.253106 C324.122991,369.073124 324.285636,368.898288 324.437508,368.727413 L324.727105,368.390591 C325.783846,367.11699 326.236358,366.029695 326.418549,364.594137 L326.460164,364.211392 L326.490833,363.810738 C326.495106,363.742353 326.498977,363.673133 326.502474,363.603036 L326.519193,363.171564 L326.528258,362.71691 L326.535925,361.650672 L326.558675,360.915874 L326.573956,360.604386 L326.616871,359.922201 L326.696963,358.903915 L326.897989,356.697234 L327.107042,354.469161 L327.227006,353.021038 L327.290387,352.100116 C327.308932,351.800506 327.32487,351.508187 327.338125,351.222932 L327.369759,350.388134 C327.451762,347.538942 327.229424,345.443764 326.614106,343.841817 C325.630584,341.281267 324.35016,340.214316 321.573981,339.133514 L320.004427,338.543244 L319.424169,338.31303 L319.089143,338.170538 L318.774917,338.027693 L318.463791,337.87666 C318.34901,337.81927 318.231538,337.763028 318.108206,337.70647 L317.717463,337.534386 C317.648353,337.50506 317.576986,337.475289 317.502966,337.444889 L317.023841,337.253497 L315.948123,336.837165 L315.193786,336.536964 C315.072185,336.487763 314.952591,336.438936 314.834926,336.390419 L314.151436,336.10252 C314.041166,336.054985 313.932664,336.007633 313.825853,335.960398 L313.204624,335.677891 C310.494614,334.408361 308.9005,333.131417 306.857515,330.58776 L306.62859,330.299854 C305.186826,328.469043 303.794929,326.985813 302.022756,325.323955 L301.078585,324.451916 L298.567961,322.165328 L297.598405,321.263532 L296.941799,320.635977 L296.640937,320.341393 L296.33668,320.037869 L296.082881,319.779926 L295.580917,319.256608 L295.064489,318.701652 C294.975747,318.605074 294.885304,318.506092 294.79261,318.404161 L293.857717,317.36519 L292.465303,315.793356 L290.983721,314.098186 L289.070983,311.883162 L287.543892,310.096194 L285.708509,307.927131 L284.350696,306.305499 L282.597566,304.181459 L281.887399,303.304649 L281.692469,303.054302 L281.481963,302.768357 L281.286749,302.487679 C281.255456,302.441199 281.224778,302.394834 281.194701,302.348531 L281.02137,302.071052 C280.965938,301.978531 280.912821,301.885843 280.861923,301.79257 L280.715798,301.510579 C280.622697,301.320857 280.538101,301.127123 280.46126,300.926034 L280.35172,300.618465 L280.253249,300.297355 C280.222207,300.187783 280.192917,300.075537 280.165283,299.960197 L280.087259,299.604482 C280.038433,299.360595 279.995859,299.102666 279.958787,298.82735 L279.907211,298.400919 C279.899271,298.327534 279.891652,298.252958 279.884342,298.177139 L279.844089,297.706886 L279.810682,297.204283 L279.783555,296.666823 L279.753412,295.789791 L279.739526,295.154217 L279.72995,294.475008 L279.721477,292.975658 C279.721271,292.842465 279.721173,292.70714 279.721173,292.569631 C279.721173,290.806343 279.317278,289.943541 277.959419,288.346565 L277.73808,288.089279 C275.847694,285.911224 275.143034,284.541053 275.143034,281.920481 C275.143034,279.800157 273.594435,278.085648 270.33906,276.147698 L269.71971,275.788943 L267.263413,274.430134 L266.979987,274.270258 L266.464554,273.970661 C265.900695,273.634836 265.462149,273.342376 265.087316,273.044976 L264.802917,272.813567 C263.935638,272.127433 263.176712,271.926074 261.45412,271.806866 L260.810488,271.765418 L260.174481,271.716194 C258.774098,271.591677 257.922268,271.388414 256.844485,270.872953 C255.09268,270.035134 254.181003,268.318262 253.77675,265.657644 L253.721944,265.276725 L253.673442,264.894211 L253.630925,264.503983 L253.577673,263.890801 L253.548722,263.454533 L253.524637,262.989146 L253.496939,262.223087 L253.478395,261.357106 L253.467928,260.370562 L253.464905,259.635692 L253.479348,255.045482 L253.478117,253.652337 L253.472427,252.837708 L253.454397,251.704587 L253.434712,251.003818 C253.430857,250.890448 253.426702,250.778748 253.422228,250.668651 L253.391402,250.026795 L253.352004,249.420295 L253.303121,248.846019 C253.294133,248.752817 253.284711,248.660827 253.274836,248.569984 L253.210008,248.038164 C253.010082,246.567368 252.668383,245.390223 252.091268,244.185902 L251.877652,243.759196 C251.803087,243.616236 251.725111,243.472378 251.643571,243.327099 L251.388111,242.886476 C251.343702,242.812154 251.298363,242.737346 251.252077,242.661988 L250.962831,242.202698 C250.912677,242.124874 250.861536,242.046367 250.80939,241.967114 L250.4843,241.482106 L250.13417,240.976034 L249.758085,240.445764 L249.143292,239.59813 Z" id="Path" fill="#FFFFFF" fill-rule="nonzero"></path>
            <path d="M305.639176,407.157857 C306.641287,408.881488 307.713038,409.708312 309.988916,410.578121 L310.558827,410.788182 L311.178461,411.00278 L312.731419,411.52285 L312.817819,411.55312 C315.70757,412.567867 317.601974,413.7566 319.264022,415.999045 L319.48677,416.297402 L319.903799,416.841858 C320.97037,418.206279 321.700061,418.900064 322.745341,419.620312 L323.153389,419.893007 L323.912105,420.374788 L324.003552,420.434245 C325.216789,421.229073 326.126755,422.1317 327.287887,423.835535 L327.448179,424.073615 L327.782695,424.584891 C327.839366,424.6728 327.896286,424.761655 327.953141,424.850854 L329.211714,426.855025 L329.32438,427.027072 L329.402772,427.138486 C329.412733,427.151526 329.421079,427.161682 329.427717,427.168776 L329.478663,427.221082 L329.599731,427.332235 L329.753398,427.457164 L329.948103,427.601932 L330.192284,427.772607 L331.16482,428.40948 L333.570952,429.960388 C335.438935,431.174049 336.96807,432.300406 338.405745,433.488553 L338.950673,433.945215 L339.504294,434.421713 L341.555267,436.238146 C342.363976,436.945211 343.02361,437.478855 343.729537,437.981215 L344.234775,438.330149 L344.33515,438.404934 C347.870788,441.325511 351.632581,443.960954 355.602266,446.296727 C359.025404,448.385146 362.271759,450.749392 365.309115,453.365666 L365.938,453.914 L366.29051,454.088773 C368.842097,455.392792 371.131303,457.157057 373.046549,459.297088 L373.424579,459.730079 C374.835101,461.408601 376.87429,462.305544 379.627403,462.656184 L380.094545,462.710837 C380.171697,462.719028 380.248678,462.726771 380.325761,462.734085 L380.791654,462.772975 L381.273056,462.802458 L381.78304,462.823415 L382.334679,462.836728 L382.941046,462.84328 L383.98181,462.842357 L385.372651,462.833974 C391.319526,462.833974 395.586053,464.489337 396.508037,468.955168 L396.556642,469.21096 C396.636973,469.672865 396.732673,470.118297 396.854751,470.616973 L397.175436,471.874279 L397.296253,472.382782 L397.357464,472.67831 C397.511439,473.476888 397.534021,474.139824 397.387707,474.812637 C397.065607,476.293791 395.968629,477.58777 393.597065,479.343274 L393.026927,479.756879 C392.928058,479.827277 392.827246,479.898431 392.724463,479.970379 C390.352103,481.631031 388.33613,481.938336 385.286122,481.635551 L384.517961,481.553872 L384.156913,481.51875 L383.72238,481.484968 L383.49554,481.474595 C383.461518,481.473655 383.429307,481.473105 383.398786,481.472938 L383.234961,481.476488 L383.105852,481.488934 L383.005621,481.509966 C382.990998,481.514169 382.977335,481.518718 382.964511,481.523605 L382.896654,481.556936 C382.841952,481.591081 382.784142,481.676376 382.717761,481.916301 C382.605927,482.320506 382.562635,482.949212 382.608484,483.887885 C382.614325,488.699184 386.076151,492.794456 390.788727,493.622699 L391.061978,493.66684 L391.225233,493.702186 C395.397711,494.90238 399.28172,496.935021 402.644033,499.67536 L403.038,500.002 L403.406287,500.246711 L403.806789,500.502982 C403.871106,500.543181 403.934419,500.582236 403.997046,500.620313 L404.367143,500.838387 C404.428306,500.873224 404.489421,500.907419 404.550809,500.941139 L404.924944,501.139096 L405.320908,501.333687 C405.389571,501.366285 405.459782,501.399077 405.531859,501.432231 L405.989268,501.63684 L406.506776,501.858173 L408.013769,502.477752 L408.486179,502.678693 L408.905403,502.869499 C409.039527,502.933001 409.169657,502.997198 409.300664,503.064475 C410.813518,503.84138 412.120783,504.913809 413.626588,506.708606 L414.226736,507.436816 C414.277474,507.49748 414.327419,507.556664 414.376749,507.61454 L414.666795,507.947471 L414.950709,508.257255 L415.237097,508.552139 C415.333928,508.648866 415.432607,508.744485 415.534567,508.84037 L415.851727,509.130195 C415.906706,509.179091 415.962864,509.228396 416.02038,509.278283 L416.383214,509.585964 C416.446881,509.638866 416.512265,509.692694 416.579546,509.747619 L417.00742,510.091712 L417.753396,510.675274 L418.332709,511.12129 C420.214213,512.564412 421.265887,513.599257 422.41137,515.35906 C422.904338,516.116405 423.37598,516.971124 423.8362,517.948266 L424.032767,518.374609 C424.699196,519.850785 425.425183,520.83468 426.264492,521.529606 L426.460543,521.687893 L426.646805,521.828086 L426.836058,521.95789 C426.90106,522.000282 426.96869,522.042228 427.041078,522.085011 L427.274646,522.217156 L427.549538,522.36203 L428.067312,522.620067 L428.50142,522.830479 C430.879144,523.976677 431.956,525.191355 432.515406,528.180183 L432.797107,529.710908 L432.972955,530.71581 L433.073272,531.324974 L433.160026,531.89012 L433.233193,532.415192 L433.292748,532.90413 C433.301538,532.982828 433.30976,533.060185 433.317413,533.136282 L433.356503,533.578414 L433.381919,533.994269 C433.415964,534.734992 433.380942,535.363113 433.276162,535.987949 L433.212086,536.3291 L433.134149,536.673542 L433.042326,537.025217 L432.936592,537.388068 L432.816922,537.766036 L432.68329,538.163065 L432.456611,538.80297 C431.866766,540.370014 431.18732,541.901602 430.421714,543.390174 L430.031748,544.13084 L427.830897,542.944982 C428.704426,541.323788 429.468134,539.64578 430.111272,537.937453 L430.30401,537.396511 L430.417535,537.064144 L430.519053,536.749833 L430.608535,536.449676 L430.685953,536.15977 C430.709746,536.06441 430.731523,535.970108 430.751279,535.876214 L430.804485,535.595106 C430.85162,535.31392 430.880533,535.030553 430.891093,534.727443 L430.895533,534.417103 C430.895251,534.364066 430.894459,534.310318 430.893155,534.255778 L430.87919,533.918379 L430.85292,533.558063 C430.847514,533.495884 430.841595,533.432587 430.835161,533.368092 L430.79038,532.966085 L430.733223,532.531405 L430.62422,531.80959 L430.487212,530.992312 L430.322102,530.066402 L430.058077,528.640111 C429.674167,526.588931 429.168211,525.955984 427.608155,525.176783 L426.698316,524.732733 L426.312338,524.537586 L425.983036,524.362064 L425.695651,524.196921 C425.650426,524.169749 425.606334,524.142623 425.563065,524.115353 L425.310885,523.948443 L425.063729,523.768797 L424.806838,523.567171 C424.762392,523.531221 424.716925,523.49397 424.67013,523.455225 C423.60247,522.571231 422.700233,521.386004 421.919632,519.758786 L421.754207,519.40328 C421.282374,518.358145 420.80712,517.477173 420.316138,516.722879 C419.411815,515.33357 418.595723,514.49932 417.116184,513.341188 L415.913325,512.411585 L415.159491,511.815127 L414.722053,511.456861 C414.652866,511.399171 414.585415,511.342371 414.519514,511.28628 L414.141204,510.956794 C414.080755,510.902814 414.021481,510.849182 413.963198,510.795715 L413.623889,510.475456 C413.56882,510.421928 413.514369,510.368204 413.46035,510.314103 L413.139911,509.983518 C413.033828,509.870848 412.927978,509.755221 412.82087,509.635187 L412.494279,509.26042 L412.151193,508.850526 L411.970669,508.629691 C410.552078,506.882832 409.442457,505.947672 408.158613,505.288372 L407.826829,505.124982 C407.769742,505.098023 407.711398,505.071028 407.651249,505.043737 L407.264346,504.874345 L405.85095,504.293418 L405.303277,504.063554 L404.814132,503.851519 L404.371745,503.651051 C404.301256,503.618256 404.232225,503.585681 404.164406,503.553198 L403.770078,503.358338 L403.393075,503.159387 L403.021622,502.950084 L402.643947,502.724166 L402.248276,502.475369 L401.822836,502.197431 L401.595274,502.045576 L401.484446,501.961906 C398.441116,499.386853 394.911141,497.453621 391.106821,496.275765 L390.604,496.125 L390.394876,496.091744 C384.571986,495.0877 380.263948,490.105132 380.114102,484.255709 L380.110073,483.952396 C379.991566,481.60379 380.386381,480.176791 381.572875,479.43618 C382.173102,479.061517 382.626403,478.936281 383.506504,478.965906 L383.857668,478.98409 L384.255569,479.015684 L384.954757,479.085794 L385.218471,479.114669 C387.91519,479.41374 389.439876,479.217951 391.290807,477.922299 L391.803179,477.55811 L392.270366,477.214494 C392.344555,477.158875 392.41693,477.104067 392.487523,477.050045 L392.889985,476.735153 C392.95359,476.68418 393.015482,476.633946 393.075695,476.584426 L393.417095,476.295698 C393.470727,476.248943 393.522747,476.202856 393.573191,476.157412 L393.857192,475.892286 C394.476959,475.290796 394.800845,474.806184 394.921928,474.373366 L394.999308,474.047904 L395.014516,473.950044 L395.01803,473.879406 L395.015143,473.798141 L394.996744,473.64449 L394.958631,473.436513 L394.77513,472.637454 L394.426455,471.21143 C394.291802,470.661386 394.184532,470.162104 394.093612,469.639313 C393.580706,466.690099 390.481486,465.393393 385.708364,465.335975 L383.233447,465.344324 L382.559099,465.340359 L381.946121,465.329489 C381.848294,465.327046 381.752441,465.324273 381.658269,465.321149 L381.111084,465.298026 L380.590253,465.265467 C380.419478,465.252929 380.250761,465.23865 380.081768,465.222462 L379.571623,465.167997 C379.485682,465.157908 379.399089,465.1473 379.311551,465.136151 C376.122379,464.729974 373.592692,463.657147 371.743556,461.606216 L371.51596,461.344733 C369.744856,459.265133 367.582198,457.556456 365.152822,456.314905 L364.694219,456.087611 L364.537249,456.012207 L364.406866,455.896771 C361.264797,453.114912 357.882728,450.616545 354.317376,448.441175 C350.563671,446.23266 346.97718,443.752436 343.586558,441.020578 L342.795,440.374 L342.62078,440.256229 C341.818025,439.705265 341.103777,439.147003 340.273347,438.435142 L339.586608,437.835089 L338.146069,436.555317 L337.596505,436.076707 L337.07425,435.632932 C336.987666,435.560365 336.900857,435.488118 336.813141,435.415626 C335.584614,434.400327 334.285406,433.432297 332.735183,432.402478 L329.115972,430.060914 L328.698178,429.779232 C328.192387,429.429526 327.878752,429.172394 327.602248,428.876894 C327.547884,428.818795 327.47472,428.724044 327.387202,428.601313 L327.194343,428.321113 L326.850576,427.794635 L325.676002,425.936349 L325.325644,425.397405 L325.221995,425.243402 C324.308601,423.903096 323.659855,423.23063 322.817242,422.648913 L322.470987,422.42057 L322.024402,422.139196 L321.553096,421.832163 C319.963283,420.769457 318.960063,419.787421 317.255548,417.487679 C316.000414,415.794244 314.590807,414.866585 312.334415,414.035879 L311.831125,413.856587 L310.724848,413.486847 C310.481307,413.40651 310.24612,413.327098 310.018805,413.248142 L309.359994,413.012168 C306.497288,411.952191 304.981517,410.889402 303.627723,408.666258 L303.477908,408.414409 L305.639176,407.157857 Z" id="Path" fill="#FFFFFF" fill-rule="nonzero"></path>
            <path d="M448.786523,382.193242 L449.174863,381.886984 L449.544987,381.603635 C449.605285,381.558318 449.664919,381.513953 449.723939,381.47054 L450.071063,381.221487 C452.057395,379.835258 453.408158,379.613645 456.18248,380.52358 L456.672408,380.690647 L457.192531,380.879847 L457.745154,381.091141 L458.332584,381.324494 L458.957124,381.579867 L459.968562,382.004136 C464.99936,383.94519 470.134814,385.602107 475.350641,386.967187 L476.775113,387.332241 L476.166856,389.757117 C470.362122,388.301054 464.652025,386.490808 459.030567,384.321134 L457.285545,383.587939 L456.787418,383.384897 L456.109312,383.118905 L455.699377,382.967207 L455.320016,382.835944 C455.259187,382.815767 455.19952,382.796439 455.140959,382.777958 L454.802417,382.67724 C453.44338,382.299895 452.705499,382.450947 451.713725,383.111473 L451.470377,383.279771 L451.21459,383.467576 L450.80171,383.785728 L450.345724,384.147441 C446.644767,387.100332 439.937456,387.54067 431.872407,385.13395 L431.132556,384.908942 L430.595443,384.755619 L430.092343,384.626659 C427.253127,383.945834 426.05366,384.518617 424.808925,386.521458 L424.594784,386.878844 L424.197768,387.594487 C423.40653,389.04411 422.904266,389.777504 422.095271,390.399948 L421.929206,390.523137 C420.494056,391.550574 419.919919,394.951549 420.293894,399.059635 L420.362863,399.731746 C420.569016,401.539167 420.953344,403.461972 421.52289,405.365407 L421.631853,405.722041 C422.764123,409.352495 422.749803,411.772543 421.299957,412.936705 C419.887465,414.070874 417.864501,413.506765 415.562513,411.853518 C415.151944,411.558655 414.741508,411.243453 414.294881,410.883021 L412.390715,409.326921 L411.671167,408.753748 L411.203736,408.393489 L410.923356,408.18492 L410.666005,408.000667 L410.43,407.839905 L410.213659,407.701807 C410.179147,407.680633 410.145385,407.660369 410.112336,407.640998 L409.922336,407.535344 C409.861672,407.503605 409.803584,407.475298 409.747792,407.450286 L409.587023,407.384997 C409.303878,407.282917 409.081695,407.276337 408.873816,407.342325 L408.761565,407.385378 L408.650469,407.441998 L408.538844,407.511357 L408.425008,407.592629 L408.307279,407.684987 L408.246428,407.735065 C405.779736,409.701848 403.629177,412.035204 401.831204,414.707946 C399.933515,417.23147 397.718404,417.100474 395.655447,414.971653 L395.423839,414.724271 L395.140712,414.408132 L394.87777,414.095523 L394.607333,413.748913 L394.382936,413.444065 L394.032783,412.947642 L393.053967,411.505627 L392.191036,410.221554 L391.865181,409.747031 L391.567752,409.32479 C391.519984,409.25801 391.472976,409.192837 391.426517,409.128984 L391.152642,408.759421 L391.017459,408.582231 C390.952039,408.497324 390.893569,408.424242 390.841017,408.361552 L390.700088,408.203231 C390.512235,408.008221 390.423357,407.994679 390.339496,408.032155 C390.013528,408.177827 389.518543,408.753687 388.919084,409.763603 L388.672465,410.191724 C388.630272,410.267021 388.587431,410.344464 388.543791,410.424309 L388.27113,410.93429 L387.876967,411.7024 L386.964054,413.531033 L386.616079,414.217516 L386.291055,414.842279 L385.984234,415.412545 C385.93435,415.503449 385.885027,415.592384 385.836166,415.679499 L385.547748,416.181561 C385.310698,416.58376 385.080248,416.947999 384.844033,417.293088 L384.701514,417.497993 C383.684207,418.937375 383.561644,419.676605 383.94838,420.75629 L384.052682,421.027651 L384.32252,421.664259 C385.096289,423.475994 385.325524,424.770553 384.901572,426.698851 C383.740664,431.979106 375.12498,435.070659 368.29587,433.387723 L367.995774,433.31037 C365.571716,432.657739 364.272737,432.60289 362.4563,432.921188 L361.700093,433.064539 C359.899937,433.414382 358.708931,433.528169 356.967146,433.387659 L356.519554,433.347223 C355.186447,433.21474 354.375062,433.58901 353.224805,434.75973 L352.848811,435.158979 L351.551341,436.571182 C351.522131,436.602073 351.495575,436.629925 351.472145,436.654205 C349.381155,438.821088 347.199267,440.082805 343.923093,440.556396 L343.524636,440.609451 L343.221765,438.127865 C346.10432,437.776057 347.871794,436.784964 349.673155,434.918222 L351.224657,433.232625 C352.884216,431.479428 354.34022,430.697068 356.483284,430.836119 L356.766784,430.859478 C358.341011,431.015923 359.318594,430.959098 360.804487,430.689311 L361.697523,430.518601 C363.917301,430.096113 365.551131,430.10482 368.235041,430.788661 L368.645708,430.896331 C374.310551,432.421481 381.649445,429.848236 382.459888,426.162027 C382.733935,424.915552 382.628124,424.131727 382.13502,422.914069 L381.790813,422.1007 L381.681968,421.831701 C380.950177,419.96104 381.088024,418.387054 382.486102,416.307149 L382.659945,416.05508 C382.784959,415.878199 382.908758,415.694032 383.033624,415.499017 L383.285458,415.093467 L383.544199,414.652655 C383.588124,414.575896 383.632506,414.497404 383.677429,414.417047 L383.954143,413.911468 L384.402461,413.055317 L385.743516,410.381165 L386.062455,409.762984 L386.356476,409.213542 C386.498666,408.953664 386.634683,408.714296 386.76928,408.487538 C387.615896,407.061233 388.383812,406.167847 389.319492,405.749702 C390.638777,405.160128 391.933246,405.674715 392.997811,407.056385 L393.145105,407.249395 L393.592078,407.857591 L393.908058,408.30578 L394.436533,409.07899 L395.863821,411.197692 L396.232913,411.73014 L396.461657,412.04922 L396.66196,412.316965 L396.904651,412.621256 L397.144448,412.899452 L397.338781,413.113374 C398.483033,414.354089 398.93887,414.394557 399.794619,413.25953 C401.696609,410.428816 404.021368,407.906452 406.666918,405.797434 C408.12803,404.579841 409.743358,404.57842 411.464633,405.529389 C412.012256,405.831939 412.568388,406.221215 413.241819,406.75697 L413.696586,407.126969 L415.541876,408.674043 C416.086321,409.122434 416.557784,409.490374 417.020842,409.822933 C417.832318,410.40572 418.551951,410.785661 419.108814,410.940944 C419.494936,411.048615 419.681116,411.03038 419.734709,410.987347 C419.828343,410.912163 419.931988,410.620483 419.935519,410.023746 C419.940151,409.240811 419.750467,408.162429 419.349803,406.810147 L419.245233,406.466383 C418.682781,404.662966 418.266601,402.839162 418.003991,401.07394 L417.900868,400.321233 C417.245117,395.080616 417.98088,390.468767 420.305199,388.61785 L420.473926,388.490365 C420.84115,388.227467 421.133979,387.880684 421.526794,387.233039 L421.752021,386.848637 L422.185142,386.063634 C424.278514,382.241057 426.617948,380.970306 431.837618,382.510844 L432.154275,382.606652 C439.710214,384.947512 445.776152,384.595133 448.786523,382.193242 Z" id="Path" fill="#FFFFFF" fill-rule="nonzero"></path>
            <path d="M383.033769,326.448517 C385.031687,325.102556 386.562344,324.978638 388.312362,325.745489 L388.60266,325.877926 L389.259481,326.198719 C390.803448,326.951495 391.86459,327.115609 393.748923,326.540277 L394.03791,326.448412 C396.300013,325.7024 398.332929,325.473996 400.678165,325.609561 L401.493164,325.668842 L402.137224,325.730865 L403.118152,325.848705 L404.456534,326.022457 C407.36547,326.403754 409.149989,326.53285 411.374683,326.413507 L411.797353,326.388219 L411.961472,328.882827 C409.797912,329.025166 408.084648,328.962259 405.738052,328.698465 L404.690433,328.573124 L402.238585,328.258926 L401.576076,328.186565 L400.96019,328.134148 C398.871937,327.973845 397.142673,328.115963 395.233058,328.692413 L394.820898,328.822634 C392.074154,329.728475 390.329936,329.501945 388.163867,328.445857 L387.441803,328.094999 L387.308976,328.035297 C386.34335,327.612163 385.704859,327.65413 384.433542,328.519156 L384.237979,328.655127 L384.147524,328.713591 C380.945848,330.592507 378.450731,333.465882 377.038004,336.890715 L376.885508,337.273499 L376.836783,337.383993 C376.56159,337.934379 376.294082,338.541152 376.004914,339.260412 L375.709992,340.01666 L374.685055,342.714688 L374.639776,342.82928 C373.745309,345.064371 373.028218,346.2171 371.836905,346.682983 C370.27409,347.294148 368.828938,346.344054 367.275861,344.092331 L364.712331,340.20938 L364.212952,339.4643 L363.751121,338.787786 L363.317565,338.167157 L362.90301,337.58973 C359.996826,333.6019 357.883064,332.122732 355.844156,332.802368 C353.729575,333.507228 351.953671,333.757555 349.646653,333.777451 L348.421851,333.770214 L347.163915,333.749633 L346.522743,333.744357 L345.949299,333.745973 L345.426762,333.755341 L344.938309,333.773319 C344.779303,333.780843 344.623175,333.789945 344.46712,333.800768 L343.996374,333.838545 L343.509249,333.88751 C342.274533,334.022698 341.28949,333.947782 340.013095,333.711133 L339.236072,333.566861 L339.010223,333.531664 L338.824258,333.512777 C338.460369,333.491184 338.336658,333.600622 338.188742,333.946253 L338.117792,334.122929 L337.942474,334.586098 C337.774143,335.021497 337.600388,335.579296 337.416435,336.27988 C336.68279,339.073976 334.011037,340.110178 330.042945,339.963054 L329.438089,339.932182 C329.335686,339.925582 329.232493,339.918259 329.128519,339.910225 L328.495398,339.853536 L327.844035,339.780175 C327.733981,339.766583 327.623187,339.752314 327.511663,339.737377 C325.961138,339.52971 324.319497,339.194606 322.643013,338.767284 C321.622685,338.507211 320.651126,338.228738 319.759363,337.950002 L318.919901,337.679144 L318.607307,337.572625 L319.438309,335.21478 L319.891499,335.367401 L320.505197,335.563847 C321.356523,335.829944 322.285822,336.096305 323.2605,336.344742 C324.849347,336.749727 326.398694,337.06599 327.843534,337.259502 C332.034956,337.820874 334.576403,337.252153 334.998399,335.644977 C335.20434,334.86065 335.404835,334.217011 335.610675,333.684593 C336.545641,331.266242 337.483809,330.79988 339.801502,331.14087 L340.238409,331.21151 L340.468838,331.253024 C341.525882,331.449004 342.284318,331.506687 343.237152,331.402362 L343.508516,331.37381 L344.031457,331.326187 C344.11715,331.319263 344.202358,331.312832 344.287446,331.306873 L344.799499,331.276628 L345.326361,331.256748 L345.885688,331.246256 L346.824168,331.245988 L349.156286,331.2783 C351.462745,331.289777 353.079437,331.088709 355.053587,330.430659 C358.511339,329.278075 361.425222,331.317152 364.923416,336.117332 L365.355191,336.718661 L365.804385,337.361527 L366.532075,338.432625 L369.194929,342.468011 C369.795209,343.36843 370.302456,343.943739 370.694492,344.216848 L370.823671,344.303378 L370.893113,344.34381 L370.921614,344.354905 C370.923997,344.35524 370.925457,344.355052 370.926386,344.354688 C371.189754,344.251694 371.641894,343.542675 372.216146,342.152777 L372.423171,341.633244 L373.530774,338.71742 C373.849545,337.904079 374.143858,337.212107 374.44779,336.578305 L374.574,336.318 L374.714935,335.966478 C376.277508,332.160964 379.004251,328.946888 382.504246,326.785035 L382.827,326.59 L383.033769,326.448517 Z" id="Path" fill="#FFFFFF" fill-rule="nonzero"></path>
            <path d="M521.174183,484.206724 L524.104774,486.580728 C528.136659,489.903299 530.153184,492.492257 530.265123,495.742854 L530.27006,496.031424 C530.27006,500.299743 532.304645,504.295263 533.679798,503.809915 L534.375176,503.569441 L535.436948,503.216963 L536.056022,503.017453 C536.84336,502.76605 537.671856,502.509713 538.510536,502.256277 L540.850625,501.56438 L541.539888,503.967486 L540.064666,504.400209 C538.956583,504.730031 537.84875,505.069375 536.816466,505.398992 L535.919855,505.689344 L535.180859,505.93606 L534.511848,506.16739 C530.683463,507.518585 527.77006,501.797242 527.77006,496.031424 C527.77006,493.71927 526.215286,491.609763 522.836949,488.777689 L522.429157,488.4398 L519.760225,486.276201 C518.970963,485.618483 518.274424,485.56268 517.026927,486.393185 L516.750939,486.58482 L516.456677,486.804209 L516.142734,487.051973 L515.807702,487.328735 L515.262535,487.799608 L514.868625,488.151584 L514.4487,488.534734 L513.766957,489.16927 L513.002045,489.887075 L512.525044,490.324383 L512.084721,490.71627 L511.671622,491.070041 L511.276293,491.392999 C511.146427,491.496327 511.017948,491.595738 510.889279,491.692447 L510.501127,491.975691 C509.665489,492.567602 509.041373,493.139262 508.559813,493.732159 C508.003265,494.41738 507.655123,495.071414 507.204474,496.215494 L506.606394,497.767227 L506.380646,498.337243 L506.248011,498.66048 L506.065231,499.083601 L505.889113,499.460748 L505.768322,499.702256 L505.571445,500.073057 L505.257348,500.632588 C504.040144,502.762694 502.495597,503.883936 499.699337,504.69628 L499.142247,504.849839 C499.046711,504.874852 498.949811,504.899591 498.851514,504.924078 L498.244741,505.06818 C498.140739,505.091757 498.035278,505.115131 497.928329,505.138325 L497.268522,505.275507 L496.571498,505.409486 L495.835766,505.54139 L492.976674,506.022742 L491.979673,506.213758 C490.422633,506.529237 489.705186,507.120979 488.583864,508.849427 L488.246217,509.383241 C486.634863,511.97597 485.484644,513.083266 482.979033,513.640069 L481.308195,513.993242 L479.166412,514.431306 C478.709089,514.536164 478.411414,514.629023 478.129746,514.754645 L477.883957,514.873767 L477.707914,514.970558 L477.514506,515.086199 L477.297205,515.224932 L476.912171,515.48561 L476.254226,515.953598 L475.848606,516.248743 C475.396796,516.579099 474.948632,516.863469 474.489324,517.112522 C473.620106,517.583842 472.762813,517.912187 471.556656,518.262077 L468.012265,519.227873 L467.760865,519.299795 C466.202005,519.753543 464.66184,520.272163 462.925257,520.949272 C461.241494,521.605785 460.712588,522.137248 460.716954,522.605586 C460.717715,522.687207 460.725465,522.768039 460.743541,522.85474 L460.778816,522.990029 L460.832083,523.139119 L460.905843,523.307007 L461.002599,523.498687 L461.124855,523.719156 L461.361523,524.114765 L461.669641,524.603248 L462.057655,525.201465 C463.546133,527.47751 464.101293,528.913164 463.691823,530.769429 L463.554509,531.424253 C463.531962,531.537201 463.509445,531.652665 463.48675,531.771559 L463.36168,532.449622 L463.182662,533.463952 C462.402208,537.870898 461.3955,539.897173 458.183107,541.813091 L457.341923,542.302674 L455.162077,543.613214 L454.629799,543.92297 C453.961754,544.302098 453.446153,544.551843 452.912695,544.745828 C451.419295,545.288882 449.958135,545.293368 447.730244,544.771081 L446.988717,544.591657 L446.383893,544.457961 L445.708278,544.322777 L444.92263,544.177439 L443.295128,543.889477 L442.330637,543.71248 L441.420393,543.537805 L440.559903,543.363621 C439.862311,543.218165 439.211867,543.071314 438.596873,542.9183 L437.875148,542.731421 C435.756528,542.160078 434.036696,541.484154 432.169865,540.481214 L431.541394,540.134483 C431.32959,540.014666 431.115222,539.890506 430.897543,539.761699 L430.233818,539.361029 L431.543467,537.231518 L431.859608,537.424145 L432.476369,537.788673 C432.881431,538.022791 433.275314,538.239524 433.664297,538.441358 L434.244882,538.733247 C436.076734,539.62415 437.868864,540.206987 440.294168,540.748426 L441.081885,540.918341 L441.916406,541.087371 L442.80244,541.25738 L443.744696,541.430235 L445.426598,541.727958 L446.305062,541.891754 L447.06314,542.046395 C447.142647,542.063508 447.220908,542.080673 447.298248,542.097961 L447.753875,542.203765 L447.978322,542.258883 C449.968308,542.756379 451.020916,542.773588 452.058338,542.396344 C452.350149,542.290231 452.654296,542.151098 453.028048,541.951558 L453.427122,541.730867 C453.498208,541.690391 453.571758,541.647984 453.648037,541.603518 L454.618156,541.022173 L455.458917,540.513685 L456.076755,540.146434 L456.67399,539.799596 C459.243196,538.326081 459.992084,536.978453 460.660386,533.362987 L460.959037,531.687886 C461.008042,531.421038 461.055647,531.171325 461.103632,530.931058 L461.250513,530.230905 C461.456538,529.296927 461.13636,528.399094 460.122636,526.812953 L459.506781,525.863117 L459.133762,525.270414 C459.09676,525.210085 459.061187,525.151465 459.026992,525.094419 L458.837951,524.769964 L458.679514,524.476863 C458.65552,524.430269 458.632699,524.384713 458.610999,524.340061 L458.493829,524.081935 C458.354434,523.749379 458.280158,523.457562 458.244619,523.137882 L458.224815,522.891827 C458.220359,522.807353 458.217913,522.720065 458.217063,522.628893 C458.200858,520.890742 459.473697,519.611749 462.017079,518.620063 C463.598688,518.003381 465.02894,517.511258 466.452206,517.080468 L467.197329,516.860464 L468.296824,516.555579 L470.514142,515.959264 C471.756006,515.613896 472.536236,515.32768 473.297652,514.914814 C473.657419,514.719736 474.010846,514.495479 474.37302,514.230663 L475.030947,513.753711 L475.571961,513.37258 L475.881132,513.163458 L476.158511,512.984523 C476.20254,512.95694 476.24558,512.930408 476.287799,512.904824 L476.532616,512.761867 L476.765808,512.636694 L476.995443,512.524346 C477.033868,512.506414 477.07248,512.48881 477.111448,512.471431 C477.484367,512.305111 477.856065,512.18083 478.318562,512.064011 L478.607692,511.994539 L481.476551,511.40511 L482.225224,511.246037 L482.436707,511.199601 C484.048449,510.841436 484.77323,510.193428 485.96471,508.315594 L486.157952,508.007166 C487.735945,505.467791 488.857869,504.358944 491.216033,503.821011 L491.663613,503.727411 L492.458751,503.575761 L493.229199,503.441604 L495.397716,503.080017 L496.428302,502.892156 C496.53739,502.871188 496.644707,502.850167 496.750293,502.82907 L497.363324,502.701408 C497.462132,502.679921 497.559284,502.658315 497.654816,502.636567 L498.208884,502.504206 C498.387299,502.459401 498.559538,502.413855 498.725904,502.367389 L499.207684,502.225062 C501.221655,501.59484 502.293965,500.779597 503.08674,499.392241 L503.362637,498.900802 L503.536039,498.573771 L503.695589,498.249209 L503.854678,497.897288 L503.967095,497.632745 L504.225042,496.992057 L504.754264,495.61945 C505.34985,494.061227 505.813562,493.147981 506.619258,492.15601 C507.180225,491.465348 507.867897,490.815823 508.726155,490.175417 L509.056084,489.93563 C509.339189,489.735098 509.617897,489.52203 509.913976,489.279261 L510.279004,488.972584 L510.669068,488.630802 L511.092527,488.247325 L513.08973,486.376739 L513.892979,485.642876 L514.289946,485.295367 L514.641073,485.003126 C514.678082,484.973291 514.714514,484.944262 514.750459,484.915966 L514.961,484.754422 L515.264371,484.537525 L515.46465,484.404804 L515.772963,484.214848 L516.103764,484.025416 C517.890359,483.031091 519.613449,483.014193 521.174183,484.206724 Z" id="Path" fill="#FFFFFF" fill-rule="nonzero"></path>
        </g>
    </g>
</svg>