<?xml version="1.0" encoding="UTF-8"?>
<svg width="528px" height="600px" viewBox="0 0 528 600" version="1.1" xmlns="http://www.w3.org/2000/svg" xmlns:xlink="http://www.w3.org/1999/xlink">
    <title>sulawesi-selatan</title>
    <defs>
        <polygon id="path-1" points="21.3289212 130.177424 22.7140129 128.45687 25.6836008 124.699441 28.9925073 120.536867 29.6214309 118.780095 28.6366635 117.364845 27.3359884 117.177559 26.2381608 115.956342 26.2381608 113.569545 28.036246 105.824434 28.6366635 98.7892211 28.6366635 96.9385305 31.0554097 99.6479835 33.4072286 100.084388 35.2935862 98.2641312 37.2216756 94.7776263 37.9305064 89.5856929 37.2216756 85.2698398 33.4072286 76.537592 32.4470262 73.4486352 32.9821286 70.1912292 36.0991603 65.3443529 37.9305064 63.2742504 40.510276 62.8660848 42.3250651 63.2742504 45.4598535 64.8567618 48.4191017 66.2771309 50.3357645 66.747857 51.7846203 66.2771309 54.4143008 61.0510557 56.2957978 54.457058 56.8659338 49.0186896 57.4439884 45.6787386 57.4439884 43.548647 55.6733513 40.6646129 51.7846203 35.8834846 47.78239 28.444601 46.6613145 24.4966008 47.0994746 20.848546 51.2670347 14.7027866 53.6216677 11.597101 58.2172734 11.597101 64.8290895 10.5028501 78.8649473 6.32164523 85.8813209 4.39638096 97.2417489 3.51882876 104.077697 1.42947063 109.065062 -2.25821834e-16 113.162742 0.419865647 120.270261 5.3193506 124.739058 10.5028501 127.968456 14.0704779 133.889828 16.9589292 143.792663 19.7243648 150.740062 20.848546 154.606923 24.4966008 157.313806 30.0825173 158.562271 32.0175568 161.539038 33.2237891 173.417952 33.2237891 183.938598 30.0825173 187.945757 29.7867283 191.011186 30.0825173 194.355525 32.297082 198.703537 37.5834207 203.892414 42.3210881 208.479108 45.6787386 210.100815 48.2371614 211.376161 49.8190321 217.329841 52.2946409 224.269296 54.457058 227.527228 56.690939 227.527228 59.1399053 226.261917 62.0832257 222.522456 71.6110641 220.923093 76.537592 217.830668 80.3877823 214.370338 82.2033532 210.65116 83.8499747 206.872216 84.4275002 203.355393 84.4275002 197.886663 83.0385865 188.990726 81.6214154 169.119114 78.4401814 131.180884 73.4486352 109.065062 89.5856929 127.968456 138.088272 113.162742 273.135391 109.065062 302.504831 77.6851007 310.299827 58.2172734 310.299827 -9.09494702e-13 304.170415 -9.09494702e-13 275.75634 15.9910892 190.998629"></polygon>
    </defs>
    <g id="website" stroke="none" stroke-width="1" fill="none" fill-rule="evenodd">
        <g id="sulawesi-selatan" transform="translate(-0.000000, 0.000000)">
            <path d="M332.378413,206.303052 C332.03699,208.096053 331.252225,209.775085 330.095655,211.187094 C327.560326,212.950092 324.429966,213.637244 321.38932,213.098241 C318.302453,212.5505 315.151437,213.634288 313.054597,215.964961 C311.939761,217.663758 311.992849,220.158866 310.506401,221.273701 C309.019954,222.388537 306.365584,222.547799 304.879136,223.981159 C304.237673,224.767266 303.751275,225.668002 303.445776,226.63553 C296.650588,243.464238 278.17617,247.551968 268.726612,261.938656 C264.479619,268.415319 262.196861,277.864878 254.552274,279.298238 C250.573848,279.39541 246.622765,278.616068 242.979219,277.015479 C239.050751,275.953731 234.113622,276.219168 232.361737,279.722937 C230.981465,282.218045 231.618514,285.668727 229.65428,287.792223 C227.690046,289.915719 222.168955,288.482359 219.567672,285.668727 C216.966389,282.855094 214.258931,279.085888 210.5959,278.714276 C205.28716,278.130315 201.624128,285.40329 203.694537,290.393506 C206.362449,295.228686 211.022012,298.645699 216.435515,299.73689 C221.768219,300.809 226.906065,302.6887 231.671601,305.311068 C242.819957,312.955654 244.359492,331.854772 257.472081,335.411628 C259.532072,335.661867 261.519232,336.330275 263.311696,337.375862 C266.868552,340.189495 264.851231,345.869847 266.072241,350.276102 C268.620437,359.93801 285.714582,360.893583 286.563981,370.661666 C286.563981,370.661666 265.912979,382.075459 258.056043,379.261827 C250.199106,376.448194 245.739764,372.997512 235.706244,369.97153 C245.739764,364.981314 241.758209,359.93801 247.597823,349.851403 C253.437438,339.764795 234.697583,341.835204 231.671601,336.738813 C228.645619,331.642422 221.638081,328.722614 215.745379,320.812591 C209.852677,312.902567 202.685877,320.812591 190.581948,320.812591 C178.478019,320.812591 179.539767,321.821251 176.460697,314.017403 C173.381628,306.213554 167.435838,309.77041 155.225734,304.727106 C143.01563,299.683802 148.165109,299.73689 139.299512,291.402167 C130.433915,283.067444 126.186922,291.402167 114.136081,291.402167 C102.085239,291.402167 92.9011177,299.73689 74.9575739,299.365278 C69.6488331,306.69134 65.9327146,308.761749 69.6488331,317.839696 C73.3649516,326.917643 80.2663146,326.864555 78.6736924,335.942502 C77.0810702,345.020449 75.4353605,357.177465 69.7550079,354.045308 C64.0746553,350.913151 59.9869249,348.736567 56.9609427,354.470007 C53.9349605,360.203447 51.917639,360.097272 56.9609427,369.122132 C62.0042464,378.146991 57.916516,388.233598 53.881873,388.233598 C49.8472301,388.233598 49.9003175,376.182757 49.9003175,388.233598 C49.9003175,400.28444 44.8570138,404.849957 49.9003175,405.593181 C54.9436212,406.336404 43.4236537,416.688449 43.4236537,416.688449 C40.3976715,417.431673 38.6457871,420.723092 35.8321545,421.99719 C32.4345055,422.976678 28.7721971,422.200428 26.0640715,419.926781 C23.2107548,417.646692 20.0911648,415.721459 16.7737751,414.193341 C13.0228292,413.498846 9.31757226,412.576964 5.67850693,411.432796 C-0.479632355,408.088289 -0.904331616,399.381954 1.00681506,392.639853 C2.91796173,385.897752 6.31555582,379.208739 5.30689508,372.360464 C3.71427285,362.963992 -5.31058645,348.842742 8.06744027,343.905613 C13.376181,342.047554 19.1096211,341.782117 23.2504389,338.172173 C27.0765102,333.761665 29.1207831,328.083129 28.9838789,322.245951 C29.2204186,317.082832 28.9537236,311.908948 28.1875678,306.797515 C27.8759882,304.976795 28.1943205,303.104252 29.0900537,301.488774 C29.8863648,300.373939 31.1604626,299.789977 31.9567737,298.834404 C34.9827559,295.22446 30.948113,289.172496 33.6024833,285.297115 C35.0889308,283.067444 38.114913,282.589657 40.1322345,280.784685 C42.8434632,277.14053 43.0333347,272.20387 40.6100211,268.362232 C38.1905237,264.637701 36.664379,260.404466 36.1506789,255.992866 C36.1506789,251.374262 39.6544478,247.445793 40.0260597,242.880276 C40.3976715,238.314759 38.1680004,233.696155 39.7075352,229.767687 C41.24707,225.839218 44.3261397,224.458946 45.6533249,221.008264 C46.9805101,217.557583 46.449636,214.000727 49.050919,211.983405 C52.7670375,209.22286 58.3943027,213.363678 62.5351205,211.346356 C66.6759383,209.329035 66.0388894,204.126469 65.6141901,199.932564 C65.1089771,194.341487 65.2693618,188.710201 66.0919768,183.156943 C66.3574138,181.564321 67.2068124,179.653174 68.6932598,179.86553 C69.2200185,179.962069 69.7029708,180.222121 70.0735324,180.608747 C74.173397,184.156671 76.4552153,189.363897 76.2847591,194.783085 C75.9470911,196.71152 76.1491905,198.695768 76.8687205,200.516525 C78.7798672,203.648682 84.088608,202.268409 85.7343176,198.97699 C86.9487655,195.542013 86.9487655,191.794486 85.7343176,188.359509 C83.6108213,179.918611 81.3811502,171.477713 79.2576539,162.983728 C77.1341576,154.489743 74.7452242,142.810513 80.7441013,135.272101 C86.7429784,127.733689 85.0441813,118.443393 86.5306287,109.790145 C87.4862021,104.269055 88.4417754,98.6948772 89.3973487,93.067612 C89.679238,90.8150287 90.2872596,88.6154211 91.2023206,86.5378609 C93.1665547,82.8748298 97.0419354,80.5389838 99.6963058,77.2475645 C100.612303,75.7469246 101.698983,74.3573983 102.934638,73.1067468 C106.066795,70.4523764 110.844661,71.0363379 114.34843,68.9128416 C116.36839,67.4127298 118.157059,65.6240602 119.657171,63.6041008 C125.123429,57.207551 133.737218,54.4527832 141.900795,56.4903882 C154.429423,50.4915111 168.444499,42.4753126 170.727257,28.725674 C171.364306,24.425594 172.213705,18.1081925 176.566872,18.3736295 C180.920039,18.6390665 181.875613,23.0984088 184.742333,24.956468 C186.663869,25.8622785 188.778692,26.2815969 190.900472,26.1774784 C201.969167,27.3035661 212.790661,30.170187 222.965266,34.6714636 L260.126452,49.2174133 C260.126452,49.2174133 232.733349,53.1458815 226.734472,59.197846 C220.735595,65.2498104 218.718274,57.2336119 209.640327,59.197846 C200.56238,61.16208 205.605684,65.2498104 199.55372,69.2844534 C193.501755,73.3190964 195.519077,82.3439557 195.465989,88.9267942 C192.792449,90.8877109 189.735288,92.2625286 186.494217,92.9614372 C181.281223,92.7818013 176.245729,91.0230808 172.054442,87.9181335 C163.891409,83.6895278 154.561559,82.2713907 145.510739,83.8834905 C133.236806,86.3740561 122.472203,93.6779253 115.622528,104.16288 C106.989047,118.524965 103.106372,135.244614 104.52726,151.941547 C104.898083,162.672349 106.320557,173.340906 108.774253,183.793992 C110.419962,190.429918 113.021245,197.75598 119.391734,200.569612 C123.769482,201.736876 128.221339,202.605964 132.716673,203.170895 C144.289728,206.833927 147.262623,221.273701 149.598469,233.165281 C150.009893,236.366144 151.214261,239.413562 153.102238,242.030878 C156.776705,245.215177 161.514033,246.901666 166.37409,246.755657 C179.858291,247.817405 196.156125,246.755657 202.685877,234.864078 C206.401995,228.06889 205.658771,219.25638 210.118114,212.885891 C214.577456,206.515402 224.770238,203.861032 233.423486,203.967207 C242.076733,204.073381 250.995418,205.559829 259.277053,203.011633 C263.311696,201.737535 266.868552,199.507864 270.797021,197.968329 C275.030943,196.464713 279.380975,195.310623 283.803435,194.517648 L295.004878,192.181802 C305.222348,189.412707 315.801484,188.21338 326.379536,188.624946 C327.038894,188.659004 327.670627,188.900549 328.184508,189.315082 C328.662295,189.739781 328.76847,190.323743 329.140082,190.854617 C329.754991,191.603169 330.469452,192.264045 331.263578,192.818851 C334.714259,195.685571 333.705599,201.84371 332.378413,206.303052 Z" id="Path" fill="#A0A0A0" fill-rule="nonzero"></path>
            <path d="M346.818188,484.268719 C345.72159,487.920126 342.086899,490.191808 338.324203,489.57746 C334.645341,488.912428 331.073643,487.751626 327.706722,486.126778 C324.299838,484.525331 320.319386,484.724354 317.08924,486.657652 C316.066727,487.679467 314.966267,488.620183 313.797821,489.471285 C312.132961,490.211992 310.293343,490.469538 308.48908,490.214508 C301.841413,489.816416 295.175882,489.816416 288.528215,490.214508 C285.330061,490.280158 282.182012,491.021939 279.291006,492.391092 C275.56421,494.860526 272.690541,498.420168 271.062458,502.583874 C268.462306,508.032847 266.399829,513.72244 264.904318,519.571845 C264.631676,521.240654 263.937288,522.812165 262.886997,524.137362 C261.607088,525.201658 260.032794,525.849897 258.374567,525.995421 C252.134601,526.379068 245.882394,525.47557 240.006324,523.341051 C234.074618,522.441272 228.77514,519.138699 225.3542,514.210017 C221.001032,505.34442 229.972804,495.3109 229.282668,485.489729 C228.797596,481.98879 227.720483,478.595882 226.097423,475.456209 C224.823326,472.854926 223.655403,470.147468 222.434392,467.440011 C221.531906,465.528864 220.62942,463.617717 219.673847,461.759658 C216.257006,453.768971 209.564111,447.637041 201.305604,444.93095 C198.784806,444.659508 196.336514,443.92142 194.085717,442.754366 C188.139927,438.454286 192.970881,428.686203 190.316511,421.891015 C188.193014,416.157575 181.079302,413.343942 179.327417,407.504327 C178.505402,403.037818 179.733241,398.438293 182.671924,394.975699 C185.639266,391.695334 188.287868,388.140164 190.581948,384.358218 C193.288613,378.497491 193.288613,371.744526 190.581948,365.8838 C187.846303,360.101575 183.680191,355.113205 178.478019,351.390938 C176.120219,349.262217 173.144457,347.941722 169.984034,347.621732 C168.072887,347.621732 166.214828,348.205693 164.303681,348.364955 C162.392534,348.524217 158.99494,347.727906 156.393657,347.621732 C147.581148,347.143945 140.042736,353.514434 133.512984,359.460223 C129.650198,362.567216 126.3775,366.343406 123.851076,370.608579 C121.329268,374.934723 121.228819,380.258549 123.585639,384.676742 C124.781456,386.164537 125.830403,387.764625 126.717796,389.454609 C127.065553,391.652916 127.065553,393.892228 126.717796,396.090535 C126.293097,407.291978 139.724211,416.210662 137.335278,427.093581 C136.114267,432.402322 131.177139,436.967839 132.026537,442.329667 C132.504324,445.780348 135.211782,448.540893 135.955005,451.938488 C137.229103,457.83119 132.238887,463.193018 131.654925,469.191895 C131.070964,475.190772 134.150033,481.667436 129.849953,485.118117 C128.35862,485.949905 126.953734,486.92799 125.656048,488.037925 C124.217027,490.496964 124.03948,493.495539 125.178261,496.107211 C127.142496,503.274011 129.053642,510.493898 131.070964,517.713786 C132.009964,523.652574 130.965081,529.735285 128.098069,535.02028 C126.770884,538.09935 124.435038,540.647546 122.789328,543.620441 C120.922966,546.475926 120.68148,550.098211 122.152279,553.176174 C122.842416,554.397184 123.957251,555.29967 124.541213,556.467593 C125.656048,558.750352 124.859737,561.457809 125.337524,563.89983 C125.868398,567.244337 128.522768,569.84562 129.265992,573.083952 C129.793789,576.730848 128.52846,580.408211 125.868398,582.95821 C123.193378,585.390857 120.146643,587.380196 116.843538,588.850912 C105.217396,594.690527 92.2109814,600.689404 79.6823532,596.973285 C76.7094583,596.070799 73.8958257,594.637439 70.9760183,593.575691 C58.3943027,589.010174 44.4323145,591.452195 31.21355,590.549709 C28.9961713,590.513229 26.8167388,589.968371 24.8430611,588.957087 C19.5343203,585.718755 19.9059322,577.649469 22.1356033,571.756767 C27.4523402,559.216409 35.8968982,548.24945 46.6619856,539.904322 C50.0595797,537.090689 53.881873,533.79927 54.0411353,529.28684 C54.0411353,526.154683 52.3954256,523.128701 52.5546879,519.996544 C52.5546879,515.059415 58.3943027,511.874171 62.2696835,507.680266 C66.9460639,502.499058 68.5585327,495.242948 66.5166761,488.568799 C69.1710464,479.490852 61.5795472,468.554846 61.6326346,459.0522 C61.8462539,457.268677 61.683489,455.460179 61.1548479,453.743459 C60.0150776,451.952077 58.4456929,450.473936 56.5893308,449.443379 C52.7911454,446.516838 50.4635414,442.074993 50.2188419,437.286363 C49.9534049,432.986283 51.4398523,428.73929 51.0682404,424.492298 C50.6966286,420.245305 46.9805101,415.626701 42.8396923,416.582274 C42.8396923,416.582274 54.4127471,406.283317 49.316356,405.487006 C44.2199649,404.690695 49.316356,400.178265 49.316356,388.127424 C49.316356,376.076582 49.316356,388.127424 53.2979116,388.127424 C57.2794671,388.127424 61.3671975,378.093904 56.3769812,369.015957 C51.3867649,359.93801 53.4040864,359.991098 56.3769812,354.363832 C59.349876,348.736567 63.7030435,351.072413 69.0117842,354.098395 C74.320525,357.124378 76.3378465,345.020449 77.9304687,335.995589 C79.5230909,326.97073 72.3562909,326.917643 68.9056094,317.892783 C65.4549279,308.867924 69.2772213,306.744428 74.2143502,299.418365 C92.2109814,299.789977 101.288928,291.242905 113.392857,291.455254 C125.496786,291.667604 129.319079,283.173619 138.556288,291.455254 C147.793497,299.73689 142.537844,299.789977 154.48251,304.780194 C166.427177,309.77041 172.585316,306.213554 175.717474,314.07049 C178.849631,321.927426 177.787882,320.865678 189.838724,320.865678 C201.889565,320.865678 209.003278,312.902567 215.002155,320.865678 C221.001032,328.828789 228.114745,331.854772 230.928377,336.7919 C233.74201,341.729029 252.800389,339.87097 246.8546,349.90449 C240.90881,359.93801 244.99654,365.034401 234.96302,370.024618 C244.99654,373.0506 249.562058,376.501281 257.312819,379.314914 C265.063581,382.128547 286.670155,370.874016 286.670155,370.874016 C287.519554,380.535924 283.060212,389.189172 283.591086,398.904167 C284.128179,401.881592 284.377071,404.903849 284.33431,407.929027 C283.818417,410.255968 283.089827,412.53059 282.157726,414.724215 C280.148211,422.163491 282.8838,430.075656 289.059089,434.68508 C290.439361,435.693741 291.925809,436.490052 293.359169,437.445625 C300.72883,442.273536 306.320858,449.375412 309.285391,457.671928 C309.74335,459.262725 310.520004,460.743786 311.56815,462.025095 C313.426209,463.776979 316.292929,463.776979 318.628775,464.732553 C322.82268,466.378262 325.158526,470.943779 329.246256,473.226538 C332.645101,474.582033 336.164545,475.612981 339.757563,476.305608 C343.579856,477.473531 347.295975,480.499513 346.818188,484.268719 Z" id="Path" fill="#A0A0A0" fill-rule="nonzero"></path>
            <g id="Path" transform="translate(20.592683, 287.821264)">
                <mask id="mask-2" fill="white">
                    <use xlink:href="#path-1"></use>
                </mask>
                <g id="Mask"></g>
                <path d="M326.225506,196.447454 C325.128907,200.098862 321.494216,202.370544 317.731521,201.756195 C314.052659,201.091164 310.48096,199.930362 307.114039,198.305514 C303.707156,196.704067 299.726703,196.90309 296.496558,198.836388 C295.474044,199.858203 294.373584,200.798919 293.205138,201.65002 C291.540278,202.390727 289.700661,202.648274 287.896397,202.393244 C281.24873,201.995152 274.583199,201.995152 267.935532,202.393244 C264.737378,202.458893 261.58933,203.200675 258.698323,204.569828 C254.971528,207.039261 252.097858,210.598904 250.469775,214.76261 C247.869623,220.211583 245.807146,225.901175 244.311636,231.75058 C244.038994,233.41939 243.344605,234.9909 242.294314,236.316097 C241.014406,237.380394 239.440111,238.028633 237.781885,238.174157 C231.541918,238.557804 225.289711,237.654306 219.413642,235.519786 C213.481935,234.620007 208.182458,231.317434 204.761517,226.388752 C200.40835,217.523155 209.380122,207.489635 208.689985,197.668465 C208.204914,194.167526 207.1278,190.774618 205.504741,187.634945 C204.230643,185.033662 203.06272,182.326204 201.84171,179.618746 C200.939224,177.707599 200.036738,175.796453 199.081165,173.938394 C195.664324,165.947707 188.971429,159.815777 180.712922,157.109685 C178.192123,156.838243 175.743832,156.100155 173.493034,154.933102 C167.547244,150.633022 172.378199,140.864939 169.723828,134.06975 C167.600332,128.33631 160.486619,125.522678 158.734735,119.683063 C157.912719,115.216554 159.140559,110.617029 162.079241,107.154435 C165.046584,103.874069 167.695186,100.318899 169.989265,96.5369532 C172.69593,90.6762267 172.69593,83.9232619 169.989265,78.0625354 C167.25362,72.2803109 163.087509,67.2919407 157.885336,63.5696731 C155.527536,61.4409523 152.551775,60.1204581 149.391351,59.8004672 C147.480204,59.8004672 145.622145,60.3844286 143.710998,60.5436909 C141.799852,60.7029531 138.402258,59.906642 135.800975,59.8004672 C126.988465,59.3226805 119.450053,65.6931694 112.920302,71.6389591 C109.057516,74.7459513 105.784817,78.5221414 103.258394,82.7873147 C100.736586,87.1134584 100.636136,92.4372843 102.992957,96.8554777 C104.188774,98.3432725 105.23772,99.9433608 106.125114,101.633344 C106.472871,103.831651 106.472871,106.070963 106.125114,108.26927 C105.700415,119.470713 119.131529,128.389398 116.742595,139.272316 C115.521585,144.581057 110.584456,149.146574 111.433855,154.508402 C111.911641,157.959084 114.619099,160.719629 115.362323,164.117223 C116.636421,170.009925 111.646204,175.371754 111.062243,181.370631 C110.478281,187.369508 113.557351,193.846171 109.257271,197.296853 C107.765938,198.12864 106.361052,199.106726 105.063366,200.21666 C103.624345,202.675699 103.446798,205.674274 104.585579,208.285946 C106.549813,215.452746 108.46096,222.672634 110.478281,229.892521 C111.417281,235.83131 110.372398,241.914021 107.505386,247.199016 C106.178201,250.278086 103.842355,252.826281 102.196646,255.799176 C100.330283,258.654662 100.088798,262.276947 101.559597,265.354909 C102.249733,266.57592 103.364569,267.478406 103.94853,268.646329 C105.063366,270.929087 104.267055,273.636545 104.744841,276.078566 C105.275715,279.423072 107.930086,282.024355 108.673309,285.262687 C109.201106,288.909583 107.935777,292.586947 105.275715,295.136945 C102.600695,297.569593 99.5539605,299.558931 96.250856,301.029647 C84.6247137,306.869262 71.6182988,312.868139 59.0896706,309.152021 C56.1167758,308.249535 53.3031432,306.816175 50.3833358,305.754427 C37.8016202,301.18891 23.839632,303.63093 10.6208675,302.728444 C8.4034888,302.691964 6.22405629,302.147106 4.25037857,301.135822 C-1.05836219,297.89749 -0.68675034,289.828204 1.54292078,283.935502 C6.85965767,271.395144 15.3042157,260.428186 26.0693031,252.083058 C29.4668972,249.269425 33.2891905,245.978006 33.4484528,241.465576 C33.4484528,238.333419 31.8027431,235.307437 31.9620053,232.17528 C31.9620053,227.238151 37.8016202,224.052906 41.6770009,219.859001 C46.3533814,214.677794 47.9658502,207.421684 45.9239936,200.747534 C48.5783639,191.669588 40.9868646,180.733582 41.0399521,171.230936 C41.2535714,169.447413 41.0908065,167.638914 40.5621654,165.922195 C39.4223951,164.130813 37.8530104,162.652671 35.9966483,161.622115 C32.1984629,158.695573 29.8708589,154.253729 29.6261594,149.465099 C29.3607224,145.165019 30.8471698,140.918026 30.4755579,136.671033 C30.1039461,132.424041 26.3878275,127.805436 22.2470098,128.76101 C22.2470098,128.76101 33.8200646,118.462053 28.7236735,117.665741 C23.6272824,116.86943 28.7236735,112.357001 28.7236735,100.306159 C28.7236735,88.2553176 28.7236735,100.306159 32.7052291,100.306159 C36.6867846,100.306159 40.774515,90.2726391 35.7842987,81.1946924 C30.7940824,72.1167457 32.8114039,72.1698331 35.7842987,66.5425679 C38.7571935,60.9153027 43.1103609,63.2511487 48.4191017,66.2771309 C53.7278425,69.3031131 55.745164,57.1991842 57.3377862,48.1743249 C58.9304084,39.1494656 51.7636084,39.0963782 48.3129269,30.0715189 C44.8622454,21.0466596 48.6845387,18.9231633 53.6216677,11.597101 C71.6182988,11.9687129 80.6962455,3.42164026 92.8001745,3.63398989 C104.904103,3.84633952 108.726397,-4.6476457 117.963606,3.63398989 C127.200815,11.9156255 121.945161,11.9687129 133.889828,16.9589292 C145.834495,21.9491455 151.992634,18.3922892 155.124791,26.2492255 C158.256948,34.1061619 157.1952,33.0444137 169.246041,33.0444137 C181.296883,33.0444137 188.410596,25.0813026 194.409473,33.0444137 C200.40835,41.0075249 207.522062,44.0335071 210.335695,48.970636 C213.149328,53.9077649 232.207707,52.0497056 226.261917,62.0832257 C220.316128,72.1167457 224.403858,77.2131369 214.370338,82.2033532 C224.403858,85.2293354 228.969375,88.6800169 236.720137,91.4936495 C244.470898,94.3072821 266.077473,83.0527517 266.077473,83.0527517 C266.926871,92.7146599 262.467529,101.367907 262.998403,111.082903 C263.535497,114.060327 263.784389,117.082585 263.741627,120.107762 C263.225734,122.434703 262.497144,124.709326 261.565043,126.90295 C259.555529,134.342226 262.291118,142.254392 268.466406,146.863816 C269.846679,147.872476 271.333126,148.668788 272.766486,149.624361 C280.136147,154.452271 285.728176,161.554148 288.692709,169.850663 C289.150667,171.44146 289.927321,172.922522 290.975467,174.203831 C292.833526,175.955715 295.700246,175.955715 298.036092,176.911288 C302.229998,178.556998 304.565843,183.122515 308.653574,185.405274 C312.052418,186.760768 315.571863,187.791717 319.164881,188.484343 C322.987174,189.652266 326.703292,192.678248 326.225506,196.447454 Z" fill="#29BB89" fill-rule="nonzero" mask="url(#mask-2)"></path>
            </g>
            <path d="M527.262287,0.111561275 C520.83871,8.02158501 514.362047,16.0377836 507.991558,23.5761954 C501.621069,31.1146073 494.188832,40.2456414 487.765256,48.9519763 C477.784823,62.4361778 468.441439,77.2475645 453.948577,85.6884624 C441.260686,93.1206994 426.077688,94.6602342 411.478651,96.3059439 L388.226366,98.535615 C378.756682,99.9466941 369.115627,99.7312516 359.718428,97.8985661 C355.896135,96.8899054 352.180016,95.2972831 348.357723,94.1824476 C341.844644,92.6604647 335.190177,91.8242083 328.503033,91.6873394 L295.429578,89.8292802 C289.752198,89.2397493 284.01706,89.5623508 278.441607,90.7848535 C273.965875,92.7374688 269.330098,94.3004894 264.585794,95.4565454 C256.091809,96.4121187 248.659572,90.6255913 240.802635,86.9625601 C226.140035,80.2934807 209.161315,81.1038736 195.200552,89.1391439 C195.200552,82.5563053 193.289405,73.531446 199.288283,69.496803 C205.28716,65.4621601 200.243856,61.4275171 209.37489,59.4101956 C218.505924,57.3928741 220.417071,65.4621601 226.469035,59.4101956 C232.521,53.3582311 260.126452,49.2174133 260.126452,49.2174133 C264.567188,51.2429469 269.294966,52.5681575 274.141527,53.1458815 C286.617068,54.1014548 299.198784,45.5012948 311.037276,49.3766755 C317.513939,51.5532593 322.291806,57.1274371 328.290683,60.5781186 C334.28956,64.0288001 343.314419,64.5065867 346.605839,58.5077097 C347.720674,56.4903882 348.145373,53.9421926 350.05652,52.827357 C351.347528,52.2199898 352.801934,52.0521737 354.197338,52.3495704 C375.432301,53.9421926 396.667264,55.5702064 417.902227,57.2336119 C422.488421,57.861946 427.15164,57.6278848 431.651866,56.5434756 C435.031865,55.2957676 438.270497,53.6942463 441.313774,51.7656089 C446.622515,48.8988889 452.24978,46.82848 457.558521,43.9086726 C469.609362,37.2727466 478.846571,25.9120414 489.464053,16.5155702 C500.081534,7.11909908 513.194124,-1.05636169 527.262287,0.111561275 Z" id="Path" fill="#A0A0A0" fill-rule="nonzero"></path>
            <path d="M377.821234,183.528555 C378.786312,188.351529 378.113713,193.358652 375.910088,197.75598 C375.266674,198.875556 374.817908,200.096197 374.582902,201.365924 C374.477244,202.655557 374.477244,203.951671 374.582902,205.241304 C374.763225,206.55085 374.213363,207.854226 373.149542,208.638898 C372.448572,208.945538 371.682403,209.073233 370.919871,209.01051 C367.575365,209.01051 363.487634,208.320374 362.478974,205.13513 C361.470313,201.949885 364.655557,198.074504 363.009848,195.101609 C361.805151,193.419893 359.733278,192.591143 357.701107,192.978113 C355.760906,193.406742 353.873785,194.047651 352.073842,194.88926 C349.874528,195.67975 347.562017,196.109985 345.225566,196.163358 C340.500787,196.534969 339.757563,185.917488 341.350185,182.519894 C342.942808,179.1223 346.658926,178.750688 350.428132,178.219814 C359.983865,176.892629 375.166864,167.761595 377.821234,183.528555 Z" id="Path" fill="#6A6768" fill-rule="nonzero"></path>
            <path d="M302.596378,516.652037 C302.914902,515.908814 302.596378,515.059415 303.180339,514.263104 C304.039283,512.761677 305.514534,511.713472 307.214982,511.396384 C310.873521,510.33607 314.757887,510.33607 318.416425,511.396384 C320.046952,511.750274 321.442436,512.796888 322.238719,514.263104 C322.82268,515.749552 322.238719,517.448349 322.61033,519.040971 C322.981942,520.633593 324.627652,522.33239 324.946176,524.349712 C325.6894,528.915229 318.894212,531.038725 317.248502,535.391892 C315.602793,539.74506 318.681862,543.620441 317.248502,547.336559 C315.815142,551.052678 310.931101,552.6453 309.92244,556.149069 C309.816782,557.438702 309.816782,558.734816 309.92244,560.024449 C309.631275,563.435797 307.434832,566.388633 304.251326,567.648537 C301.06782,568.90844 297.445516,568.258429 294.898704,565.970239 C290.406632,562.221934 287.660038,556.786366 287.307204,550.946503 C288.175322,544.411642 289.851553,538.009869 292.297421,531.888123 C292.598755,528.329199 293.647986,524.873972 295.37649,521.748429 C297.287637,519.571845 301.587717,519.67802 302.596378,516.652037 Z" id="Path" fill="#6A6768" fill-rule="nonzero"></path>
            <path d="M343.739119,518.722446 C343.670318,516.636383 343.957564,514.553852 344.588517,512.564307 C345.066304,511.396384 345.862615,510.334636 346.234227,509.166713 C346.488257,507.64537 346.824976,506.138995 347.242888,504.654283 C348.371993,502.26802 351.178509,501.192189 353.613376,502.212263 C355.818969,503.451719 357.119063,505.845543 356.957883,508.370402 C356.754899,510.833449 356.069449,513.232523 354.940562,515.431027 C353.702523,518.181082 352.673258,521.020433 351.861492,523.925012 C350.329887,530.037887 350.738057,536.475846 353.029415,542.346343 C353.211258,542.917435 353.540933,543.430263 353.984988,543.83279 C354.47477,544.150133 355.047123,544.3163 355.630698,544.310577 C360.514739,544.310577 366.248179,542.027818 369.805036,545.053801 C372.43878,547.556449 372.802571,551.626367 370.654434,554.556446 C368.458117,557.345655 365.125997,559.001972 361.576488,559.068876 C357.985733,559.121859 354.407171,558.638753 350.959006,557.635516 C347.73916,556.034073 343.830099,557.108493 341.881059,560.130624 L334.448822,568.996221 C333.871103,569.736026 333.14854,570.350205 332.325326,570.801193 C330.617152,571.393719 328.721113,570.83982 327.600547,569.420921 C326.529931,568.049022 325.785605,566.451444 325.423963,564.749229 C324.537795,562.410914 324.353294,559.864811 324.893089,557.423166 C326.114099,553.760135 329.77713,552.539125 332.219151,549.937842 C334.326819,547.461546 335.753848,544.479422 336.359969,541.284595 C339.120514,533.533833 343.314419,527.216432 343.739119,518.722446 Z" id="Path" fill="#6A6768" fill-rule="nonzero"></path>
            <path d="M325.264701,589.806485 L338.164941,591.13367 C337.129339,593.674516 335.574273,595.970951 333.599424,597.875771 C331.564478,599.733749 328.726314,600.433296 326.061012,599.73383 C323.384803,598.823785 321.891043,595.976306 322.663418,593.257167 C323.884428,590.337359 327.706722,589.753398 330.838879,589.594136" id="Path" fill="#6A6768" fill-rule="nonzero"></path>
            <path d="M265.435192,570.111057 C267.243562,572.293935 268.254635,575.027577 268.301912,577.861818 C268.300658,580.773314 266.226454,583.27128 263.364784,583.807608 C261.588413,583.822554 259.842672,583.344772 258.32148,582.427335 L251.685554,579.082829 C250.332202,578.653715 249.303995,577.544864 248.978096,576.163021 C247.279299,571.862941 245.739764,563.740568 251.367029,561.404722 C256.994295,559.068876 262.727735,566.448026 265.435192,570.111057 Z" id="Path" fill="#6A6768" fill-rule="nonzero"></path>
            <path d="M50.2476114,387.953046 L50.2478315,388.074336 C50.2478315,391.383719 49.9066842,394.26097 49.26291,397.326466 L49.047117,398.310012 L48.3453295,401.271893 L48.2887214,401.525175 L48.1931675,401.982592 C48.1791668,402.053649 48.1661162,402.122211 48.1539968,402.188418 L48.0923059,402.558529 C48.0499595,402.845286 48.0299576,403.080218 48.0299576,403.280929 L48.0358759,403.473388 C48.0702081,403.941374 48.2750853,404.062488 49.1819707,404.197556 C51.1228471,404.486622 51.879415,405.953643 51.3238058,407.741557 C50.9727792,408.871137 50.1185621,410.211076 48.8474224,411.775465 C48.3831004,412.346905 47.8685162,412.94036 47.3119672,413.55044 C46.4472208,414.498361 45.5235751,415.441101 44.6001848,416.337097 L43.9149373,416.993015 L43.3611552,417.507974 L41.6811804,415.656574 L42.1997422,415.174195 L42.6300178,414.764311 C42.704938,414.692283 42.7813825,414.618456 42.8592323,414.542916 C43.7486532,413.679882 44.6378186,412.772335 45.4650293,411.86556 C45.9911006,411.288889 46.4748943,410.730944 46.9071823,410.198928 C47.9194998,408.953071 48.607735,407.8963 48.8836448,407.153889 L48.9646923,406.913998 L49.0384133,406.724119 C49.0460366,406.700673 49.0437922,406.69133 49.0277147,406.687275 L48.8802283,406.678377 C48.8602231,406.676505 48.8380935,406.673915 48.8136924,406.670281 C46.6304934,406.345124 45.5299576,405.223514 45.5299576,403.280929 C45.5299576,402.664269 45.6293899,401.984566 45.8408575,401.016403 L46.6395415,397.623794 L46.668797,397.493962 C47.3206448,394.567582 47.6884953,391.883052 47.7412306,388.842293 L47.7478315,388.074336 L47.752709,384.933965 L47.7665678,383.86249 L47.7828541,383.345669 L47.7980711,383.07452 L47.8175558,382.85355 C47.8361555,382.684664 47.8608607,382.545292 47.9052092,382.405585 C47.9511199,382.260957 48.0137507,382.12504 48.1197715,381.983848 C48.3447754,381.684203 48.6961486,381.468407 49.1452966,381.468407 C49.5326702,381.468407 49.8244295,381.621665 50.0468668,381.838314 C50.1471135,381.935952 50.2191444,382.033658 50.2821601,382.139617 C50.3249677,382.211598 50.3615324,382.284379 50.3967273,382.3645 L50.4714043,382.548585 L50.5690492,382.822993 L50.8443274,383.646522 C50.8692341,383.719528 50.8932635,383.78916 50.9166578,383.856026 L51.0513394,384.22891 C51.0731619,384.28715 51.0948336,384.343842 51.1165967,384.399594 L51.2502102,384.727707 C51.2733078,384.782138 51.2969811,384.836846 51.3214725,384.892442 C51.8884429,386.179464 52.4802856,386.824336 52.9793871,386.824336 C54.2661994,386.824336 55.9166516,384.800642 56.6904353,381.699818 C57.6307633,377.931592 57.1203406,373.539012 54.95989,369.559234 L54.3883938,368.491034 L54.0405269,367.821816 L53.7187216,367.185046 L53.4225986,366.579109 L53.1517785,366.00239 L52.9058817,365.453272 L52.6845289,364.930142 C52.5450573,364.589692 52.4216955,364.26549 52.3139374,363.955382 L52.1639398,363.500521 C51.5641144,361.572933 51.6128604,360.195334 52.1712401,358.776284 C52.2011303,358.700322 52.243724,358.605784 52.2968566,358.495957 L52.4857072,358.123896 L52.7248055,357.679823 L53.1492599,356.921832 L53.9239503,355.577837 L54.7145826,354.211565 L54.8881568,353.901362 L54.9507698,353.784583 C56.6062554,350.61883 58.7887098,349.2553 61.5852546,349.536714 C61.9535184,349.573772 62.3114003,349.629592 62.6753488,349.709829 L63.0419289,349.798414 C63.5350231,349.927937 64.0486501,350.104216 64.6217993,350.340651 L65.0634308,350.529466 C65.1390992,350.562885 65.21585,350.597296 65.2937592,350.632725 L65.7757256,350.857733 L66.2891511,351.10844 L67.1262708,351.535433 L67.7343357,351.855883 L68.7305486,352.39338 L69.4560982,352.791424 C70.8900113,353.582087 71.8762495,353.002007 72.9649177,350.650894 C73.2670529,349.998396 73.5469634,349.26366 73.8155527,348.417394 L73.9930547,347.836372 L74.1679202,347.220375 C74.1968846,347.114687 74.2257691,347.007461 74.2545886,346.898658 L74.4268455,346.226583 L74.5982607,345.514711 L74.7695521,344.761113 L74.9414378,343.963861 L75.1146355,343.121027 L75.3784627,341.767088 L75.5580817,340.801858 L76.4479354,335.782891 C76.4615042,335.707576 76.4749031,335.63343 76.4881668,335.560266 C77.1169298,332.091928 76.5102095,330.185544 74.4062138,327.741483 L73.9145429,327.193454 L71.9288011,325.032195 L71.606799,324.671019 L71.5236304,324.575392 C69.7908302,322.563618 68.5392212,320.585685 67.5787824,318.073768 C65.6212858,312.954162 65.712596,309.605689 67.6866803,306.129257 L67.7488854,306.022716 L67.9032909,305.774048 L68.094279,305.48219 L68.3177564,305.15225 L68.8458053,304.39855 L69.4546904,303.553811 L70.4479519,302.205385 L71.4388926,300.881961 L73.3058302,298.422932 L73.7416042,297.810843 C73.811081,297.712131 73.8789992,297.615036 73.9453853,297.519508 L74.3255274,296.96474 L74.6701643,296.445149 L74.9805626,295.958307 C75.0295127,295.879761 75.077089,295.802479 75.1233178,295.726409 L75.3847323,295.284138 C75.4666212,295.141296 75.5433313,295.0029 75.6150737,294.868545 L75.8156085,294.477203 C76.2807423,293.527134 76.4783104,292.78164 76.4973503,292.069967 C76.5191717,291.254325 76.3149305,290.374619 75.7956827,289.038833 L75.612413,288.58277 L73.3811709,283.420155 L73.1660805,282.909726 C71.4706005,278.826246 70.9172285,275.726669 71.159108,272.367202 C71.2268239,271.426696 71.3523721,270.468532 71.5531535,269.289748 L71.6858239,268.541191 L72.3501899,264.990518 C72.6593498,263.279814 72.8909915,261.771335 73.0788212,260.14917 C73.6492595,255.222657 72.8484253,252.938428 70.1217395,250.421418 L69.925,250.243 L69.4498571,249.860539 L67.9704984,248.633259 L66.6057112,247.479651 L65.5785066,246.596245 L64.580852,245.720707 L64.0233048,245.220219 L63.5135885,244.751722 L63.0656503,244.32615 L62.8157275,244.079238 C59.8003981,241.040352 58.6731906,239.038595 58.7922303,236.82975 C58.8274549,236.17614 58.9645956,235.539765 59.2200224,234.741161 L59.3437552,234.369098 L60.1731973,232.032815 C60.1880172,231.989307 60.2013916,231.949594 60.2130863,231.914302 C60.6701325,230.535044 60.9982307,229.210885 61.2173435,227.697206 L61.2944412,227.120214 L61.3374303,226.914754 C62.7687212,222.124016 62.8180761,217.030244 61.4854949,212.218607 L61.3374303,211.704181 L63.7328106,210.988532 C65.3006486,216.236312 65.3529099,221.816433 63.8895944,227.08637 L63.761,227.53 L63.6909757,228.059448 C63.4798527,229.516814 63.1757936,230.820065 62.7675573,232.135628 L62.5861879,232.700679 L62.3241213,233.456616 L61.6891838,235.235929 C61.4349929,235.986207 61.3136459,236.499689 61.2886077,236.964285 C61.2311371,238.030684 61.7372258,239.163115 63.2551719,240.896903 L63.6559982,241.343188 C63.867211,241.572905 64.0948178,241.812715 64.3396941,242.063663 L64.7054375,242.433083 L64.9607879,242.680683 L65.2465799,242.950027 L65.8943627,243.542073 L66.4319847,244.021112 L67.3888455,244.856512 L68.9468774,246.186487 L71.585,248.373 L71.8171907,248.584285 C75.0566353,251.577279 76.1726856,254.573338 75.605592,260.041874 L75.5622288,260.436722 C75.3955116,261.876553 75.1957762,263.227847 74.9418911,264.692443 L74.7533854,265.745008 L74.093437,269.274416 L73.9516073,270.106757 C73.8019184,271.030656 73.7063031,271.801592 73.6526532,272.546736 C73.4397876,275.503228 73.9240646,278.215786 75.4749695,281.951064 L76.6038915,284.577433 L77.6433815,286.972975 L77.9621767,287.722514 L77.9987377,287.811969 C78.7204247,289.604921 79.030869,290.85054 78.996456,292.136827 C78.9487343,293.920572 78.2545839,295.591042 76.4811654,298.23903 L76.0525594,298.867953 C75.9778663,298.975831 75.9015274,299.085279 75.823518,299.196359 L75.2793733,299.95797 L72.7227067,303.337872 L71.6876216,304.733322 L70.9024263,305.815702 L70.4989476,306.387637 L70.1661593,306.876485 L69.9916384,307.146138 L69.8606335,307.363731 C68.2792995,310.148517 68.2091164,312.722228 69.913912,317.180924 C70.7622717,319.399711 71.8617332,321.137204 73.4178479,322.943847 L73.9557413,323.546222 L76.060208,325.835278 C78.7337982,328.846246 79.6898913,331.446116 79.0140087,335.622174 L78.1096263,340.743246 L77.9206227,341.775593 L77.7350361,342.75496 L77.4611408,344.129656 L77.280252,344.986535 L77.0997046,345.798403 C77.069593,345.930089 77.0394589,346.059995 77.0092842,346.188168 L76.827601,346.936785 C76.7363687,347.301074 76.6444405,347.650617 76.5513222,347.986695 L76.3633522,348.641276 L76.1713295,349.262227 C75.8798168,350.169568 75.5716608,350.971087 75.2335151,351.701354 C73.6113426,355.204635 71.2131983,356.615161 68.2489458,354.980667 L67.2381678,354.427803 L66.6241612,354.097787 L65.7848445,353.657549 L65.2750519,353.3988 L64.8012925,353.16642 L64.3603365,352.959187 C64.289398,352.926676 64.2196917,352.895161 64.1511503,352.864619 L63.7533432,352.692816 L63.3802646,352.543107 L63.0286847,352.414269 C62.6867774,352.29546 62.3722733,352.206126 62.0706376,352.140769 L61.772753,352.083202 C61.6254172,352.058211 61.4800873,352.038756 61.3349464,352.024151 C59.6845723,351.858076 58.4643993,352.577646 57.2957956,354.701314 L57.0206113,355.212158 L56.8300592,355.551301 L55.2725715,358.244825 L54.9234489,358.863343 L54.6544591,359.361957 L54.5354614,359.603565 C54.5203091,359.636772 54.507629,359.666247 54.4976186,359.691687 L54.417946,359.913174 C54.1515176,360.731625 54.1719507,361.630817 54.6150015,362.976217 L54.7464136,363.354481 L54.899394,363.75652 L55.0745545,364.183979 L55.2725072,364.638506 L55.4938641,365.121749 L55.7392371,365.635356 L56.1536655,366.466301 L56.4617562,367.063023 L56.9731297,368.026365 C57.0332952,368.138125 57.0945889,368.251493 57.1570236,368.366505 C59.6057823,372.877376 60.0508909,378.180236 59.1151545,382.323175 L58.9910406,382.83486 C58.006923,386.625069 55.8319799,389.324336 52.9793871,389.324336 C51.8648125,389.324336 50.9800994,388.827445 50.2476114,387.953046 Z" id="Path" fill="#FFFFFF" fill-rule="nonzero"></path>
            <path d="M129.490436,286.686587 C133.008263,286.190888 136.138937,287.275982 139.762331,290.524543 C141.710619,292.271283 143.157954,293.769891 144.33552,295.202608 C144.69426,295.639079 145.014978,296.052275 145.351746,296.507247 L146.540274,298.147273 C146.988482,298.747306 147.354913,299.165753 147.803631,299.571716 L147.928171,299.682052 L148.193886,299.903424 C148.240104,299.940438 148.287317,299.977524 148.335567,300.014704 L148.637838,300.239059 C148.690402,300.276692 148.744087,300.314458 148.798935,300.352378 L149.142316,300.581906 C149.261653,300.659138 149.385979,300.737148 149.515632,300.816098 L149.920906,301.055927 C149.991228,301.096423 150.062965,301.137194 150.13616,301.17826 L150.593166,301.428371 C150.672362,301.470701 150.7531,301.513368 150.835423,301.556392 L151.348712,301.818972 L151.902052,302.091082 C151.997725,302.137282 152.095152,302.183919 152.194374,302.231015 L152.811585,302.519243 L153.473905,302.819434 L154.183358,303.13256 L154.941967,303.459595 L155.922317,303.871829 L156.475473,304.097333 L157.005058,304.306656 L157.516325,304.50131 L158.014527,304.682807 C158.096763,304.712045 158.178675,304.740797 158.26037,304.769095 L158.748824,304.933696 C158.830092,304.960306 158.911364,304.986525 158.992748,305.012386 L159.483273,305.163492 L159.981745,305.307492 C160.065777,305.330985 160.15036,305.354244 160.235602,305.377301 L160.755844,305.51348 L161.297164,305.646336 L161.864818,305.777381 L162.464056,305.908127 L163.100132,306.040089 L164.13481,306.243617 L165.281921,306.458386 L167.843737,306.918624 L168.521696,307.04868 L169.166081,307.183956 C169.375417,307.230051 169.579365,307.277213 169.77813,307.325643 L170.359086,307.474927 C174.036933,308.472551 175.822849,310.027077 177.250222,313.607605 L178.192375,315.951037 L178.512802,316.722775 L178.785591,317.352385 L178.906957,317.619163 L179.073411,317.965224 L179.175639,318.162936 L179.318704,318.415282 L179.408885,318.557106 L179.496231,318.680264 L179.581879,318.786864 L179.666962,318.879015 L179.752615,318.958825 L179.839973,319.028403 C179.854738,319.039263 179.86962,319.049786 179.884645,319.060013 L179.976687,319.118194 C180.07081,319.173543 180.171744,319.221449 180.284594,319.271399 C180.672775,319.443217 181.207466,319.551178 182.026748,319.609285 L182.502684,319.63612 L183.040047,319.653572 L183.57242,319.660564 L190.157248,319.615678 C193.281901,319.615678 195.997216,319.128314 199.805275,318.05289 L203.443111,317.010831 L204.559977,316.703485 L205.295042,316.512645 L205.618676,316.433699 L206.058366,316.333958 L206.325711,316.278925 L206.696155,316.211864 L207.039633,316.161348 C207.076704,316.156569 207.113478,316.152054 207.150023,316.147789 L207.360744,316.125669 C207.813827,316.083408 208.251254,316.076518 208.808624,316.076518 C211.690469,316.076518 214.043402,317.231005 216.099868,319.829591 L216.31908,320.11355 C217.443401,321.606011 218.660242,322.991927 220.00477,324.338001 L220.335515,324.661393 L220.934806,325.223183 L221.635914,325.859618 L222.414097,326.551128 L223.244614,327.278142 L225.722826,329.408443 L228.953732,332.154952 L228.986371,332.184586 C230.368458,333.466649 231.387822,334.629893 232.145893,335.859135 L232.330026,336.167927 C232.660213,336.741082 233.333832,337.220101 234.571144,337.721405 L234.980869,337.880588 L235.429611,338.042067 L235.918911,338.206658 L236.450311,338.375174 L237.025351,338.548431 L237.645575,338.727243 L238.312522,338.912425 L240.339961,339.453879 L241.130596,339.670834 L241.866456,339.880664 L242.550822,340.085193 L243.186973,340.286243 L243.778189,340.485638 C245.487713,341.083162 246.63488,341.682951 247.618142,342.506514 C249.860233,344.384452 250.184608,347.000412 248.405562,350.212866 L247.923893,351.051645 C247.871471,351.143877 247.820176,351.234851 247.769946,351.324714 L247.480853,351.851761 C247.434637,351.93778 247.389364,352.022986 247.344971,352.107528 L247.088692,352.608018 C247.006462,352.77299 246.927263,352.936501 246.850604,353.099743 L246.627757,353.589854 L246.417202,354.085504 C246.314506,354.335905 246.215314,354.591065 246.117966,354.855007 L245.92524,355.395792 C245.893365,355.488272 245.861572,355.582025 245.8298,355.677202 L245.638924,356.266523 L245.445596,356.897143 L245.246866,357.576212 L245.039786,358.310883 L244.588779,359.975636 L244.466201,360.43775 C243.081712,365.672308 241.435615,368.127194 236.496051,370.750581 L236.003387,371.007142 L235.842924,371.08838 C229.97955,374.035578 226.043946,374.298297 220.633662,372.875639 L220.037588,372.714011 L217.855706,372.094362 C217.736476,372.061119 217.620332,372.029013 217.506985,371.997988 L216.858166,371.824335 L216.26264,371.673843 L215.706564,371.543747 L215.176095,371.431285 C214.914954,371.379002 214.658225,371.332296 214.398119,371.289613 L213.871098,371.209151 L208.148454,370.37446 L203.174808,369.631234 L190.127032,367.65023 L190.505989,365.179118 L198.466735,366.392022 L208.512821,367.901154 L214.513936,368.776817 L215.084074,368.870126 L215.648266,368.975791 L216.221145,369.096651 C216.318162,369.118217 216.41615,369.140536 216.515415,369.163664 L217.12876,369.312634 L217.787374,369.48389 L218.89218,369.78877 L220.516923,370.252212 L220.886988,370.355014 C225.816454,371.708472 229.127998,371.583986 234.296924,369.06425 L234.867584,368.780047 L235.31533,368.547055 L235.890954,368.233916 C239.416554,366.262469 240.697881,364.476814 241.792528,360.724933 L241.964116,360.115877 L242.419765,358.412713 L242.648458,357.578915 L242.971785,356.444916 L243.178685,355.755982 C243.212805,355.645119 243.246787,355.536135 243.280695,355.428874 L243.48376,354.804778 C243.517626,354.703802 243.551546,354.604244 243.585585,354.50595 L243.791745,353.930133 C243.86128,353.742433 243.9318,353.558565 244.00382,353.377301 L244.224889,352.840096 C244.262654,352.751455 244.300923,352.663159 244.339759,352.575053 L244.580095,352.047487 C244.621457,351.959533 244.663514,351.871463 244.706332,351.783124 L244.972866,351.248638 C245.018979,351.158611 245.065981,351.068007 245.113934,350.976675 L245.413597,350.418709 C245.465617,350.323848 245.518717,350.227951 245.572963,350.130866 L245.912685,349.53286 L246.093813,349.220858 C247.461396,346.879949 247.321462,345.519102 246.012879,344.423056 C245.724687,344.181671 245.400216,343.95926 245.021424,343.746797 L244.683021,343.56691 C244.447989,343.448329 244.193536,343.332154 243.916295,343.2167 L243.482922,343.04385 L243.012842,342.870817 C242.931297,342.841893 242.848116,342.812909 242.763249,342.783839 L242.233375,342.608166 L241.660482,342.429153 C241.561275,342.398969 241.46017,342.368593 241.357115,342.337999 L240.714959,342.151608 L240.023471,341.958719 L237.622452,341.316017 L236.564723,341.021088 L235.916132,340.831156 L235.310664,340.645038 L234.746496,340.461417 C234.655808,340.430948 234.566765,340.400529 234.479329,340.370132 L233.973693,340.18779 C232.025849,339.457712 230.959826,338.708604 230.25061,337.561378 L230.163778,337.415874 C229.580805,336.40392 228.754385,335.414754 227.585567,334.299073 L227.255197,333.989455 L223.416934,330.7286 L222.471865,329.91704 L221.061736,328.691295 L219.962658,327.716816 L219.55764,327.351044 L218.999778,326.838065 L218.513588,326.377443 L218.235987,326.104752 C216.990283,324.857615 215.844579,323.574177 214.775723,322.208343 L214.322279,321.617806 C212.743581,319.522189 211.127458,318.644763 209.059033,318.580368 L208.698991,318.576668 L208.289195,318.581651 L207.907265,318.597575 L207.624575,318.619851 L207.432243,318.640852 L207.024703,318.700562 L206.687142,318.76342 L206.310911,318.84423 L205.731507,318.983724 L204.646703,319.271645 L203.230603,319.669714 L201.051014,320.296949 C196.938472,321.485545 193.992323,322.062151 190.639204,322.112114 L183.890642,322.160327 L183.297898,322.158686 C181.372589,322.131404 180.230728,321.981504 179.272726,321.557471 L178.883802,321.380194 L178.624384,321.250304 L178.464411,321.161363 L178.313322,321.068175 L178.16984,320.968708 L178.032684,320.860933 C178.010282,320.842165 177.988089,320.822966 177.96608,320.803294 L177.836018,320.679247 C177.814637,320.657514 177.793387,320.635222 177.77224,320.612331 L177.646393,320.467443 L177.521758,320.306122 L177.397055,320.126337 L177.271006,319.926058 L177.142332,319.703254 L177.009753,319.455893 L176.871992,319.181945 L176.727768,318.87938 L176.575804,318.546165 L176.330546,317.984433 L175.86496,316.866198 L174.927949,314.533375 C173.745886,311.5682 172.417557,310.48494 168.896547,309.682453 L168.322079,309.557844 L167.709376,309.436502 C167.603973,309.416472 167.496903,309.396521 167.388128,309.376618 L164.780177,308.908038 L163.22614,308.614371 L162.523369,308.474402 L161.546888,308.268621 L160.647471,308.063146 L160.081705,307.92372 L159.536735,307.780512 L159.007182,307.631954 C158.919909,307.606662 158.833053,307.581081 158.746504,307.55518 L158.229984,307.395659 C158.14421,307.368343 158.058518,307.340642 157.972796,307.312521 L157.4572,307.138512 C157.370907,307.108585 157.284361,307.078175 157.197447,307.047248 L156.670667,306.855222 L156.129705,306.649228 L155.279897,306.310615 L154.367907,305.931756 L153.538056,305.577673 L152.759069,305.237507 L152.028784,304.910107 L151.345033,304.594324 L150.705654,304.289005 L150.108479,303.993002 L149.551345,303.705164 L149.032087,303.424339 C148.865073,303.331772 148.70401,303.240182 148.548539,303.149378 L148.098536,302.87913 C147.809235,302.70028 147.540854,302.523805 147.290507,302.348171 L146.92815,302.085159 C146.636855,301.866188 146.371483,301.647333 146.126395,301.425598 C145.627096,300.973875 145.211318,300.515997 144.764118,299.941101 L144.359966,299.401507 L143.584605,298.325371 C143.176845,297.76331 142.817346,297.292725 142.404162,296.790013 C141.309296,295.457916 139.949832,294.050292 138.093469,292.385966 C135.095405,289.698047 132.74555,288.830399 130.104388,289.128463 L129.663311,289.186739 L129.219714,289.250984 L128.887018,289.310757 L128.603754,289.375598 L128.180676,289.492694 L127.623516,289.66696 L125.622619,290.34198 L124.222977,290.822456 C120.496703,292.10211 117.71449,292.707767 114.288988,292.709755 L113.742542,292.705062 C111.021501,292.657324 108.330991,293.060505 105.217791,293.910393 C104.948781,293.983832 104.677026,294.060391 104.400021,294.140753 L103.550753,294.393935 L102.654967,294.674035 C102.500958,294.72319 102.344385,294.773636 102.184935,294.82546 L100.93799,295.23899 L96.9789253,296.59717 C88.6089437,299.455217 82.8237993,300.700859 75.3217246,300.625899 L74.6132437,300.615012 L74.6648551,298.115544 C81.7149745,298.261122 87.1033616,297.230429 94.6768994,294.733051 L100.397263,292.783037 L100.917475,292.609994 L101.902925,292.289805 L102.82803,292.000647 C102.97805,291.954807 103.126202,291.910086 103.272812,291.866395 L104.136552,291.615919 C104.278287,291.576002 104.419127,291.536941 104.559396,291.498648 C107.663897,290.651134 110.413856,290.213559 113.190787,290.20151 L113.786395,290.205447 C116.959497,290.261115 119.476596,289.771773 122.868013,288.641757 L125.438402,287.75354 L126.266321,287.477736 L126.45704,287.416791 C127.600881,287.054647 128.556001,286.818259 129.490436,286.686587 Z" id="Path" fill="#FFFFFF" fill-rule="nonzero"></path>
            <path d="M235.907909,368.987121 C239.556238,370.087411 242.656836,371.280876 246.03285,372.812652 L246.788377,373.158714 L247.997482,373.724337 L251.703034,375.49013 L252.600812,375.909754 L253.443329,376.296168 L254.241453,376.653728 C254.371378,376.711159 254.499906,376.767569 254.627264,376.823049 L255.379178,377.145495 C255.50276,377.197618 255.625624,377.248992 255.747998,377.299709 L256.478156,377.596843 L257.207397,377.882546 L257.946589,378.161176 C258.071221,378.207267 258.19672,378.253245 258.323313,378.2992 C260.482444,379.082994 264.254584,378.612 269.117388,377.091092 L270.013436,376.803039 C270.164742,376.753118 270.31702,376.702243 270.470256,376.650422 C272.452859,375.979944 274.546315,375.168735 276.708294,374.247272 C279.005502,373.268173 281.25715,372.218205 283.367325,371.168362 L284.218381,370.740926 L284.996896,370.342291 L286.073729,369.775483 L287.266582,371.97255 L286.515243,372.370616 L285.757411,372.762531 L284.924291,373.185008 L284.480907,373.40665 C282.329432,374.477041 280.034254,375.547308 277.688508,376.547094 C275.471007,377.492221 273.318958,378.326135 271.27115,379.018664 C270.782057,379.184065 270.301685,379.340675 269.830203,379.488237 L268.899142,379.771225 C263.997229,381.215355 260.119522,381.610876 257.470248,380.649153 L256.651263,380.345982 C256.247424,380.193476 255.850436,380.03894 255.452969,379.879451 L254.655225,379.553002 C254.521438,379.497205 254.387054,379.440641 254.251803,379.383202 L253.427714,379.027199 L252.569773,378.645 L251.664952,378.231407 L250.700219,377.781225 L247.362526,376.189986 L245.741039,375.428757 L244.999894,375.089273 C241.992972,373.724962 239.222824,372.64145 236.059116,371.649148 L235.186055,371.380639 L235.907909,368.987121 Z" id="Path" fill="#FFFFFF" fill-rule="nonzero"></path>
            <path d="M218.661474,61.9007803 L217.334764,61.3272519 C214.512319,60.1164946 212.533871,59.7763424 209.646053,60.4180798 C209.437568,60.4644098 209.23792,60.5105457 209.046638,60.5567595 L208.497424,60.6959067 C205.872153,61.395532 205.023595,62.1739039 204.364557,63.9492673 L204.234806,64.3179052 L203.977014,65.0971724 L203.782282,65.6397409 C203.029352,67.644342 202.173886,68.8127335 200.240088,70.1491638 L199.981658,70.3245163 C197.026806,72.2944173 196.046616,75.6207753 196.155628,81.3516989 L196.170424,81.9457026 L196.197755,82.7123537 L196.279955,84.405884 L196.374087,86.2177872 L196.408011,86.9627805 L196.431033,87.5906218 L196.447291,88.3297266 L196.450552,88.8737068 L193.950552,88.8737068 L193.946105,88.2676847 L193.931197,87.6389548 L193.884072,86.4861139 L193.72888,83.4638506 L193.677619,82.2147759 L193.665917,81.8235291 C193.485554,75.2031674 194.598302,71.0523491 198.351728,68.4109498 L198.594907,68.2443905 C200.427629,67.0225763 200.993262,66.162885 201.701285,64.0227383 L201.790631,63.7484321 C202.842081,60.4737092 204.360415,59.0316814 209.103727,57.9776121 C212.581794,57.2047083 215.058692,57.6305587 218.320345,59.0297248 L220.219973,59.838191 L220.596041,59.9827111 L220.7708,60.0375842 L220.929976,60.0773735 L221.20775,60.1389695 C222.586585,60.450614 223.756308,60.077937 225.379803,58.5155003 L225.585152,58.3139625 C226.933776,56.9653385 229.182549,55.7058815 232.211478,54.5155515 L232.984894,54.2193976 C233.116483,54.1702747 233.249408,54.121269 233.383662,54.072379 L234.205057,53.780415 C234.484122,53.6835486 234.768432,53.5871332 235.057916,53.4911573 L235.941824,53.2045364 L236.856363,52.9204826 L237.801117,52.6389264 L238.77567,52.3597983 L239.779604,52.0830285 L240.812503,51.8085475 L241.873951,51.5362858 C242.053214,51.4910899 242.23365,51.4459836 242.41525,51.4009654 C246.25407,50.4493283 250.361063,49.6046756 254.467226,48.875813 L255.672693,48.6652634 L256.823281,48.47086 L258.435895,48.2098985 L259.950341,47.9798814 L260.302562,50.4549452 L258.82459,50.6794969 L257.778651,50.8472114 L256.670975,51.0312075 L255.506341,51.2313048 C255.307754,51.2659861 255.106993,51.3013308 254.904157,51.3373351 C250.849179,52.0571122 246.795032,52.8908965 243.016788,53.8275169 L242.000161,54.0838622 L241.009807,54.3423732 L240.046332,54.6029429 C239.888026,54.6465368 239.730865,54.690212 239.574862,54.7339663 L238.652839,54.9974232 C238.501517,55.0414849 238.351379,55.0856212 238.202436,55.1298299 L237.323225,55.395933 L236.473313,55.6636664 L235.653303,55.932923 L234.863802,56.2035956 L234.105414,56.4755773 L233.378744,56.7487608 C233.260309,56.7943856 233.143221,56.840056 233.027492,56.8857698 L232.349534,57.1605554 C230.034479,58.1240023 228.330034,59.1046145 227.352919,60.0817294 C225.045131,62.3895175 222.980936,63.1028063 220.656602,62.57746 C220.213888,62.4773975 219.768663,62.3365282 219.264975,62.1438149 L218.955299,62.0218774 C218.859679,61.9832377 218.763551,61.943613 218.661474,61.9007803 Z" id="Path" fill="#FFFFFF" fill-rule="nonzero"></path>
            <path d="M354.842469,51.4401153 C357.066523,53.8049322 359.704903,55.5331145 363.252401,57.1603663 L363.919898,57.4610466 L364.624129,57.7676198 L365.384543,58.089083 L368.313953,59.2869984 L369.13249,59.6276831 L369.912949,59.9633406 C370.039908,60.0189358 370.165323,60.0743751 370.289213,60.129685 L371.01444,60.4602073 C375.729615,62.6561983 378.07376,64.7308788 379.386938,68.3949482 L379.483514,68.6727603 C380.450056,71.53962 382.072374,72.5154465 385.348102,72.816943 L385.748686,72.8500258 L386.606549,72.9040376 L387.607399,72.9608699 L388.176196,72.9999024 C388.266372,73.0067154 388.354323,73.0137054 388.44018,73.0209072 L388.931222,73.0669386 L389.378234,73.1197247 L389.787458,73.1809368 C390.572284,73.3129007 391.167857,73.5054464 391.798969,73.8187325 C393.426487,74.6266381 394.414171,76.0915904 394.738111,78.2965924 L394.776598,78.5884051 L394.785098,78.7386703 C394.759439,85.6238795 392.98272,92.3857467 389.626896,98.3897571 L389.307667,98.9503934 L387.145066,97.6961374 C390.38348,92.1124317 392.14798,85.8003667 392.277674,79.3536317 L392.284,78.807 L392.270661,78.6967423 C392.017743,76.8123212 391.38094,76.0475046 389.477715,75.6876857 L389.079923,75.6209101 L388.646791,75.5636641 L388.17675,75.5146772 L387.66823,75.472679 L386.843911,75.4207642 L385.562073,75.3430561 L385.447247,75.334272 C381.183051,75.0020158 378.61088,73.6091773 377.214603,69.7576728 L377.114528,69.4714473 C376.192949,66.7379504 374.548761,65.0503255 371.137615,63.3014754 L370.535344,63.0008661 L369.897285,62.697818 C369.787894,62.6470379 369.676964,62.5961045 369.56447,62.544992 L368.870538,62.2359615 L368.137896,61.9213934 C368.012498,61.8684351 367.885439,61.8151944 367.756693,61.7616455 L364.837529,60.5688768 L364.018156,60.2267262 L363.263758,59.9032662 L362.554257,59.5891657 C362.438633,59.5370771 362.324042,59.4849898 362.210068,59.4327092 C358.566664,57.7614649 355.761382,55.9564702 353.361467,53.5071864 L353.021333,53.1528507 L354.842469,51.4401153 Z" id="Path" fill="#FFFFFF" fill-rule="nonzero"></path>
        </g>
    </g>
</svg>