<?xml version="1.0" encoding="UTF-8"?>
<svg width="546px" height="600px" viewBox="0 0 546 600" version="1.1" xmlns="http://www.w3.org/2000/svg" xmlns:xlink="http://www.w3.org/1999/xlink">
    <title>sulawesi-tengah</title>
    <defs>
        <polygon id="path-1" points="59.1772742 212.114443 61.3308422 206.950934 64.82641 202.794344 67.613209 199.212302 67.613209 197.88389 65.5277518 196.253616 64.82641 193.515624 65.5277518 185.841184 66.6901117 178.391152 66.6901117 177.194309 69.1962678 179.148198 78.6993953 179.148198 115.681641 111.573608 92.6306152 90.1717526 94.5578613 85.3868405 95.0446777 82.2847897 93.5090332 77.363403 90.454589 70.5544379 89.8070347 63.0078806 91.1330528 56.2661297 92.1093375 48.4649553 91.1330528 45.025113 88.8403397 41.4855876 83.5324038 36.7239773 77.9482804 30.4729149 77.9482804 26.2607212 79.6517146 20.1263422 81.1515987 13.0758826 80.3023598 3.9614403 77.9482804 0 0 11.9119935 10.109375 213.93563 49.2099086 222.886085"></polygon>
    </defs>
    <g id="website" stroke="none" stroke-width="1" fill="none" fill-rule="evenodd">
        <g id="11a.-daftar-master-stokis" transform="translate(-713.000000, -3156.000000)">
            <g id="sulawesi-tengah" transform="translate(713.503906, 3156.000000)">
                <path d="M349.874507,206.303052 C349.533083,208.096053 348.748319,209.775085 347.591749,211.187094 C345.05642,212.950092 341.92606,213.637244 338.885414,213.098241 C335.798546,212.5505 332.647531,213.634288 330.550691,215.964961 C329.435855,217.663758 329.488943,220.158866 328.002495,221.273701 C326.516048,222.388537 323.861677,222.547799 322.37523,223.981159 C321.733767,224.767266 321.247369,225.668002 320.94187,226.63553 C314.146682,243.464238 295.672264,247.551968 286.222705,261.938656 C281.975713,268.415319 279.692954,277.864878 272.048368,279.298238 C268.069942,279.39541 264.118859,278.616068 260.475313,277.015479 C256.546845,275.953731 251.609716,276.219168 249.857831,279.722937 C248.477559,282.218045 249.114608,285.668727 247.150373,287.792223 C245.186139,289.915719 239.665049,288.482359 237.063766,285.668727 C234.462483,282.855094 231.755025,279.085888 228.091994,278.714276 C222.783253,278.130315 219.120222,285.40329 221.190631,290.393506 C223.858543,295.228686 228.518105,298.645699 233.931609,299.73689 C239.264312,300.809 244.402159,302.6887 249.167695,305.311068 C260.316051,312.955654 261.855585,331.854772 274.968175,335.411628 C277.028165,335.661867 279.015326,336.330275 280.80779,337.375862 C284.364646,340.189495 282.347325,345.869847 283.568335,350.276102 C286.116531,359.93801 303.210676,360.893583 304.060074,370.661666 C304.060074,370.661666 283.409073,382.075459 275.552137,379.261827 C267.6952,376.448194 263.235858,372.997512 253.202338,369.97153 C263.235858,364.981314 259.254302,359.93801 265.093917,349.851403 C270.933532,339.764795 252.193677,341.835204 249.167695,336.738813 C246.141713,331.642422 239.134175,328.722614 233.241473,320.812591 C227.34877,312.902567 220.18197,320.812591 208.078041,320.812591 C195.974112,320.812591 197.035861,321.821251 193.956791,314.017403 C190.877721,306.213554 184.931932,309.77041 172.721828,304.727106 C160.511724,299.683802 165.661203,299.73689 156.795606,291.402167 C147.930009,283.067444 143.683016,291.402167 131.632174,291.402167 C119.581333,291.402167 110.397211,299.73689 92.4536676,299.365278 C87.1449269,306.69134 83.4288083,308.761749 87.1449269,317.839696 C90.8610454,326.917643 97.7624084,326.864555 96.1697862,335.942502 C94.5771639,345.020449 92.9314543,357.177465 87.2511017,354.045308 C81.5707491,350.913151 77.4830187,348.736567 74.4570364,354.470007 C71.4310542,360.203447 69.4137327,360.097272 74.4570364,369.122132 C79.5003402,378.146991 75.4126098,388.233598 71.3779668,388.233598 C67.3433238,388.233598 67.3964112,376.182757 67.3964112,388.233598 C67.3964112,400.28444 62.3531075,404.849957 67.3964112,405.593181 C72.439715,406.336404 60.9197475,416.688449 60.9197475,416.688449 C57.8937653,417.431673 56.1418808,420.723092 53.3282482,421.99719 C49.9305993,422.976678 46.2682908,422.200428 43.5601652,419.926781 C40.7068486,417.646692 37.5872585,415.721459 34.2698689,414.193341 C30.518923,413.498846 26.813666,412.576964 23.1746007,411.432796 C17.0164614,408.088289 16.5917621,399.381954 18.5029088,392.639853 C20.4140555,385.897752 23.8116496,379.208739 22.8029888,372.360464 C21.2103666,362.963992 12.1855073,348.842742 25.563534,343.905613 C30.8722748,342.047554 36.6057148,341.782117 40.7465326,338.172173 C44.5726039,333.761665 46.6168769,328.083129 46.4799726,322.245951 C46.7165124,317.082832 46.4498173,311.908948 45.6836615,306.797515 C45.372082,304.976795 45.6904143,303.104252 46.5861474,301.488774 C47.3824586,300.373939 48.6565563,299.789977 49.4528675,298.834404 C52.4788497,295.22446 48.4442067,289.172496 51.0985771,285.297115 C52.5850245,283.067444 55.6110067,282.589657 57.6283282,280.784685 C60.3395569,277.14053 60.5294285,272.20387 58.1061149,268.362232 C55.6866174,264.637701 54.1604727,260.404466 53.6467727,255.992866 C53.6467727,251.374262 57.1505416,247.445793 57.5221534,242.880276 C57.8937653,238.314759 55.6640941,233.696155 57.203629,229.767687 C58.7431638,225.839218 61.8222334,224.458946 63.1494186,221.008264 C64.4766038,217.557583 63.9457297,214.000727 66.5470127,211.983405 C70.2631312,209.22286 75.8903964,213.363678 80.0312142,211.346356 C84.172032,209.329035 83.5349831,204.126469 83.1102839,199.932564 C82.6050708,194.341487 82.7654555,188.710201 83.5880706,183.156943 C83.8535076,181.564321 84.7029061,179.653174 86.1893535,179.86553 C86.7161123,179.962069 87.1990646,180.222121 87.5696261,180.608747 C91.6694908,184.156671 93.951309,189.363897 93.7808528,194.783085 C93.4431849,196.71152 93.6452843,198.695768 94.3648143,200.516525 C96.275961,203.648682 101.584702,202.268409 103.230411,198.97699 C104.444859,195.542013 104.444859,191.794486 103.230411,188.359509 C101.106915,179.918611 98.8772439,171.477713 96.7537476,162.983728 C94.6302513,154.489743 92.241318,142.810513 98.2401951,135.272101 C104.239072,127.733689 102.540275,118.443393 104.026722,109.790145 C104.982296,104.269055 105.937869,98.6948772 106.893442,93.067612 C107.175332,90.8150287 107.783353,88.6154211 108.698414,86.5378609 C110.662648,82.8748298 114.538029,80.5389838 117.1924,77.2475645 C118.108396,75.7469246 119.195077,74.3573983 120.430731,73.1067468 C123.562888,70.4523764 128.340755,71.0363379 131.844524,68.9128416 C133.864483,67.4127298 135.653153,65.6240602 137.153265,63.6041008 C142.619523,57.207551 151.233312,54.4527832 159.396889,56.4903882 C171.925517,50.4915111 185.940592,42.4753126 188.223351,28.725674 C188.8604,24.425594 189.709798,18.1081925 194.062966,18.3736295 C198.416133,18.6390665 199.371707,23.0984088 202.238427,24.956468 C204.159962,25.8622785 206.274786,26.2815969 208.396566,26.1774784 C219.465261,27.3035661 230.286755,30.170187 240.46136,34.6714636 L277.622545,49.2174133 C277.622545,49.2174133 250.229443,53.1458815 244.230566,59.197846 C238.231689,65.2498104 236.214367,57.2336119 227.136421,59.197846 C218.058474,61.16208 223.101778,65.2498104 217.049813,69.2844534 C210.997849,73.3190964 213.01517,82.3439557 212.962083,88.9267942 C210.288542,90.8877109 207.231382,92.2625286 203.990311,92.9614372 C198.777317,92.7818013 193.741822,91.0230808 189.550536,87.9181335 C181.387503,83.6895278 172.057653,82.2713907 163.006832,83.8834905 C150.7329,86.3740561 139.968297,93.6779253 133.118622,104.16288 C124.48514,118.524965 120.602466,135.244614 122.023354,151.941547 C122.394177,162.672349 123.816651,173.340906 126.270346,183.793992 C127.916056,190.429918 130.517339,197.75598 136.887828,200.569612 C141.265576,201.736876 145.717432,202.605964 150.212767,203.170895 C161.785822,206.833927 164.758717,221.273701 167.094563,233.165281 C167.505986,236.366144 168.710355,239.413562 170.598332,242.030878 C174.272799,245.215177 179.010127,246.901666 183.870184,246.755657 C197.354385,247.817405 213.652219,246.755657 220.18197,234.864078 C223.898089,228.06889 223.154865,219.25638 227.614207,212.885891 C232.07355,206.515402 242.266332,203.861032 250.919579,203.967207 C259.572827,204.073381 268.491511,205.559829 276.773147,203.011633 C280.80779,201.737535 284.364646,199.507864 288.293114,197.968329 C292.527037,196.464713 296.877069,195.310623 301.299529,194.517648 L312.500972,192.181802 C322.718442,189.412707 333.297578,188.21338 343.87563,188.624946 C344.534988,188.659004 345.16672,188.900549 345.680602,189.315082 C346.158389,189.739781 346.264563,190.323743 346.636175,190.854617 C347.251085,191.603169 347.965546,192.264045 348.759672,192.818851 C352.210353,195.685571 351.201692,201.84371 349.874507,206.303052 Z" id="Path" fill="#29BB89" fill-rule="nonzero"></path>
                <g id="Path" transform="translate(0.000000, 208.477173)">
                    <mask id="mask-2" fill="white">
                        <use xlink:href="#path-1"></use>
                    </mask>
                    <g id="Mask"></g>
                    <path d="M349.874507,-2.17412071 C349.533083,-0.381119736 348.748319,1.29791203 347.591749,2.70992079 C345.05642,4.47291862 341.92606,5.16007073 338.885414,4.62106746 C335.798546,4.07332644 332.647531,5.15711527 330.550691,7.48778748 C329.435855,9.18658452 329.488943,11.6816927 328.002495,12.7965282 C326.516048,13.9113638 323.861677,14.070626 322.37523,15.503986 C321.733767,16.2900927 321.247369,17.190829 320.94187,18.1583564 C314.146682,34.9870646 295.672264,39.074795 286.222705,53.4614825 C281.975713,59.9381462 279.692954,69.3877048 272.048368,70.8210648 C268.069942,70.9182366 264.118859,70.1388946 260.475313,68.5383062 C256.546845,67.4765581 251.609716,67.7419951 249.857831,71.245764 C248.477559,73.7408722 249.114608,77.1915537 247.150373,79.31505 C245.186139,81.4385463 239.665049,80.0051863 237.063766,77.1915537 C234.462483,74.3779211 231.755025,70.6087151 228.091994,70.2371033 C222.783253,69.6531418 219.120222,76.9261166 221.190631,81.916333 C223.858543,86.7515129 228.518105,90.1685255 233.931609,91.2597167 C239.264312,92.3318266 244.402159,94.2115267 249.167695,96.8338945 C260.316051,104.478481 261.855585,123.377598 274.968175,126.934455 C277.028165,127.184694 279.015326,127.853102 280.80779,128.898689 C284.364646,131.712321 282.347325,137.392674 283.568335,141.798929 C286.116531,151.460837 303.210676,152.41641 304.060074,162.184493 C304.060074,162.184493 283.409073,173.598286 275.552137,170.784653 C267.6952,167.971021 263.235858,164.520339 253.202338,161.494357 C263.235858,156.504141 259.254302,151.460837 265.093917,141.374229 C270.933532,131.287622 252.193677,133.358031 249.167695,128.26164 C246.141713,123.165249 239.134175,120.245441 233.241473,112.335418 C227.34877,104.425394 220.18197,112.335418 208.078041,112.335418 C195.974112,112.335418 197.035861,113.344078 193.956791,105.540229 C190.877721,97.7363804 184.931932,101.293237 172.721828,96.249933 C160.511724,91.2066293 165.661203,91.2597167 156.795606,82.9249937 C147.930009,74.5902707 143.683016,82.9249937 131.632174,82.9249937 C119.581333,82.9249937 110.397211,91.2597167 92.4536676,90.8881048 C87.1449269,98.2141671 83.4288083,100.284576 87.1449269,109.362523 C90.8610454,118.440469 97.7624084,118.387382 96.1697862,127.465329 C94.5771639,136.543275 92.9314543,148.700292 87.2511017,145.568135 C81.5707491,142.435978 77.4830187,140.259394 74.4570364,145.992834 C71.4310542,151.726274 69.4137327,151.620099 74.4570364,160.644958 C79.5003402,169.669818 75.4126098,179.756425 71.3779668,179.756425 C67.3433238,179.756425 67.3964112,167.705584 67.3964112,179.756425 C67.3964112,191.807267 62.3531075,196.372784 67.3964112,197.116008 C72.439715,197.859231 60.9197475,208.211276 60.9197475,208.211276 C57.8937653,208.954499 56.1418808,212.245919 53.3282482,213.520016 C49.9305993,214.499505 46.2682908,213.723255 43.5601652,211.449608 C40.7068486,209.169519 37.5872585,207.244286 34.2698689,205.716168 C30.518923,205.021673 26.813666,204.099791 23.1746007,202.955622 C17.0164614,199.611116 16.5917621,190.904781 18.5029088,184.16268 C20.4140555,177.420579 23.8116496,170.731566 22.8029888,163.88329 C21.2103666,154.486819 12.1855073,140.365569 25.563534,135.42844 C30.8722748,133.570381 36.6057148,133.304944 40.7465326,129.695 C44.5726039,125.284492 46.6168769,119.605956 46.4799726,113.768778 C46.7165124,108.605659 46.4498173,103.431775 45.6836615,98.3203419 C45.372082,96.4996214 45.6904143,94.6270786 46.5861474,93.0116012 C47.3824586,91.8967656 48.6565563,91.3128041 49.4528675,90.3572308 C52.4788497,86.7472871 48.4442067,80.6953226 51.0985771,76.8199418 C52.5850245,74.5902707 55.6110067,74.112484 57.6283282,72.3075122 C60.3395569,68.663357 60.5294285,63.7266963 58.1061149,59.8850588 C55.6866174,56.1605274 54.1604727,51.9272928 53.6467727,47.5156928 C53.6467727,42.8970884 57.1505416,38.9686202 57.5221534,34.4031031 C57.8937653,29.8375861 55.6640941,25.2189816 57.203629,21.2905135 C58.7431638,17.3620453 61.8222334,15.9817727 63.1494186,12.5310912 C64.4766038,9.0804097 63.9457297,5.52355339 66.5470127,3.5062319 C70.2631312,0.745686708 75.8903964,4.8865045 80.0312142,2.86918301 C84.172032,0.851861523 83.5349831,-4.35070442 83.1102839,-8.54460963 C82.6050708,-14.1356858 82.7654555,-19.7669721 83.5880706,-25.3202304 C83.8535076,-26.9128527 84.7029061,-28.8239993 86.1893535,-28.6116429 C86.7161123,-28.5151037 87.1990646,-28.2550525 87.5696261,-27.868426 C91.6694908,-24.3205023 93.951309,-19.1132761 93.7808528,-13.6940882 C93.4431849,-11.7656537 93.6452843,-9.78140508 94.3648143,-7.96064814 C96.275961,-4.82849109 101.584702,-6.20876369 103.230411,-9.50018296 C104.444859,-12.9351603 104.444859,-16.6826871 103.230411,-20.1176645 C101.106915,-28.5585623 98.8772439,-36.9994601 96.7537476,-45.4934453 C94.6302513,-53.9874306 92.241318,-65.6666602 98.2401951,-73.2050721 C104.239072,-80.743484 102.540275,-90.0337803 104.026722,-98.6870278 C104.982296,-104.208118 105.937869,-109.782296 106.893442,-115.409561 C107.175332,-117.662145 107.783353,-119.861752 108.698414,-121.939312 C110.662648,-125.602343 114.538029,-127.938189 117.1924,-131.229609 C118.108396,-132.730249 119.195077,-134.119775 120.430731,-135.370426 C123.562888,-138.024797 128.340755,-137.440835 131.844524,-139.564332 C133.864483,-141.064443 135.653153,-142.853113 137.153265,-144.873072 C142.619523,-151.269622 151.233312,-154.02439 159.396889,-151.986785 C171.925517,-157.985662 185.940592,-166.001861 188.223351,-179.751499 C188.8604,-184.051579 189.709798,-190.368981 194.062966,-190.103544 C198.416133,-189.838107 199.371707,-185.378764 202.238427,-183.520705 C204.159962,-182.614895 206.274786,-182.195576 208.396566,-182.299695 C219.465261,-181.173607 230.286755,-178.306986 240.46136,-173.80571 L277.622545,-159.25976 C277.622545,-159.25976 250.229443,-155.331292 244.230566,-149.279327 C238.231689,-143.227363 236.214367,-151.243561 227.136421,-149.279327 C218.058474,-147.315093 223.101778,-143.227363 217.049813,-139.19272 C210.997849,-135.158077 213.01517,-126.133218 212.962083,-119.550379 C210.288542,-117.589462 207.231382,-116.214645 203.990311,-115.515736 C198.777317,-115.695372 193.741822,-117.454092 189.550536,-120.55904 C181.387503,-124.787645 172.057653,-126.205783 163.006832,-124.593683 C150.7329,-122.103117 139.968297,-114.799248 133.118622,-104.314293 C124.48514,-89.9522081 120.602466,-73.2325589 122.023354,-56.5356261 C122.394177,-45.8048243 123.816651,-35.1362671 126.270346,-24.6831815 C127.916056,-18.0472556 130.517339,-10.7211933 136.887828,-7.90756073 C141.265576,-6.74029672 145.717432,-5.87120914 150.212767,-5.30627776 C161.785822,-1.64324664 164.758717,12.7965282 167.094563,24.6881075 C167.505986,27.8889709 168.710355,30.9363891 170.598332,33.5537046 C174.272799,36.7380036 179.010127,38.4244926 183.870184,38.2784839 C197.354385,39.340232 213.652219,38.2784839 220.18197,26.3869046 C223.898089,19.5917164 223.154865,10.7792067 227.614207,4.40871783 C232.07355,-1.96177108 242.266332,-4.61614146 250.919579,-4.50996665 C259.572827,-4.40379183 268.491511,-2.91734442 276.773147,-5.46553998 C280.80779,-6.73963777 284.364646,-8.96930889 288.293114,-10.5088437 C292.527037,-12.0124598 296.877069,-13.1665499 301.299529,-13.9595252 L312.500972,-16.2953711 C322.718442,-19.0644661 333.297578,-20.2637928 343.87563,-19.8522274 C344.534988,-19.8181694 345.16672,-19.5766245 345.680602,-19.1620912 C346.158389,-18.7373919 346.264563,-18.1534304 346.636175,-17.6225563 C347.251085,-16.8740042 347.965546,-16.2131277 348.759672,-15.6583222 C352.210353,-12.7916022 351.201692,-6.63346295 349.874507,-2.17412071 Z" fill="#A0A0A0" fill-rule="nonzero" mask="url(#mask-2)"></path>
                </g>
                <path d="M364.314282,484.268719 C363.217684,487.920126 359.582992,490.191808 355.820297,489.57746 C352.141435,488.912428 348.569737,487.751626 345.202815,486.126778 C341.795932,484.525331 337.81548,484.724354 334.585334,486.657652 C333.56282,487.679467 332.46236,488.620183 331.293915,489.471285 C329.629054,490.211992 327.789437,490.469538 325.985174,490.214508 C319.337507,489.816416 312.671976,489.816416 306.024308,490.214508 C302.826154,490.280158 299.678106,491.021939 296.7871,492.391092 C293.060304,494.860526 290.186635,498.420168 288.558551,502.583874 C285.9584,508.032847 283.895922,513.72244 282.400412,519.571845 C282.12777,521.240654 281.433382,522.812165 280.383091,524.137362 C279.103182,525.201658 277.528887,525.849897 275.870661,525.995421 C269.630694,526.379068 263.378488,525.47557 257.502418,523.341051 C251.570712,522.441272 246.271234,519.138699 242.850293,514.210017 C238.497126,505.34442 247.468898,495.3109 246.778762,485.489729 C246.29369,481.98879 245.216576,478.595882 243.593517,475.456209 C242.319419,472.854926 241.151496,470.147468 239.930486,467.440011 C239.028,465.528864 238.125514,463.617717 237.169941,461.759658 C233.7531,453.768971 227.060205,447.637041 218.801698,444.93095 C216.280899,444.659508 213.832608,443.92142 211.58181,442.754366 C205.636021,438.454286 210.466975,428.686203 207.812604,421.891015 C205.689108,416.157575 198.575395,413.343942 196.823511,407.504327 C196.001496,403.037818 197.229335,398.438293 200.168018,394.975699 C203.13536,391.695334 205.783962,388.140164 208.078041,384.358218 C210.784707,378.497491 210.784707,371.744526 208.078041,365.8838 C205.342396,360.101575 201.176285,355.113205 195.974112,351.390938 C193.616313,349.262217 190.640551,347.941722 187.480127,347.621732 C185.568981,347.621732 183.710921,348.205693 181.799775,348.364955 C179.888628,348.524217 176.491034,347.727906 173.889751,347.621732 C165.077241,347.143945 157.538829,353.514434 151.009078,359.460223 C147.146292,362.567216 143.873594,366.343406 141.34717,370.608579 C138.825362,374.934723 138.724913,380.258549 141.081733,384.676742 C142.27755,386.164537 143.326497,387.764625 144.21389,389.454609 C144.561647,391.652916 144.561647,393.892228 144.21389,396.090535 C143.789191,407.291978 157.220305,416.210662 154.831372,427.093581 C153.610361,432.402322 148.673232,436.967839 149.522631,442.329667 C150.000417,445.780348 152.707875,448.540893 153.451099,451.938488 C154.725197,457.83119 149.73498,463.193018 149.151019,469.191895 C148.567057,475.190772 151.646127,481.667436 147.346047,485.118117 C145.854714,485.949905 144.449828,486.92799 143.152142,488.037925 C141.713121,490.496964 141.535574,493.495539 142.674355,496.107211 C144.638589,503.274011 146.549736,510.493898 148.567057,517.713786 C149.506057,523.652574 148.461175,529.735285 145.594163,535.02028 C144.266977,538.09935 141.931132,540.647546 140.285422,543.620441 C138.41906,546.475926 138.177574,550.098211 139.648373,553.176174 C140.338509,554.397184 141.453345,555.29967 142.037306,556.467593 C143.152142,558.750352 142.355831,561.457809 142.833617,563.89983 C143.364492,567.244337 146.018862,569.84562 146.762086,573.083952 C147.289883,576.730848 146.024553,580.408211 143.364492,582.95821 C140.689472,585.390857 137.642737,587.380196 134.339632,588.850912 C122.71349,594.690527 109.707075,600.689404 97.1784469,596.973285 C94.2055521,596.070799 91.3919195,594.637439 88.4721121,593.575691 C75.8903964,589.010174 61.9284082,591.452195 48.7096437,590.549709 C46.4922651,590.513229 44.3128326,589.968371 42.3391548,588.957087 C37.0304141,585.718755 37.4020259,577.649469 39.631697,571.756767 C44.9484339,559.216409 53.392992,548.24945 64.1580794,539.904322 C67.5556735,537.090689 71.3779668,533.79927 71.537229,529.28684 C71.537229,526.154683 69.8915194,523.128701 70.0507816,519.996544 C70.0507816,515.059415 75.8903964,511.874171 79.7657772,507.680266 C84.4421576,502.499058 86.0546265,495.242948 84.0127698,488.568799 C86.6671402,479.490852 79.0756409,468.554846 79.1287283,459.0522 C79.3423476,457.268677 79.1795828,455.460179 78.6509416,453.743459 C77.5111714,451.952077 75.9417866,450.473936 74.0854246,449.443379 C70.2872391,446.516838 67.9596352,442.074993 67.7149357,437.286363 C67.4494986,432.986283 68.935946,428.73929 68.5643342,424.492298 C68.1927223,420.245305 64.4766038,415.626701 60.335786,416.582274 C60.335786,416.582274 71.9088409,406.283317 66.8124497,405.487006 C61.7160586,404.690695 66.8124497,400.178265 66.8124497,388.127424 C66.8124497,376.076582 66.8124497,388.127424 70.7940053,388.127424 C74.7755609,388.127424 78.8632913,378.093904 73.873075,369.015957 C68.8828586,359.93801 70.9001801,359.991098 73.873075,354.363832 C76.8459698,348.736567 81.1991372,351.072413 86.507878,354.098395 C91.8166187,357.124378 93.8339402,345.020449 95.4265625,335.995589 C97.0191847,326.97073 89.8523847,326.917643 86.4017032,317.892783 C82.9510217,308.867924 86.773315,306.744428 91.7104439,299.418365 C109.707075,299.789977 118.785022,291.242905 130.888951,291.455254 C142.99288,291.667604 146.815173,283.173619 156.052382,291.455254 C165.289591,299.73689 160.033938,299.789977 171.978604,304.780194 C183.923271,309.77041 190.08141,306.213554 193.213567,314.07049 C196.345724,321.927426 195.283976,320.865678 207.334818,320.865678 C219.385659,320.865678 226.499372,312.902567 232.498249,320.865678 C238.497126,328.828789 245.610839,331.854772 248.424471,336.7919 C251.238104,341.729029 270.296483,339.87097 264.350694,349.90449 C258.404904,359.93801 262.492634,365.034401 252.459114,370.024618 C262.492634,373.0506 267.058151,376.501281 274.808913,379.314914 C282.559674,382.128547 304.166249,370.874016 304.166249,370.874016 C305.015648,380.535924 300.556306,389.189172 301.08718,398.904167 C301.624273,401.881592 301.873165,404.903849 301.830403,407.929027 C301.314511,410.255968 300.585921,412.53059 299.65382,414.724215 C297.644305,422.163491 300.379894,430.075656 306.555183,434.68508 C307.935455,435.693741 309.421903,436.490052 310.855263,437.445625 C318.224923,442.273536 323.816952,449.375412 326.781485,457.671928 C327.239443,459.262725 328.016098,460.743786 329.064243,462.025095 C330.922303,463.776979 333.789023,463.776979 336.124869,464.732553 C340.318774,466.378262 342.65462,470.943779 346.74235,473.226538 C350.141194,474.582033 353.660639,475.612981 357.253657,476.305608 C361.07595,477.473531 364.792069,480.499513 364.314282,484.268719 Z" id="Path" fill="#A0A0A0" fill-rule="nonzero"></path>
                <path d="M544.758381,0.111561275 C538.334804,8.02158501 531.858141,16.0377836 525.487652,23.5761954 C519.117163,31.1146073 511.684926,40.2456414 505.261349,48.9519763 C495.280917,62.4361778 485.937533,77.2475645 471.444671,85.6884624 C458.75678,93.1206994 443.573782,94.6602342 428.974745,96.3059439 L405.72246,98.535615 C396.252775,99.9466941 386.61172,99.7312516 377.214522,97.8985661 C373.392229,96.8899054 369.67611,95.2972831 365.853817,94.1824476 C359.340737,92.6604647 352.686271,91.8242083 345.999126,91.6873394 L312.925671,89.8292802 C307.248292,89.2397493 301.513154,89.5623508 295.937701,90.7848535 C291.461969,92.7374688 286.826192,94.3004894 282.081888,95.4565454 C273.587902,96.4121187 266.155665,90.6255913 258.298729,86.9625601 C243.636129,80.2934807 226.657408,81.1038736 212.696646,89.1391439 C212.696646,82.5563053 210.785499,73.531446 216.784376,69.496803 C222.783253,65.4621601 217.73995,61.4275171 226.870984,59.4101956 C236.002018,57.3928741 237.913165,65.4621601 243.965129,59.4101956 C250.017093,53.3582311 277.622545,49.2174133 277.622545,49.2174133 C282.063281,51.2429469 286.79106,52.5681575 291.637621,53.1458815 C304.113162,54.1014548 316.694877,45.5012948 328.533369,49.3766755 C335.010033,51.5532593 339.7879,57.1274371 345.786777,60.5781186 C351.785654,64.0288001 360.810513,64.5065867 364.101932,58.5077097 C365.216768,56.4903882 365.641467,53.9421926 367.552614,52.827357 C368.843622,52.2199898 370.298028,52.0521737 371.693432,52.3495704 C392.928395,53.9421926 414.163358,55.5702064 435.398321,57.2336119 C439.984514,57.861946 444.647734,57.6278848 449.147959,56.5434756 C452.527959,55.2957676 455.766591,53.6942463 458.809868,51.7656089 C464.118608,48.8988889 469.745874,46.82848 475.054614,43.9086726 C487.105456,37.2727466 496.342665,25.9120414 506.960146,16.5155702 C517.577628,7.11909908 530.690218,-1.05636169 544.758381,0.111561275 Z" id="Path" fill="#A0A0A0" fill-rule="nonzero"></path>
                <path d="M395.317328,183.528555 C396.282405,188.351529 395.609807,193.358652 393.406181,197.75598 C392.762767,198.875556 392.314002,200.096197 392.078996,201.365924 C391.973338,202.655557 391.973338,203.951671 392.078996,205.241304 C392.259319,206.55085 391.709457,207.854226 390.645636,208.638898 C389.944665,208.945538 389.178496,209.073233 388.415965,209.01051 C385.071458,209.01051 380.983728,208.320374 379.975067,205.13513 C378.966407,201.949885 382.151651,198.074504 380.505941,195.101609 C379.301245,193.419893 377.229371,192.591143 375.197201,192.978113 C373.257,193.406742 371.369879,194.047651 369.569935,194.88926 C367.370622,195.67975 365.058111,196.109985 362.72166,196.163358 C357.996881,196.534969 357.253657,185.917488 358.846279,182.519894 C360.438901,179.1223 364.15502,178.750688 367.924226,178.219814 C377.479959,176.892629 392.662958,167.761595 395.317328,183.528555 Z" id="Path" fill="#6A6768" fill-rule="nonzero"></path>
                <path d="M320.092472,516.652037 C320.410996,515.908814 320.092472,515.059415 320.676433,514.263104 C321.535376,512.761677 323.010628,511.713472 324.711076,511.396384 C328.369614,510.33607 332.253981,510.33607 335.912519,511.396384 C337.543046,511.750274 338.93853,512.796888 339.734812,514.263104 C340.318774,515.749552 339.734812,517.448349 340.106424,519.040971 C340.478036,520.633593 342.123746,522.33239 342.44227,524.349712 C343.185494,528.915229 336.390306,531.038725 334.744596,535.391892 C333.098886,539.74506 336.177956,543.620441 334.744596,547.336559 C333.311236,551.052678 328.427195,552.6453 327.418534,556.149069 C327.312875,557.438702 327.312875,558.734816 327.418534,560.024449 C327.127369,563.435797 324.930926,566.388633 321.74742,567.648537 C318.563914,568.90844 314.94161,568.258429 312.394797,565.970239 C307.902726,562.221934 305.156132,556.786366 304.803298,550.946503 C305.671416,544.411642 307.347646,538.009869 309.793514,531.888123 C310.094849,528.329199 311.14408,524.873972 312.872584,521.748429 C314.783731,519.571845 319.083811,519.67802 320.092472,516.652037 Z" id="Path" fill="#6A6768" fill-rule="nonzero"></path>
                <path d="M361.235212,518.722446 C361.166412,516.636383 361.453657,514.553852 362.084611,512.564307 C362.562398,511.396384 363.358709,510.334636 363.730321,509.166713 C363.984351,507.64537 364.32107,506.138995 364.738981,504.654283 C365.868086,502.26802 368.674603,501.192189 371.10947,502.212263 C373.315063,503.451719 374.615157,505.845543 374.453977,508.370402 C374.250993,510.833449 373.565543,513.232523 372.436655,515.431027 C371.198616,518.181082 370.169352,521.020433 369.357586,523.925012 C367.825981,530.037887 368.234151,536.475846 370.525509,542.346343 C370.707351,542.917435 371.037027,543.430263 371.481082,543.83279 C371.970864,544.150133 372.543216,544.3163 373.126792,544.310577 C378.010833,544.310577 383.744273,542.027818 387.30113,545.053801 C389.934873,547.556449 390.298665,551.626367 388.150528,554.556446 C385.954211,557.345655 382.622091,559.001972 379.072581,559.068876 C375.481827,559.121859 371.903265,558.638753 368.4551,557.635516 C365.235253,556.034073 361.326193,557.108493 359.377153,560.130624 L351.944916,568.996221 C351.367196,569.736026 350.644634,570.350205 349.82142,570.801193 C348.113246,571.393719 346.217207,570.83982 345.09664,569.420921 C344.026025,568.049022 343.281699,566.451444 342.920057,564.749229 C342.033888,562.410914 341.849388,559.864811 342.389183,557.423166 C343.610193,553.760135 347.273224,552.539125 349.715245,549.937842 C351.822913,547.461546 353.249941,544.479422 353.856063,541.284595 C356.616608,533.533833 360.810513,527.216432 361.235212,518.722446 Z" id="Path" fill="#6A6768" fill-rule="nonzero"></path>
                <path d="M342.760795,589.806485 L355.661035,591.13367 C354.625433,593.674516 353.070367,595.970951 351.095518,597.875771 C349.060571,599.733749 346.222408,600.433296 343.557106,599.73383 C340.880896,598.823785 339.387137,595.976306 340.159512,593.257167 C341.380522,590.337359 345.202815,589.753398 348.334972,589.594136" id="Path" fill="#6A6768" fill-rule="nonzero"></path>
                <path d="M282.931286,570.111057 C284.739656,572.293935 285.750729,575.027577 285.798006,577.861818 C285.796752,580.773314 283.722548,583.27128 280.860877,583.807608 C279.084507,583.822554 277.338765,583.344772 275.817574,582.427335 L269.181648,579.082829 C267.828296,578.653715 266.800089,577.544864 266.47419,576.163021 C264.775393,571.862941 263.235858,563.740568 268.863123,561.404722 C274.490388,559.068876 280.223828,566.448026 282.931286,570.111057 Z" id="Path" fill="#6A6768" fill-rule="nonzero"></path>
                <path d="M67.7437051,387.953046 L67.7439253,388.074336 C67.7439253,391.383719 67.402778,394.26097 66.7590038,397.326466 L66.5432108,398.310012 L65.8414232,401.271893 L65.7848151,401.525175 L65.6892612,401.982592 C65.6752606,402.053649 65.66221,402.122211 65.6500906,402.188418 L65.5883996,402.558529 C65.5460532,402.845286 65.5260514,403.080218 65.5260514,403.280929 L65.5319697,403.473388 C65.5663018,403.941374 65.7711791,404.062488 66.6780644,404.197556 C68.6189408,404.486622 69.3755088,405.953643 68.8198995,407.741557 C68.4688729,408.871137 67.6146559,410.211076 66.3435162,411.775465 C65.8791942,412.346905 65.3646099,412.94036 64.8080609,413.55044 C63.9433145,414.498361 63.0196688,415.441101 62.0962786,416.337097 L61.411031,416.993015 L60.857249,417.507974 L59.1772742,415.656574 L59.695836,415.174195 L60.1261116,414.764311 C60.2010317,414.692283 60.2774763,414.618456 60.3553261,414.542916 C61.244747,413.679882 62.1339124,412.772335 62.9611231,411.86556 C63.4871943,411.288889 63.970988,410.730944 64.403276,410.198928 C65.4155935,408.953071 66.1038288,407.8963 66.3797386,407.153889 L66.4607861,406.913998 L66.534507,406.724119 C66.5421303,406.700673 66.5398859,406.69133 66.5238084,406.687275 L66.3763221,406.678377 C66.3563169,406.676505 66.3341872,406.673915 66.3097862,406.670281 C64.1265872,406.345124 63.0260514,405.223514 63.0260514,403.280929 C63.0260514,402.664269 63.1254837,401.984566 63.3369512,401.016403 L64.1356353,397.623794 L64.1648907,397.493962 C64.8167385,394.567582 65.1845891,391.883052 65.2373244,388.842293 L65.2439253,388.074336 L65.2488028,384.933965 L65.2626615,383.86249 L65.2789479,383.345669 L65.2941648,383.07452 L65.3136495,382.85355 C65.3322492,382.684664 65.3569544,382.545292 65.4013029,382.405585 C65.4472137,382.260957 65.5098444,382.12504 65.6158652,381.983848 C65.8408692,381.684203 66.1922424,381.468407 66.6413903,381.468407 C67.028764,381.468407 67.3205232,381.621665 67.5429606,381.838314 C67.6432073,381.935952 67.7152382,382.033658 67.7782538,382.139617 C67.8210614,382.211598 67.8576261,382.284379 67.8928211,382.3645 L67.967498,382.548585 L68.065143,382.822993 L68.3404211,383.646522 C68.3653278,383.719528 68.3893573,383.78916 68.4127515,383.856026 L68.5474331,384.22891 C68.5692556,384.28715 68.5909273,384.343842 68.6126905,384.399594 L68.7463039,384.727707 C68.7694015,384.782138 68.7930749,384.836846 68.8175662,384.892442 C69.3845366,386.179464 69.9763793,386.824336 70.4754809,386.824336 C71.7622932,386.824336 73.4127453,384.800642 74.186529,381.699818 C75.126857,377.931592 74.6164343,373.539012 72.4559837,369.559234 L71.8844876,368.491034 L71.5366206,367.821816 L71.2148154,367.185046 L70.9186924,366.579109 L70.6478722,366.00239 L70.4019754,365.453272 L70.1806226,364.930142 C70.0411511,364.589692 69.9177892,364.26549 69.8100311,363.955382 L69.6600335,363.500521 C69.0602082,361.572933 69.1089541,360.195334 69.6673338,358.776284 C69.6972241,358.700322 69.7398177,358.605784 69.7929504,358.495957 L69.981801,358.123896 L70.2208992,357.679823 L70.6453537,356.921832 L71.4200441,355.577837 L72.2106764,354.211565 L72.3842506,353.901362 L72.4468635,353.784583 C74.1023492,350.61883 76.2848036,349.2553 79.0813483,349.536714 C79.4496122,349.573772 79.807494,349.629592 80.1714426,349.709829 L80.5380226,349.798414 C81.0311169,349.927937 81.5447439,350.104216 82.1178931,350.340651 L82.5595246,350.529466 C82.635193,350.562885 82.7119437,350.597296 82.7898529,350.632725 L83.2718194,350.857733 L83.7852448,351.10844 L84.6223646,351.535433 L85.2304294,351.855883 L86.2266423,352.39338 L86.952192,352.791424 C88.3861051,353.582087 89.3723433,353.002007 90.4610115,350.650894 C90.7631466,349.998396 91.0430571,349.26366 91.3116464,348.417394 L91.4891484,347.836372 L91.6640139,347.220375 C91.6929784,347.114687 91.7218629,347.007461 91.7506824,346.898658 L91.9229392,346.226583 L92.0943544,345.514711 L92.2656459,344.761113 L92.4375315,343.963861 L92.6107292,343.121027 L92.8745565,341.767088 L93.0541754,340.801858 L93.9440291,335.782891 C93.9575979,335.707576 93.9709969,335.63343 93.9842605,335.560266 C94.6130235,332.091928 94.0063032,330.185544 91.9023076,327.741483 L91.4106367,327.193454 L89.4248949,325.032195 L89.1028928,324.671019 L89.0197242,324.575392 C87.2869239,322.563618 86.035315,320.585685 85.0748761,318.073768 C83.1173796,312.954162 83.2086897,309.605689 85.182774,306.129257 L85.2449791,306.022716 L85.3993846,305.774048 L85.5903728,305.48219 L85.8138502,305.15225 L86.341899,304.39855 L86.9507841,303.553811 L87.9440456,302.205385 L88.9349864,300.881961 L90.801924,298.422932 L91.2376979,297.810843 C91.3071747,297.712131 91.375093,297.615036 91.4414791,297.519508 L91.8216211,296.96474 L92.1662581,296.445149 L92.4766563,295.958307 C92.5256065,295.879761 92.5731828,295.802479 92.6194116,295.726409 L92.880826,295.284138 C92.962715,295.141296 93.0394251,295.0029 93.1111674,294.868545 L93.3117022,294.477203 C93.7768361,293.527134 93.9744041,292.78164 93.993444,292.069967 C94.0152655,291.254325 93.8110243,290.374619 93.2917765,289.038833 L93.1085067,288.58277 L90.8772647,283.420155 L90.6621743,282.909726 C88.9666942,278.826246 88.4133222,275.726669 88.6552018,272.367202 C88.7229177,271.426696 88.8484659,270.468532 89.0492472,269.289748 L89.1819177,268.541191 L89.8462836,264.990518 C90.1554435,263.279814 90.3870853,261.771335 90.5749149,260.14917 C91.1453532,255.222657 90.344519,252.938428 87.6178332,250.421418 L87.4210938,250.243 L86.9459509,249.860539 L85.4665922,248.633259 L84.1018049,247.479651 L83.0746004,246.596245 L82.0769458,245.720707 L81.5193986,245.220219 L81.0096822,244.751722 L80.5617441,244.32615 L80.3118212,244.079238 C77.2964918,241.040352 76.1692844,239.038595 76.2883241,236.82975 C76.3235486,236.17614 76.4606894,235.539765 76.7161162,234.741161 L76.839849,234.369098 L77.6692911,232.032815 C77.684111,231.989307 77.6974854,231.949594 77.7091801,231.914302 C78.1662263,230.535044 78.4943244,229.210885 78.7134373,227.697206 L78.7905349,227.120214 L78.8335241,226.914754 C80.264815,222.124016 80.3141698,217.030244 78.9815887,212.218607 L78.8335241,211.704181 L81.2289044,210.988532 C82.7967424,216.236312 82.8490036,221.816433 81.3856882,227.08637 L81.2570938,227.53 L81.1870694,228.059448 C80.9759464,229.516814 80.6718873,230.820065 80.263651,232.135628 L80.0822816,232.700679 L79.820215,233.456616 L79.1852776,235.235929 C78.9310867,235.986207 78.8097397,236.499689 78.7847015,236.964285 C78.7272308,238.030684 79.2333195,239.163115 80.7512657,240.896903 L81.152092,241.343188 C81.3633048,241.572905 81.5909115,241.812715 81.8357879,242.063663 L82.2015312,242.433083 L82.4568817,242.680683 L82.7426736,242.950027 L83.3904565,243.542073 L83.9280785,244.021112 L84.8849392,244.856512 L86.4429711,246.186487 L89.0810938,248.373 L89.3132844,248.584285 C92.5527291,251.577279 93.6687794,254.573338 93.1016858,260.041874 L93.0583226,260.436722 C92.8916054,261.876553 92.6918699,263.227847 92.4379849,264.692443 L92.2494791,265.745008 L91.5895308,269.274416 L91.4477011,270.106757 C91.2980122,271.030656 91.2023969,271.801592 91.148747,272.546736 C90.9358813,275.503228 91.4201583,278.215786 92.9710632,281.951064 L94.0999852,284.577433 L95.1394752,286.972975 L95.4582704,287.722514 L95.4948315,287.811969 C96.2165185,289.604921 96.5269628,290.85054 96.4925498,292.136827 C96.444828,293.920572 95.7506776,295.591042 93.9772592,298.23903 L93.5486531,298.867953 C93.47396,298.975831 93.3976211,299.085279 93.3196118,299.196359 L92.775467,299.95797 L90.2188004,303.337872 L89.1837153,304.733322 L88.3985201,305.815702 L87.9950413,306.387637 L87.6622531,306.876485 L87.4877322,307.146138 L87.3567273,307.363731 C85.7753932,310.148517 85.7052102,312.722228 87.4100057,317.180924 C88.2583655,319.399711 89.357827,321.137204 90.9139417,322.943847 L91.4518351,323.546222 L93.5563017,325.835278 C96.2298919,328.846246 97.185985,331.446116 96.5101024,335.622174 L95.60572,340.743246 L95.4167164,341.775593 L95.2311299,342.75496 L94.9572345,344.129656 L94.7763458,344.986535 L94.5957983,345.798403 C94.5656867,345.930089 94.5355527,346.059995 94.505378,346.188168 L94.3236947,346.936785 C94.2324624,347.301074 94.1405343,347.650617 94.0474159,347.986695 L93.8594459,348.641276 L93.6674233,349.262227 C93.3759106,350.169568 93.0677545,350.971087 92.7296089,351.701354 C91.1074363,355.204635 88.7092921,356.615161 85.7450395,354.980667 L84.7342616,354.427803 L84.120255,354.097787 L83.2809383,353.657549 L82.7711456,353.3988 L82.2973863,353.16642 L81.8564302,352.959187 C81.7854917,352.926676 81.7157854,352.895161 81.6472441,352.864619 L81.249437,352.692816 L80.8763584,352.543107 L80.5247785,352.414269 C80.1828712,352.29546 79.868367,352.206126 79.5667313,352.140769 L79.2688468,352.083202 C79.1215109,352.058211 78.976181,352.038756 78.8310401,352.024151 C77.180666,351.858076 75.9604931,352.577646 74.7918894,354.701314 L74.5167051,355.212158 L74.326153,355.551301 L72.7686653,358.244825 L72.4195427,358.863343 L72.1505528,359.361957 L72.0315551,359.603565 C72.0164029,359.636772 72.0037227,359.666247 71.9937123,359.691687 L71.9140398,359.913174 C71.6476114,360.731625 71.6680445,361.630817 72.1110952,362.976217 L72.2425073,363.354481 L72.3954877,363.75652 L72.5706483,364.183979 L72.768601,364.638506 L72.9899579,365.121749 L73.2353309,365.635356 L73.6497592,366.466301 L73.9578499,367.063023 L74.4692235,368.026365 C74.529389,368.138125 74.5906827,368.251493 74.6531173,368.366505 C77.1018761,372.877376 77.5469846,378.180236 76.6112483,382.323175 L76.4871344,382.83486 C75.5030167,386.625069 73.3280736,389.324336 70.4754809,389.324336 C69.3609062,389.324336 68.4761931,388.827445 67.7437051,387.953046 Z" id="Path" fill="#FFFFFF" fill-rule="nonzero"></path>
                <path d="M146.98653,286.686587 C150.504357,286.190888 153.63503,287.275982 157.258425,290.524543 C159.206713,292.271283 160.654048,293.769891 161.831614,295.202608 C162.190354,295.639079 162.511072,296.052275 162.84784,296.507247 L164.036368,298.147273 C164.484576,298.747306 164.851006,299.165753 165.299724,299.571716 L165.424265,299.682052 L165.68998,299.903424 C165.736198,299.940438 165.783411,299.977524 165.83166,300.014704 L166.133932,300.239059 C166.186496,300.276692 166.240181,300.314458 166.295029,300.352378 L166.63841,300.581906 C166.757747,300.659138 166.882073,300.737148 167.011726,300.816098 L167.417,301.055927 C167.487321,301.096423 167.559059,301.137194 167.632254,301.17826 L168.089259,301.428371 C168.168455,301.470701 168.249194,301.513368 168.331517,301.556392 L168.844806,301.818972 L169.398146,302.091082 C169.493819,302.137282 169.591246,302.183919 169.690467,302.231015 L170.307678,302.519243 L170.969999,302.819434 L171.679452,303.13256 L172.438061,303.459595 L173.418411,303.871829 L173.971567,304.097333 L174.501151,304.306656 L175.012418,304.50131 L175.51062,304.682807 C175.592857,304.712045 175.674768,304.740797 175.756464,304.769095 L176.244918,304.933696 C176.326186,304.960306 176.407458,304.986525 176.488841,305.012386 L176.979366,305.163492 L177.477838,305.307492 C177.561871,305.330985 177.646454,305.354244 177.731696,305.377301 L178.251937,305.51348 L178.793258,305.646336 L179.360911,305.777381 L179.96015,305.908127 L180.596226,306.040089 L181.630904,306.243617 L182.778015,306.458386 L185.339831,306.918624 L186.01779,307.04868 L186.662174,307.183956 C186.871511,307.230051 187.075459,307.277213 187.274224,307.325643 L187.85518,307.474927 C191.533027,308.472551 193.318943,310.027077 194.746315,313.607605 L195.688468,315.951037 L196.008896,316.722775 L196.281684,317.352385 L196.40305,317.619163 L196.569505,317.965224 L196.671733,318.162936 L196.814798,318.415282 L196.904978,318.557106 L196.992325,318.680264 L197.077973,318.786864 L197.163056,318.879015 L197.248709,318.958825 L197.336067,319.028403 C197.350831,319.039263 197.365714,319.049786 197.380739,319.060013 L197.472781,319.118194 C197.566903,319.173543 197.667837,319.221449 197.780688,319.271399 C198.168868,319.443217 198.703559,319.551178 199.522842,319.609285 L199.998777,319.63612 L200.53614,319.653572 L201.068514,319.660564 L207.653342,319.615678 C210.777995,319.615678 213.493309,319.128314 217.301369,318.05289 L220.939204,317.010831 L222.056071,316.703485 L222.791136,316.512645 L223.11477,316.433699 L223.55446,316.333958 L223.821805,316.278925 L224.192249,316.211864 L224.535727,316.161348 C224.572798,316.156569 224.609572,316.152054 224.646117,316.147789 L224.856838,316.125669 C225.309921,316.083408 225.747348,316.076518 226.304718,316.076518 C229.186563,316.076518 231.539496,317.231005 233.595962,319.829591 L233.815174,320.11355 C234.939494,321.606011 236.156335,322.991927 237.500864,324.338001 L237.831608,324.661393 L238.430899,325.223183 L239.132007,325.859618 L239.910191,326.551128 L240.740708,327.278142 L243.218919,329.408443 L246.449826,332.154952 L246.482465,332.184586 C247.864552,333.466649 248.883916,334.629893 249.641987,335.859135 L249.826119,336.167927 C250.156307,336.741082 250.829926,337.220101 252.067238,337.721405 L252.476963,337.880588 L252.925705,338.042067 L253.415005,338.206658 L253.946404,338.375174 L254.521445,338.548431 L255.141669,338.727243 L255.808616,338.912425 L257.836055,339.453879 L258.626689,339.670834 L259.36255,339.880664 L260.046916,340.085193 L260.683067,340.286243 L261.274283,340.485638 C262.983806,341.083162 264.130974,341.682951 265.114235,342.506514 C267.356327,344.384452 267.680701,347.000412 265.901656,350.212866 L265.419987,351.051645 C265.367565,351.143877 265.31627,351.234851 265.266039,351.324714 L264.976947,351.851761 C264.930731,351.93778 264.885457,352.022986 264.841065,352.107528 L264.584786,352.608018 C264.502556,352.77299 264.423357,352.936501 264.346698,353.099743 L264.123851,353.589854 L263.913296,354.085504 C263.8106,354.335905 263.711407,354.591065 263.61406,354.855007 L263.421334,355.395792 C263.389459,355.488272 263.357666,355.582025 263.325894,355.677202 L263.135018,356.266523 L262.94169,356.897143 L262.74296,357.576212 L262.53588,358.310883 L262.084873,359.975636 L261.962295,360.43775 C260.577806,365.672308 258.931709,368.127194 253.992144,370.750581 L253.499481,371.007142 L253.339018,371.08838 C247.475644,374.035578 243.540039,374.298297 238.129755,372.875639 L237.533682,372.714011 L235.3518,372.094362 C235.23257,372.061119 235.116425,372.029013 235.003079,371.997988 L234.354259,371.824335 L233.758734,371.673843 L233.202658,371.543747 L232.672189,371.431285 C232.411048,371.379002 232.154318,371.332296 231.894213,371.289613 L231.367192,371.209151 L225.644547,370.37446 L220.670902,369.631234 L207.623126,367.65023 L208.002083,365.179118 L215.962829,366.392022 L226.008915,367.901154 L232.01003,368.776817 L232.580168,368.870126 L233.14436,368.975791 L233.717239,369.096651 C233.814255,369.118217 233.912244,369.140536 234.011509,369.163664 L234.624854,369.312634 L235.283467,369.48389 L236.388274,369.78877 L238.013017,370.252212 L238.383082,370.355014 C243.312548,371.708472 246.624091,371.583986 251.793018,369.06425 L252.363678,368.780047 L252.811424,368.547055 L253.387048,368.233916 C256.912648,366.262469 258.193975,364.476814 259.288622,360.724933 L259.46021,360.115877 L259.915858,358.412713 L260.144552,357.578915 L260.467878,356.444916 L260.674778,355.755982 C260.708899,355.645119 260.742881,355.536135 260.776788,355.428874 L260.979853,354.804778 C261.01372,354.703802 261.04764,354.604244 261.081678,354.50595 L261.287839,353.930133 C261.357374,353.742433 261.427894,353.558565 261.499914,353.377301 L261.720983,352.840096 C261.758748,352.751455 261.797017,352.663159 261.835853,352.575053 L262.076189,352.047487 C262.117551,351.959533 262.159608,351.871463 262.202425,351.783124 L262.46896,351.248638 C262.515073,351.158611 262.562074,351.068007 262.610028,350.976675 L262.909691,350.418709 C262.961711,350.323848 263.014811,350.227951 263.069056,350.130866 L263.408779,349.53286 L263.589907,349.220858 C264.95749,346.879949 264.817556,345.519102 263.508973,344.423056 C263.220781,344.181671 262.89631,343.95926 262.517518,343.746797 L262.179114,343.56691 C261.944082,343.448329 261.689629,343.332154 261.412388,343.2167 L260.979016,343.04385 L260.508936,342.870817 C260.42739,342.841893 260.34421,342.812909 260.259342,342.783839 L259.729469,342.608166 L259.156576,342.429153 C259.057369,342.398969 258.956264,342.368593 258.853208,342.337999 L258.211052,342.151608 L257.519565,341.958719 L255.118546,341.316017 L254.060816,341.021088 L253.412225,340.831156 L252.806757,340.645038 L252.242589,340.461417 C252.151902,340.430948 252.062859,340.400529 251.975423,340.370132 L251.469787,340.18779 C249.521943,339.457712 248.455919,338.708604 247.746703,337.561378 L247.659872,337.415874 C247.076899,336.40392 246.250479,335.414754 245.08166,334.299073 L244.751291,333.989455 L240.913028,330.7286 L239.967959,329.91704 L238.55783,328.691295 L237.458751,327.716816 L237.053734,327.351044 L236.495872,326.838065 L236.009682,326.377443 L235.732081,326.104752 C234.486377,324.857615 233.340673,323.574177 232.271817,322.208343 L231.818373,321.617806 C230.239674,319.522189 228.623552,318.644763 226.555127,318.580368 L226.195085,318.576668 L225.785288,318.581651 L225.403358,318.597575 L225.120668,318.619851 L224.928337,318.640852 L224.520797,318.700562 L224.183236,318.76342 L223.807005,318.84423 L223.227601,318.983724 L222.142797,319.271645 L220.726696,319.669714 L218.547107,320.296949 C214.434566,321.485545 211.488417,322.062151 208.135298,322.112114 L201.386736,322.160327 L200.793992,322.158686 C198.868683,322.131404 197.726822,321.981504 196.76882,321.557471 L196.379896,321.380194 L196.120478,321.250304 L195.960504,321.161363 L195.809416,321.068175 L195.665933,320.968708 L195.528778,320.860933 C195.506375,320.842165 195.484183,320.822966 195.462174,320.803294 L195.332111,320.679247 C195.310731,320.657514 195.28948,320.635222 195.268334,320.612331 L195.142487,320.467443 L195.017851,320.306122 L194.893149,320.126337 L194.7671,319.926058 L194.638425,319.703254 L194.505847,319.455893 L194.368085,319.181945 L194.223862,318.87938 L194.071898,318.546165 L193.82664,317.984433 L193.361054,316.866198 L192.424043,314.533375 C191.24198,311.5682 189.913651,310.48494 186.392641,309.682453 L185.818172,309.557844 L185.20547,309.436502 C185.100067,309.416472 184.992997,309.396521 184.884222,309.376618 L182.27627,308.908038 L180.722233,308.614371 L180.019463,308.474402 L179.042982,308.268621 L178.143565,308.063146 L177.577799,307.92372 L177.032829,307.780512 L176.503276,307.631954 C176.416002,307.606662 176.329147,307.581081 176.242598,307.55518 L175.726077,307.395659 C175.640304,307.368343 175.554612,307.340642 175.468889,307.312521 L174.953294,307.138512 C174.867001,307.108585 174.780454,307.078175 174.693541,307.047248 L174.166761,306.855222 L173.625799,306.649228 L172.775991,306.310615 L171.864001,305.931756 L171.034149,305.577673 L170.255163,305.237507 L169.524877,304.910107 L168.841127,304.594324 L168.201747,304.289005 L167.604573,303.993002 L167.047439,303.705164 L166.528181,303.424339 C166.361167,303.331772 166.200104,303.240182 166.044633,303.149378 L165.59463,302.87913 C165.305329,302.70028 165.036948,302.523805 164.7866,302.348171 L164.424243,302.085159 C164.132949,301.866188 163.867577,301.647333 163.622488,301.425598 C163.12319,300.973875 162.707412,300.515997 162.260211,299.941101 L161.85606,299.401507 L161.080699,298.325371 C160.672939,297.76331 160.31344,297.292725 159.900256,296.790013 C158.80539,295.457916 157.445926,294.050292 155.589563,292.385966 C152.591499,289.698047 150.241644,288.830399 147.600482,289.128463 L147.159405,289.186739 L146.715807,289.250984 L146.383111,289.310757 L146.099847,289.375598 L145.67677,289.492694 L145.119609,289.66696 L143.118713,290.34198 L141.719071,290.822456 C137.992796,292.10211 135.210583,292.707767 131.785082,292.709755 L131.238636,292.705062 C128.517595,292.657324 125.827084,293.060505 122.713884,293.910393 C122.444875,293.983832 122.17312,294.060391 121.896115,294.140753 L121.046847,294.393935 L120.15106,294.674035 C119.997052,294.72319 119.840479,294.773636 119.681029,294.82546 L118.434084,295.23899 L114.475019,296.59717 C106.105037,299.455217 100.319893,300.700859 92.8178183,300.625899 L92.1093375,300.615012 L92.1609489,298.115544 C99.2110683,298.261122 104.599455,297.230429 112.172993,294.733051 L117.893357,292.783037 L118.413569,292.609994 L119.399019,292.289805 L120.324124,292.000647 C120.474143,291.954807 120.622296,291.910086 120.768906,291.866395 L121.632645,291.615919 C121.77438,291.576002 121.91522,291.536941 122.055489,291.498648 C125.15999,290.651134 127.90995,290.213559 130.686881,290.20151 L131.282489,290.205447 C134.455591,290.261115 136.97269,289.771773 140.364107,288.641757 L142.934496,287.75354 L143.762415,287.477736 L143.953134,287.416791 C145.096975,287.054647 146.052095,286.818259 146.98653,286.686587 Z" id="Path" fill="#FFFFFF" fill-rule="nonzero"></path>
                <path d="M253.404003,368.987121 C257.052332,370.087411 260.15293,371.280876 263.528944,372.812652 L264.284471,373.158714 L265.493576,373.724337 L269.199128,375.49013 L270.096906,375.909754 L270.939423,376.296168 L271.737547,376.653728 C271.867472,376.711159 271.996,376.767569 272.123358,376.823049 L272.875272,377.145495 C272.998854,377.197618 273.121718,377.248992 273.244092,377.299709 L273.97425,377.596843 L274.703491,377.882546 L275.442683,378.161176 C275.567314,378.207267 275.692814,378.253245 275.819407,378.2992 C277.978537,379.082994 281.750678,378.612 286.613482,377.091092 L287.50953,376.803039 C287.660836,376.753118 287.813114,376.702243 287.96635,376.650422 C289.948953,375.979944 292.042408,375.168735 294.204388,374.247272 C296.501596,373.268173 298.753244,372.218205 300.863418,371.168362 L301.714475,370.740926 L302.492989,370.342291 L303.569823,369.775483 L304.762675,371.97255 L304.011337,372.370616 L303.253504,372.762531 L302.420385,373.185008 L301.977001,373.40665 C299.825526,374.477041 297.530348,375.547308 295.184601,376.547094 C292.967101,377.492221 290.815052,378.326135 288.767243,379.018664 C288.278151,379.184065 287.797779,379.340675 287.326297,379.488237 L286.395236,379.771225 C281.493323,381.215355 277.615616,381.610876 274.966342,380.649153 L274.147357,380.345982 C273.743518,380.193476 273.346529,380.03894 272.949062,379.879451 L272.151319,379.553002 C272.017531,379.497205 271.883148,379.440641 271.747897,379.383202 L270.923807,379.027199 L270.065867,378.645 L269.161045,378.231407 L268.196312,377.781225 L264.858619,376.189986 L263.237133,375.428757 L262.495988,375.089273 C259.489066,373.724962 256.718918,372.64145 253.555209,371.649148 L252.682148,371.380639 L253.404003,368.987121 Z" id="Path" fill="#FFFFFF" fill-rule="nonzero"></path>
                <path d="M236.157568,61.9007803 L234.830858,61.3272519 C232.008413,60.1164946 230.029965,59.7763424 227.142147,60.4180798 C226.933662,60.4644098 226.734013,60.5105457 226.542732,60.5567595 L225.993518,60.6959067 C223.368247,61.395532 222.519689,62.1739039 221.860651,63.9492673 L221.7309,64.3179052 L221.473108,65.0971724 L221.278376,65.6397409 C220.525446,67.644342 219.66998,68.8127335 217.736182,70.1491638 L217.477752,70.3245163 C214.5229,72.2944173 213.54271,75.6207753 213.651722,81.3516989 L213.666518,81.9457026 L213.693849,82.7123537 L213.776048,84.405884 L213.870181,86.2177872 L213.904105,86.9627805 L213.927126,87.5906218 L213.943385,88.3297266 L213.946646,88.8737068 L211.446646,88.8737068 L211.442199,88.2676847 L211.42729,87.6389548 L211.380166,86.4861139 L211.224974,83.4638506 L211.173713,82.2147759 L211.16201,81.8235291 C210.981648,75.2031674 212.094396,71.0523491 215.847821,68.4109498 L216.091001,68.2443905 C217.923722,67.0225763 218.489356,66.162885 219.197379,64.0227383 L219.286725,63.7484321 C220.338175,60.4737092 221.856509,59.0316814 226.599821,57.9776121 C230.077888,57.2047083 232.554786,57.6305587 235.816438,59.0297248 L237.716067,59.838191 L238.092135,59.9827111 L238.266894,60.0375842 L238.42607,60.0773735 L238.703844,60.1389695 C240.082679,60.450614 241.252402,60.077937 242.875897,58.5155003 L243.081246,58.3139625 C244.42987,56.9653385 246.678643,55.7058815 249.707572,54.5155515 L250.480988,54.2193976 C250.612577,54.1702747 250.745502,54.121269 250.879756,54.072379 L251.70115,53.780415 C251.980216,53.6835486 252.264526,53.5871332 252.55401,53.4911573 L253.437918,53.2045364 L254.352457,52.9204826 L255.297211,52.6389264 L256.271764,52.3597983 L257.275698,52.0830285 L258.308597,51.8085475 L259.370044,51.5362858 C259.549308,51.4910899 259.729744,51.4459836 259.911343,51.4009654 C263.750164,50.4493283 267.857157,49.6046756 271.963319,48.875813 L273.168787,48.6652634 L274.319375,48.47086 L275.931989,48.2098985 L277.446435,47.9798814 L277.798656,50.4549452 L276.320684,50.6794969 L275.274744,50.8472114 L274.167069,51.0312075 L273.002434,51.2313048 C272.803848,51.2659861 272.603087,51.3013308 272.400251,51.3373351 C268.345273,52.0571122 264.291126,52.8908965 260.512881,53.8275169 L259.496254,54.0838622 L258.505901,54.3423732 L257.542425,54.6029429 C257.38412,54.6465368 257.226959,54.690212 257.070956,54.7339663 L256.148932,54.9974232 C255.997611,55.0414849 255.847472,55.0856212 255.698529,55.1298299 L254.819319,55.395933 L253.969406,55.6636664 L253.149397,55.932923 L252.359896,56.2035956 L251.601508,56.4755773 L250.874838,56.7487608 C250.756403,56.7943856 250.639315,56.840056 250.523586,56.8857698 L249.845627,57.1605554 C247.530573,58.1240023 245.826127,59.1046145 244.849012,60.0817294 C242.541224,62.3895175 240.47703,63.1028063 238.152696,62.57746 C237.709982,62.4773975 237.264756,62.3365282 236.761069,62.1438149 L236.451393,62.0218774 C236.355773,61.9832377 236.259644,61.943613 236.157568,61.9007803 Z" id="Path" fill="#FFFFFF" fill-rule="nonzero"></path>
                <path d="M372.338563,51.4401153 C374.562617,53.8049322 377.200996,55.5331145 380.748494,57.1603663 L381.415992,57.4610466 L382.120223,57.7676198 L382.880637,58.089083 L385.810046,59.2869984 L386.628584,59.6276831 L387.409043,59.9633406 C387.536002,60.0189358 387.661416,60.0743751 387.785307,60.129685 L388.510534,60.4602073 C393.225709,62.6561983 395.569853,64.7308788 396.883032,68.3949482 L396.979608,68.6727603 C397.94615,71.53962 399.568468,72.5154465 402.844195,72.816943 L403.244779,72.8500258 L404.102643,72.9040376 L405.103493,72.9608699 L405.67229,72.9999024 C405.762466,73.0067154 405.850417,73.0137054 405.936274,73.0209072 L406.427316,73.0669386 L406.874327,73.1197247 L407.283552,73.1809368 C408.068378,73.3129007 408.663951,73.5054464 409.295062,73.8187325 C410.92258,74.6266381 411.910265,76.0915904 412.234204,78.2965924 L412.272691,78.5884051 L412.281192,78.7386703 C412.255533,85.6238795 410.478814,92.3857467 407.12299,98.3897571 L406.80376,98.9503934 L404.64116,97.6961374 C407.879574,92.1124317 409.644073,85.8003667 409.773767,79.3536317 L409.780094,78.807 L409.766755,78.6967423 C409.513837,76.8123212 408.877033,76.0475046 406.973809,75.6876857 L406.576017,75.6209101 L406.142885,75.5636641 L405.672843,75.5146772 L405.164324,75.472679 L404.340005,75.4207642 L403.058167,75.3430561 L402.943341,75.334272 C398.679145,75.0020158 396.106973,73.6091773 394.710697,69.7576728 L394.610621,69.4714473 C393.689042,66.7379504 392.044855,65.0503255 388.633709,63.3014754 L388.031437,63.0008661 L387.393379,62.697818 C387.283988,62.6470379 387.173058,62.5961045 387.060564,62.544992 L386.366632,62.2359615 L385.63399,61.9213934 C385.508592,61.8684351 385.381533,61.8151944 385.252787,61.7616455 L382.333623,60.5688768 L381.514249,60.2267262 L380.759852,59.9032662 L380.050351,59.5891657 C379.934726,59.5370771 379.820136,59.4849898 379.706162,59.4327092 C376.062758,57.7614649 373.257476,55.9564702 370.857561,53.5071864 L370.517427,53.1528507 L372.338563,51.4401153 Z" id="Path" fill="#FFFFFF" fill-rule="nonzero"></path>
            </g>
        </g>
    </g>
</svg>