<?xml version="1.0" encoding="UTF-8"?>
<svg width="15px" height="15px" viewBox="0 0 15 15" version="1.1" xmlns="http://www.w3.org/2000/svg" xmlns:xlink="http://www.w3.org/1999/xlink">
    <title>whatsapp-white</title>
    <defs>
        <filter id="filter-1">
            <feColorMatrix in="SourceGraphic" type="matrix" values="0 0 0 0 1.000000 0 0 0 0 1.000000 0 0 0 0 1.000000 0 0 0 1.000000 0"></feColorMatrix>
        </filter>
    </defs>
    <g id="website" stroke="none" stroke-width="1" fill="none" fill-rule="evenodd">
        <g id="11a.-daftar-master-stokis" transform="translate(-926.000000, -1359.000000)">
            <g id="Group-7" transform="translate(775.000000, 892.000000)">
                <g id="stokis-1-copy-2" transform="translate(36.000000, 58.000000)">
                    <g id="Group-5" transform="translate(15.000000, 253.000000)">
                        <g id="whatsapp-white" transform="translate(80.000000, 144.000000)" filter="url(#filter-1)">
                            <g transform="translate(20.000000, 12.000000)">
                                <path d="M10.941875,8.94214515 L10.93625,8.98902015 C9.561875,8.30402015 9.418125,8.21277015 9.240625,8.47902015 C9.1175,8.66339515 8.75875,9.08152015 8.650625,9.20527015 C8.54125,9.32714515 8.4325,9.33652015 8.246875,9.25214515 C8.059375,9.15839515 7.4575,8.96152015 6.745,8.32402015 C6.19,7.82714515 5.8175,7.21777015 5.7075,7.03027015 C5.524375,6.71402015 5.9075,6.66902015 6.25625,6.00902015 C6.31875,5.87777015 6.286875,5.77464515 6.240625,5.68152015 C6.19375,5.58777015 5.820625,4.66902015 5.664375,4.30277015 C5.514375,3.93777015 5.36,3.98402015 5.244375,3.98402015 C4.884375,3.95277015 4.62125,3.95777015 4.389375,4.19902015 C3.380625,5.30777015 3.635,6.45152015 4.498125,7.66777015 C6.194375,9.88777015 7.098125,10.2965201 8.750625,10.8640201 C9.196875,11.0058951 9.60375,10.9858951 9.925625,10.9396451 C10.284375,10.8827701 11.03,10.4890201 11.185625,10.0483951 C11.345,9.60777015 11.345,9.24214515 11.298125,9.15777015 C11.251875,9.07339515 11.129375,9.02652015 10.941875,8.94214515 L10.941875,8.94214515 Z" id="Path" fill="#000000" fill-rule="nonzero"></path>
                                <path d="M12.825,2.15589515 C8.019375,-2.48972985 0.06625,0.879645149 0.063125,7.43339515 C0.063125,8.74339515 0.40625,10.0208951 1.06,11.1490201 L-1.66533454e-15,15.0002701 L3.959375,13.9677701 C8.9,16.6365201 14.9975,13.0927701 15,7.43714515 C15,5.45214515 14.225,3.58402015 12.815625,2.18027015 L12.825,2.15589515 Z M13.75125,7.41652015 C13.7475,12.1871451 8.510625,15.1665201 4.36875,12.7315201 L4.14375,12.5977701 L1.8,13.2071451 L2.428125,10.9290201 L2.27875,10.6946451 C-0.29875,6.59152015 2.6625,1.22902015 7.545,1.22902015 C9.20375,1.22902015 10.760625,1.87589515 11.933125,3.04777015 C13.105,4.20964515 13.75125,5.76652015 13.75125,7.41652015 Z" id="Shape" fill="#000000" fill-rule="nonzero"></path>
                            </g>
                        </g>
                    </g>
                </g>
            </g>
        </g>
    </g>
</svg>