<?xml version="1.0" encoding="UTF-8"?>
<svg width="725px" height="768px" viewBox="0 0 725 768" version="1.1" xmlns="http://www.w3.org/2000/svg" xmlns:xlink="http://www.w3.org/1999/xlink">
    <title>bg-section-1</title>
    <defs>
        <rect id="path-1" x="0" y="0" width="725" height="768"></rect>
    </defs>
    <g id="website" stroke="none" stroke-width="1" fill="none" fill-rule="evenodd">
        <g id="2a.-produk" transform="translate(-641.000000, 0.000000)">
            <g id="bg-section-1" transform="translate(641.000000, 0.000000)">
                <mask id="mask-2" fill="white">
                    <use xlink:href="#path-1"></use>
                </mask>
                <g id="Mask"></g>
                <g mask="url(#mask-2)">
                    <g transform="translate(-35.658650, -78.000000)">
                        <path d="M95.2092179,198.055762 L119.871677,247.120571 C125.328449,257.976563 120.951516,271.200671 110.095524,276.657443 C107.029878,278.198392 103.646302,279.00093 100.215164,279.00093 L51.1504011,279.00093 C39.0001366,279.00093 29.1504011,269.151195 29.1504011,257.00093 C29.1504011,253.601321 29.9382634,250.247963 31.4521545,247.204039 L55.8544585,198.13923 C61.2651322,187.260189 74.4705553,182.827201 85.3495965,188.237875 C89.6117456,190.357648 93.0713847,193.802643 95.2092179,198.055762 Z" id="Rectangle-4" fill="#29BB89" transform="translate(75.767191, 218.871705) rotate(342.000000) translate(-75.767191, -218.871705) "></path>
                        <path d="M227.726591,22.7595559 C381.898614,-80.4464431 957.048449,194.907197 941.343141,297.963839 C925.637832,401.02048 861.922654,828.739861 706.608746,844.729894 C551.294838,860.719927 185.028881,723.017574 72.1579553,584.580788 C-40.7129709,446.144002 73.5545683,125.965555 227.726591,22.7595559 Z" id="Rectangle-3" fill="#DDFFEB" opacity="0.900000036"></path>
                    </g>
                </g>
            </g>
        </g>
    </g>
</svg>