<?xml version="1.0" encoding="UTF-8"?>
<svg width="73px" height="50px" viewBox="0 0 73 50" version="1.1" xmlns="http://www.w3.org/2000/svg" xmlns:xlink="http://www.w3.org/1999/xlink">
    <title>play-button-youtube</title>
    <g id="website" stroke="none" stroke-width="1" fill="none" fill-rule="evenodd">
        <g id="7e.-gallery" transform="translate(-647.000000, -359.000000)" fill-rule="nonzero">
            <g id="pengumuman-1" transform="translate(239.658695, 126.000000)">
                <g id="play-button-youtube" transform="translate(408.000000, 233.000000)">
                    <path d="M69.9407227,7.82373709 C69.1174868,4.76452509 66.705531,2.35311427 63.646864,1.5293336 C58.0585582,0 35.705335,0 35.705335,0 C35.705335,0 13.3526566,0 7.76435082,1.47103692 C4.76452509,2.2942728 2.29372786,4.76506989 1.47049212,7.82373709 C0,13.4114981 0,25 0,25 C0,25 0,36.6467986 1.47049212,42.1762629 C2.2942728,45.23493 4.70568362,47.6468857 7.76489561,48.4706664 C13.4114981,50 35.7058798,50 35.7058798,50 C35.7058798,50 58.0585582,50 63.646864,48.5289631 C66.706076,47.7057272 69.1174868,45.2937716 69.9412675,42.2351044 C71.4120598,36.6467986 71.4120598,25.0588414 71.4120598,25.0588414 C71.4120598,25.0588414 71.4706011,13.4114981 69.9407227,7.82373709 Z" id="Path" fill="#FF0000"></path>
                    <polygon id="Path" fill="#FFFFFF" points="28.5882404 35.7058798 47.1761539 25.0000001 28.5882404 14.2941202"></polygon>
                </g>
            </g>
        </g>
    </g>
</svg>