<?xml version="1.0" encoding="UTF-8"?>
<svg width="30px" height="30px" viewBox="0 0 30 30" version="1.1" xmlns="http://www.w3.org/2000/svg" xmlns:xlink="http://www.w3.org/1999/xlink">
    <title>next-grey</title>
    <defs>
        <filter id="filter-1">
            <feColorMatrix in="SourceGraphic" type="matrix" values="0 0 0 0 0.841287 0 0 0 0 0.841287 0 0 0 0 0.841287 0 0 0 1.000000 0"></feColorMatrix>
        </filter>
    </defs>
    <g id="website" stroke="none" stroke-width="1" fill="none" fill-rule="evenodd">
        <g id="next-grey" transform="translate(-1229.000000, -937.000000)" filter="url(#filter-1)">
            <g transform="translate(1229.000000, 937.000000)">
                <path d="M15,0 C6.72873047,0 0,6.72873047 0,15 C0,23.2712695 6.72873047,30 15,30 C23.2712695,30 30,23.2712695 30,15 C30,6.72873047 23.2712695,0 15,0 Z M19.6337695,15.8837695 L13.38375,22.1337305 C13.14,22.3774805 12.8200195,22.5 12.4999805,22.5 C12.18,22.5 11.8599609,22.3774805 11.6162109,22.1337305 C11.1274805,21.645 11.1274805,20.8549805 11.6162109,20.36625 L16.9825195,15 L11.6162695,9.63375 C11.1275391,9.14501953 11.1275391,8.355 11.6162695,7.86626953 C12.105,7.37753906 12.8950195,7.37753906 13.38375,7.86626953 L19.6337695,14.1162891 C20.1225,14.6050195 20.1225,15.3949805 19.6337695,15.8837695 Z" id="Shape" fill="#000000" fill-rule="nonzero"></path>
            </g>
        </g>
    </g>
</svg>