<?xml version="1.0" encoding="UTF-8"?>
<svg width="1366px" height="250px" viewBox="0 0 1366 250" version="1.1" xmlns="http://www.w3.org/2000/svg" xmlns:xlink="http://www.w3.org/1999/xlink">
    <title>bg-cta</title>
    <defs>
        <rect id="path-1" x="0" y="0" width="1366" height="250"></rect>
    </defs>
    <g id="website" stroke="none" stroke-width="1" fill="none" fill-rule="evenodd">
        <g id="10a.-daftar-stokis" transform="translate(0.000000, -1688.000000)">
            <g id="bg-cta" transform="translate(0.000000, 1688.000000)">
                <mask id="mask-2" fill="white">
                    <use xlink:href="#path-1"></use>
                </mask>
                <use id="BG" fill="#29BB89" xlink:href="#path-1"></use>
                <g id="Group" opacity="0.131766183" mask="url(#mask-2)">
                    <g transform="translate(294.543750, 242.745763)">
                        <g id="Group-79">
                            <path d="M3.39663978,1.70380661 C3.39663978,2.644901 2.6363837,3.40761323 1.69758817,3.40761323 C0.760256083,3.40761323 0,2.644901 0,1.70380661 C0,0.762712224 0.760256083,0 1.69758817,0 C2.6363837,0 3.39663978,0.762712224 3.39663978,1.70380661" id="Fill-1" fill="#1B8BC8"></path>
                            <path d="M13.5865591,1.70380661 C13.5865591,2.644901 12.8263031,3.40761323 11.8878734,3.40761323 C10.9501754,3.40761323 10.1899194,2.644901 10.1899194,1.70380661 C10.1899194,0.762712224 10.9501754,0 11.8878734,0 C12.8263031,0 13.5865591,0.762712224 13.5865591,1.70380661" id="Fill-3" fill="#1B8BC8"></path>
                            <path d="M22.9273185,1.70380661 C22.9273185,2.644901 22.1668987,3.40761323 21.2289987,3.40761323 C20.2907327,3.40761323 19.5306788,2.644901 19.5306788,1.70380661 C19.5306788,0.762712224 20.2907327,0 21.2289987,0 C22.1668987,0 22.9273185,0.762712224 22.9273185,1.70380661" id="Fill-5" fill="#1B8BC8"></path>
                            <path d="M33.1172379,1.70380661 C33.1172379,2.644901 32.356818,3.40761323 31.4181861,3.40761323 C30.4802861,3.40761323 29.7205981,2.644901 29.7205981,1.70380661 C29.7205981,0.762712224 30.4802861,0 31.4181861,0 C32.356818,0 33.1172379,0.762712224 33.1172379,1.70380661" id="Fill-7" fill="#1B8BC8"></path>
                            <path d="M42.4579973,1.70380661 C42.4579973,2.644901 41.6981071,3.40761323 40.7593116,3.40761323 C39.8216136,3.40761323 39.0613575,2.644901 39.0613575,1.70380661 C39.0613575,0.762712224 39.8216136,0 40.7593116,0 C41.6981071,0 42.4579973,0.762712224 42.4579973,1.70380661" id="Fill-9" fill="#1B8BC8"></path>
                            <path d="M52.6479167,1.70380661 C52.6479167,2.644901 51.8880264,3.40761323 50.9492309,3.40761323 C50.011533,3.40761323 49.2512769,2.644901 49.2512769,1.70380661 C49.2512769,0.762712224 50.011533,0 50.9492309,0 C51.8880264,0 52.6479167,0.762712224 52.6479167,1.70380661" id="Fill-9-Copy" fill="#1B8BC8"></path>
                        </g>
                        <g id="Group-79-Copy-3" transform="translate(59.762500, 0.000000)">
                            <path d="M3.39663978,1.70380661 C3.39663978,2.644901 2.6363837,3.40761323 1.69758817,3.40761323 C0.760256083,3.40761323 0,2.644901 0,1.70380661 C0,0.762712224 0.760256083,0 1.69758817,0 C2.6363837,0 3.39663978,0.762712224 3.39663978,1.70380661" id="Fill-1" fill="#1B8BC8"></path>
                            <path d="M13.5865591,1.70380661 C13.5865591,2.644901 12.8263031,3.40761323 11.8878734,3.40761323 C10.9501754,3.40761323 10.1899194,2.644901 10.1899194,1.70380661 C10.1899194,0.762712224 10.9501754,0 11.8878734,0 C12.8263031,0 13.5865591,0.762712224 13.5865591,1.70380661" id="Fill-3" fill="#1B8BC8"></path>
                            <path d="M22.9273185,1.70380661 C22.9273185,2.644901 22.1668987,3.40761323 21.2289987,3.40761323 C20.2907327,3.40761323 19.5306788,2.644901 19.5306788,1.70380661 C19.5306788,0.762712224 20.2907327,0 21.2289987,0 C22.1668987,0 22.9273185,0.762712224 22.9273185,1.70380661" id="Fill-5" fill="#1B8BC8"></path>
                            <path d="M33.1172379,1.70380661 C33.1172379,2.644901 32.356818,3.40761323 31.4181861,3.40761323 C30.4802861,3.40761323 29.7205981,2.644901 29.7205981,1.70380661 C29.7205981,0.762712224 30.4802861,0 31.4181861,0 C32.356818,0 33.1172379,0.762712224 33.1172379,1.70380661" id="Fill-7" fill="#1B8BC8"></path>
                            <path d="M42.4579973,1.70380661 C42.4579973,2.644901 41.6981071,3.40761323 40.7593116,3.40761323 C39.8216136,3.40761323 39.0613575,2.644901 39.0613575,1.70380661 C39.0613575,0.762712224 39.8216136,0 40.7593116,0 C41.6981071,0 42.4579973,0.762712224 42.4579973,1.70380661" id="Fill-9" fill="#1B8BC8"></path>
                            <path d="M52.6479167,1.70380661 C52.6479167,2.644901 51.8880264,3.40761323 50.9492309,3.40761323 C50.011533,3.40761323 49.2512769,2.644901 49.2512769,1.70380661 C49.2512769,0.762712224 50.011533,0 50.9492309,0 C51.8880264,0 52.6479167,0.762712224 52.6479167,1.70380661" id="Fill-9-Copy" fill="#1B8BC8"></path>
                        </g>
                    </g>
                </g>
                <path d="M895.014583,357.937103 C897.132284,355.729211 935.487113,299.394597 1023.12433,301.015757 C1081.54914,302.096531 1121.35838,278.876589 1142.55206,231.355932" id="Path-2" stroke="#FFFFFF" stroke-width="6" opacity="0.0382021949" stroke-linecap="round" mask="url(#mask-2)"></path>
                <path d="M175.88584,116.798596 C213.963683,106.267082 237.296366,113.346796 245.883891,138.037738 C258.765177,175.074153 292.578902,155.255959 312.858244,160.430879 C333.137585,165.6058 335.802775,188.810911 337.831543,201.338056" id="Path-3" stroke="#FFFFFF" stroke-width="5" opacity="0.100655692" stroke-linecap="round" mask="url(#mask-2)"></path>
                <ellipse id="Oval" stroke="#FFFFFF" stroke-width="5" opacity="0.0407598586" mask="url(#mask-2)" cx="866.200521" cy="200.389831" rx="9.6046875" ry="9.61016949"></ellipse>
                <path d="M431.220185,75.53355 L448.987722,75.5360851 L448.990257,93.3148756 L431.22272,93.3123404 L431.220185,75.53355 Z" id="Rectangle" stroke="#FFFFFF" stroke-width="5" opacity="0.122791109" mask="url(#mask-2)" transform="translate(440.105221, 84.424213) rotate(15.000000) translate(-440.105221, -84.424213) "></path>
            </g>
        </g>
    </g>
</svg>